G04 #@! TF.GenerationSoftware,KiCad,Pcbnew,(5.1.9-0-10_14)*
G04 #@! TF.CreationDate,2021-03-21T12:23:30-04:00*
G04 #@! TF.ProjectId,Antoinette_PowerBank,416e746f-696e-4657-9474-655f506f7765,rev?*
G04 #@! TF.SameCoordinates,Original*
G04 #@! TF.FileFunction,Legend,Top*
G04 #@! TF.FilePolarity,Positive*
%FSLAX46Y46*%
G04 Gerber Fmt 4.6, Leading zero omitted, Abs format (unit mm)*
G04 Created by KiCad (PCBNEW (5.1.9-0-10_14)) date 2021-03-21 12:23:30*
%MOMM*%
%LPD*%
G01*
G04 APERTURE LIST*
%ADD10C,0.125000*%
%ADD11C,0.150000*%
%ADD12C,0.120000*%
G04 APERTURE END LIST*
D10*
X90747809Y-55971142D02*
X90785904Y-55899714D01*
X90785904Y-55780666D01*
X90747809Y-55733047D01*
X90709714Y-55709238D01*
X90633523Y-55685428D01*
X90557333Y-55685428D01*
X90481142Y-55709238D01*
X90443047Y-55733047D01*
X90404952Y-55780666D01*
X90366857Y-55875904D01*
X90328761Y-55923523D01*
X90290666Y-55947333D01*
X90214476Y-55971142D01*
X90138285Y-55971142D01*
X90062095Y-55947333D01*
X90024000Y-55923523D01*
X89985904Y-55875904D01*
X89985904Y-55756857D01*
X90024000Y-55685428D01*
X90252571Y-55518761D02*
X90785904Y-55423523D01*
X90404952Y-55328285D01*
X90785904Y-55233047D01*
X90252571Y-55137809D01*
X90785904Y-54947333D02*
X90252571Y-54947333D01*
X89985904Y-54947333D02*
X90024000Y-54971142D01*
X90062095Y-54947333D01*
X90024000Y-54923523D01*
X89985904Y-54947333D01*
X90062095Y-54947333D01*
X90252571Y-54780666D02*
X90252571Y-54590190D01*
X89985904Y-54709238D02*
X90671619Y-54709238D01*
X90747809Y-54685428D01*
X90785904Y-54637809D01*
X90785904Y-54590190D01*
X90747809Y-54209238D02*
X90785904Y-54256857D01*
X90785904Y-54352095D01*
X90747809Y-54399714D01*
X90709714Y-54423523D01*
X90633523Y-54447333D01*
X90404952Y-54447333D01*
X90328761Y-54423523D01*
X90290666Y-54399714D01*
X90252571Y-54352095D01*
X90252571Y-54256857D01*
X90290666Y-54209238D01*
X90785904Y-53994952D02*
X89985904Y-53994952D01*
X90785904Y-53780666D02*
X90366857Y-53780666D01*
X90290666Y-53804476D01*
X90252571Y-53852095D01*
X90252571Y-53923523D01*
X90290666Y-53971142D01*
X90328761Y-53994952D01*
X90303357Y-48279714D02*
X90341452Y-48208285D01*
X90379547Y-48184476D01*
X90455738Y-48160666D01*
X90570023Y-48160666D01*
X90646214Y-48184476D01*
X90684309Y-48208285D01*
X90722404Y-48255904D01*
X90722404Y-48446380D01*
X89922404Y-48446380D01*
X89922404Y-48279714D01*
X89960500Y-48232095D01*
X89998595Y-48208285D01*
X90074785Y-48184476D01*
X90150976Y-48184476D01*
X90227166Y-48208285D01*
X90265261Y-48232095D01*
X90303357Y-48279714D01*
X90303357Y-48446380D01*
X90722404Y-47732095D02*
X90303357Y-47732095D01*
X90227166Y-47755904D01*
X90189071Y-47803523D01*
X90189071Y-47898761D01*
X90227166Y-47946380D01*
X90684309Y-47732095D02*
X90722404Y-47779714D01*
X90722404Y-47898761D01*
X90684309Y-47946380D01*
X90608119Y-47970190D01*
X90531928Y-47970190D01*
X90455738Y-47946380D01*
X90417642Y-47898761D01*
X90417642Y-47779714D01*
X90379547Y-47732095D01*
X90189071Y-47565428D02*
X90189071Y-47374952D01*
X89922404Y-47494000D02*
X90608119Y-47494000D01*
X90684309Y-47470190D01*
X90722404Y-47422571D01*
X90722404Y-47374952D01*
X90189071Y-47279714D02*
X90189071Y-47089238D01*
X89922404Y-47208285D02*
X90608119Y-47208285D01*
X90684309Y-47184476D01*
X90722404Y-47136857D01*
X90722404Y-47089238D01*
X90684309Y-46732095D02*
X90722404Y-46779714D01*
X90722404Y-46874952D01*
X90684309Y-46922571D01*
X90608119Y-46946380D01*
X90303357Y-46946380D01*
X90227166Y-46922571D01*
X90189071Y-46874952D01*
X90189071Y-46779714D01*
X90227166Y-46732095D01*
X90303357Y-46708285D01*
X90379547Y-46708285D01*
X90455738Y-46946380D01*
X90722404Y-46494000D02*
X90189071Y-46494000D01*
X90341452Y-46494000D02*
X90265261Y-46470190D01*
X90227166Y-46446380D01*
X90189071Y-46398761D01*
X90189071Y-46351142D01*
X90189071Y-46232095D02*
X90722404Y-46113047D01*
X90189071Y-45994000D02*
X90722404Y-46113047D01*
X90912880Y-46160666D01*
X90950976Y-46184476D01*
X90989071Y-46232095D01*
X83050466Y-57293342D02*
X83050466Y-57055247D01*
X83250466Y-57340961D02*
X82550466Y-57174295D01*
X83250466Y-57007628D01*
X82783800Y-56840961D02*
X83250466Y-56840961D01*
X82850466Y-56840961D02*
X82817133Y-56817152D01*
X82783800Y-56769533D01*
X82783800Y-56698104D01*
X82817133Y-56650485D01*
X82883800Y-56626676D01*
X83250466Y-56626676D01*
X82783800Y-56460009D02*
X82783800Y-56269533D01*
X82550466Y-56388580D02*
X83150466Y-56388580D01*
X83217133Y-56364771D01*
X83250466Y-56317152D01*
X83250466Y-56269533D01*
X83250466Y-56031438D02*
X83217133Y-56079057D01*
X83183800Y-56102866D01*
X83117133Y-56126676D01*
X82917133Y-56126676D01*
X82850466Y-56102866D01*
X82817133Y-56079057D01*
X82783800Y-56031438D01*
X82783800Y-55960009D01*
X82817133Y-55912390D01*
X82850466Y-55888580D01*
X82917133Y-55864771D01*
X83117133Y-55864771D01*
X83183800Y-55888580D01*
X83217133Y-55912390D01*
X83250466Y-55960009D01*
X83250466Y-56031438D01*
X83250466Y-55650485D02*
X82783800Y-55650485D01*
X82550466Y-55650485D02*
X82583800Y-55674295D01*
X82617133Y-55650485D01*
X82583800Y-55626676D01*
X82550466Y-55650485D01*
X82617133Y-55650485D01*
X82783800Y-55412390D02*
X83250466Y-55412390D01*
X82850466Y-55412390D02*
X82817133Y-55388580D01*
X82783800Y-55340961D01*
X82783800Y-55269533D01*
X82817133Y-55221914D01*
X82883800Y-55198104D01*
X83250466Y-55198104D01*
X83217133Y-54769533D02*
X83250466Y-54817152D01*
X83250466Y-54912390D01*
X83217133Y-54960009D01*
X83150466Y-54983819D01*
X82883800Y-54983819D01*
X82817133Y-54960009D01*
X82783800Y-54912390D01*
X82783800Y-54817152D01*
X82817133Y-54769533D01*
X82883800Y-54745723D01*
X82950466Y-54745723D01*
X83017133Y-54983819D01*
X82783800Y-54602866D02*
X82783800Y-54412390D01*
X82550466Y-54531438D02*
X83150466Y-54531438D01*
X83217133Y-54507628D01*
X83250466Y-54460009D01*
X83250466Y-54412390D01*
X82783800Y-54317152D02*
X82783800Y-54126676D01*
X82550466Y-54245723D02*
X83150466Y-54245723D01*
X83217133Y-54221914D01*
X83250466Y-54174295D01*
X83250466Y-54126676D01*
X83217133Y-53769533D02*
X83250466Y-53817152D01*
X83250466Y-53912390D01*
X83217133Y-53960009D01*
X83150466Y-53983819D01*
X82883800Y-53983819D01*
X82817133Y-53960009D01*
X82783800Y-53912390D01*
X82783800Y-53817152D01*
X82817133Y-53769533D01*
X82883800Y-53745723D01*
X82950466Y-53745723D01*
X83017133Y-53983819D01*
X82550466Y-53221914D02*
X82550466Y-52936200D01*
X83250466Y-53079057D02*
X82550466Y-53079057D01*
X83250466Y-52555247D02*
X82883800Y-52555247D01*
X82817133Y-52579057D01*
X82783800Y-52626676D01*
X82783800Y-52721914D01*
X82817133Y-52769533D01*
X83217133Y-52555247D02*
X83250466Y-52602866D01*
X83250466Y-52721914D01*
X83217133Y-52769533D01*
X83150466Y-52793342D01*
X83083800Y-52793342D01*
X83017133Y-52769533D01*
X82983800Y-52721914D01*
X82983800Y-52602866D01*
X82950466Y-52555247D01*
X82783800Y-52317152D02*
X83250466Y-52317152D01*
X82850466Y-52317152D02*
X82817133Y-52293342D01*
X82783800Y-52245723D01*
X82783800Y-52174295D01*
X82817133Y-52126676D01*
X82883800Y-52102866D01*
X83250466Y-52102866D01*
X83725466Y-55400485D02*
X84425466Y-55233819D01*
X83725466Y-55067152D01*
X84358800Y-54900485D02*
X84392133Y-54876676D01*
X84425466Y-54900485D01*
X84392133Y-54924295D01*
X84358800Y-54900485D01*
X84425466Y-54900485D01*
X83792133Y-54305247D02*
X83758800Y-54281438D01*
X83725466Y-54233819D01*
X83725466Y-54114771D01*
X83758800Y-54067152D01*
X83792133Y-54043342D01*
X83858800Y-54019533D01*
X83925466Y-54019533D01*
X84025466Y-54043342D01*
X84425466Y-54329057D01*
X84425466Y-54019533D01*
X85600466Y-56960009D02*
X84900466Y-56960009D01*
X84900466Y-56769533D01*
X84933800Y-56721914D01*
X84967133Y-56698104D01*
X85033800Y-56674295D01*
X85133800Y-56674295D01*
X85200466Y-56698104D01*
X85233800Y-56721914D01*
X85267133Y-56769533D01*
X85267133Y-56960009D01*
X85600466Y-56388580D02*
X85567133Y-56436200D01*
X85533800Y-56460009D01*
X85467133Y-56483819D01*
X85267133Y-56483819D01*
X85200466Y-56460009D01*
X85167133Y-56436200D01*
X85133800Y-56388580D01*
X85133800Y-56317152D01*
X85167133Y-56269533D01*
X85200466Y-56245723D01*
X85267133Y-56221914D01*
X85467133Y-56221914D01*
X85533800Y-56245723D01*
X85567133Y-56269533D01*
X85600466Y-56317152D01*
X85600466Y-56388580D01*
X85133800Y-56055247D02*
X85600466Y-55960009D01*
X85267133Y-55864771D01*
X85600466Y-55769533D01*
X85133800Y-55674295D01*
X85567133Y-55293342D02*
X85600466Y-55340961D01*
X85600466Y-55436200D01*
X85567133Y-55483819D01*
X85500466Y-55507628D01*
X85233800Y-55507628D01*
X85167133Y-55483819D01*
X85133800Y-55436200D01*
X85133800Y-55340961D01*
X85167133Y-55293342D01*
X85233800Y-55269533D01*
X85300466Y-55269533D01*
X85367133Y-55507628D01*
X85600466Y-55055247D02*
X85133800Y-55055247D01*
X85267133Y-55055247D02*
X85200466Y-55031438D01*
X85167133Y-55007628D01*
X85133800Y-54960009D01*
X85133800Y-54912390D01*
X85233800Y-54198104D02*
X85267133Y-54126676D01*
X85300466Y-54102866D01*
X85367133Y-54079057D01*
X85467133Y-54079057D01*
X85533800Y-54102866D01*
X85567133Y-54126676D01*
X85600466Y-54174295D01*
X85600466Y-54364771D01*
X84900466Y-54364771D01*
X84900466Y-54198104D01*
X84933800Y-54150485D01*
X84967133Y-54126676D01*
X85033800Y-54102866D01*
X85100466Y-54102866D01*
X85167133Y-54126676D01*
X85200466Y-54150485D01*
X85233800Y-54198104D01*
X85233800Y-54364771D01*
X85600466Y-53650485D02*
X85233800Y-53650485D01*
X85167133Y-53674295D01*
X85133800Y-53721914D01*
X85133800Y-53817152D01*
X85167133Y-53864771D01*
X85567133Y-53650485D02*
X85600466Y-53698104D01*
X85600466Y-53817152D01*
X85567133Y-53864771D01*
X85500466Y-53888580D01*
X85433800Y-53888580D01*
X85367133Y-53864771D01*
X85333800Y-53817152D01*
X85333800Y-53698104D01*
X85300466Y-53650485D01*
X85133800Y-53412390D02*
X85600466Y-53412390D01*
X85200466Y-53412390D02*
X85167133Y-53388580D01*
X85133800Y-53340961D01*
X85133800Y-53269533D01*
X85167133Y-53221914D01*
X85233800Y-53198104D01*
X85600466Y-53198104D01*
X85600466Y-52960009D02*
X84900466Y-52960009D01*
X85333800Y-52912390D02*
X85600466Y-52769533D01*
X85133800Y-52769533D02*
X85400466Y-52960009D01*
X86775466Y-57602866D02*
X86075466Y-57602866D01*
X86575466Y-57436200D01*
X86075466Y-57269533D01*
X86775466Y-57269533D01*
X86775466Y-56817152D02*
X86408800Y-56817152D01*
X86342133Y-56840961D01*
X86308800Y-56888580D01*
X86308800Y-56983819D01*
X86342133Y-57031438D01*
X86742133Y-56817152D02*
X86775466Y-56864771D01*
X86775466Y-56983819D01*
X86742133Y-57031438D01*
X86675466Y-57055247D01*
X86608800Y-57055247D01*
X86542133Y-57031438D01*
X86508800Y-56983819D01*
X86508800Y-56864771D01*
X86475466Y-56817152D01*
X86775466Y-56579057D02*
X86308800Y-56579057D01*
X86442133Y-56579057D02*
X86375466Y-56555247D01*
X86342133Y-56531438D01*
X86308800Y-56483819D01*
X86308800Y-56436200D01*
X86742133Y-56055247D02*
X86775466Y-56102866D01*
X86775466Y-56198104D01*
X86742133Y-56245723D01*
X86708800Y-56269533D01*
X86642133Y-56293342D01*
X86442133Y-56293342D01*
X86375466Y-56269533D01*
X86342133Y-56245723D01*
X86308800Y-56198104D01*
X86308800Y-56102866D01*
X86342133Y-56055247D01*
X86775466Y-55840961D02*
X86075466Y-55840961D01*
X86775466Y-55626676D02*
X86408800Y-55626676D01*
X86342133Y-55650485D01*
X86308800Y-55698104D01*
X86308800Y-55769533D01*
X86342133Y-55817152D01*
X86375466Y-55840961D01*
X86775466Y-54745723D02*
X86775466Y-55031438D01*
X86775466Y-54888580D02*
X86075466Y-54888580D01*
X86175466Y-54936200D01*
X86242133Y-54983819D01*
X86275466Y-55031438D01*
X86775466Y-54507628D02*
X86775466Y-54412390D01*
X86742133Y-54364771D01*
X86708800Y-54340961D01*
X86608800Y-54293342D01*
X86475466Y-54269533D01*
X86208800Y-54269533D01*
X86142133Y-54293342D01*
X86108800Y-54317152D01*
X86075466Y-54364771D01*
X86075466Y-54460009D01*
X86108800Y-54507628D01*
X86142133Y-54531438D01*
X86208800Y-54555247D01*
X86375466Y-54555247D01*
X86442133Y-54531438D01*
X86475466Y-54507628D01*
X86508800Y-54460009D01*
X86508800Y-54364771D01*
X86475466Y-54317152D01*
X86442133Y-54293342D01*
X86375466Y-54269533D01*
X86742133Y-54031438D02*
X86775466Y-54031438D01*
X86842133Y-54055247D01*
X86875466Y-54079057D01*
X86142133Y-53460009D02*
X86108800Y-53436200D01*
X86075466Y-53388580D01*
X86075466Y-53269533D01*
X86108800Y-53221914D01*
X86142133Y-53198104D01*
X86208800Y-53174295D01*
X86275466Y-53174295D01*
X86375466Y-53198104D01*
X86775466Y-53483819D01*
X86775466Y-53174295D01*
X86075466Y-52864771D02*
X86075466Y-52817152D01*
X86108800Y-52769533D01*
X86142133Y-52745723D01*
X86208800Y-52721914D01*
X86342133Y-52698104D01*
X86508800Y-52698104D01*
X86642133Y-52721914D01*
X86708800Y-52745723D01*
X86742133Y-52769533D01*
X86775466Y-52817152D01*
X86775466Y-52864771D01*
X86742133Y-52912390D01*
X86708800Y-52936200D01*
X86642133Y-52960009D01*
X86508800Y-52983819D01*
X86342133Y-52983819D01*
X86208800Y-52960009D01*
X86142133Y-52936200D01*
X86108800Y-52912390D01*
X86075466Y-52864771D01*
X86142133Y-52507628D02*
X86108800Y-52483819D01*
X86075466Y-52436200D01*
X86075466Y-52317152D01*
X86108800Y-52269533D01*
X86142133Y-52245723D01*
X86208800Y-52221914D01*
X86275466Y-52221914D01*
X86375466Y-52245723D01*
X86775466Y-52531438D01*
X86775466Y-52221914D01*
X86775466Y-51745723D02*
X86775466Y-52031438D01*
X86775466Y-51888580D02*
X86075466Y-51888580D01*
X86175466Y-51936200D01*
X86242133Y-51983819D01*
X86275466Y-52031438D01*
D11*
X76262666Y-46934400D02*
X76262666Y-47267733D01*
X75562666Y-47267733D01*
X75896000Y-46467733D02*
X75929333Y-46367733D01*
X75962666Y-46334400D01*
X76029333Y-46301066D01*
X76129333Y-46301066D01*
X76196000Y-46334400D01*
X76229333Y-46367733D01*
X76262666Y-46434400D01*
X76262666Y-46701066D01*
X75562666Y-46701066D01*
X75562666Y-46467733D01*
X75596000Y-46401066D01*
X75629333Y-46367733D01*
X75696000Y-46334400D01*
X75762666Y-46334400D01*
X75829333Y-46367733D01*
X75862666Y-46401066D01*
X75896000Y-46467733D01*
X75896000Y-46701066D01*
X76262666Y-46001066D02*
X75562666Y-46001066D01*
D10*
X75747071Y-40270785D02*
X76547071Y-40270785D01*
X75785166Y-40270785D02*
X75747071Y-40223166D01*
X75747071Y-40127928D01*
X75785166Y-40080309D01*
X75823261Y-40056500D01*
X75899452Y-40032690D01*
X76128023Y-40032690D01*
X76204214Y-40056500D01*
X76242309Y-40080309D01*
X76280404Y-40127928D01*
X76280404Y-40223166D01*
X76242309Y-40270785D01*
X76280404Y-39746976D02*
X76242309Y-39794595D01*
X76204214Y-39818404D01*
X76128023Y-39842214D01*
X75899452Y-39842214D01*
X75823261Y-39818404D01*
X75785166Y-39794595D01*
X75747071Y-39746976D01*
X75747071Y-39675547D01*
X75785166Y-39627928D01*
X75823261Y-39604119D01*
X75899452Y-39580309D01*
X76128023Y-39580309D01*
X76204214Y-39604119D01*
X76242309Y-39627928D01*
X76280404Y-39675547D01*
X76280404Y-39746976D01*
X75747071Y-39413642D02*
X76280404Y-39318404D01*
X75899452Y-39223166D01*
X76280404Y-39127928D01*
X75747071Y-39032690D01*
X76242309Y-38651738D02*
X76280404Y-38699357D01*
X76280404Y-38794595D01*
X76242309Y-38842214D01*
X76166119Y-38866023D01*
X75861357Y-38866023D01*
X75785166Y-38842214D01*
X75747071Y-38794595D01*
X75747071Y-38699357D01*
X75785166Y-38651738D01*
X75861357Y-38627928D01*
X75937547Y-38627928D01*
X76013738Y-38866023D01*
X76280404Y-38413642D02*
X75747071Y-38413642D01*
X75899452Y-38413642D02*
X75823261Y-38389833D01*
X75785166Y-38366023D01*
X75747071Y-38318404D01*
X75747071Y-38270785D01*
X77605404Y-39437452D02*
X77605404Y-39675547D01*
X76805404Y-39675547D01*
X77186357Y-39270785D02*
X77186357Y-39104119D01*
X77605404Y-39032690D02*
X77605404Y-39270785D01*
X76805404Y-39270785D01*
X76805404Y-39032690D01*
X77605404Y-38818404D02*
X76805404Y-38818404D01*
X76805404Y-38699357D01*
X76843500Y-38627928D01*
X76919690Y-38580309D01*
X76995880Y-38556500D01*
X77148261Y-38532690D01*
X77262547Y-38532690D01*
X77414928Y-38556500D01*
X77491119Y-38580309D01*
X77567309Y-38627928D01*
X77605404Y-38699357D01*
X77605404Y-38818404D01*
D11*
X78593904Y-47802666D02*
X77793904Y-47802666D01*
X78365333Y-47536000D01*
X77793904Y-47269333D01*
X78593904Y-47269333D01*
X78517714Y-46431238D02*
X78555809Y-46469333D01*
X78593904Y-46583619D01*
X78593904Y-46659809D01*
X78555809Y-46774095D01*
X78479619Y-46850285D01*
X78403428Y-46888380D01*
X78251047Y-46926476D01*
X78136761Y-46926476D01*
X77984380Y-46888380D01*
X77908190Y-46850285D01*
X77832000Y-46774095D01*
X77793904Y-46659809D01*
X77793904Y-46583619D01*
X77832000Y-46469333D01*
X77870095Y-46431238D01*
X78593904Y-46088380D02*
X77793904Y-46088380D01*
X77793904Y-45783619D01*
X77832000Y-45707428D01*
X77870095Y-45669333D01*
X77946285Y-45631238D01*
X78060571Y-45631238D01*
X78136761Y-45669333D01*
X78174857Y-45707428D01*
X78212952Y-45783619D01*
X78212952Y-46088380D01*
D10*
X72205904Y-73247019D02*
X72853523Y-73247019D01*
X72929714Y-73208923D01*
X72967809Y-73170828D01*
X73005904Y-73094638D01*
X73005904Y-72942257D01*
X72967809Y-72866066D01*
X72929714Y-72827971D01*
X72853523Y-72789876D01*
X72205904Y-72789876D01*
X72967809Y-72447019D02*
X73005904Y-72332733D01*
X73005904Y-72142257D01*
X72967809Y-72066066D01*
X72929714Y-72027971D01*
X72853523Y-71989876D01*
X72777333Y-71989876D01*
X72701142Y-72027971D01*
X72663047Y-72066066D01*
X72624952Y-72142257D01*
X72586857Y-72294638D01*
X72548761Y-72370828D01*
X72510666Y-72408923D01*
X72434476Y-72447019D01*
X72358285Y-72447019D01*
X72282095Y-72408923D01*
X72244000Y-72370828D01*
X72205904Y-72294638D01*
X72205904Y-72104161D01*
X72244000Y-71989876D01*
X72586857Y-71380352D02*
X72624952Y-71266066D01*
X72663047Y-71227971D01*
X72739238Y-71189876D01*
X72853523Y-71189876D01*
X72929714Y-71227971D01*
X72967809Y-71266066D01*
X73005904Y-71342257D01*
X73005904Y-71647019D01*
X72205904Y-71647019D01*
X72205904Y-71380352D01*
X72244000Y-71304161D01*
X72282095Y-71266066D01*
X72358285Y-71227971D01*
X72434476Y-71227971D01*
X72510666Y-71266066D01*
X72548761Y-71304161D01*
X72586857Y-71380352D01*
X72586857Y-71647019D01*
X72701142Y-70847019D02*
X72701142Y-70237495D01*
X72777333Y-69894638D02*
X72777333Y-69513685D01*
X73005904Y-69970828D02*
X72205904Y-69704161D01*
X73005904Y-69437495D01*
X90328704Y-34536628D02*
X89528704Y-34536628D01*
X90100133Y-34369961D01*
X89528704Y-34203295D01*
X90328704Y-34203295D01*
X90328704Y-33965200D02*
X89795371Y-33965200D01*
X89528704Y-33965200D02*
X89566800Y-33989009D01*
X89604895Y-33965200D01*
X89566800Y-33941390D01*
X89528704Y-33965200D01*
X89604895Y-33965200D01*
X90290609Y-33512819D02*
X90328704Y-33560438D01*
X90328704Y-33655676D01*
X90290609Y-33703295D01*
X90252514Y-33727104D01*
X90176323Y-33750914D01*
X89947752Y-33750914D01*
X89871561Y-33727104D01*
X89833466Y-33703295D01*
X89795371Y-33655676D01*
X89795371Y-33560438D01*
X89833466Y-33512819D01*
X90328704Y-33298533D02*
X89795371Y-33298533D01*
X89947752Y-33298533D02*
X89871561Y-33274723D01*
X89833466Y-33250914D01*
X89795371Y-33203295D01*
X89795371Y-33155676D01*
X90328704Y-32917580D02*
X90290609Y-32965200D01*
X90252514Y-32989009D01*
X90176323Y-33012819D01*
X89947752Y-33012819D01*
X89871561Y-32989009D01*
X89833466Y-32965200D01*
X89795371Y-32917580D01*
X89795371Y-32846152D01*
X89833466Y-32798533D01*
X89871561Y-32774723D01*
X89947752Y-32750914D01*
X90176323Y-32750914D01*
X90252514Y-32774723D01*
X90290609Y-32798533D01*
X90328704Y-32846152D01*
X90328704Y-32917580D01*
X89528704Y-32155676D02*
X90176323Y-32155676D01*
X90252514Y-32131866D01*
X90290609Y-32108057D01*
X90328704Y-32060438D01*
X90328704Y-31965200D01*
X90290609Y-31917580D01*
X90252514Y-31893771D01*
X90176323Y-31869961D01*
X89528704Y-31869961D01*
X90290609Y-31655676D02*
X90328704Y-31584247D01*
X90328704Y-31465200D01*
X90290609Y-31417580D01*
X90252514Y-31393771D01*
X90176323Y-31369961D01*
X90100133Y-31369961D01*
X90023942Y-31393771D01*
X89985847Y-31417580D01*
X89947752Y-31465200D01*
X89909657Y-31560438D01*
X89871561Y-31608057D01*
X89833466Y-31631866D01*
X89757276Y-31655676D01*
X89681085Y-31655676D01*
X89604895Y-31631866D01*
X89566800Y-31608057D01*
X89528704Y-31560438D01*
X89528704Y-31441390D01*
X89566800Y-31369961D01*
X89909657Y-30989009D02*
X89947752Y-30917580D01*
X89985847Y-30893771D01*
X90062038Y-30869961D01*
X90176323Y-30869961D01*
X90252514Y-30893771D01*
X90290609Y-30917580D01*
X90328704Y-30965200D01*
X90328704Y-31155676D01*
X89528704Y-31155676D01*
X89528704Y-30989009D01*
X89566800Y-30941390D01*
X89604895Y-30917580D01*
X89681085Y-30893771D01*
X89757276Y-30893771D01*
X89833466Y-30917580D01*
X89871561Y-30941390D01*
X89909657Y-30989009D01*
X89909657Y-31155676D01*
X90036704Y-41731166D02*
X90036704Y-41445452D01*
X90836704Y-41588309D02*
X90036704Y-41588309D01*
X90836704Y-41278785D02*
X90036704Y-41278785D01*
X90836704Y-41064500D02*
X90417657Y-41064500D01*
X90341466Y-41088309D01*
X90303371Y-41135928D01*
X90303371Y-41207357D01*
X90341466Y-41254976D01*
X90379561Y-41278785D01*
X90798609Y-40635928D02*
X90836704Y-40683547D01*
X90836704Y-40778785D01*
X90798609Y-40826404D01*
X90722419Y-40850214D01*
X90417657Y-40850214D01*
X90341466Y-40826404D01*
X90303371Y-40778785D01*
X90303371Y-40683547D01*
X90341466Y-40635928D01*
X90417657Y-40612119D01*
X90493847Y-40612119D01*
X90570038Y-40850214D01*
X90836704Y-40397833D02*
X90303371Y-40397833D01*
X90455752Y-40397833D02*
X90379561Y-40374023D01*
X90341466Y-40350214D01*
X90303371Y-40302595D01*
X90303371Y-40254976D01*
X90836704Y-40088309D02*
X90303371Y-40088309D01*
X90379561Y-40088309D02*
X90341466Y-40064500D01*
X90303371Y-40016880D01*
X90303371Y-39945452D01*
X90341466Y-39897833D01*
X90417657Y-39874023D01*
X90836704Y-39874023D01*
X90417657Y-39874023D02*
X90341466Y-39850214D01*
X90303371Y-39802595D01*
X90303371Y-39731166D01*
X90341466Y-39683547D01*
X90417657Y-39659738D01*
X90836704Y-39659738D01*
X90836704Y-39421642D02*
X90303371Y-39421642D01*
X90036704Y-39421642D02*
X90074800Y-39445452D01*
X90112895Y-39421642D01*
X90074800Y-39397833D01*
X90036704Y-39421642D01*
X90112895Y-39421642D01*
X90798609Y-39207357D02*
X90836704Y-39159738D01*
X90836704Y-39064500D01*
X90798609Y-39016880D01*
X90722419Y-38993071D01*
X90684323Y-38993071D01*
X90608133Y-39016880D01*
X90570038Y-39064500D01*
X90570038Y-39135928D01*
X90531942Y-39183547D01*
X90455752Y-39207357D01*
X90417657Y-39207357D01*
X90341466Y-39183547D01*
X90303371Y-39135928D01*
X90303371Y-39064500D01*
X90341466Y-39016880D01*
X90303371Y-38850214D02*
X90303371Y-38659738D01*
X90036704Y-38778785D02*
X90722419Y-38778785D01*
X90798609Y-38754976D01*
X90836704Y-38707357D01*
X90836704Y-38659738D01*
X90836704Y-38421642D02*
X90798609Y-38469261D01*
X90760514Y-38493071D01*
X90684323Y-38516880D01*
X90455752Y-38516880D01*
X90379561Y-38493071D01*
X90341466Y-38469261D01*
X90303371Y-38421642D01*
X90303371Y-38350214D01*
X90341466Y-38302595D01*
X90379561Y-38278785D01*
X90455752Y-38254976D01*
X90684323Y-38254976D01*
X90760514Y-38278785D01*
X90798609Y-38302595D01*
X90836704Y-38350214D01*
X90836704Y-38421642D01*
X90836704Y-38040690D02*
X90303371Y-38040690D01*
X90455752Y-38040690D02*
X90379561Y-38016880D01*
X90341466Y-37993071D01*
X90303371Y-37945452D01*
X90303371Y-37897833D01*
X93262457Y-66530990D02*
X93300552Y-66459561D01*
X93338647Y-66435752D01*
X93414838Y-66411942D01*
X93529123Y-66411942D01*
X93605314Y-66435752D01*
X93643409Y-66459561D01*
X93681504Y-66507180D01*
X93681504Y-66697657D01*
X92881504Y-66697657D01*
X92881504Y-66530990D01*
X92919600Y-66483371D01*
X92957695Y-66459561D01*
X93033885Y-66435752D01*
X93110076Y-66435752D01*
X93186266Y-66459561D01*
X93224361Y-66483371D01*
X93262457Y-66530990D01*
X93262457Y-66697657D01*
X93681504Y-66126228D02*
X93643409Y-66173847D01*
X93605314Y-66197657D01*
X93529123Y-66221466D01*
X93300552Y-66221466D01*
X93224361Y-66197657D01*
X93186266Y-66173847D01*
X93148171Y-66126228D01*
X93148171Y-66054800D01*
X93186266Y-66007180D01*
X93224361Y-65983371D01*
X93300552Y-65959561D01*
X93529123Y-65959561D01*
X93605314Y-65983371D01*
X93643409Y-66007180D01*
X93681504Y-66054800D01*
X93681504Y-66126228D01*
X93681504Y-65673847D02*
X93643409Y-65721466D01*
X93605314Y-65745276D01*
X93529123Y-65769085D01*
X93300552Y-65769085D01*
X93224361Y-65745276D01*
X93186266Y-65721466D01*
X93148171Y-65673847D01*
X93148171Y-65602419D01*
X93186266Y-65554800D01*
X93224361Y-65530990D01*
X93300552Y-65507180D01*
X93529123Y-65507180D01*
X93605314Y-65530990D01*
X93643409Y-65554800D01*
X93681504Y-65602419D01*
X93681504Y-65673847D01*
X93643409Y-65316704D02*
X93681504Y-65269085D01*
X93681504Y-65173847D01*
X93643409Y-65126228D01*
X93567219Y-65102419D01*
X93529123Y-65102419D01*
X93452933Y-65126228D01*
X93414838Y-65173847D01*
X93414838Y-65245276D01*
X93376742Y-65292895D01*
X93300552Y-65316704D01*
X93262457Y-65316704D01*
X93186266Y-65292895D01*
X93148171Y-65245276D01*
X93148171Y-65173847D01*
X93186266Y-65126228D01*
X93148171Y-64959561D02*
X93148171Y-64769085D01*
X92881504Y-64888133D02*
X93567219Y-64888133D01*
X93643409Y-64864323D01*
X93681504Y-64816704D01*
X93681504Y-64769085D01*
X93605314Y-63935752D02*
X93643409Y-63959561D01*
X93681504Y-64030990D01*
X93681504Y-64078609D01*
X93643409Y-64150038D01*
X93567219Y-64197657D01*
X93491028Y-64221466D01*
X93338647Y-64245276D01*
X93224361Y-64245276D01*
X93071980Y-64221466D01*
X92995790Y-64197657D01*
X92919600Y-64150038D01*
X92881504Y-64078609D01*
X92881504Y-64030990D01*
X92919600Y-63959561D01*
X92957695Y-63935752D01*
X93681504Y-63650038D02*
X93643409Y-63697657D01*
X93605314Y-63721466D01*
X93529123Y-63745276D01*
X93300552Y-63745276D01*
X93224361Y-63721466D01*
X93186266Y-63697657D01*
X93148171Y-63650038D01*
X93148171Y-63578609D01*
X93186266Y-63530990D01*
X93224361Y-63507180D01*
X93300552Y-63483371D01*
X93529123Y-63483371D01*
X93605314Y-63507180D01*
X93643409Y-63530990D01*
X93681504Y-63578609D01*
X93681504Y-63650038D01*
X93148171Y-63269085D02*
X93681504Y-63269085D01*
X93224361Y-63269085D02*
X93186266Y-63245276D01*
X93148171Y-63197657D01*
X93148171Y-63126228D01*
X93186266Y-63078609D01*
X93262457Y-63054800D01*
X93681504Y-63054800D01*
X93148171Y-62864323D02*
X93681504Y-62745276D01*
X93148171Y-62626228D01*
X93643409Y-62245276D02*
X93681504Y-62292895D01*
X93681504Y-62388133D01*
X93643409Y-62435752D01*
X93567219Y-62459561D01*
X93262457Y-62459561D01*
X93186266Y-62435752D01*
X93148171Y-62388133D01*
X93148171Y-62292895D01*
X93186266Y-62245276D01*
X93262457Y-62221466D01*
X93338647Y-62221466D01*
X93414838Y-62459561D01*
X93681504Y-62007180D02*
X93148171Y-62007180D01*
X93300552Y-62007180D02*
X93224361Y-61983371D01*
X93186266Y-61959561D01*
X93148171Y-61911942D01*
X93148171Y-61864323D01*
X93148171Y-61769085D02*
X93148171Y-61578609D01*
X92881504Y-61697657D02*
X93567219Y-61697657D01*
X93643409Y-61673847D01*
X93681504Y-61626228D01*
X93681504Y-61578609D01*
X93643409Y-61221466D02*
X93681504Y-61269085D01*
X93681504Y-61364323D01*
X93643409Y-61411942D01*
X93567219Y-61435752D01*
X93262457Y-61435752D01*
X93186266Y-61411942D01*
X93148171Y-61364323D01*
X93148171Y-61269085D01*
X93186266Y-61221466D01*
X93262457Y-61197657D01*
X93338647Y-61197657D01*
X93414838Y-61435752D01*
X93681504Y-60983371D02*
X93148171Y-60983371D01*
X93300552Y-60983371D02*
X93224361Y-60959561D01*
X93186266Y-60935752D01*
X93148171Y-60888133D01*
X93148171Y-60840514D01*
D11*
G04 #@! TO.C,J2*
X82032500Y-30631500D02*
X82032500Y-30756500D01*
X81657500Y-30256500D02*
X82032500Y-30631500D01*
X81407500Y-30506500D02*
X81657500Y-30256500D01*
X81657500Y-30756500D02*
X81407500Y-30506500D01*
X88782500Y-30631500D02*
X88782500Y-30756500D01*
X89157500Y-30256500D02*
X88782500Y-30631500D01*
X89407500Y-30506500D02*
X89157500Y-30256500D01*
X89157500Y-30756500D02*
X89407500Y-30506500D01*
X86802500Y-36826500D02*
G75*
G03*
X86802500Y-36826500I-100000J0D01*
G01*
X81657500Y-30816500D02*
X81657500Y-32191500D01*
X82482500Y-30816500D02*
X81657500Y-30816500D01*
X82807500Y-30416500D02*
X82807500Y-30616500D01*
X87807500Y-30206500D02*
X83007500Y-30206500D01*
X88007500Y-30606500D02*
X88007500Y-30541500D01*
X89157500Y-30806500D02*
X88207500Y-30806500D01*
X89157500Y-32131500D02*
X89157500Y-30806500D01*
X81657500Y-34631500D02*
X81657500Y-33721500D01*
X89157500Y-34641500D02*
X89157500Y-33731500D01*
X83827500Y-35806500D02*
X83087500Y-35806500D01*
X87747500Y-35806500D02*
X86967500Y-35806500D01*
X82807500Y-30616500D02*
G75*
G02*
X82482500Y-30816500I-262500J62500D01*
G01*
X83007500Y-30206500D02*
G75*
G03*
X82807500Y-30416500I5000J-205000D01*
G01*
X88007500Y-30541500D02*
G75*
G03*
X87807500Y-30206500I-267500J67500D01*
G01*
X88207500Y-30806500D02*
G75*
G02*
X88007500Y-30606500I0J200000D01*
G01*
G04 #@! TO.C,R15*
X73815500Y-44949000D02*
X72615500Y-44949000D01*
X72615500Y-43189000D02*
X73815500Y-43189000D01*
G04 #@! TO.C,R14*
X85601100Y-60735100D02*
X84401100Y-60735100D01*
X84401100Y-58975100D02*
X85601100Y-58975100D01*
G04 #@! TO.C,R6*
X94548400Y-58708400D02*
X95748400Y-58708400D01*
X95748400Y-60468400D02*
X94548400Y-60468400D01*
G04 #@! TO.C,U2*
X84453799Y-46364400D02*
G75*
G03*
X84453799Y-46364400I-100000J0D01*
G01*
X79453799Y-43364400D02*
X79453799Y-43964400D01*
X80053799Y-43364400D02*
X79453799Y-43364400D01*
X83453799Y-43364400D02*
X82853799Y-43364400D01*
X83453799Y-43964400D02*
X83453799Y-43364400D01*
X79453799Y-47364400D02*
X79453799Y-46764400D01*
X80053799Y-47364400D02*
X79453799Y-47364400D01*
X83453799Y-47364400D02*
X83453799Y-46764400D01*
X82853799Y-47364400D02*
X83453799Y-47364400D01*
G04 #@! TO.C,R11*
X85200600Y-41560000D02*
X85200600Y-40360000D01*
X86960600Y-40360000D02*
X86960600Y-41560000D01*
G04 #@! TO.C,R5*
X80128000Y-32674000D02*
X80128000Y-33874000D01*
X78368000Y-33874000D02*
X78368000Y-32674000D01*
G04 #@! TO.C,U3*
X88979700Y-62008800D02*
X88259700Y-62008800D01*
X92359700Y-62728800D02*
X92359700Y-62008800D01*
X88259700Y-65388800D02*
X88259700Y-66108800D01*
X92359700Y-66108800D02*
X92359700Y-65388800D01*
X92359700Y-62008800D02*
X91639700Y-62008800D01*
X88259700Y-62008800D02*
X88259700Y-62728800D01*
X88259700Y-66108800D02*
X88979700Y-66108800D01*
X91639700Y-66108800D02*
X92359700Y-66108800D01*
X89209700Y-67058800D02*
G75*
G03*
X89209700Y-67058800I-100000J0D01*
G01*
G04 #@! TO.C,C1*
X84628100Y-62864100D02*
X85628100Y-62864100D01*
X85628100Y-61164100D02*
X84628100Y-61164100D01*
G04 #@! TO.C,C2*
X87241000Y-37059500D02*
X86241000Y-37059500D01*
X86241000Y-38759500D02*
X87241000Y-38759500D01*
G04 #@! TO.C,C3*
X81907000Y-48807000D02*
X80907000Y-48807000D01*
X80907000Y-50507000D02*
X81907000Y-50507000D01*
G04 #@! TO.C,C4*
X96194500Y-64580400D02*
X95194500Y-64580400D01*
X95194500Y-66280400D02*
X96194500Y-66280400D01*
G04 #@! TO.C,C5*
X95194500Y-63638800D02*
X96194500Y-63638800D01*
X96194500Y-61938800D02*
X95194500Y-61938800D01*
G04 #@! TO.C,C6*
X90771600Y-67120400D02*
X89771600Y-67120400D01*
X89771600Y-68820400D02*
X90771600Y-68820400D01*
G04 #@! TO.C,D1*
X80503800Y-41830400D02*
X80503800Y-39030400D01*
X81903800Y-41830400D02*
X81903800Y-39030400D01*
X80503800Y-41830400D02*
X81903800Y-41830400D01*
X81203800Y-40230400D02*
X80903800Y-39930400D01*
X80903800Y-39930400D02*
X80853800Y-39880400D01*
X80853800Y-39880400D02*
X81503800Y-39880400D01*
X81553800Y-39880400D02*
X81503800Y-39880400D01*
X81503800Y-39880400D02*
X81553800Y-39880400D01*
X81553800Y-39880400D02*
X81203800Y-40230400D01*
X81203800Y-40230400D02*
X80853800Y-40230400D01*
X81553800Y-40230400D02*
X81203800Y-40230400D01*
G04 #@! TO.C,D2*
X84043000Y-40212800D02*
X83693000Y-40212800D01*
X83693000Y-40212800D02*
X83343000Y-40212800D01*
X84043000Y-39862800D02*
X83693000Y-40212800D01*
X83993000Y-39862800D02*
X84043000Y-39862800D01*
X84043000Y-39862800D02*
X83993000Y-39862800D01*
X83343000Y-39862800D02*
X83993000Y-39862800D01*
X83393000Y-39912800D02*
X83343000Y-39862800D01*
X83693000Y-40212800D02*
X83393000Y-39912800D01*
X82993000Y-41812800D02*
X84393000Y-41812800D01*
X84393000Y-41812800D02*
X84393000Y-39012800D01*
X82993000Y-41812800D02*
X82993000Y-39012800D01*
G04 #@! TO.C,D3*
X75269500Y-47372500D02*
X72469500Y-47372500D01*
X75269500Y-45972500D02*
X72469500Y-45972500D01*
X75269500Y-47372500D02*
X75269500Y-45972500D01*
X73669500Y-46672500D02*
X73369500Y-46972500D01*
X73369500Y-46972500D02*
X73319500Y-47022500D01*
X73319500Y-47022500D02*
X73319500Y-46372500D01*
X73319500Y-46322500D02*
X73319500Y-46372500D01*
X73319500Y-46372500D02*
X73319500Y-46322500D01*
X73319500Y-46322500D02*
X73669500Y-46672500D01*
X73669500Y-46672500D02*
X73669500Y-47022500D01*
X73669500Y-46322500D02*
X73669500Y-46672500D01*
G04 #@! TO.C,D4*
X73206000Y-39593000D02*
X73206000Y-39243000D01*
X73206000Y-39243000D02*
X73206000Y-38893000D01*
X73556000Y-39593000D02*
X73206000Y-39243000D01*
X73556000Y-39543000D02*
X73556000Y-39593000D01*
X73556000Y-39593000D02*
X73556000Y-39543000D01*
X73556000Y-38893000D02*
X73556000Y-39543000D01*
X73506000Y-38943000D02*
X73556000Y-38893000D01*
X73206000Y-39243000D02*
X73506000Y-38943000D01*
X71606000Y-38543000D02*
X71606000Y-39943000D01*
X71606000Y-39943000D02*
X74406000Y-39943000D01*
X71606000Y-38543000D02*
X74406000Y-38543000D01*
G04 #@! TO.C,F1*
X89302000Y-49435936D02*
X89302000Y-50640064D01*
X87482000Y-49435936D02*
X87482000Y-50640064D01*
G04 #@! TO.C,J4*
X80231000Y-66593500D02*
X80231000Y-67943500D01*
X80231000Y-56643500D02*
X80231000Y-57993500D01*
X81431000Y-57543500D02*
G75*
G03*
X81431000Y-57543500I-100000J0D01*
G01*
X66531000Y-68893500D02*
X66531000Y-55693500D01*
X75081000Y-68893500D02*
X66531000Y-68893500D01*
X66531000Y-55693500D02*
X75081000Y-55693500D01*
G04 #@! TO.C,Q1*
X76519500Y-49601000D02*
X76519500Y-50531000D01*
X76519500Y-52761000D02*
X76519500Y-51831000D01*
X76519500Y-52761000D02*
X78679500Y-52761000D01*
X76519500Y-49601000D02*
X77979500Y-49601000D01*
G04 #@! TO.C,R1*
X77682800Y-72576800D02*
X78882800Y-72576800D01*
X78882800Y-74336800D02*
X77682800Y-74336800D01*
G04 #@! TO.C,R2*
X77720900Y-75167600D02*
X78920900Y-75167600D01*
X78920900Y-76927600D02*
X77720900Y-76927600D01*
G04 #@! TO.C,R3*
X85149800Y-46320000D02*
X85149800Y-45120000D01*
X86909800Y-45120000D02*
X86909800Y-46320000D01*
G04 #@! TO.C,R4*
X89195800Y-45135200D02*
X89195800Y-46335200D01*
X87435800Y-46335200D02*
X87435800Y-45135200D01*
G04 #@! TO.C,R7*
X90579500Y-61001800D02*
X89379500Y-61001800D01*
X89379500Y-59241800D02*
X90579500Y-59241800D01*
G04 #@! TO.C,R8*
X79716520Y-39841880D02*
X79716520Y-41041880D01*
X77956520Y-41041880D02*
X77956520Y-39841880D01*
G04 #@! TO.C,R9*
X76082000Y-33874000D02*
X76082000Y-32674000D01*
X77842000Y-32674000D02*
X77842000Y-33874000D01*
G04 #@! TO.C,R10*
X99876500Y-67535500D02*
X99876500Y-68735500D01*
X98116500Y-68735500D02*
X98116500Y-67535500D01*
G04 #@! TO.C,R12*
X85111700Y-69550800D02*
X85111700Y-68350800D01*
X86871700Y-68350800D02*
X86871700Y-69550800D01*
G04 #@! TO.C,R13*
X86871700Y-64424000D02*
X86871700Y-65624000D01*
X85111700Y-65624000D02*
X85111700Y-64424000D01*
G04 #@! TO.C,R16*
X73752000Y-42536000D02*
X72552000Y-42536000D01*
X72552000Y-40776000D02*
X73752000Y-40776000D01*
G04 #@! TO.C,R17*
X82356400Y-72526000D02*
X83556400Y-72526000D01*
X83556400Y-74286000D02*
X82356400Y-74286000D01*
G04 #@! TO.C,R18*
X82356400Y-75218400D02*
X83556400Y-75218400D01*
X83556400Y-76978400D02*
X82356400Y-76978400D01*
G04 #@! TO.C,C7*
X87647200Y-70851348D02*
X87647200Y-73623852D01*
X91067200Y-70851348D02*
X91067200Y-73623852D01*
G04 #@! TO.C,L1*
X92830800Y-71796000D02*
X92830800Y-67396000D01*
X95230800Y-67396000D02*
X95230800Y-71796000D01*
G04 #@! TO.C,J1*
X92489300Y-35312600D02*
X92189300Y-35912600D01*
X91889300Y-35312600D02*
X92489300Y-35312600D01*
X92189300Y-35912600D02*
X91889300Y-35312600D01*
X93959300Y-39962600D02*
X93959300Y-39662600D01*
X93489300Y-39962600D02*
X93959300Y-39962600D01*
X93489300Y-39662600D02*
X93489300Y-39962600D01*
X93959300Y-39662600D02*
X93489300Y-39662600D01*
X93959300Y-37462600D02*
X93959300Y-37162600D01*
X93489300Y-37462600D02*
X93959300Y-37462600D01*
X93489300Y-37162600D02*
X93489300Y-37462600D01*
X93959300Y-37162600D02*
X93489300Y-37162600D01*
X102719300Y-41682600D02*
X102719300Y-35442600D01*
X93959300Y-41682600D02*
X102719300Y-41682600D01*
X93959300Y-35442600D02*
X93959300Y-41682600D01*
X102719300Y-35442600D02*
X93959300Y-35442600D01*
G04 #@! TO.C,J3*
X92298800Y-42678600D02*
X91998800Y-43278600D01*
X91698800Y-42678600D02*
X92298800Y-42678600D01*
X91998800Y-43278600D02*
X91698800Y-42678600D01*
X93768800Y-47328600D02*
X93768800Y-47028600D01*
X93298800Y-47328600D02*
X93768800Y-47328600D01*
X93298800Y-47028600D02*
X93298800Y-47328600D01*
X93768800Y-47028600D02*
X93298800Y-47028600D01*
X93768800Y-44828600D02*
X93768800Y-44528600D01*
X93298800Y-44828600D02*
X93768800Y-44828600D01*
X93298800Y-44528600D02*
X93298800Y-44828600D01*
X93768800Y-44528600D02*
X93298800Y-44528600D01*
X102528800Y-49048600D02*
X102528800Y-42808600D01*
X93768800Y-49048600D02*
X102528800Y-49048600D01*
X93768800Y-42808600D02*
X93768800Y-49048600D01*
X102528800Y-42808600D02*
X93768800Y-42808600D01*
D12*
G04 #@! TO.C,J5*
X92438500Y-50133500D02*
X92138500Y-50733500D01*
X91838500Y-50133500D02*
X92438500Y-50133500D01*
X92138500Y-50733500D02*
X91838500Y-50133500D01*
X93908500Y-54783500D02*
X93908500Y-54483500D01*
X93438500Y-54783500D02*
X93908500Y-54783500D01*
X93438500Y-54483500D02*
X93438500Y-54783500D01*
X93908500Y-54483500D02*
X93438500Y-54483500D01*
X93908500Y-52283500D02*
X93908500Y-51983500D01*
X93438500Y-52283500D02*
X93908500Y-52283500D01*
X93438500Y-51983500D02*
X93438500Y-52283500D01*
X93908500Y-51983500D02*
X93438500Y-51983500D01*
X102668500Y-56503500D02*
X102668500Y-50263500D01*
X93908500Y-56503500D02*
X102668500Y-56503500D01*
X93908500Y-50263500D02*
X93908500Y-56503500D01*
X102668500Y-50263500D02*
X93908500Y-50263500D01*
G04 #@! TO.C,J2*
D10*
X90646304Y-33237466D02*
X91217733Y-33237466D01*
X91332019Y-33261276D01*
X91408209Y-33308895D01*
X91446304Y-33380323D01*
X91446304Y-33427942D01*
X90722495Y-33023180D02*
X90684400Y-32999371D01*
X90646304Y-32951752D01*
X90646304Y-32832704D01*
X90684400Y-32785085D01*
X90722495Y-32761276D01*
X90798685Y-32737466D01*
X90874876Y-32737466D01*
X90989161Y-32761276D01*
X91446304Y-33046990D01*
X91446304Y-32737466D01*
G04 #@! TO.C,R15*
D11*
X71354904Y-44735685D02*
X70973952Y-45002352D01*
X71354904Y-45192828D02*
X70554904Y-45192828D01*
X70554904Y-44888066D01*
X70593000Y-44811876D01*
X70631095Y-44773780D01*
X70707285Y-44735685D01*
X70821571Y-44735685D01*
X70897761Y-44773780D01*
X70935857Y-44811876D01*
X70973952Y-44888066D01*
X70973952Y-45192828D01*
X71354904Y-43973780D02*
X71354904Y-44430923D01*
X71354904Y-44202352D02*
X70554904Y-44202352D01*
X70669190Y-44278542D01*
X70745380Y-44354733D01*
X70783476Y-44430923D01*
X70554904Y-43249971D02*
X70554904Y-43630923D01*
X70935857Y-43669019D01*
X70897761Y-43630923D01*
X70859666Y-43554733D01*
X70859666Y-43364257D01*
X70897761Y-43288066D01*
X70935857Y-43249971D01*
X71012047Y-43211876D01*
X71202523Y-43211876D01*
X71278714Y-43249971D01*
X71316809Y-43288066D01*
X71354904Y-43364257D01*
X71354904Y-43554733D01*
X71316809Y-43630923D01*
X71278714Y-43669019D01*
G04 #@! TO.C,R14*
X83292904Y-60432885D02*
X82911952Y-60699552D01*
X83292904Y-60890028D02*
X82492904Y-60890028D01*
X82492904Y-60585266D01*
X82531000Y-60509076D01*
X82569095Y-60470980D01*
X82645285Y-60432885D01*
X82759571Y-60432885D01*
X82835761Y-60470980D01*
X82873857Y-60509076D01*
X82911952Y-60585266D01*
X82911952Y-60890028D01*
X83292904Y-59670980D02*
X83292904Y-60128123D01*
X83292904Y-59899552D02*
X82492904Y-59899552D01*
X82607190Y-59975742D01*
X82683380Y-60051933D01*
X82721476Y-60128123D01*
X82759571Y-58985266D02*
X83292904Y-58985266D01*
X82454809Y-59175742D02*
X83026238Y-59366219D01*
X83026238Y-58870980D01*
G04 #@! TO.C,R6*
X93287804Y-59658233D02*
X92906852Y-59924900D01*
X93287804Y-60115376D02*
X92487804Y-60115376D01*
X92487804Y-59810614D01*
X92525900Y-59734423D01*
X92563995Y-59696328D01*
X92640185Y-59658233D01*
X92754471Y-59658233D01*
X92830661Y-59696328D01*
X92868757Y-59734423D01*
X92906852Y-59810614D01*
X92906852Y-60115376D01*
X92487804Y-58972519D02*
X92487804Y-59124900D01*
X92525900Y-59201090D01*
X92563995Y-59239185D01*
X92678280Y-59315376D01*
X92830661Y-59353471D01*
X93135423Y-59353471D01*
X93211614Y-59315376D01*
X93249709Y-59277280D01*
X93287804Y-59201090D01*
X93287804Y-59048709D01*
X93249709Y-58972519D01*
X93211614Y-58934423D01*
X93135423Y-58896328D01*
X92944947Y-58896328D01*
X92868757Y-58934423D01*
X92830661Y-58972519D01*
X92792566Y-59048709D01*
X92792566Y-59201090D01*
X92830661Y-59277280D01*
X92868757Y-59315376D01*
X92944947Y-59353471D01*
G04 #@! TO.C,TP1*
X94126104Y-32327723D02*
X94126104Y-31870580D01*
X94926104Y-32099152D02*
X94126104Y-32099152D01*
X94926104Y-31603914D02*
X94126104Y-31603914D01*
X94126104Y-31299152D01*
X94164200Y-31222961D01*
X94202295Y-31184866D01*
X94278485Y-31146771D01*
X94392771Y-31146771D01*
X94468961Y-31184866D01*
X94507057Y-31222961D01*
X94545152Y-31299152D01*
X94545152Y-31603914D01*
X94926104Y-30384866D02*
X94926104Y-30842009D01*
X94926104Y-30613438D02*
X94126104Y-30613438D01*
X94240390Y-30689628D01*
X94316580Y-30765819D01*
X94354676Y-30842009D01*
G04 #@! TO.C,U2*
X77743104Y-44830923D02*
X78390723Y-44830923D01*
X78466914Y-44792828D01*
X78505009Y-44754733D01*
X78543104Y-44678542D01*
X78543104Y-44526161D01*
X78505009Y-44449971D01*
X78466914Y-44411876D01*
X78390723Y-44373780D01*
X77743104Y-44373780D01*
X77819295Y-44030923D02*
X77781200Y-43992828D01*
X77743104Y-43916638D01*
X77743104Y-43726161D01*
X77781200Y-43649971D01*
X77819295Y-43611876D01*
X77895485Y-43573780D01*
X77971676Y-43573780D01*
X78085961Y-43611876D01*
X78543104Y-44069019D01*
X78543104Y-43573780D01*
G04 #@! TO.C,R11*
X88245904Y-41281285D02*
X87864952Y-41547952D01*
X88245904Y-41738428D02*
X87445904Y-41738428D01*
X87445904Y-41433666D01*
X87484000Y-41357476D01*
X87522095Y-41319380D01*
X87598285Y-41281285D01*
X87712571Y-41281285D01*
X87788761Y-41319380D01*
X87826857Y-41357476D01*
X87864952Y-41433666D01*
X87864952Y-41738428D01*
X88245904Y-40519380D02*
X88245904Y-40976523D01*
X88245904Y-40747952D02*
X87445904Y-40747952D01*
X87560190Y-40824142D01*
X87636380Y-40900333D01*
X87674476Y-40976523D01*
X88245904Y-39757476D02*
X88245904Y-40214619D01*
X88245904Y-39986047D02*
X87445904Y-39986047D01*
X87560190Y-40062238D01*
X87636380Y-40138428D01*
X87674476Y-40214619D01*
G04 #@! TO.C,R5*
X79927404Y-30994333D02*
X79546452Y-31261000D01*
X79927404Y-31451476D02*
X79127404Y-31451476D01*
X79127404Y-31146714D01*
X79165500Y-31070523D01*
X79203595Y-31032428D01*
X79279785Y-30994333D01*
X79394071Y-30994333D01*
X79470261Y-31032428D01*
X79508357Y-31070523D01*
X79546452Y-31146714D01*
X79546452Y-31451476D01*
X79127404Y-30270523D02*
X79127404Y-30651476D01*
X79508357Y-30689571D01*
X79470261Y-30651476D01*
X79432166Y-30575285D01*
X79432166Y-30384809D01*
X79470261Y-30308619D01*
X79508357Y-30270523D01*
X79584547Y-30232428D01*
X79775023Y-30232428D01*
X79851214Y-30270523D01*
X79889309Y-30308619D01*
X79927404Y-30384809D01*
X79927404Y-30575285D01*
X79889309Y-30651476D01*
X79851214Y-30689571D01*
G04 #@! TO.C,U3*
X87149028Y-64515942D02*
X87634742Y-64515942D01*
X87691885Y-64487371D01*
X87720457Y-64458800D01*
X87749028Y-64401657D01*
X87749028Y-64287371D01*
X87720457Y-64230228D01*
X87691885Y-64201657D01*
X87634742Y-64173085D01*
X87149028Y-64173085D01*
X87149028Y-63944514D02*
X87149028Y-63573085D01*
X87377600Y-63773085D01*
X87377600Y-63687371D01*
X87406171Y-63630228D01*
X87434742Y-63601657D01*
X87491885Y-63573085D01*
X87634742Y-63573085D01*
X87691885Y-63601657D01*
X87720457Y-63630228D01*
X87749028Y-63687371D01*
X87749028Y-63858800D01*
X87720457Y-63915942D01*
X87691885Y-63944514D01*
G04 #@! TO.C,C1*
X83089714Y-62312533D02*
X83127809Y-62350628D01*
X83165904Y-62464914D01*
X83165904Y-62541104D01*
X83127809Y-62655390D01*
X83051619Y-62731580D01*
X82975428Y-62769676D01*
X82823047Y-62807771D01*
X82708761Y-62807771D01*
X82556380Y-62769676D01*
X82480190Y-62731580D01*
X82404000Y-62655390D01*
X82365904Y-62541104D01*
X82365904Y-62464914D01*
X82404000Y-62350628D01*
X82442095Y-62312533D01*
X83165904Y-61550628D02*
X83165904Y-62007771D01*
X83165904Y-61779200D02*
X82365904Y-61779200D01*
X82480190Y-61855390D01*
X82556380Y-61931580D01*
X82594476Y-62007771D01*
G04 #@! TO.C,C2*
X89439714Y-38042833D02*
X89477809Y-38080928D01*
X89515904Y-38195214D01*
X89515904Y-38271404D01*
X89477809Y-38385690D01*
X89401619Y-38461880D01*
X89325428Y-38499976D01*
X89173047Y-38538071D01*
X89058761Y-38538071D01*
X88906380Y-38499976D01*
X88830190Y-38461880D01*
X88754000Y-38385690D01*
X88715904Y-38271404D01*
X88715904Y-38195214D01*
X88754000Y-38080928D01*
X88792095Y-38042833D01*
X88792095Y-37738071D02*
X88754000Y-37699976D01*
X88715904Y-37623785D01*
X88715904Y-37433309D01*
X88754000Y-37357119D01*
X88792095Y-37319023D01*
X88868285Y-37280928D01*
X88944476Y-37280928D01*
X89058761Y-37319023D01*
X89515904Y-37776166D01*
X89515904Y-37280928D01*
G04 #@! TO.C,C3*
X81692714Y-51695333D02*
X81730809Y-51733428D01*
X81768904Y-51847714D01*
X81768904Y-51923904D01*
X81730809Y-52038190D01*
X81654619Y-52114380D01*
X81578428Y-52152476D01*
X81426047Y-52190571D01*
X81311761Y-52190571D01*
X81159380Y-52152476D01*
X81083190Y-52114380D01*
X81007000Y-52038190D01*
X80968904Y-51923904D01*
X80968904Y-51847714D01*
X81007000Y-51733428D01*
X81045095Y-51695333D01*
X80968904Y-51428666D02*
X80968904Y-50933428D01*
X81273666Y-51200095D01*
X81273666Y-51085809D01*
X81311761Y-51009619D01*
X81349857Y-50971523D01*
X81426047Y-50933428D01*
X81616523Y-50933428D01*
X81692714Y-50971523D01*
X81730809Y-51009619D01*
X81768904Y-51085809D01*
X81768904Y-51314380D01*
X81730809Y-51390571D01*
X81692714Y-51428666D01*
G04 #@! TO.C,C4*
X98329714Y-65563733D02*
X98367809Y-65601828D01*
X98405904Y-65716114D01*
X98405904Y-65792304D01*
X98367809Y-65906590D01*
X98291619Y-65982780D01*
X98215428Y-66020876D01*
X98063047Y-66058971D01*
X97948761Y-66058971D01*
X97796380Y-66020876D01*
X97720190Y-65982780D01*
X97644000Y-65906590D01*
X97605904Y-65792304D01*
X97605904Y-65716114D01*
X97644000Y-65601828D01*
X97682095Y-65563733D01*
X97872571Y-64878019D02*
X98405904Y-64878019D01*
X97567809Y-65068495D02*
X98139238Y-65258971D01*
X98139238Y-64763733D01*
G04 #@! TO.C,C5*
X98380514Y-62934833D02*
X98418609Y-62972928D01*
X98456704Y-63087214D01*
X98456704Y-63163404D01*
X98418609Y-63277690D01*
X98342419Y-63353880D01*
X98266228Y-63391976D01*
X98113847Y-63430071D01*
X97999561Y-63430071D01*
X97847180Y-63391976D01*
X97770990Y-63353880D01*
X97694800Y-63277690D01*
X97656704Y-63163404D01*
X97656704Y-63087214D01*
X97694800Y-62972928D01*
X97732895Y-62934833D01*
X97656704Y-62211023D02*
X97656704Y-62591976D01*
X98037657Y-62630071D01*
X97999561Y-62591976D01*
X97961466Y-62515785D01*
X97961466Y-62325309D01*
X97999561Y-62249119D01*
X98037657Y-62211023D01*
X98113847Y-62172928D01*
X98304323Y-62172928D01*
X98380514Y-62211023D01*
X98418609Y-62249119D01*
X98456704Y-62325309D01*
X98456704Y-62515785D01*
X98418609Y-62591976D01*
X98380514Y-62630071D01*
G04 #@! TO.C,C6*
X88169714Y-68103733D02*
X88207809Y-68141828D01*
X88245904Y-68256114D01*
X88245904Y-68332304D01*
X88207809Y-68446590D01*
X88131619Y-68522780D01*
X88055428Y-68560876D01*
X87903047Y-68598971D01*
X87788761Y-68598971D01*
X87636380Y-68560876D01*
X87560190Y-68522780D01*
X87484000Y-68446590D01*
X87445904Y-68332304D01*
X87445904Y-68256114D01*
X87484000Y-68141828D01*
X87522095Y-68103733D01*
X87445904Y-67418019D02*
X87445904Y-67570400D01*
X87484000Y-67646590D01*
X87522095Y-67684685D01*
X87636380Y-67760876D01*
X87788761Y-67798971D01*
X88093523Y-67798971D01*
X88169714Y-67760876D01*
X88207809Y-67722780D01*
X88245904Y-67646590D01*
X88245904Y-67494209D01*
X88207809Y-67418019D01*
X88169714Y-67379923D01*
X88093523Y-67341828D01*
X87903047Y-67341828D01*
X87826857Y-67379923D01*
X87788761Y-67418019D01*
X87750666Y-67494209D01*
X87750666Y-67646590D01*
X87788761Y-67722780D01*
X87826857Y-67760876D01*
X87903047Y-67798971D01*
G04 #@! TO.C,D1*
X81578404Y-37928476D02*
X80778404Y-37928476D01*
X80778404Y-37738000D01*
X80816500Y-37623714D01*
X80892690Y-37547523D01*
X80968880Y-37509428D01*
X81121261Y-37471333D01*
X81235547Y-37471333D01*
X81387928Y-37509428D01*
X81464119Y-37547523D01*
X81540309Y-37623714D01*
X81578404Y-37738000D01*
X81578404Y-37928476D01*
X81578404Y-36709428D02*
X81578404Y-37166571D01*
X81578404Y-36938000D02*
X80778404Y-36938000D01*
X80892690Y-37014190D01*
X80968880Y-37090380D01*
X81006976Y-37166571D01*
G04 #@! TO.C,D2*
X84118404Y-37928476D02*
X83318404Y-37928476D01*
X83318404Y-37738000D01*
X83356500Y-37623714D01*
X83432690Y-37547523D01*
X83508880Y-37509428D01*
X83661261Y-37471333D01*
X83775547Y-37471333D01*
X83927928Y-37509428D01*
X84004119Y-37547523D01*
X84080309Y-37623714D01*
X84118404Y-37738000D01*
X84118404Y-37928476D01*
X83394595Y-37166571D02*
X83356500Y-37128476D01*
X83318404Y-37052285D01*
X83318404Y-36861809D01*
X83356500Y-36785619D01*
X83394595Y-36747523D01*
X83470785Y-36709428D01*
X83546976Y-36709428D01*
X83661261Y-36747523D01*
X84118404Y-37204666D01*
X84118404Y-36709428D01*
G04 #@! TO.C,D3*
X71354904Y-47262976D02*
X70554904Y-47262976D01*
X70554904Y-47072500D01*
X70593000Y-46958214D01*
X70669190Y-46882023D01*
X70745380Y-46843928D01*
X70897761Y-46805833D01*
X71012047Y-46805833D01*
X71164428Y-46843928D01*
X71240619Y-46882023D01*
X71316809Y-46958214D01*
X71354904Y-47072500D01*
X71354904Y-47262976D01*
X70554904Y-46539166D02*
X70554904Y-46043928D01*
X70859666Y-46310595D01*
X70859666Y-46196309D01*
X70897761Y-46120119D01*
X70935857Y-46082023D01*
X71012047Y-46043928D01*
X71202523Y-46043928D01*
X71278714Y-46082023D01*
X71316809Y-46120119D01*
X71354904Y-46196309D01*
X71354904Y-46424880D01*
X71316809Y-46501071D01*
X71278714Y-46539166D01*
G04 #@! TO.C,D4*
X71278704Y-39782676D02*
X70478704Y-39782676D01*
X70478704Y-39592200D01*
X70516800Y-39477914D01*
X70592990Y-39401723D01*
X70669180Y-39363628D01*
X70821561Y-39325533D01*
X70935847Y-39325533D01*
X71088228Y-39363628D01*
X71164419Y-39401723D01*
X71240609Y-39477914D01*
X71278704Y-39592200D01*
X71278704Y-39782676D01*
X70745371Y-38639819D02*
X71278704Y-38639819D01*
X70440609Y-38830295D02*
X71012038Y-39020771D01*
X71012038Y-38525533D01*
G04 #@! TO.C,F1*
X86556857Y-50457066D02*
X86556857Y-50723733D01*
X86975904Y-50723733D02*
X86175904Y-50723733D01*
X86175904Y-50342780D01*
X86975904Y-49618971D02*
X86975904Y-50076114D01*
X86975904Y-49847542D02*
X86175904Y-49847542D01*
X86290190Y-49923733D01*
X86366380Y-49999923D01*
X86404476Y-50076114D01*
G04 #@! TO.C,J4*
X73425104Y-71335866D02*
X73996533Y-71335866D01*
X74110819Y-71373961D01*
X74187009Y-71450152D01*
X74225104Y-71564438D01*
X74225104Y-71640628D01*
X73691771Y-70612057D02*
X74225104Y-70612057D01*
X73387009Y-70802533D02*
X73958438Y-70993009D01*
X73958438Y-70497771D01*
G04 #@! TO.C,Q1*
X75368095Y-51231790D02*
X75330000Y-51307980D01*
X75253809Y-51384171D01*
X75139523Y-51498457D01*
X75101428Y-51574647D01*
X75101428Y-51650838D01*
X75291904Y-51612742D02*
X75253809Y-51688933D01*
X75177619Y-51765123D01*
X75025238Y-51803219D01*
X74758571Y-51803219D01*
X74606190Y-51765123D01*
X74530000Y-51688933D01*
X74491904Y-51612742D01*
X74491904Y-51460361D01*
X74530000Y-51384171D01*
X74606190Y-51307980D01*
X74758571Y-51269885D01*
X75025238Y-51269885D01*
X75177619Y-51307980D01*
X75253809Y-51384171D01*
X75291904Y-51460361D01*
X75291904Y-51612742D01*
X75291904Y-50507980D02*
X75291904Y-50965123D01*
X75291904Y-50736552D02*
X74491904Y-50736552D01*
X74606190Y-50812742D01*
X74682380Y-50888933D01*
X74720476Y-50965123D01*
G04 #@! TO.C,R1*
X80816404Y-73526633D02*
X80435452Y-73793300D01*
X80816404Y-73983776D02*
X80016404Y-73983776D01*
X80016404Y-73679014D01*
X80054500Y-73602823D01*
X80092595Y-73564728D01*
X80168785Y-73526633D01*
X80283071Y-73526633D01*
X80359261Y-73564728D01*
X80397357Y-73602823D01*
X80435452Y-73679014D01*
X80435452Y-73983776D01*
X80816404Y-72764728D02*
X80816404Y-73221871D01*
X80816404Y-72993300D02*
X80016404Y-72993300D01*
X80130690Y-73069490D01*
X80206880Y-73145680D01*
X80244976Y-73221871D01*
G04 #@! TO.C,R2*
X80854504Y-76142833D02*
X80473552Y-76409500D01*
X80854504Y-76599976D02*
X80054504Y-76599976D01*
X80054504Y-76295214D01*
X80092600Y-76219023D01*
X80130695Y-76180928D01*
X80206885Y-76142833D01*
X80321171Y-76142833D01*
X80397361Y-76180928D01*
X80435457Y-76219023D01*
X80473552Y-76295214D01*
X80473552Y-76599976D01*
X80130695Y-75838071D02*
X80092600Y-75799976D01*
X80054504Y-75723785D01*
X80054504Y-75533309D01*
X80092600Y-75457119D01*
X80130695Y-75419023D01*
X80206885Y-75380928D01*
X80283076Y-75380928D01*
X80397361Y-75419023D01*
X80854504Y-75876166D01*
X80854504Y-75380928D01*
G04 #@! TO.C,R3*
X86404404Y-43503833D02*
X86023452Y-43770500D01*
X86404404Y-43960976D02*
X85604404Y-43960976D01*
X85604404Y-43656214D01*
X85642500Y-43580023D01*
X85680595Y-43541928D01*
X85756785Y-43503833D01*
X85871071Y-43503833D01*
X85947261Y-43541928D01*
X85985357Y-43580023D01*
X86023452Y-43656214D01*
X86023452Y-43960976D01*
X85604404Y-43237166D02*
X85604404Y-42741928D01*
X85909166Y-43008595D01*
X85909166Y-42894309D01*
X85947261Y-42818119D01*
X85985357Y-42780023D01*
X86061547Y-42741928D01*
X86252023Y-42741928D01*
X86328214Y-42780023D01*
X86366309Y-42818119D01*
X86404404Y-42894309D01*
X86404404Y-43122880D01*
X86366309Y-43199071D01*
X86328214Y-43237166D01*
G04 #@! TO.C,R4*
X88817404Y-43376833D02*
X88436452Y-43643500D01*
X88817404Y-43833976D02*
X88017404Y-43833976D01*
X88017404Y-43529214D01*
X88055500Y-43453023D01*
X88093595Y-43414928D01*
X88169785Y-43376833D01*
X88284071Y-43376833D01*
X88360261Y-43414928D01*
X88398357Y-43453023D01*
X88436452Y-43529214D01*
X88436452Y-43833976D01*
X88284071Y-42691119D02*
X88817404Y-42691119D01*
X87979309Y-42881595D02*
X88550738Y-43072071D01*
X88550738Y-42576833D01*
G04 #@! TO.C,R7*
X88118904Y-60280533D02*
X87737952Y-60547200D01*
X88118904Y-60737676D02*
X87318904Y-60737676D01*
X87318904Y-60432914D01*
X87357000Y-60356723D01*
X87395095Y-60318628D01*
X87471285Y-60280533D01*
X87585571Y-60280533D01*
X87661761Y-60318628D01*
X87699857Y-60356723D01*
X87737952Y-60432914D01*
X87737952Y-60737676D01*
X87318904Y-60013866D02*
X87318904Y-59480533D01*
X88118904Y-59823390D01*
G04 #@! TO.C,R8*
X79152704Y-38284133D02*
X78771752Y-38550800D01*
X79152704Y-38741276D02*
X78352704Y-38741276D01*
X78352704Y-38436514D01*
X78390800Y-38360323D01*
X78428895Y-38322228D01*
X78505085Y-38284133D01*
X78619371Y-38284133D01*
X78695561Y-38322228D01*
X78733657Y-38360323D01*
X78771752Y-38436514D01*
X78771752Y-38741276D01*
X78695561Y-37826990D02*
X78657466Y-37903180D01*
X78619371Y-37941276D01*
X78543180Y-37979371D01*
X78505085Y-37979371D01*
X78428895Y-37941276D01*
X78390800Y-37903180D01*
X78352704Y-37826990D01*
X78352704Y-37674609D01*
X78390800Y-37598419D01*
X78428895Y-37560323D01*
X78505085Y-37522228D01*
X78543180Y-37522228D01*
X78619371Y-37560323D01*
X78657466Y-37598419D01*
X78695561Y-37674609D01*
X78695561Y-37826990D01*
X78733657Y-37903180D01*
X78771752Y-37941276D01*
X78847942Y-37979371D01*
X79000323Y-37979371D01*
X79076514Y-37941276D01*
X79114609Y-37903180D01*
X79152704Y-37826990D01*
X79152704Y-37674609D01*
X79114609Y-37598419D01*
X79076514Y-37560323D01*
X79000323Y-37522228D01*
X78847942Y-37522228D01*
X78771752Y-37560323D01*
X78733657Y-37598419D01*
X78695561Y-37674609D01*
G04 #@! TO.C,R9*
X77323904Y-30831733D02*
X76942952Y-31098400D01*
X77323904Y-31288876D02*
X76523904Y-31288876D01*
X76523904Y-30984114D01*
X76562000Y-30907923D01*
X76600095Y-30869828D01*
X76676285Y-30831733D01*
X76790571Y-30831733D01*
X76866761Y-30869828D01*
X76904857Y-30907923D01*
X76942952Y-30984114D01*
X76942952Y-31288876D01*
X77323904Y-30450780D02*
X77323904Y-30298400D01*
X77285809Y-30222209D01*
X77247714Y-30184114D01*
X77133428Y-30107923D01*
X76981047Y-30069828D01*
X76676285Y-30069828D01*
X76600095Y-30107923D01*
X76562000Y-30146019D01*
X76523904Y-30222209D01*
X76523904Y-30374590D01*
X76562000Y-30450780D01*
X76600095Y-30488876D01*
X76676285Y-30526971D01*
X76866761Y-30526971D01*
X76942952Y-30488876D01*
X76981047Y-30450780D01*
X77019142Y-30374590D01*
X77019142Y-30222209D01*
X76981047Y-30146019D01*
X76942952Y-30107923D01*
X76866761Y-30069828D01*
G04 #@! TO.C,R10*
X97745504Y-68433885D02*
X97364552Y-68700552D01*
X97745504Y-68891028D02*
X96945504Y-68891028D01*
X96945504Y-68586266D01*
X96983600Y-68510076D01*
X97021695Y-68471980D01*
X97097885Y-68433885D01*
X97212171Y-68433885D01*
X97288361Y-68471980D01*
X97326457Y-68510076D01*
X97364552Y-68586266D01*
X97364552Y-68891028D01*
X97745504Y-67671980D02*
X97745504Y-68129123D01*
X97745504Y-67900552D02*
X96945504Y-67900552D01*
X97059790Y-67976742D01*
X97135980Y-68052933D01*
X97174076Y-68129123D01*
X96945504Y-67176742D02*
X96945504Y-67100552D01*
X96983600Y-67024361D01*
X97021695Y-66986266D01*
X97097885Y-66948171D01*
X97250266Y-66910076D01*
X97440742Y-66910076D01*
X97593123Y-66948171D01*
X97669314Y-66986266D01*
X97707409Y-67024361D01*
X97745504Y-67100552D01*
X97745504Y-67176742D01*
X97707409Y-67252933D01*
X97669314Y-67291028D01*
X97593123Y-67329123D01*
X97440742Y-67367219D01*
X97250266Y-67367219D01*
X97097885Y-67329123D01*
X97021695Y-67291028D01*
X96983600Y-67252933D01*
X96945504Y-67176742D01*
G04 #@! TO.C,R12*
X84791504Y-69653085D02*
X84410552Y-69919752D01*
X84791504Y-70110228D02*
X83991504Y-70110228D01*
X83991504Y-69805466D01*
X84029600Y-69729276D01*
X84067695Y-69691180D01*
X84143885Y-69653085D01*
X84258171Y-69653085D01*
X84334361Y-69691180D01*
X84372457Y-69729276D01*
X84410552Y-69805466D01*
X84410552Y-70110228D01*
X84791504Y-68891180D02*
X84791504Y-69348323D01*
X84791504Y-69119752D02*
X83991504Y-69119752D01*
X84105790Y-69195942D01*
X84181980Y-69272133D01*
X84220076Y-69348323D01*
X84067695Y-68586419D02*
X84029600Y-68548323D01*
X83991504Y-68472133D01*
X83991504Y-68281657D01*
X84029600Y-68205466D01*
X84067695Y-68167371D01*
X84143885Y-68129276D01*
X84220076Y-68129276D01*
X84334361Y-68167371D01*
X84791504Y-68624514D01*
X84791504Y-68129276D01*
G04 #@! TO.C,R13*
X84842304Y-65639885D02*
X84461352Y-65906552D01*
X84842304Y-66097028D02*
X84042304Y-66097028D01*
X84042304Y-65792266D01*
X84080400Y-65716076D01*
X84118495Y-65677980D01*
X84194685Y-65639885D01*
X84308971Y-65639885D01*
X84385161Y-65677980D01*
X84423257Y-65716076D01*
X84461352Y-65792266D01*
X84461352Y-66097028D01*
X84842304Y-64877980D02*
X84842304Y-65335123D01*
X84842304Y-65106552D02*
X84042304Y-65106552D01*
X84156590Y-65182742D01*
X84232780Y-65258933D01*
X84270876Y-65335123D01*
X84042304Y-64611314D02*
X84042304Y-64116076D01*
X84347066Y-64382742D01*
X84347066Y-64268457D01*
X84385161Y-64192266D01*
X84423257Y-64154171D01*
X84499447Y-64116076D01*
X84689923Y-64116076D01*
X84766114Y-64154171D01*
X84804209Y-64192266D01*
X84842304Y-64268457D01*
X84842304Y-64497028D01*
X84804209Y-64573219D01*
X84766114Y-64611314D01*
G04 #@! TO.C,R16*
X71278704Y-42170285D02*
X70897752Y-42436952D01*
X71278704Y-42627428D02*
X70478704Y-42627428D01*
X70478704Y-42322666D01*
X70516800Y-42246476D01*
X70554895Y-42208380D01*
X70631085Y-42170285D01*
X70745371Y-42170285D01*
X70821561Y-42208380D01*
X70859657Y-42246476D01*
X70897752Y-42322666D01*
X70897752Y-42627428D01*
X71278704Y-41408380D02*
X71278704Y-41865523D01*
X71278704Y-41636952D02*
X70478704Y-41636952D01*
X70592990Y-41713142D01*
X70669180Y-41789333D01*
X70707276Y-41865523D01*
X70478704Y-40722666D02*
X70478704Y-40875047D01*
X70516800Y-40951238D01*
X70554895Y-40989333D01*
X70669180Y-41065523D01*
X70821561Y-41103619D01*
X71126323Y-41103619D01*
X71202514Y-41065523D01*
X71240609Y-41027428D01*
X71278704Y-40951238D01*
X71278704Y-40798857D01*
X71240609Y-40722666D01*
X71202514Y-40684571D01*
X71126323Y-40646476D01*
X70935847Y-40646476D01*
X70859657Y-40684571D01*
X70821561Y-40722666D01*
X70783466Y-40798857D01*
X70783466Y-40951238D01*
X70821561Y-41027428D01*
X70859657Y-41065523D01*
X70935847Y-41103619D01*
G04 #@! TO.C,R17*
X85502704Y-73920285D02*
X85121752Y-74186952D01*
X85502704Y-74377428D02*
X84702704Y-74377428D01*
X84702704Y-74072666D01*
X84740800Y-73996476D01*
X84778895Y-73958380D01*
X84855085Y-73920285D01*
X84969371Y-73920285D01*
X85045561Y-73958380D01*
X85083657Y-73996476D01*
X85121752Y-74072666D01*
X85121752Y-74377428D01*
X85502704Y-73158380D02*
X85502704Y-73615523D01*
X85502704Y-73386952D02*
X84702704Y-73386952D01*
X84816990Y-73463142D01*
X84893180Y-73539333D01*
X84931276Y-73615523D01*
X84702704Y-72891714D02*
X84702704Y-72358380D01*
X85502704Y-72701238D01*
G04 #@! TO.C,R18*
X85502704Y-76663485D02*
X85121752Y-76930152D01*
X85502704Y-77120628D02*
X84702704Y-77120628D01*
X84702704Y-76815866D01*
X84740800Y-76739676D01*
X84778895Y-76701580D01*
X84855085Y-76663485D01*
X84969371Y-76663485D01*
X85045561Y-76701580D01*
X85083657Y-76739676D01*
X85121752Y-76815866D01*
X85121752Y-77120628D01*
X85502704Y-75901580D02*
X85502704Y-76358723D01*
X85502704Y-76130152D02*
X84702704Y-76130152D01*
X84816990Y-76206342D01*
X84893180Y-76282533D01*
X84931276Y-76358723D01*
X85045561Y-75444438D02*
X85007466Y-75520628D01*
X84969371Y-75558723D01*
X84893180Y-75596819D01*
X84855085Y-75596819D01*
X84778895Y-75558723D01*
X84740800Y-75520628D01*
X84702704Y-75444438D01*
X84702704Y-75292057D01*
X84740800Y-75215866D01*
X84778895Y-75177771D01*
X84855085Y-75139676D01*
X84893180Y-75139676D01*
X84969371Y-75177771D01*
X85007466Y-75215866D01*
X85045561Y-75292057D01*
X85045561Y-75444438D01*
X85083657Y-75520628D01*
X85121752Y-75558723D01*
X85197942Y-75596819D01*
X85350323Y-75596819D01*
X85426514Y-75558723D01*
X85464609Y-75520628D01*
X85502704Y-75444438D01*
X85502704Y-75292057D01*
X85464609Y-75215866D01*
X85426514Y-75177771D01*
X85350323Y-75139676D01*
X85197942Y-75139676D01*
X85121752Y-75177771D01*
X85083657Y-75215866D01*
X85045561Y-75292057D01*
G04 #@! TO.C,TP2*
X74428404Y-38030023D02*
X74428404Y-37572880D01*
X75228404Y-37801452D02*
X74428404Y-37801452D01*
X75228404Y-37306214D02*
X74428404Y-37306214D01*
X74428404Y-37001452D01*
X74466500Y-36925261D01*
X74504595Y-36887166D01*
X74580785Y-36849071D01*
X74695071Y-36849071D01*
X74771261Y-36887166D01*
X74809357Y-36925261D01*
X74847452Y-37001452D01*
X74847452Y-37306214D01*
X74504595Y-36544309D02*
X74466500Y-36506214D01*
X74428404Y-36430023D01*
X74428404Y-36239547D01*
X74466500Y-36163357D01*
X74504595Y-36125261D01*
X74580785Y-36087166D01*
X74656976Y-36087166D01*
X74771261Y-36125261D01*
X75228404Y-36582404D01*
X75228404Y-36087166D01*
G04 #@! TO.C,TP3*
X96145404Y-72154923D02*
X96145404Y-71697780D01*
X96945404Y-71926352D02*
X96145404Y-71926352D01*
X96945404Y-71431114D02*
X96145404Y-71431114D01*
X96145404Y-71126352D01*
X96183500Y-71050161D01*
X96221595Y-71012066D01*
X96297785Y-70973971D01*
X96412071Y-70973971D01*
X96488261Y-71012066D01*
X96526357Y-71050161D01*
X96564452Y-71126352D01*
X96564452Y-71431114D01*
X96145404Y-70707304D02*
X96145404Y-70212066D01*
X96450166Y-70478733D01*
X96450166Y-70364447D01*
X96488261Y-70288257D01*
X96526357Y-70250161D01*
X96602547Y-70212066D01*
X96793023Y-70212066D01*
X96869214Y-70250161D01*
X96907309Y-70288257D01*
X96945404Y-70364447D01*
X96945404Y-70593019D01*
X96907309Y-70669209D01*
X96869214Y-70707304D01*
G04 #@! TO.C,TP4*
X99282304Y-62655323D02*
X99282304Y-62198180D01*
X100082304Y-62426752D02*
X99282304Y-62426752D01*
X100082304Y-61931514D02*
X99282304Y-61931514D01*
X99282304Y-61626752D01*
X99320400Y-61550561D01*
X99358495Y-61512466D01*
X99434685Y-61474371D01*
X99548971Y-61474371D01*
X99625161Y-61512466D01*
X99663257Y-61550561D01*
X99701352Y-61626752D01*
X99701352Y-61931514D01*
X99548971Y-60788657D02*
X100082304Y-60788657D01*
X99244209Y-60979133D02*
X99815638Y-61169609D01*
X99815638Y-60674371D01*
G04 #@! TO.C,TP5*
X71126404Y-50476023D02*
X71126404Y-50018880D01*
X71926404Y-50247452D02*
X71126404Y-50247452D01*
X71926404Y-49752214D02*
X71126404Y-49752214D01*
X71126404Y-49447452D01*
X71164500Y-49371261D01*
X71202595Y-49333166D01*
X71278785Y-49295071D01*
X71393071Y-49295071D01*
X71469261Y-49333166D01*
X71507357Y-49371261D01*
X71545452Y-49447452D01*
X71545452Y-49752214D01*
X71126404Y-48571261D02*
X71126404Y-48952214D01*
X71507357Y-48990309D01*
X71469261Y-48952214D01*
X71431166Y-48876023D01*
X71431166Y-48685547D01*
X71469261Y-48609357D01*
X71507357Y-48571261D01*
X71583547Y-48533166D01*
X71774023Y-48533166D01*
X71850214Y-48571261D01*
X71888309Y-48609357D01*
X71926404Y-48685547D01*
X71926404Y-48876023D01*
X71888309Y-48952214D01*
X71850214Y-48990309D01*
G04 #@! TO.C,C7*
X87153714Y-71964533D02*
X87191809Y-72002628D01*
X87229904Y-72116914D01*
X87229904Y-72193104D01*
X87191809Y-72307390D01*
X87115619Y-72383580D01*
X87039428Y-72421676D01*
X86887047Y-72459771D01*
X86772761Y-72459771D01*
X86620380Y-72421676D01*
X86544190Y-72383580D01*
X86468000Y-72307390D01*
X86429904Y-72193104D01*
X86429904Y-72116914D01*
X86468000Y-72002628D01*
X86506095Y-71964533D01*
X86429904Y-71697866D02*
X86429904Y-71164533D01*
X87229904Y-71507390D01*
G04 #@! TO.C,L1*
X92563904Y-69729333D02*
X92563904Y-70110285D01*
X91763904Y-70110285D01*
X92563904Y-69043619D02*
X92563904Y-69500761D01*
X92563904Y-69272190D02*
X91763904Y-69272190D01*
X91878190Y-69348380D01*
X91954380Y-69424571D01*
X91992476Y-69500761D01*
G04 #@! TO.C,J1*
X90087504Y-37160166D02*
X90658933Y-37160166D01*
X90773219Y-37198261D01*
X90849409Y-37274452D01*
X90887504Y-37388738D01*
X90887504Y-37464928D01*
X90887504Y-36360166D02*
X90887504Y-36817309D01*
X90887504Y-36588738D02*
X90087504Y-36588738D01*
X90201790Y-36664928D01*
X90277980Y-36741119D01*
X90316076Y-36817309D01*
G04 #@! TO.C,J3*
X89795404Y-44843666D02*
X90366833Y-44843666D01*
X90481119Y-44881761D01*
X90557309Y-44957952D01*
X90595404Y-45072238D01*
X90595404Y-45148428D01*
X89795404Y-44538904D02*
X89795404Y-44043666D01*
X90100166Y-44310333D01*
X90100166Y-44196047D01*
X90138261Y-44119857D01*
X90176357Y-44081761D01*
X90252547Y-44043666D01*
X90443023Y-44043666D01*
X90519214Y-44081761D01*
X90557309Y-44119857D01*
X90595404Y-44196047D01*
X90595404Y-44424619D01*
X90557309Y-44500809D01*
X90519214Y-44538904D01*
G04 #@! TO.C,J5*
D12*
X89795404Y-52209666D02*
X90366833Y-52209666D01*
X90481119Y-52247761D01*
X90557309Y-52323952D01*
X90595404Y-52438238D01*
X90595404Y-52514428D01*
X89795404Y-51447761D02*
X89795404Y-51828714D01*
X90176357Y-51866809D01*
X90138261Y-51828714D01*
X90100166Y-51752523D01*
X90100166Y-51562047D01*
X90138261Y-51485857D01*
X90176357Y-51447761D01*
X90252547Y-51409666D01*
X90443023Y-51409666D01*
X90519214Y-51447761D01*
X90557309Y-51485857D01*
X90595404Y-51562047D01*
X90595404Y-51752523D01*
X90557309Y-51828714D01*
X90519214Y-51866809D01*
G04 #@! TD*
M02*
