M48
INCH,TZ
T1C0.0120
T2C0.0472
T3C0.0630
T4C0.0512
T5C0.0630
T6C0.0866
%
G90
G05
T1
X27900Y-14925
X29175Y-21400
X30295Y-12235
X30600Y-28175
X30850Y-18925
X30990Y-16860
X31220Y-30460
X31240Y-12235
X31750Y-16675
X32750Y-16700
X33110Y-17060
X33125Y-18625
X33195Y-25180
X33460Y-29960
X33650Y-19300
X33650Y-19850
X34250Y-17050
X34650Y-23650
X34675Y-15475
X34775Y-17250
X34920Y-29940
X36140Y-27320
X36275Y-23425
X36350Y-22575
T2
X36220Y-17590
X36220Y-18574
X36275Y-20525
X36275Y-21509
X36295Y-14690
X36295Y-15674
T3
X28525Y-14400
X28950Y-19400
X36400Y-12360
X38800Y-28060
X38940Y-23320
T4
X30150Y-23541
X30150Y-25509
T5
X39047Y-17590
X39047Y-18574
X39102Y-20525
X39102Y-21509
X39122Y-14690
X39122Y-15674
T6
X28750Y-12850
X28800Y-29525
X38450Y-12825
X38450Y-29575
T0
M30
