G04 #@! TF.GenerationSoftware,KiCad,Pcbnew,(5.1.9-0-10_14)*
G04 #@! TF.CreationDate,2021-03-21T12:23:30-04:00*
G04 #@! TF.ProjectId,Antoinette_PowerBank,416e746f-696e-4657-9474-655f506f7765,rev?*
G04 #@! TF.SameCoordinates,Original*
G04 #@! TF.FileFunction,Copper,L1,Top*
G04 #@! TF.FilePolarity,Positive*
%FSLAX46Y46*%
G04 Gerber Fmt 4.6, Leading zero omitted, Abs format (unit mm)*
G04 Created by KiCad (PCBNEW (5.1.9-0-10_14)) date 2021-03-21 12:23:30*
%MOMM*%
%LPD*%
G01*
G04 APERTURE LIST*
G04 #@! TA.AperFunction,SMDPad,CuDef*
%ADD10R,1.900000X1.900000*%
G04 #@! TD*
G04 #@! TA.AperFunction,SMDPad,CuDef*
%ADD11R,1.450000X1.300000*%
G04 #@! TD*
G04 #@! TA.AperFunction,SMDPad,CuDef*
%ADD12R,1.600000X1.400000*%
G04 #@! TD*
G04 #@! TA.AperFunction,SMDPad,CuDef*
%ADD13R,0.400000X1.350000*%
G04 #@! TD*
G04 #@! TA.AperFunction,SMDPad,CuDef*
%ADD14R,0.700000X1.300000*%
G04 #@! TD*
G04 #@! TA.AperFunction,ComponentPad*
%ADD15C,2.400000*%
G04 #@! TD*
G04 #@! TA.AperFunction,SMDPad,CuDef*
%ADD16R,2.700000X2.700000*%
G04 #@! TD*
G04 #@! TA.AperFunction,SMDPad,CuDef*
%ADD17R,0.260000X0.810000*%
G04 #@! TD*
G04 #@! TA.AperFunction,SMDPad,CuDef*
%ADD18R,0.810000X0.260000*%
G04 #@! TD*
G04 #@! TA.AperFunction,SMDPad,CuDef*
%ADD19R,1.300000X0.700000*%
G04 #@! TD*
G04 #@! TA.AperFunction,SMDPad,CuDef*
%ADD20R,0.340000X0.810000*%
G04 #@! TD*
G04 #@! TA.AperFunction,SMDPad,CuDef*
%ADD21R,0.810000X0.340000*%
G04 #@! TD*
G04 #@! TA.AperFunction,SMDPad,CuDef*
%ADD22R,1.000000X1.250000*%
G04 #@! TD*
G04 #@! TA.AperFunction,SMDPad,CuDef*
%ADD23R,1.200000X1.200000*%
G04 #@! TD*
G04 #@! TA.AperFunction,SMDPad,CuDef*
%ADD24R,5.000000X2.500000*%
G04 #@! TD*
G04 #@! TA.AperFunction,SMDPad,CuDef*
%ADD25R,2.800000X0.900000*%
G04 #@! TD*
G04 #@! TA.AperFunction,SMDPad,CuDef*
%ADD26R,0.900000X0.800000*%
G04 #@! TD*
G04 #@! TA.AperFunction,SMDPad,CuDef*
%ADD27R,2.000000X1.200000*%
G04 #@! TD*
G04 #@! TA.AperFunction,ComponentPad*
%ADD28R,1.900000X1.900000*%
G04 #@! TD*
G04 #@! TA.AperFunction,ComponentPad*
%ADD29C,1.900000*%
G04 #@! TD*
G04 #@! TA.AperFunction,ViaPad*
%ADD30C,0.609600*%
G04 #@! TD*
G04 #@! TA.AperFunction,Conductor*
%ADD31C,0.400000*%
G04 #@! TD*
G04 #@! TA.AperFunction,Conductor*
%ADD32C,0.150000*%
G04 #@! TD*
G04 #@! TA.AperFunction,Conductor*
%ADD33C,0.152400*%
G04 #@! TD*
G04 #@! TA.AperFunction,Conductor*
%ADD34C,0.254000*%
G04 #@! TD*
G04 #@! TA.AperFunction,Conductor*
%ADD35C,0.100000*%
G04 #@! TD*
G04 APERTURE END LIST*
D10*
G04 #@! TO.P,J2,11*
G04 #@! TO.N,GND*
X84207500Y-32956500D03*
G04 #@! TO.P,J2,10*
X86607500Y-32956500D03*
D11*
G04 #@! TO.P,J2,9*
X88832500Y-32956500D03*
G04 #@! TO.P,J2,8*
X81982500Y-32956500D03*
D12*
G04 #@! TO.P,J2,7*
X82207500Y-35406500D03*
G04 #@! TO.P,J2,6*
X88607500Y-35406500D03*
D13*
G04 #@! TO.P,J2,5*
X84107500Y-35631500D03*
G04 #@! TO.P,J2,4*
G04 #@! TO.N,Net-(J2-Pad4)*
X84757500Y-35631500D03*
G04 #@! TO.P,J2,3*
G04 #@! TO.N,Net-(J2-Pad3)*
X85407500Y-35631500D03*
G04 #@! TO.P,J2,2*
G04 #@! TO.N,Net-(J2-Pad2)*
X86057500Y-35631500D03*
G04 #@! TO.P,J2,1*
G04 #@! TO.N,VBUS*
X86707500Y-35631500D03*
G04 #@! TD*
D14*
G04 #@! TO.P,R15,2*
G04 #@! TO.N,Net-(D3-Pad2)*
X74165500Y-44069000D03*
G04 #@! TO.P,R15,1*
G04 #@! TO.N,+5V*
X72265500Y-44069000D03*
G04 #@! TD*
G04 #@! TO.P,R14,2*
G04 #@! TO.N,Net-(Q1-Pad1)*
X85951100Y-59855100D03*
G04 #@! TO.P,R14,1*
G04 #@! TO.N,+5V*
X84051100Y-59855100D03*
G04 #@! TD*
G04 #@! TO.P,R6,2*
G04 #@! TO.N,Net-(R6-Pad2)*
X94198400Y-59588400D03*
G04 #@! TO.P,R6,1*
G04 #@! TO.N,+BATT*
X96098400Y-59588400D03*
G04 #@! TD*
D15*
G04 #@! TO.P,TP1,1*
G04 #@! TO.N,VBUS*
X92456000Y-31394400D03*
G04 #@! TD*
D16*
G04 #@! TO.P,U2,21*
G04 #@! TO.N,GND*
X81453799Y-45364400D03*
D17*
G04 #@! TO.P,U2,20*
G04 #@! TO.N,+BATT*
X82453799Y-47319400D03*
G04 #@! TO.P,U2,19*
G04 #@! TO.N,VBUS*
X81953799Y-47319400D03*
G04 #@! TO.P,U2,18*
X81453799Y-47319400D03*
G04 #@! TO.P,U2,17*
X80953799Y-47319400D03*
G04 #@! TO.P,U2,16*
G04 #@! TO.N,/Battery+*
X80453799Y-47319400D03*
D18*
G04 #@! TO.P,U2,15*
X79498799Y-46364400D03*
G04 #@! TO.P,U2,14*
X79498799Y-45864400D03*
G04 #@! TO.P,U2,13*
G04 #@! TO.N,Net-(R9-Pad1)*
X79498799Y-45364400D03*
G04 #@! TO.P,U2,12*
G04 #@! TO.N,Net-(R5-Pad1)*
X79498799Y-44864400D03*
G04 #@! TO.P,U2,11*
G04 #@! TO.N,GND*
X79498799Y-44364400D03*
D17*
G04 #@! TO.P,U2,10*
X80453799Y-43409400D03*
G04 #@! TO.P,U2,9*
G04 #@! TO.N,VBUS*
X80953799Y-43409400D03*
G04 #@! TO.P,U2,8*
G04 #@! TO.N,Net-(D1-Pad1)*
X81453799Y-43409400D03*
G04 #@! TO.P,U2,7*
G04 #@! TO.N,Net-(D2-Pad1)*
X81953799Y-43409400D03*
G04 #@! TO.P,U2,6*
G04 #@! TO.N,Net-(U2-Pad6)*
X82453799Y-43409400D03*
D18*
G04 #@! TO.P,U2,5*
G04 #@! TO.N,/16KThermistor*
X83408799Y-44364400D03*
G04 #@! TO.P,U2,4*
G04 #@! TO.N,VBUS*
X83408799Y-44864400D03*
G04 #@! TO.P,U2,3*
X83408799Y-45364400D03*
G04 #@! TO.P,U2,2*
G04 #@! TO.N,Net-(R3-Pad2)*
X83408799Y-45864400D03*
G04 #@! TO.P,U2,1*
G04 #@! TO.N,+BATT*
X83408799Y-46364400D03*
G04 #@! TD*
D19*
G04 #@! TO.P,R11,2*
G04 #@! TO.N,Net-(D2-Pad2)*
X86080600Y-40010000D03*
G04 #@! TO.P,R11,1*
G04 #@! TO.N,VBUS*
X86080600Y-41910000D03*
G04 #@! TD*
G04 #@! TO.P,R5,1*
G04 #@! TO.N,Net-(R5-Pad1)*
X79248000Y-34224000D03*
G04 #@! TO.P,R5,2*
G04 #@! TO.N,GND*
X79248000Y-32324000D03*
G04 #@! TD*
D20*
G04 #@! TO.P,U3,1*
G04 #@! TO.N,+5V*
X89334700Y-66013800D03*
G04 #@! TO.P,U3,2*
G04 #@! TO.N,N/C*
X89984700Y-66013800D03*
G04 #@! TO.P,U3,3*
G04 #@! TO.N,Net-(L1-Pad2)*
X90634700Y-66013800D03*
G04 #@! TO.P,U3,4*
X91284700Y-66013800D03*
D21*
G04 #@! TO.P,U3,5*
G04 #@! TO.N,GND*
X92264700Y-65033800D03*
G04 #@! TO.P,U3,6*
X92264700Y-64383800D03*
G04 #@! TO.P,U3,7*
X92264700Y-63733800D03*
G04 #@! TO.P,U3,8*
G04 #@! TO.N,+BATT*
X92264700Y-63083800D03*
D20*
G04 #@! TO.P,U3,9*
G04 #@! TO.N,Net-(R6-Pad2)*
X91284700Y-62103800D03*
G04 #@! TO.P,U3,10*
G04 #@! TO.N,GND*
X90634700Y-62103800D03*
G04 #@! TO.P,U3,11*
G04 #@! TO.N,/switch*
X89984700Y-62103800D03*
G04 #@! TO.P,U3,12*
G04 #@! TO.N,Net-(Q1-Pad1)*
X89334700Y-62103800D03*
D21*
G04 #@! TO.P,U3,13*
G04 #@! TO.N,GND*
X88354700Y-63083800D03*
G04 #@! TO.P,U3,14*
G04 #@! TO.N,Net-(R12-Pad2)*
X88354700Y-63733800D03*
G04 #@! TO.P,U3,15*
G04 #@! TO.N,+5V*
X88354700Y-64383800D03*
G04 #@! TO.P,U3,16*
X88354700Y-65033800D03*
D16*
G04 #@! TO.P,U3,17*
G04 #@! TO.N,GND*
X90309700Y-64058800D03*
G04 #@! TD*
D22*
G04 #@! TO.P,C1,2*
G04 #@! TO.N,GND*
X86128100Y-62014100D03*
G04 #@! TO.P,C1,1*
G04 #@! TO.N,+5V*
X84128100Y-62014100D03*
G04 #@! TD*
G04 #@! TO.P,C2,1*
G04 #@! TO.N,VBUS*
X85741000Y-37909500D03*
G04 #@! TO.P,C2,2*
G04 #@! TO.N,GND*
X87741000Y-37909500D03*
G04 #@! TD*
G04 #@! TO.P,C3,2*
G04 #@! TO.N,GND*
X80407000Y-49657000D03*
G04 #@! TO.P,C3,1*
G04 #@! TO.N,/Battery+*
X82407000Y-49657000D03*
G04 #@! TD*
G04 #@! TO.P,C4,2*
G04 #@! TO.N,GND*
X94694500Y-65430400D03*
G04 #@! TO.P,C4,1*
G04 #@! TO.N,+BATT*
X96694500Y-65430400D03*
G04 #@! TD*
G04 #@! TO.P,C5,1*
G04 #@! TO.N,+BATT*
X96694500Y-62788800D03*
G04 #@! TO.P,C5,2*
G04 #@! TO.N,GND*
X94694500Y-62788800D03*
G04 #@! TD*
G04 #@! TO.P,C6,1*
G04 #@! TO.N,+5V*
X89271600Y-67970400D03*
G04 #@! TO.P,C6,2*
G04 #@! TO.N,GND*
X91271600Y-67970400D03*
G04 #@! TD*
D23*
G04 #@! TO.P,D1,1*
G04 #@! TO.N,Net-(D1-Pad1)*
X81203800Y-41130400D03*
G04 #@! TO.P,D1,2*
G04 #@! TO.N,Net-(D1-Pad2)*
X81203800Y-38930400D03*
G04 #@! TD*
G04 #@! TO.P,D2,2*
G04 #@! TO.N,Net-(D2-Pad2)*
X83693000Y-38912800D03*
G04 #@! TO.P,D2,1*
G04 #@! TO.N,Net-(D2-Pad1)*
X83693000Y-41112800D03*
G04 #@! TD*
G04 #@! TO.P,D3,1*
G04 #@! TO.N,Net-(D3-Pad1)*
X74569500Y-46672500D03*
G04 #@! TO.P,D3,2*
G04 #@! TO.N,Net-(D3-Pad2)*
X72369500Y-46672500D03*
G04 #@! TD*
G04 #@! TO.P,D4,2*
G04 #@! TO.N,Net-(D4-Pad2)*
X74506000Y-39243000D03*
G04 #@! TO.P,D4,1*
G04 #@! TO.N,GND*
X72306000Y-39243000D03*
G04 #@! TD*
G04 #@! TO.P,F1,1*
G04 #@! TO.N,Net-(F1-Pad1)*
G04 #@! TA.AperFunction,SMDPad,CuDef*
G36*
G01*
X87767000Y-48013000D02*
X89017000Y-48013000D01*
G75*
G02*
X89267000Y-48263000I0J-250000D01*
G01*
X89267000Y-49013000D01*
G75*
G02*
X89017000Y-49263000I-250000J0D01*
G01*
X87767000Y-49263000D01*
G75*
G02*
X87517000Y-49013000I0J250000D01*
G01*
X87517000Y-48263000D01*
G75*
G02*
X87767000Y-48013000I250000J0D01*
G01*
G37*
G04 #@! TD.AperFunction*
G04 #@! TO.P,F1,2*
G04 #@! TO.N,/Battery+*
G04 #@! TA.AperFunction,SMDPad,CuDef*
G36*
G01*
X87767000Y-50813000D02*
X89017000Y-50813000D01*
G75*
G02*
X89267000Y-51063000I0J-250000D01*
G01*
X89267000Y-51813000D01*
G75*
G02*
X89017000Y-52063000I-250000J0D01*
G01*
X87767000Y-52063000D01*
G75*
G02*
X87517000Y-51813000I0J250000D01*
G01*
X87517000Y-51063000D01*
G75*
G02*
X87767000Y-50813000I250000J0D01*
G01*
G37*
G04 #@! TD.AperFunction*
G04 #@! TD*
D24*
G04 #@! TO.P,J4,S2*
G04 #@! TO.N,GND*
X78181000Y-69543500D03*
G04 #@! TO.P,J4,S1*
X78181000Y-55043500D03*
D25*
G04 #@! TO.P,J4,03*
G04 #@! TO.N,Net-(J4-Pad03)*
X80431000Y-63293500D03*
G04 #@! TO.P,J4,01*
G04 #@! TO.N,+5V*
X80431000Y-58793500D03*
G04 #@! TO.P,J4,02*
G04 #@! TO.N,Net-(J4-Pad02)*
X80431000Y-61293500D03*
G04 #@! TO.P,J4,04*
G04 #@! TO.N,GND*
X80431000Y-65793500D03*
G04 #@! TD*
D26*
G04 #@! TO.P,Q1,1*
G04 #@! TO.N,Net-(Q1-Pad1)*
X78329500Y-52131000D03*
G04 #@! TO.P,Q1,2*
G04 #@! TO.N,GND*
X78329500Y-50231000D03*
G04 #@! TO.P,Q1,3*
G04 #@! TO.N,Net-(D3-Pad1)*
X76229500Y-51181000D03*
G04 #@! TD*
D14*
G04 #@! TO.P,R1,1*
G04 #@! TO.N,+5V*
X79232800Y-73456800D03*
G04 #@! TO.P,R1,2*
G04 #@! TO.N,Net-(J4-Pad03)*
X77332800Y-73456800D03*
G04 #@! TD*
G04 #@! TO.P,R2,2*
G04 #@! TO.N,GND*
X79270900Y-76047600D03*
G04 #@! TO.P,R2,1*
G04 #@! TO.N,Net-(J4-Pad03)*
X77370900Y-76047600D03*
G04 #@! TD*
D19*
G04 #@! TO.P,R3,1*
G04 #@! TO.N,VBUS*
X86029800Y-44770000D03*
G04 #@! TO.P,R3,2*
G04 #@! TO.N,Net-(R3-Pad2)*
X86029800Y-46670000D03*
G04 #@! TD*
G04 #@! TO.P,R4,1*
G04 #@! TO.N,Net-(R3-Pad2)*
X88315800Y-46685200D03*
G04 #@! TO.P,R4,2*
G04 #@! TO.N,GND*
X88315800Y-44785200D03*
G04 #@! TD*
D14*
G04 #@! TO.P,R7,2*
G04 #@! TO.N,GND*
X89029500Y-60121800D03*
G04 #@! TO.P,R7,1*
G04 #@! TO.N,Net-(R6-Pad2)*
X90929500Y-60121800D03*
G04 #@! TD*
D19*
G04 #@! TO.P,R8,2*
G04 #@! TO.N,VBUS*
X78836520Y-41391880D03*
G04 #@! TO.P,R8,1*
G04 #@! TO.N,Net-(D1-Pad2)*
X78836520Y-39491880D03*
G04 #@! TD*
G04 #@! TO.P,R9,2*
G04 #@! TO.N,GND*
X76962000Y-32324000D03*
G04 #@! TO.P,R9,1*
G04 #@! TO.N,Net-(R9-Pad1)*
X76962000Y-34224000D03*
G04 #@! TD*
G04 #@! TO.P,R10,1*
G04 #@! TO.N,+BATT*
X98996500Y-69085500D03*
G04 #@! TO.P,R10,2*
G04 #@! TO.N,Net-(J5-Pad1)*
X98996500Y-67185500D03*
G04 #@! TD*
G04 #@! TO.P,R12,2*
G04 #@! TO.N,Net-(R12-Pad2)*
X85991700Y-68000800D03*
G04 #@! TO.P,R12,1*
G04 #@! TO.N,+5V*
X85991700Y-69900800D03*
G04 #@! TD*
G04 #@! TO.P,R13,1*
G04 #@! TO.N,Net-(R12-Pad2)*
X85991700Y-65974000D03*
G04 #@! TO.P,R13,2*
G04 #@! TO.N,GND*
X85991700Y-64074000D03*
G04 #@! TD*
D14*
G04 #@! TO.P,R16,1*
G04 #@! TO.N,+5V*
X72202000Y-41656000D03*
G04 #@! TO.P,R16,2*
G04 #@! TO.N,Net-(D4-Pad2)*
X74102000Y-41656000D03*
G04 #@! TD*
G04 #@! TO.P,R17,1*
G04 #@! TO.N,+5V*
X83906400Y-73406000D03*
G04 #@! TO.P,R17,2*
G04 #@! TO.N,Net-(J4-Pad02)*
X82006400Y-73406000D03*
G04 #@! TD*
G04 #@! TO.P,R18,2*
G04 #@! TO.N,GND*
X83906400Y-76098400D03*
G04 #@! TO.P,R18,1*
G04 #@! TO.N,Net-(J4-Pad02)*
X82006400Y-76098400D03*
G04 #@! TD*
D15*
G04 #@! TO.P,TP2,1*
G04 #@! TO.N,/Battery+*
X72453500Y-36576000D03*
G04 #@! TD*
G04 #@! TO.P,TP3,1*
G04 #@! TO.N,+BATT*
X98552000Y-71272400D03*
G04 #@! TD*
G04 #@! TO.P,TP4,1*
G04 #@! TO.N,Net-(J5-Pad1)*
X98907600Y-59232800D03*
G04 #@! TD*
G04 #@! TO.P,TP5,1*
G04 #@! TO.N,Net-(Q1-Pad1)*
X73533000Y-49276000D03*
G04 #@! TD*
G04 #@! TO.P,C7,2*
G04 #@! TO.N,GND*
G04 #@! TA.AperFunction,SMDPad,CuDef*
G36*
G01*
X87907198Y-73812600D02*
X90807202Y-73812600D01*
G75*
G02*
X91057200Y-74062598I0J-249998D01*
G01*
X91057200Y-74687602D01*
G75*
G02*
X90807202Y-74937600I-249998J0D01*
G01*
X87907198Y-74937600D01*
G75*
G02*
X87657200Y-74687602I0J249998D01*
G01*
X87657200Y-74062598D01*
G75*
G02*
X87907198Y-73812600I249998J0D01*
G01*
G37*
G04 #@! TD.AperFunction*
G04 #@! TO.P,C7,1*
G04 #@! TO.N,+5V*
G04 #@! TA.AperFunction,SMDPad,CuDef*
G36*
G01*
X87907198Y-69537600D02*
X90807202Y-69537600D01*
G75*
G02*
X91057200Y-69787598I0J-249998D01*
G01*
X91057200Y-70412602D01*
G75*
G02*
X90807202Y-70662600I-249998J0D01*
G01*
X87907198Y-70662600D01*
G75*
G02*
X87657200Y-70412602I0J249998D01*
G01*
X87657200Y-69787598D01*
G75*
G02*
X87907198Y-69537600I249998J0D01*
G01*
G37*
G04 #@! TD.AperFunction*
G04 #@! TD*
D27*
G04 #@! TO.P,L1,1*
G04 #@! TO.N,+BATT*
X94030800Y-67996000D03*
G04 #@! TO.P,L1,2*
G04 #@! TO.N,Net-(L1-Pad2)*
X94030800Y-71196000D03*
G04 #@! TD*
D28*
G04 #@! TO.P,J1,1*
G04 #@! TO.N,GND*
X92189300Y-37312600D03*
D29*
G04 #@! TO.P,J1,2*
G04 #@! TO.N,/16KThermistor*
X92189300Y-39812600D03*
G04 #@! TD*
D28*
G04 #@! TO.P,J3,1*
G04 #@! TO.N,GND*
X91998800Y-44678600D03*
D29*
G04 #@! TO.P,J3,2*
G04 #@! TO.N,Net-(F1-Pad1)*
X91998800Y-47178600D03*
G04 #@! TD*
D28*
G04 #@! TO.P,J5,1*
G04 #@! TO.N,Net-(J5-Pad1)*
X92138500Y-52133500D03*
D29*
G04 #@! TO.P,J5,2*
G04 #@! TO.N,/switch*
X92138500Y-54633500D03*
G04 #@! TD*
D30*
G04 #@! TO.N,GND*
X91795600Y-69392800D03*
X79298800Y-77368400D03*
X84988400Y-76098400D03*
X88696800Y-76047600D03*
X77724000Y-71564500D03*
X74104500Y-54356000D03*
X88074500Y-39306500D03*
X84315300Y-63957200D03*
X88011000Y-60071000D03*
X88328500Y-43815000D03*
X78714600Y-42824400D03*
X76949300Y-31076900D03*
X79349600Y-31076900D03*
X78359000Y-48069500D03*
X70866000Y-37909500D03*
G04 #@! TO.N,VBUS*
X84137500Y-47307500D03*
X80645000Y-42354500D03*
X83185000Y-42418000D03*
G04 #@! TO.N,+BATT*
X85471000Y-49022000D03*
X85471000Y-50419000D03*
G04 #@! TO.N,/16KThermistor*
X84099400Y-43332400D03*
X86995000Y-43307000D03*
G04 #@! TO.N,/switch*
X92329000Y-57340500D03*
X92138500Y-59499500D03*
G04 #@! TD*
D31*
G04 #@! TO.N,GND*
X89334700Y-63083800D02*
X90309700Y-64058800D01*
X88354700Y-63083800D02*
X89334700Y-63083800D01*
D32*
X90634700Y-61843800D02*
X90634700Y-62103800D01*
D33*
X80453799Y-44364400D02*
X81453799Y-45364400D01*
X80453799Y-43409400D02*
X80453799Y-44364400D01*
X81056199Y-45364400D02*
X81453799Y-45364400D01*
X80056199Y-44364400D02*
X81056199Y-45364400D01*
X79498799Y-44364400D02*
X80056199Y-44364400D01*
X90634700Y-61765334D02*
X90634700Y-62103800D01*
X79868799Y-42824400D02*
X80453799Y-43409400D01*
X78714600Y-42824400D02*
X79868799Y-42824400D01*
X78714600Y-43580201D02*
X79498799Y-44364400D01*
X78714600Y-42824400D02*
X78714600Y-43580201D01*
X87706200Y-44747100D02*
X87807800Y-44848700D01*
X85874900Y-63957200D02*
X85991700Y-64074000D01*
X84315300Y-63957200D02*
X85874900Y-63957200D01*
X90634700Y-62103800D02*
X90634700Y-63733800D01*
X90634700Y-63733800D02*
X90309700Y-64058800D01*
X76949300Y-32245300D02*
X76898500Y-32296100D01*
X76949300Y-31076900D02*
X76949300Y-32245300D01*
X79349600Y-32209700D02*
X79248000Y-32311300D01*
X79349600Y-31076900D02*
X79349600Y-32209700D01*
D31*
X80282500Y-49342000D02*
X80407000Y-49466500D01*
X72052000Y-39095500D02*
X70866000Y-37909500D01*
X72052000Y-39243000D02*
X72052000Y-39095500D01*
X88392000Y-44899500D02*
X88392000Y-43878500D01*
D33*
X88061800Y-60121800D02*
X88011000Y-60071000D01*
X89029500Y-60121800D02*
X88061800Y-60121800D01*
X79499500Y-32575500D02*
X79248000Y-32324000D01*
X82549000Y-35025500D02*
X82774000Y-35250500D01*
D31*
X88074500Y-38243000D02*
X87741000Y-37909500D01*
X88074500Y-39306500D02*
X88074500Y-38243000D01*
D33*
X76985500Y-54356000D02*
X77673000Y-55043500D01*
X74104500Y-54356000D02*
X76985500Y-54356000D01*
X86128100Y-63937600D02*
X85991700Y-64074000D01*
X86128100Y-62014100D02*
X86128100Y-63937600D01*
X79923000Y-67293500D02*
X77673000Y-69543500D01*
X79923000Y-65793500D02*
X79923000Y-67293500D01*
D31*
X77724000Y-69594500D02*
X77673000Y-69543500D01*
X77724000Y-71564500D02*
X77724000Y-69594500D01*
X88607500Y-33181500D02*
X88832500Y-32956500D01*
X88607500Y-35406500D02*
X88607500Y-33181500D01*
X82207500Y-33181500D02*
X81982500Y-32956500D01*
X82207500Y-35406500D02*
X82207500Y-33181500D01*
X88832500Y-32956500D02*
X81982500Y-32956500D01*
X81350000Y-32324000D02*
X81982500Y-32956500D01*
X79248000Y-32324000D02*
X81350000Y-32324000D01*
X83882500Y-35406500D02*
X84107500Y-35631500D01*
X82207500Y-35406500D02*
X83882500Y-35406500D01*
D33*
X78329500Y-48099000D02*
X78359000Y-48069500D01*
X78329500Y-50231000D02*
X78329500Y-48099000D01*
X79833000Y-50231000D02*
X80407000Y-49657000D01*
X78329500Y-50231000D02*
X79833000Y-50231000D01*
D31*
X88337900Y-37312600D02*
X87741000Y-37909500D01*
X92189300Y-37312600D02*
X88337900Y-37312600D01*
D33*
X91795600Y-68494400D02*
X91271600Y-67970400D01*
X91795600Y-69392800D02*
X91795600Y-68494400D01*
X85991700Y-64074000D02*
X86981900Y-63083800D01*
X88354700Y-63083800D02*
X86981900Y-63083800D01*
X79298800Y-76075500D02*
X79270900Y-76047600D01*
X79298800Y-77368400D02*
X79298800Y-76075500D01*
X85090000Y-76098400D02*
X85191600Y-76200000D01*
X83906400Y-76098400D02*
X85090000Y-76098400D01*
X88696800Y-75035500D02*
X89357200Y-74375100D01*
X88696800Y-76047600D02*
X88696800Y-75035500D01*
G04 #@! TO.N,+5V*
X85585300Y-69682400D02*
X85839300Y-69936400D01*
X85824100Y-69733200D02*
X85991700Y-69900800D01*
D31*
X72265500Y-41719500D02*
X72202000Y-41656000D01*
X72265500Y-44069000D02*
X72265500Y-41719500D01*
X71183500Y-45151000D02*
X72265500Y-44069000D01*
X84128100Y-59932100D02*
X84051100Y-59855100D01*
X84128100Y-62014100D02*
X84128100Y-59932100D01*
X83803100Y-61689100D02*
X84128100Y-62014100D01*
X83658099Y-62484101D02*
X84128100Y-62014100D01*
X83658099Y-68617199D02*
X83658099Y-62484101D01*
X84941700Y-69900800D02*
X83658099Y-68617199D01*
X71417099Y-44917401D02*
X72265500Y-44069000D01*
X84051100Y-54968100D02*
X81966401Y-52883401D01*
X71417099Y-52240099D02*
X71417099Y-44917401D01*
X72060401Y-52883401D02*
X71417099Y-52240099D01*
X81966401Y-52883401D02*
X72060401Y-52883401D01*
X84051100Y-59855100D02*
X84051100Y-54968100D01*
X82989500Y-58793500D02*
X84051100Y-59855100D01*
X80431000Y-58793500D02*
X82989500Y-58793500D01*
X86191000Y-70100100D02*
X85991700Y-69900800D01*
X89357200Y-70100100D02*
X86191000Y-70100100D01*
X83906400Y-71986100D02*
X85991700Y-69900800D01*
X83906400Y-73406000D02*
X83906400Y-71986100D01*
X79973301Y-75699623D02*
X79973301Y-74197301D01*
X81374479Y-77100801D02*
X79973301Y-75699623D01*
X85509999Y-77100801D02*
X81374479Y-77100801D01*
X85645601Y-76965199D02*
X85509999Y-77100801D01*
X79973301Y-74197301D02*
X79232800Y-73456800D01*
X85645601Y-75145201D02*
X85645601Y-76965199D01*
X83906400Y-73406000D02*
X85645601Y-75145201D01*
G04 #@! TO.N,VBUS*
X79811840Y-42367200D02*
X78836520Y-41391880D01*
X85521800Y-41960800D02*
X86080600Y-41402000D01*
X83408799Y-44864400D02*
X84665400Y-44864400D01*
X83408799Y-45364400D02*
X83408799Y-44864400D01*
X83185000Y-42418000D02*
X85064600Y-42418000D01*
X86080600Y-41402000D02*
X85140800Y-42341800D01*
X80645000Y-42516146D02*
X80645000Y-42354500D01*
X80953799Y-42824945D02*
X80645000Y-42516146D01*
X80953799Y-43409400D02*
X80953799Y-42824945D01*
X80632300Y-42367200D02*
X80645000Y-42354500D01*
X79811840Y-42367200D02*
X80632300Y-42367200D01*
X84137500Y-47307500D02*
X83368199Y-48076801D01*
X81453799Y-47319400D02*
X81453799Y-47488722D01*
X81901389Y-47936312D02*
X81901389Y-47319400D01*
X82041878Y-48076801D02*
X81901389Y-47936312D01*
X83368199Y-48076801D02*
X82041878Y-48076801D01*
X81453799Y-47319400D02*
X81006209Y-47319400D01*
X87083001Y-39251501D02*
X85741000Y-37909500D01*
X87083001Y-40641921D02*
X87083001Y-39251501D01*
X86322922Y-41402000D02*
X87083001Y-40641921D01*
X86080600Y-41402000D02*
X86322922Y-41402000D01*
X77644610Y-40199970D02*
X77644610Y-38306390D01*
X78836520Y-41391880D02*
X77644610Y-40199970D01*
X77644610Y-38306390D02*
X78930500Y-37020500D01*
X87534901Y-36458901D02*
X86707500Y-35631500D01*
X89689421Y-36458901D02*
X87534901Y-36458901D01*
X91821000Y-34327322D02*
X89689421Y-36458901D01*
X91821000Y-31115000D02*
X91821000Y-34327322D01*
X84852000Y-37020500D02*
X85741000Y-37909500D01*
X78930500Y-37020500D02*
X84852000Y-37020500D01*
X86707500Y-36943000D02*
X85741000Y-37909500D01*
X86707500Y-35631500D02*
X86707500Y-36943000D01*
G04 #@! TO.N,/Battery+*
X80453799Y-47988722D02*
X80453799Y-47319400D01*
X80890676Y-48425599D02*
X80453799Y-47988722D01*
X81366099Y-48425599D02*
X80890676Y-48425599D01*
X82407000Y-49466500D02*
X81429599Y-48489099D01*
X79923799Y-47319400D02*
X80453799Y-47319400D01*
X79498799Y-46894400D02*
X79923799Y-47319400D01*
X79498799Y-46364400D02*
X79498799Y-46894400D01*
X79498799Y-46364400D02*
X79498799Y-45864400D01*
X76279390Y-38704834D02*
X74150556Y-36576000D01*
X76279391Y-44627537D02*
X76279390Y-38704834D01*
X77516254Y-45864400D02*
X76279391Y-44627537D01*
X74150556Y-36576000D02*
X72453500Y-36576000D01*
X79498799Y-45864400D02*
X77516254Y-45864400D01*
X82429201Y-49679201D02*
X82407000Y-49657000D01*
X87458701Y-49679201D02*
X82429201Y-49679201D01*
X88392000Y-50612500D02*
X87458701Y-49679201D01*
X88392000Y-51438000D02*
X88392000Y-50612500D01*
D33*
G04 #@! TO.N,+BATT*
X96237300Y-65430400D02*
X96253300Y-65414400D01*
D31*
X83408799Y-46894400D02*
X83408799Y-46364400D01*
X82983799Y-47319400D02*
X83408799Y-46894400D01*
X82453799Y-47319400D02*
X82983799Y-47319400D01*
X85471000Y-49022000D02*
X85471000Y-47693742D01*
X95515099Y-61073401D02*
X92531499Y-61073401D01*
X96517500Y-60071000D02*
X95515099Y-61073401D01*
X92531499Y-61073401D02*
X92264700Y-61340200D01*
X92264700Y-63083800D02*
X92264700Y-61340200D01*
X84167058Y-46364400D02*
X83408799Y-46364400D01*
X84794701Y-46992043D02*
X84167058Y-46364400D01*
X84794701Y-47583701D02*
X84794701Y-46992043D01*
X84904742Y-47693742D02*
X84794701Y-47583701D01*
X85471000Y-47693742D02*
X84904742Y-47693742D01*
X85471000Y-51455158D02*
X85471000Y-50419000D01*
X94128900Y-67996000D02*
X96694500Y-65430400D01*
X94030800Y-67996000D02*
X94128900Y-67996000D01*
X96694500Y-66783500D02*
X96694500Y-65430400D01*
X98996500Y-69085500D02*
X96694500Y-66783500D01*
X98996500Y-70612000D02*
X98552000Y-71056500D01*
X98996500Y-69085500D02*
X98996500Y-70612000D01*
X94221555Y-57997701D02*
X90636701Y-57997701D01*
X95812254Y-59588400D02*
X94221555Y-57997701D01*
X96098400Y-59588400D02*
X95812254Y-59588400D01*
X85471000Y-52832000D02*
X85471000Y-51455158D01*
X90636701Y-57997701D02*
X85471000Y-52832000D01*
D33*
G04 #@! TO.N,Net-(D1-Pad1)*
X81453799Y-42718799D02*
X81453799Y-43409400D01*
X81203800Y-42468800D02*
X81453799Y-42718799D01*
X81203800Y-41130400D02*
X81203800Y-42468800D01*
G04 #@! TO.N,Net-(D1-Pad2)*
X79398000Y-38930400D02*
X78836520Y-39491880D01*
X81203800Y-38930400D02*
X79398000Y-38930400D01*
G04 #@! TO.N,Net-(D2-Pad2)*
X85491400Y-38912800D02*
X86080600Y-39502000D01*
X83693000Y-38912800D02*
X85491400Y-38912800D01*
X86080600Y-40010000D02*
X86080600Y-39502000D01*
G04 #@! TO.N,Net-(D2-Pad1)*
X81953799Y-42852001D02*
X81953799Y-43409400D01*
X83693000Y-41112800D02*
X81953799Y-42852001D01*
G04 #@! TO.N,Net-(D3-Pad1)*
X76229500Y-48332500D02*
X74569500Y-46672500D01*
X76229500Y-51181000D02*
X76229500Y-48332500D01*
G04 #@! TO.N,Net-(D3-Pad2)*
X72265500Y-46568500D02*
X72369500Y-46672500D01*
X74165500Y-44876500D02*
X72369500Y-46672500D01*
X74165500Y-44069000D02*
X74165500Y-44876500D01*
D31*
G04 #@! TO.N,Net-(D4-Pad2)*
X74165500Y-41719500D02*
X74102000Y-41656000D01*
D33*
X74252000Y-39243000D02*
X74252000Y-39606000D01*
X74102000Y-39393000D02*
X74252000Y-39243000D01*
X74102000Y-41656000D02*
X74102000Y-39393000D01*
G04 #@! TO.N,Net-(F1-Pad1)*
X91450800Y-47726600D02*
X91998800Y-47178600D01*
X91857200Y-47320200D02*
X91998800Y-47178600D01*
X91806400Y-47371000D02*
X91998800Y-47178600D01*
X90539400Y-48638000D02*
X91998800Y-47178600D01*
X88392000Y-48638000D02*
X90539400Y-48638000D01*
G04 #@! TO.N,/16KThermistor*
X83408799Y-44023001D02*
X84099400Y-43332400D01*
X83408799Y-44364400D02*
X83408799Y-44023001D01*
X86995000Y-42164000D02*
X86995000Y-43307000D01*
X89346400Y-39812600D02*
X86995000Y-42164000D01*
X92189300Y-39812600D02*
X89346400Y-39812600D01*
G04 #@! TO.N,Net-(J4-Pad03)*
X79923000Y-63293500D02*
X81518000Y-63293500D01*
X77370900Y-73494900D02*
X77332800Y-73456800D01*
X77370900Y-76047600D02*
X77370900Y-73494900D01*
X77332800Y-73456800D02*
X79110800Y-71678800D01*
X82059601Y-69826381D02*
X82059601Y-64922101D01*
X82059601Y-64922101D02*
X80431000Y-63293500D01*
X80207182Y-71678800D02*
X82059601Y-69826381D01*
X79110800Y-71678800D02*
X80207182Y-71678800D01*
G04 #@! TO.N,Net-(J4-Pad02)*
X81475400Y-61293500D02*
X79923000Y-61293500D01*
X82006400Y-76098400D02*
X82006400Y-73406000D01*
X81983400Y-61293500D02*
X83210400Y-62520500D01*
X80431000Y-61293500D02*
X81983400Y-61293500D01*
X83210400Y-72202000D02*
X82006400Y-73406000D01*
X83210400Y-62520500D02*
X83210400Y-72202000D01*
G04 #@! TO.N,Net-(Q1-Pad1)*
X73025000Y-49212500D02*
X73025000Y-51054000D01*
X74102000Y-52131000D02*
X78329500Y-52131000D01*
X73025000Y-51054000D02*
X74102000Y-52131000D01*
X81823400Y-52131000D02*
X78329500Y-52131000D01*
X88199800Y-62103800D02*
X85951100Y-59855100D01*
X89334700Y-62103800D02*
X88199800Y-62103800D01*
X81823400Y-52134254D02*
X81823400Y-52131000D01*
X85951100Y-56261954D02*
X81823400Y-52134254D01*
X85951100Y-59855100D02*
X85951100Y-56261954D01*
G04 #@! TO.N,Net-(R3-Pad2)*
X86080600Y-46771600D02*
X85884600Y-46575600D01*
X88300600Y-46670000D02*
X88315800Y-46685200D01*
X86029800Y-46670000D02*
X88300600Y-46670000D01*
X85986200Y-46626400D02*
X86029800Y-46670000D01*
X86029800Y-46670000D02*
X86029800Y-46088300D01*
X85805900Y-45864400D02*
X83408799Y-45864400D01*
X86029800Y-46088300D02*
X85805900Y-45864400D01*
G04 #@! TO.N,Net-(R5-Pad1)*
X78941399Y-44864400D02*
X77216000Y-43139001D01*
X79498799Y-44864400D02*
X78941399Y-44864400D01*
X77216000Y-36256000D02*
X79248000Y-34224000D01*
X77216000Y-43139001D02*
X77216000Y-36256000D01*
G04 #@! TO.N,Net-(R6-Pad2)*
X92927754Y-60071000D02*
X91284700Y-61714054D01*
X91284700Y-61714054D02*
X91284700Y-62103800D01*
X91284700Y-60477000D02*
X91284700Y-62103800D01*
X90929500Y-60121800D02*
X91284700Y-60477000D01*
X93919000Y-60071000D02*
X94300000Y-59690000D01*
X92927754Y-60071000D02*
X93919000Y-60071000D01*
G04 #@! TO.N,Net-(R9-Pad1)*
X78574900Y-45364400D02*
X76708000Y-43497500D01*
X79498799Y-45364400D02*
X78574900Y-45364400D01*
X76898500Y-41338500D02*
X76898500Y-34224000D01*
X76708000Y-41529000D02*
X76898500Y-41338500D01*
X76708000Y-43497500D02*
X76708000Y-41529000D01*
G04 #@! TO.N,Net-(R12-Pad2)*
X85991700Y-65539400D02*
X85991700Y-65974000D01*
X87797300Y-63733800D02*
X85991700Y-65539400D01*
X88354700Y-63733800D02*
X87797300Y-63733800D01*
X85991700Y-68000800D02*
X85991700Y-65974000D01*
D32*
G04 #@! TO.N,Net-(L1-Pad2)*
X91284700Y-66013800D02*
X91304701Y-66033801D01*
D33*
X91284700Y-66013800D02*
X90634700Y-66013800D01*
X91284700Y-66013800D02*
X91308301Y-66037401D01*
X92878400Y-71196000D02*
X92405200Y-70722800D01*
X94030800Y-71196000D02*
X92878400Y-71196000D01*
X92405200Y-67134300D02*
X91284700Y-66013800D01*
X92405200Y-70722800D02*
X92405200Y-67134300D01*
G04 #@! TO.N,Net-(J5-Pad1)*
X99123500Y-59182000D02*
X99123500Y-57721500D01*
X99123500Y-57721500D02*
X98806000Y-57404000D01*
X98806000Y-57404000D02*
X97091500Y-57404000D01*
D32*
X94234000Y-57404000D02*
X93345000Y-56515000D01*
X93345000Y-53340000D02*
X92138500Y-52133500D01*
X93345000Y-56578500D02*
X93345000Y-53340000D01*
D33*
X97091500Y-57404000D02*
X94234000Y-57404000D01*
X99136200Y-58572400D02*
X99136200Y-67464900D01*
D32*
G04 #@! TO.N,/switch*
X89984700Y-62103800D02*
X89984700Y-61773798D01*
D33*
X91757500Y-55014500D02*
X92138500Y-54633500D01*
X89984700Y-61546400D02*
X89715800Y-61277500D01*
X89984700Y-62103800D02*
X89984700Y-61546400D01*
X87477599Y-59814967D02*
X88237566Y-59055000D01*
X87477599Y-60327033D02*
X87477599Y-59814967D01*
X88428066Y-61277500D02*
X87477599Y-60327033D01*
X89715800Y-61277500D02*
X88428066Y-61277500D01*
X92329000Y-54824000D02*
X92138500Y-54633500D01*
X92329000Y-57340500D02*
X92329000Y-54824000D01*
X91694000Y-59055000D02*
X88237566Y-59055000D01*
X92138500Y-59499500D02*
X91694000Y-59055000D01*
G04 #@! TD*
D34*
G04 #@! TO.N,+BATT*
X97143118Y-58697550D02*
X97072600Y-59052068D01*
X97072600Y-59413532D01*
X97143118Y-59768050D01*
X97281444Y-60101999D01*
X97287427Y-60110953D01*
X97307021Y-66675000D01*
X95681800Y-66675000D01*
X95681800Y-66462579D01*
X95725037Y-66409894D01*
X95784002Y-66299580D01*
X95820312Y-66179882D01*
X95832572Y-66055400D01*
X95832572Y-64805400D01*
X95820312Y-64680918D01*
X95784002Y-64561220D01*
X95725037Y-64450906D01*
X95681800Y-64398221D01*
X95681800Y-63820979D01*
X95725037Y-63768294D01*
X95784002Y-63657980D01*
X95820312Y-63538282D01*
X95832572Y-63413800D01*
X95832572Y-62163800D01*
X95820312Y-62039318D01*
X95784002Y-61919620D01*
X95725037Y-61809306D01*
X95681800Y-61756621D01*
X95681800Y-61419637D01*
X95694406Y-61091881D01*
X95694500Y-61087000D01*
X95694500Y-58420000D01*
X97258083Y-58420000D01*
X97143118Y-58697550D01*
G04 #@! TA.AperFunction,Conductor*
D35*
G36*
X97143118Y-58697550D02*
G01*
X97072600Y-59052068D01*
X97072600Y-59413532D01*
X97143118Y-59768050D01*
X97281444Y-60101999D01*
X97287427Y-60110953D01*
X97307021Y-66675000D01*
X95681800Y-66675000D01*
X95681800Y-66462579D01*
X95725037Y-66409894D01*
X95784002Y-66299580D01*
X95820312Y-66179882D01*
X95832572Y-66055400D01*
X95832572Y-64805400D01*
X95820312Y-64680918D01*
X95784002Y-64561220D01*
X95725037Y-64450906D01*
X95681800Y-64398221D01*
X95681800Y-63820979D01*
X95725037Y-63768294D01*
X95784002Y-63657980D01*
X95820312Y-63538282D01*
X95832572Y-63413800D01*
X95832572Y-62163800D01*
X95820312Y-62039318D01*
X95784002Y-61919620D01*
X95725037Y-61809306D01*
X95681800Y-61756621D01*
X95681800Y-61419637D01*
X95694406Y-61091881D01*
X95694500Y-61087000D01*
X95694500Y-58420000D01*
X97258083Y-58420000D01*
X97143118Y-58697550D01*
G37*
G04 #@! TD.AperFunction*
G04 #@! TD*
D34*
G04 #@! TO.N,VBUS*
X86918800Y-41528568D02*
X86656658Y-41790710D01*
X86637463Y-41806463D01*
X86574581Y-41883085D01*
X86538186Y-41951176D01*
X86527855Y-41970503D01*
X86499082Y-42065356D01*
X86498154Y-42074779D01*
X86496126Y-42095366D01*
X86489199Y-42097467D01*
X86467243Y-42109203D01*
X86447997Y-42124997D01*
X86432203Y-42144243D01*
X86420467Y-42166199D01*
X86413240Y-42190024D01*
X86410801Y-42215277D01*
X86413227Y-42860481D01*
X86346487Y-42960363D01*
X86291323Y-43093542D01*
X86263200Y-43234924D01*
X86263200Y-43379076D01*
X86291323Y-43520458D01*
X86346487Y-43653637D01*
X86416603Y-43758572D01*
X86423022Y-45466000D01*
X86113645Y-45466000D01*
X86086815Y-45443981D01*
X85999398Y-45397255D01*
X85904544Y-45368482D01*
X85830612Y-45361200D01*
X85830604Y-45361200D01*
X85805900Y-45358767D01*
X85781196Y-45361200D01*
X84021409Y-45361200D01*
X83977995Y-45337995D01*
X83897506Y-45313578D01*
X83813799Y-45305334D01*
X83232865Y-45305334D01*
X83232865Y-44923466D01*
X83813799Y-44923466D01*
X83897506Y-44915222D01*
X83977995Y-44890805D01*
X84052175Y-44851155D01*
X84076734Y-44831000D01*
X84201000Y-44831000D01*
X84225776Y-44828560D01*
X84249601Y-44821333D01*
X84271557Y-44809597D01*
X84290803Y-44793803D01*
X84306597Y-44774557D01*
X84318333Y-44752601D01*
X84325560Y-44728776D01*
X84328000Y-44704000D01*
X84328000Y-44119800D01*
X84556600Y-44119800D01*
X84581376Y-44117360D01*
X84605201Y-44110133D01*
X84627157Y-44098397D01*
X84646403Y-44082603D01*
X84662197Y-44063357D01*
X84673933Y-44041401D01*
X84681160Y-44017576D01*
X84683600Y-43992800D01*
X84683600Y-43775288D01*
X84747913Y-43679037D01*
X84803077Y-43545858D01*
X84831200Y-43404476D01*
X84831200Y-43260324D01*
X84803077Y-43118942D01*
X84747913Y-42985763D01*
X84683600Y-42889512D01*
X84683600Y-42392600D01*
X85166200Y-42392600D01*
X85190976Y-42390160D01*
X85214801Y-42382933D01*
X85236757Y-42371197D01*
X85256003Y-42355403D01*
X85271797Y-42336157D01*
X85283533Y-42314201D01*
X85290760Y-42290376D01*
X85293200Y-42265600D01*
X85293200Y-40970200D01*
X86918800Y-40970200D01*
X86918800Y-41528568D01*
G04 #@! TA.AperFunction,Conductor*
D35*
G36*
X86918800Y-41528568D02*
G01*
X86656658Y-41790710D01*
X86637463Y-41806463D01*
X86574581Y-41883085D01*
X86538186Y-41951176D01*
X86527855Y-41970503D01*
X86499082Y-42065356D01*
X86498154Y-42074779D01*
X86496126Y-42095366D01*
X86489199Y-42097467D01*
X86467243Y-42109203D01*
X86447997Y-42124997D01*
X86432203Y-42144243D01*
X86420467Y-42166199D01*
X86413240Y-42190024D01*
X86410801Y-42215277D01*
X86413227Y-42860481D01*
X86346487Y-42960363D01*
X86291323Y-43093542D01*
X86263200Y-43234924D01*
X86263200Y-43379076D01*
X86291323Y-43520458D01*
X86346487Y-43653637D01*
X86416603Y-43758572D01*
X86423022Y-45466000D01*
X86113645Y-45466000D01*
X86086815Y-45443981D01*
X85999398Y-45397255D01*
X85904544Y-45368482D01*
X85830612Y-45361200D01*
X85830604Y-45361200D01*
X85805900Y-45358767D01*
X85781196Y-45361200D01*
X84021409Y-45361200D01*
X83977995Y-45337995D01*
X83897506Y-45313578D01*
X83813799Y-45305334D01*
X83232865Y-45305334D01*
X83232865Y-44923466D01*
X83813799Y-44923466D01*
X83897506Y-44915222D01*
X83977995Y-44890805D01*
X84052175Y-44851155D01*
X84076734Y-44831000D01*
X84201000Y-44831000D01*
X84225776Y-44828560D01*
X84249601Y-44821333D01*
X84271557Y-44809597D01*
X84290803Y-44793803D01*
X84306597Y-44774557D01*
X84318333Y-44752601D01*
X84325560Y-44728776D01*
X84328000Y-44704000D01*
X84328000Y-44119800D01*
X84556600Y-44119800D01*
X84581376Y-44117360D01*
X84605201Y-44110133D01*
X84627157Y-44098397D01*
X84646403Y-44082603D01*
X84662197Y-44063357D01*
X84673933Y-44041401D01*
X84681160Y-44017576D01*
X84683600Y-43992800D01*
X84683600Y-43775288D01*
X84747913Y-43679037D01*
X84803077Y-43545858D01*
X84831200Y-43404476D01*
X84831200Y-43260324D01*
X84803077Y-43118942D01*
X84747913Y-42985763D01*
X84683600Y-42889512D01*
X84683600Y-42392600D01*
X85166200Y-42392600D01*
X85190976Y-42390160D01*
X85214801Y-42382933D01*
X85236757Y-42371197D01*
X85256003Y-42355403D01*
X85271797Y-42336157D01*
X85283533Y-42314201D01*
X85290760Y-42290376D01*
X85293200Y-42265600D01*
X85293200Y-40970200D01*
X86918800Y-40970200D01*
X86918800Y-41528568D01*
G37*
G04 #@! TD.AperFunction*
G04 #@! TD*
D34*
G04 #@! TO.N,VBUS*
X81835872Y-47196487D02*
X81823766Y-47319400D01*
X81835872Y-47442313D01*
X81871724Y-47560503D01*
X81894733Y-47603550D01*
X81894733Y-47625000D01*
X81080799Y-47625000D01*
X81080799Y-47350194D01*
X81083832Y-47319400D01*
X81076800Y-47248004D01*
X81076800Y-47143466D01*
X81851956Y-47143466D01*
X81835872Y-47196487D01*
G04 #@! TA.AperFunction,Conductor*
D35*
G36*
X81835872Y-47196487D02*
G01*
X81823766Y-47319400D01*
X81835872Y-47442313D01*
X81871724Y-47560503D01*
X81894733Y-47603550D01*
X81894733Y-47625000D01*
X81080799Y-47625000D01*
X81080799Y-47350194D01*
X81083832Y-47319400D01*
X81076800Y-47248004D01*
X81076800Y-47143466D01*
X81851956Y-47143466D01*
X81835872Y-47196487D01*
G37*
G04 #@! TD.AperFunction*
G04 #@! TD*
D34*
G04 #@! TO.N,+5V*
X73025000Y-45148500D02*
X70739000Y-45148500D01*
X70739000Y-40640000D01*
X73025000Y-40640000D01*
X73025000Y-45148500D01*
G04 #@! TA.AperFunction,Conductor*
D35*
G36*
X73025000Y-45148500D02*
G01*
X70739000Y-45148500D01*
X70739000Y-40640000D01*
X73025000Y-40640000D01*
X73025000Y-45148500D01*
G37*
G04 #@! TD.AperFunction*
G04 #@! TD*
D34*
G04 #@! TO.N,+5V*
X88530634Y-65408800D02*
X88538878Y-65492507D01*
X88563295Y-65572996D01*
X88602945Y-65647176D01*
X88656305Y-65712195D01*
X88721324Y-65765555D01*
X88795504Y-65805205D01*
X88875993Y-65829622D01*
X88959700Y-65837866D01*
X89385634Y-65837866D01*
X89385634Y-66418800D01*
X89393878Y-66502507D01*
X89418295Y-66582996D01*
X89457945Y-66657176D01*
X89511305Y-66722195D01*
X89574322Y-66773912D01*
X89585903Y-67061117D01*
X89589340Y-67085775D01*
X89597521Y-67109289D01*
X89610132Y-67130755D01*
X89626688Y-67149348D01*
X89646554Y-67164354D01*
X89668966Y-67175196D01*
X89693062Y-67181457D01*
X89712800Y-67183000D01*
X89941400Y-67183000D01*
X89941400Y-68986400D01*
X89943840Y-69011176D01*
X89951067Y-69035001D01*
X89962803Y-69056957D01*
X89978597Y-69076203D01*
X89997843Y-69091997D01*
X90019799Y-69103733D01*
X90043624Y-69110960D01*
X90068400Y-69113400D01*
X91119237Y-69113400D01*
X91091923Y-69179342D01*
X91063800Y-69320724D01*
X91063800Y-69464876D01*
X91091923Y-69606258D01*
X91147087Y-69739437D01*
X91182331Y-69792184D01*
X91207921Y-70739000D01*
X85064600Y-70739000D01*
X85064600Y-69418200D01*
X87299800Y-69418200D01*
X87324576Y-69415760D01*
X87348401Y-69408533D01*
X87370357Y-69396797D01*
X87389603Y-69381003D01*
X87405397Y-69361757D01*
X87417133Y-69339801D01*
X87424360Y-69315976D01*
X87426798Y-69291841D01*
X87449519Y-64793214D01*
X87872700Y-64370033D01*
X88530634Y-64347149D01*
X88530634Y-65408800D01*
G04 #@! TA.AperFunction,Conductor*
D35*
G36*
X88530634Y-65408800D02*
G01*
X88538878Y-65492507D01*
X88563295Y-65572996D01*
X88602945Y-65647176D01*
X88656305Y-65712195D01*
X88721324Y-65765555D01*
X88795504Y-65805205D01*
X88875993Y-65829622D01*
X88959700Y-65837866D01*
X89385634Y-65837866D01*
X89385634Y-66418800D01*
X89393878Y-66502507D01*
X89418295Y-66582996D01*
X89457945Y-66657176D01*
X89511305Y-66722195D01*
X89574322Y-66773912D01*
X89585903Y-67061117D01*
X89589340Y-67085775D01*
X89597521Y-67109289D01*
X89610132Y-67130755D01*
X89626688Y-67149348D01*
X89646554Y-67164354D01*
X89668966Y-67175196D01*
X89693062Y-67181457D01*
X89712800Y-67183000D01*
X89941400Y-67183000D01*
X89941400Y-68986400D01*
X89943840Y-69011176D01*
X89951067Y-69035001D01*
X89962803Y-69056957D01*
X89978597Y-69076203D01*
X89997843Y-69091997D01*
X90019799Y-69103733D01*
X90043624Y-69110960D01*
X90068400Y-69113400D01*
X91119237Y-69113400D01*
X91091923Y-69179342D01*
X91063800Y-69320724D01*
X91063800Y-69464876D01*
X91091923Y-69606258D01*
X91147087Y-69739437D01*
X91182331Y-69792184D01*
X91207921Y-70739000D01*
X85064600Y-70739000D01*
X85064600Y-69418200D01*
X87299800Y-69418200D01*
X87324576Y-69415760D01*
X87348401Y-69408533D01*
X87370357Y-69396797D01*
X87389603Y-69381003D01*
X87405397Y-69361757D01*
X87417133Y-69339801D01*
X87424360Y-69315976D01*
X87426798Y-69291841D01*
X87449519Y-64793214D01*
X87872700Y-64370033D01*
X88530634Y-64347149D01*
X88530634Y-65408800D01*
G37*
G04 #@! TD.AperFunction*
G04 #@! TD*
D34*
G04 #@! TO.N,GND*
X95098330Y-62076594D02*
X95121817Y-66116371D01*
X95050649Y-66187540D01*
X93802200Y-66157335D01*
X93802200Y-65468500D01*
X93799760Y-65443724D01*
X93792533Y-65419899D01*
X93780797Y-65397943D01*
X93765003Y-65378697D01*
X93745757Y-65362903D01*
X93723801Y-65351167D01*
X93699976Y-65343940D01*
X93675200Y-65341500D01*
X91787718Y-65341500D01*
X91758095Y-65305405D01*
X91693076Y-65252045D01*
X91618896Y-65212395D01*
X91538407Y-65187978D01*
X91454700Y-65179734D01*
X91114700Y-65179734D01*
X91030993Y-65187978D01*
X90959700Y-65209605D01*
X90888407Y-65187978D01*
X90804700Y-65179734D01*
X90464700Y-65179734D01*
X90380993Y-65187978D01*
X90315960Y-65207706D01*
X90274806Y-63551274D01*
X91555267Y-63555930D01*
X91556305Y-63557195D01*
X91621324Y-63610555D01*
X91695504Y-63650205D01*
X91775993Y-63674622D01*
X91859700Y-63682866D01*
X92079610Y-63682866D01*
X92141787Y-63701727D01*
X92264700Y-63713833D01*
X92387612Y-63701727D01*
X92449789Y-63682866D01*
X92669700Y-63682866D01*
X92753407Y-63674622D01*
X92833896Y-63650205D01*
X92908076Y-63610555D01*
X92968375Y-63561069D01*
X93636638Y-63563499D01*
X93661423Y-63561149D01*
X93685274Y-63554009D01*
X93707273Y-63542353D01*
X93726575Y-63526629D01*
X93742439Y-63507441D01*
X93754255Y-63485527D01*
X93761569Y-63461729D01*
X93764100Y-63436500D01*
X93764100Y-62065920D01*
X95098330Y-62076594D01*
G04 #@! TA.AperFunction,Conductor*
D35*
G36*
X95098330Y-62076594D02*
G01*
X95121817Y-66116371D01*
X95050649Y-66187540D01*
X93802200Y-66157335D01*
X93802200Y-65468500D01*
X93799760Y-65443724D01*
X93792533Y-65419899D01*
X93780797Y-65397943D01*
X93765003Y-65378697D01*
X93745757Y-65362903D01*
X93723801Y-65351167D01*
X93699976Y-65343940D01*
X93675200Y-65341500D01*
X91787718Y-65341500D01*
X91758095Y-65305405D01*
X91693076Y-65252045D01*
X91618896Y-65212395D01*
X91538407Y-65187978D01*
X91454700Y-65179734D01*
X91114700Y-65179734D01*
X91030993Y-65187978D01*
X90959700Y-65209605D01*
X90888407Y-65187978D01*
X90804700Y-65179734D01*
X90464700Y-65179734D01*
X90380993Y-65187978D01*
X90315960Y-65207706D01*
X90274806Y-63551274D01*
X91555267Y-63555930D01*
X91556305Y-63557195D01*
X91621324Y-63610555D01*
X91695504Y-63650205D01*
X91775993Y-63674622D01*
X91859700Y-63682866D01*
X92079610Y-63682866D01*
X92141787Y-63701727D01*
X92264700Y-63713833D01*
X92387612Y-63701727D01*
X92449789Y-63682866D01*
X92669700Y-63682866D01*
X92753407Y-63674622D01*
X92833896Y-63650205D01*
X92908076Y-63610555D01*
X92968375Y-63561069D01*
X93636638Y-63563499D01*
X93661423Y-63561149D01*
X93685274Y-63554009D01*
X93707273Y-63542353D01*
X93726575Y-63526629D01*
X93742439Y-63507441D01*
X93754255Y-63485527D01*
X93761569Y-63461729D01*
X93764100Y-63436500D01*
X93764100Y-62065920D01*
X95098330Y-62076594D01*
G37*
G04 #@! TD.AperFunction*
G04 #@! TD*
M02*
