M48
INCH,TZ
T1C0.0120
T2C0.0472
T3C0.0630
T4C0.0512
T5C0.0630
%
G90
G05
T1
X27900Y-14550
X29600Y-29200
X29745Y-12235
X30200Y-23200
X30525Y-27000
X30765Y-12235
X30850Y-18925
X30990Y-16860
X31750Y-16675
X32255Y-27890
X32725Y-24850
X32750Y-16700
X32895Y-29370
X33110Y-17060
X33125Y-18625
X33155Y-24290
X33650Y-19300
X33650Y-19850
X34250Y-17050
X34650Y-23900
X34775Y-17250
X35200Y-13350
X36125Y-22625
X36125Y-23275
T2
X36220Y-17590
X36220Y-18574
X36270Y-14440
X36270Y-15424
X36275Y-20525
X36275Y-21509
T3
X28525Y-14025
X28750Y-19000
X36150Y-12250
X36425Y-29950
X39000Y-24125
T4
X28200Y-24416
X28200Y-26384
T5
X39047Y-17590
X39047Y-18574
X39097Y-14440
X39097Y-15424
X39102Y-20525
X39102Y-21509
T0
M30
