%TF.GenerationSoftware,KiCad,Pcbnew,(5.1.9-0-10_14)*%
%TF.CreationDate,2021-03-09T11:41:36-05:00*%
%TF.ProjectId,Antoinette_PowerBank,416e746f-696e-4657-9474-655f506f7765,rev?*%
%TF.SameCoordinates,Original*%
%TF.FileFunction,Copper,L2,Bot*%
%TF.FilePolarity,Positive*%
%FSLAX46Y46*%
G04 Gerber Fmt 4.6, Leading zero omitted, Abs format (unit mm)*
G04 Created by KiCad (PCBNEW (5.1.9-0-10_14)) date 2021-03-09 11:41:36*
%MOMM*%
%LPD*%
G01*
G04 APERTURE LIST*
%TA.AperFunction,ComponentPad*%
%ADD10C,2.400000*%
%TD*%
%TA.AperFunction,ComponentPad*%
%ADD11R,1.900000X1.900000*%
%TD*%
%TA.AperFunction,ComponentPad*%
%ADD12C,1.900000*%
%TD*%
%TA.AperFunction,ViaPad*%
%ADD13C,0.609600*%
%TD*%
%TA.AperFunction,Conductor*%
%ADD14C,0.400000*%
%TD*%
%TA.AperFunction,Conductor*%
%ADD15C,0.150000*%
%TD*%
%TA.AperFunction,Conductor*%
%ADD16C,0.254000*%
%TD*%
%TA.AperFunction,Conductor*%
%ADD17C,0.100000*%
%TD*%
G04 APERTURE END LIST*
D10*
%TO.P,TP1,1*%
%TO.N,VBUS*%
X91821000Y-31115000D03*
%TD*%
%TO.P,TP2,1*%
%TO.N,/Battery+*%
X72453500Y-35623500D03*
%TD*%
%TO.P,TP3,1*%
%TO.N,+BATT*%
X92519500Y-76073000D03*
%TD*%
%TO.P,TP4,1*%
%TO.N,Net-(J5-Pad1)*%
X99060000Y-61277500D03*
%TD*%
%TO.P,TP5,1*%
%TO.N,Net-(Q1-Pad1)*%
X73025000Y-48260000D03*
%TD*%
D11*
%TO.P,J1,1*%
%TO.N,GND*%
X92125800Y-36677600D03*
D12*
%TO.P,J1,2*%
%TO.N,/16KThermistor*%
X92125800Y-39177600D03*
%TD*%
D11*
%TO.P,J3,1*%
%TO.N,GND*%
X91998800Y-44678600D03*
D12*
%TO.P,J3,2*%
%TO.N,Net-(F1-Pad1)*%
X91998800Y-47178600D03*
%TD*%
D11*
%TO.P,J5,1*%
%TO.N,Net-(J5-Pad1)*%
X92138500Y-52133500D03*
D12*
%TO.P,J5,2*%
%TO.N,/switch*%
X92138500Y-54633500D03*
%TD*%
D13*
%TO.N,GND*%
X81927700Y-70840600D03*
X77533500Y-68580000D03*
X83121500Y-63119000D03*
X84213700Y-61696600D03*
X88011000Y-60706000D03*
X83553300Y-74599800D03*
X88328500Y-43815000D03*
X78714600Y-42824400D03*
X89408000Y-33909000D03*
X76708000Y-58928000D03*
X75184000Y-74168000D03*
X75552300Y-31076900D03*
X78143100Y-31076900D03*
X78359000Y-48069500D03*
X70866000Y-36957000D03*
%TO.N,VBUS*%
X84137500Y-47307500D03*
X80645000Y-42354500D03*
X83185000Y-42418000D03*
%TO.N,+BATT*%
X85471000Y-49022000D03*
X85471000Y-50419000D03*
%TO.N,/16KThermistor*%
X84099400Y-43332400D03*
X86995000Y-43307000D03*
%TO.N,/switch*%
X91757500Y-57467500D03*
X91757500Y-59118500D03*
%TD*%
D14*
%TO.N,VBUS*%
X80708500Y-42418000D02*
X80645000Y-42354500D01*
X83185000Y-42418000D02*
X80708500Y-42418000D01*
X83248500Y-46418500D02*
X83248500Y-42481500D01*
X83248500Y-42481500D02*
X83185000Y-42418000D01*
X84137500Y-47307500D02*
X83248500Y-46418500D01*
%TO.N,+BATT*%
X85471000Y-50355500D02*
X85471000Y-49085500D01*
%TO.N,/16KThermistor*%
X86562937Y-43761009D02*
X86995000Y-43328946D01*
X86995000Y-43328946D02*
X86995000Y-43307000D01*
X84528009Y-43761009D02*
X86562937Y-43761009D01*
X84099400Y-43332400D02*
X84528009Y-43761009D01*
D15*
%TO.N,/switch*%
X91757500Y-58991500D02*
X91694000Y-59055000D01*
X91757500Y-57658000D02*
X91757500Y-58991500D01*
%TD*%
D16*
%TO.N,GND*%
X90379172Y-30344327D02*
X90256525Y-30640422D01*
X90194000Y-30954755D01*
X90194000Y-31275245D01*
X90256525Y-31589578D01*
X90379172Y-31885673D01*
X90557227Y-32152152D01*
X90783848Y-32378773D01*
X91050327Y-32556828D01*
X91346422Y-32679475D01*
X91660755Y-32742000D01*
X91981245Y-32742000D01*
X92295578Y-32679475D01*
X92591673Y-32556828D01*
X92858152Y-32378773D01*
X93084773Y-32152152D01*
X93262828Y-31885673D01*
X93385475Y-31589578D01*
X93448000Y-31275245D01*
X93448000Y-30954755D01*
X93385475Y-30640422D01*
X93262828Y-30344327D01*
X93207152Y-30261001D01*
X97266305Y-30261001D01*
X97032276Y-30357939D01*
X96678150Y-30594558D01*
X96376990Y-30895718D01*
X96140371Y-31249844D01*
X95977384Y-31643329D01*
X95894295Y-32061049D01*
X95894295Y-32486953D01*
X95977384Y-32904673D01*
X96140371Y-33298158D01*
X96376990Y-33652284D01*
X96678150Y-33953444D01*
X97032276Y-34190063D01*
X97425761Y-34353050D01*
X97843481Y-34436139D01*
X98269385Y-34436139D01*
X98687105Y-34353050D01*
X99080590Y-34190063D01*
X99434716Y-33953444D01*
X99735876Y-33652284D01*
X99972495Y-33298158D01*
X100069434Y-33064127D01*
X100069434Y-35712144D01*
X99887002Y-35590247D01*
X99663703Y-35497753D01*
X99426649Y-35450600D01*
X99184951Y-35450600D01*
X98947897Y-35497753D01*
X98724598Y-35590247D01*
X98523633Y-35724527D01*
X98352727Y-35895433D01*
X98218447Y-36096398D01*
X98125953Y-36319697D01*
X98078800Y-36556751D01*
X98078800Y-36798449D01*
X98125953Y-37035503D01*
X98218447Y-37258802D01*
X98352727Y-37459767D01*
X98523633Y-37630673D01*
X98724598Y-37764953D01*
X98947897Y-37857447D01*
X99184951Y-37904600D01*
X99426649Y-37904600D01*
X99663703Y-37857447D01*
X99887002Y-37764953D01*
X100069434Y-37643056D01*
X100069434Y-38212144D01*
X99887002Y-38090247D01*
X99663703Y-37997753D01*
X99426649Y-37950600D01*
X99184951Y-37950600D01*
X98947897Y-37997753D01*
X98724598Y-38090247D01*
X98523633Y-38224527D01*
X98352727Y-38395433D01*
X98218447Y-38596398D01*
X98125953Y-38819697D01*
X98078800Y-39056751D01*
X98078800Y-39298449D01*
X98125953Y-39535503D01*
X98218447Y-39758802D01*
X98352727Y-39959767D01*
X98523633Y-40130673D01*
X98724598Y-40264953D01*
X98947897Y-40357447D01*
X99184951Y-40404600D01*
X99426649Y-40404600D01*
X99663703Y-40357447D01*
X99887002Y-40264953D01*
X100069434Y-40143056D01*
X100069434Y-43833994D01*
X99960967Y-43725527D01*
X99760002Y-43591247D01*
X99536703Y-43498753D01*
X99299649Y-43451600D01*
X99057951Y-43451600D01*
X98820897Y-43498753D01*
X98597598Y-43591247D01*
X98396633Y-43725527D01*
X98225727Y-43896433D01*
X98091447Y-44097398D01*
X97998953Y-44320697D01*
X97951800Y-44557751D01*
X97951800Y-44799449D01*
X97998953Y-45036503D01*
X98091447Y-45259802D01*
X98225727Y-45460767D01*
X98396633Y-45631673D01*
X98597598Y-45765953D01*
X98820897Y-45858447D01*
X99057951Y-45905600D01*
X99299649Y-45905600D01*
X99536703Y-45858447D01*
X99760002Y-45765953D01*
X99960967Y-45631673D01*
X100069434Y-45523206D01*
X100069434Y-46333994D01*
X99960967Y-46225527D01*
X99760002Y-46091247D01*
X99536703Y-45998753D01*
X99299649Y-45951600D01*
X99057951Y-45951600D01*
X98820897Y-45998753D01*
X98597598Y-46091247D01*
X98396633Y-46225527D01*
X98225727Y-46396433D01*
X98091447Y-46597398D01*
X97998953Y-46820697D01*
X97951800Y-47057751D01*
X97951800Y-47299449D01*
X97998953Y-47536503D01*
X98091447Y-47759802D01*
X98225727Y-47960767D01*
X98396633Y-48131673D01*
X98597598Y-48265953D01*
X98820897Y-48358447D01*
X99057951Y-48405600D01*
X99299649Y-48405600D01*
X99536703Y-48358447D01*
X99760002Y-48265953D01*
X99960967Y-48131673D01*
X100069434Y-48023206D01*
X100069434Y-51159558D01*
X99899702Y-51046147D01*
X99676403Y-50953653D01*
X99439349Y-50906500D01*
X99197651Y-50906500D01*
X98960597Y-50953653D01*
X98737298Y-51046147D01*
X98536333Y-51180427D01*
X98365427Y-51351333D01*
X98231147Y-51552298D01*
X98138653Y-51775597D01*
X98091500Y-52012651D01*
X98091500Y-52254349D01*
X98138653Y-52491403D01*
X98231147Y-52714702D01*
X98365427Y-52915667D01*
X98536333Y-53086573D01*
X98737298Y-53220853D01*
X98960597Y-53313347D01*
X99197651Y-53360500D01*
X99439349Y-53360500D01*
X99676403Y-53313347D01*
X99899702Y-53220853D01*
X100069434Y-53107442D01*
X100069434Y-53659558D01*
X99899702Y-53546147D01*
X99676403Y-53453653D01*
X99439349Y-53406500D01*
X99197651Y-53406500D01*
X98960597Y-53453653D01*
X98737298Y-53546147D01*
X98536333Y-53680427D01*
X98365427Y-53851333D01*
X98231147Y-54052298D01*
X98138653Y-54275597D01*
X98091500Y-54512651D01*
X98091500Y-54754349D01*
X98138653Y-54991403D01*
X98231147Y-55214702D01*
X98365427Y-55415667D01*
X98536333Y-55586573D01*
X98737298Y-55720853D01*
X98960597Y-55813347D01*
X99197651Y-55860500D01*
X99439349Y-55860500D01*
X99676403Y-55813347D01*
X99899702Y-55720853D01*
X100069433Y-55607443D01*
X100069433Y-59995206D01*
X99830673Y-59835672D01*
X99534578Y-59713025D01*
X99220245Y-59650500D01*
X98899755Y-59650500D01*
X98585422Y-59713025D01*
X98289327Y-59835672D01*
X98022848Y-60013727D01*
X97796227Y-60240348D01*
X97618172Y-60506827D01*
X97495525Y-60802922D01*
X97433000Y-61117255D01*
X97433000Y-61437745D01*
X97495525Y-61752078D01*
X97618172Y-62048173D01*
X97796227Y-62314652D01*
X98022848Y-62541273D01*
X98289327Y-62719328D01*
X98585422Y-62841975D01*
X98899755Y-62904500D01*
X99220245Y-62904500D01*
X99534578Y-62841975D01*
X99830673Y-62719328D01*
X100069433Y-62559794D01*
X100069433Y-74663872D01*
X99972495Y-74429843D01*
X99735876Y-74075717D01*
X99434716Y-73774557D01*
X99080590Y-73537938D01*
X98687105Y-73374951D01*
X98269385Y-73291862D01*
X97843481Y-73291862D01*
X97425761Y-73374951D01*
X97032276Y-73537938D01*
X96678150Y-73774557D01*
X96376990Y-74075717D01*
X96140371Y-74429843D01*
X95977384Y-74823328D01*
X95894295Y-75241048D01*
X95894295Y-75666952D01*
X95977384Y-76084672D01*
X96140371Y-76478157D01*
X96376990Y-76832283D01*
X96678150Y-77133443D01*
X97032276Y-77370062D01*
X97266305Y-77467000D01*
X93361753Y-77467000D01*
X93556652Y-77336773D01*
X93783273Y-77110152D01*
X93961328Y-76843673D01*
X94083975Y-76547578D01*
X94146500Y-76233245D01*
X94146500Y-75912755D01*
X94083975Y-75598422D01*
X93961328Y-75302327D01*
X93783273Y-75035848D01*
X93556652Y-74809227D01*
X93290173Y-74631172D01*
X92994078Y-74508525D01*
X92679745Y-74446000D01*
X92359255Y-74446000D01*
X92044922Y-74508525D01*
X91748827Y-74631172D01*
X91482348Y-74809227D01*
X91255727Y-75035848D01*
X91077672Y-75302327D01*
X90955025Y-75598422D01*
X90892500Y-75912755D01*
X90892500Y-76233245D01*
X90955025Y-76547578D01*
X91077672Y-76843673D01*
X91255727Y-77110152D01*
X91482348Y-77336773D01*
X91677247Y-77467000D01*
X73446562Y-77467000D01*
X73680591Y-77370062D01*
X74034717Y-77133443D01*
X74335877Y-76832283D01*
X74572496Y-76478157D01*
X74735483Y-76084672D01*
X74818572Y-75666952D01*
X74818572Y-75241048D01*
X74735483Y-74823328D01*
X74572496Y-74429843D01*
X74335877Y-74075717D01*
X74034717Y-73774557D01*
X73680591Y-73537938D01*
X73287106Y-73374951D01*
X72869386Y-73291862D01*
X72443482Y-73291862D01*
X72025762Y-73374951D01*
X71632277Y-73537938D01*
X71278151Y-73774557D01*
X70976991Y-74075717D01*
X70740372Y-74429843D01*
X70643434Y-74663872D01*
X70643434Y-67453384D01*
X70673575Y-67526151D01*
X70791440Y-67702547D01*
X70941453Y-67852560D01*
X71117849Y-67970425D01*
X71313851Y-68051611D01*
X71521925Y-68093000D01*
X71734075Y-68093000D01*
X71942149Y-68051611D01*
X72138151Y-67970425D01*
X72314547Y-67852560D01*
X72464560Y-67702547D01*
X72582425Y-67526151D01*
X72663611Y-67330149D01*
X72705000Y-67122075D01*
X72705000Y-66909925D01*
X72663611Y-66701851D01*
X72582425Y-66505849D01*
X72464560Y-66329453D01*
X72314547Y-66179440D01*
X72138151Y-66061575D01*
X71942149Y-65980389D01*
X71734075Y-65939000D01*
X71521925Y-65939000D01*
X71313851Y-65980389D01*
X71117849Y-66061575D01*
X70941453Y-66179440D01*
X70791440Y-66329453D01*
X70673575Y-66505849D01*
X70643434Y-66578616D01*
X70643434Y-62453384D01*
X70673575Y-62526151D01*
X70791440Y-62702547D01*
X70941453Y-62852560D01*
X71117849Y-62970425D01*
X71313851Y-63051611D01*
X71521925Y-63093000D01*
X71734075Y-63093000D01*
X71942149Y-63051611D01*
X72138151Y-62970425D01*
X72314547Y-62852560D01*
X72464560Y-62702547D01*
X72582425Y-62526151D01*
X72663611Y-62330149D01*
X72705000Y-62122075D01*
X72705000Y-61909925D01*
X72663611Y-61701851D01*
X72582425Y-61505849D01*
X72464560Y-61329453D01*
X72314547Y-61179440D01*
X72138151Y-61061575D01*
X71942149Y-60980389D01*
X71734075Y-60939000D01*
X71521925Y-60939000D01*
X71313851Y-60980389D01*
X71117849Y-61061575D01*
X70941453Y-61179440D01*
X70791440Y-61329453D01*
X70673575Y-61505849D01*
X70643434Y-61578616D01*
X70643434Y-57395424D01*
X91025700Y-57395424D01*
X91025700Y-57539576D01*
X91053823Y-57680958D01*
X91108987Y-57814137D01*
X91189074Y-57933995D01*
X91255500Y-58000421D01*
X91255501Y-58585578D01*
X91189074Y-58652005D01*
X91108987Y-58771863D01*
X91053823Y-58905042D01*
X91025700Y-59046424D01*
X91025700Y-59190576D01*
X91053823Y-59331958D01*
X91108987Y-59465137D01*
X91189074Y-59584995D01*
X91291005Y-59686926D01*
X91410863Y-59767013D01*
X91544042Y-59822177D01*
X91685424Y-59850300D01*
X91829576Y-59850300D01*
X91970958Y-59822177D01*
X92104137Y-59767013D01*
X92223995Y-59686926D01*
X92325926Y-59584995D01*
X92406013Y-59465137D01*
X92461177Y-59331958D01*
X92489300Y-59190576D01*
X92489300Y-59046424D01*
X92461177Y-58905042D01*
X92406013Y-58771863D01*
X92325926Y-58652005D01*
X92259500Y-58585579D01*
X92259500Y-58000421D01*
X92325926Y-57933995D01*
X92406013Y-57814137D01*
X92461177Y-57680958D01*
X92489300Y-57539576D01*
X92489300Y-57395424D01*
X92461177Y-57254042D01*
X92406013Y-57120863D01*
X92325926Y-57001005D01*
X92223995Y-56899074D01*
X92104137Y-56818987D01*
X91970958Y-56763823D01*
X91829576Y-56735700D01*
X91685424Y-56735700D01*
X91544042Y-56763823D01*
X91410863Y-56818987D01*
X91291005Y-56899074D01*
X91189074Y-57001005D01*
X91108987Y-57120863D01*
X91053823Y-57254042D01*
X91025700Y-57395424D01*
X70643434Y-57395424D01*
X70643434Y-51183500D01*
X90759434Y-51183500D01*
X90759434Y-53083500D01*
X90767678Y-53167207D01*
X90792095Y-53247696D01*
X90831745Y-53321876D01*
X90885105Y-53386895D01*
X90950124Y-53440255D01*
X91024304Y-53479905D01*
X91104793Y-53504322D01*
X91188500Y-53512566D01*
X91337561Y-53512566D01*
X91260713Y-53563914D01*
X91068914Y-53755713D01*
X90918218Y-53981246D01*
X90814417Y-54231844D01*
X90761500Y-54497877D01*
X90761500Y-54769123D01*
X90814417Y-55035156D01*
X90918218Y-55285754D01*
X91068914Y-55511287D01*
X91260713Y-55703086D01*
X91486246Y-55853782D01*
X91736844Y-55957583D01*
X92002877Y-56010500D01*
X92274123Y-56010500D01*
X92540156Y-55957583D01*
X92790754Y-55853782D01*
X93016287Y-55703086D01*
X93208086Y-55511287D01*
X93358782Y-55285754D01*
X93462583Y-55035156D01*
X93515500Y-54769123D01*
X93515500Y-54497877D01*
X93462583Y-54231844D01*
X93358782Y-53981246D01*
X93208086Y-53755713D01*
X93016287Y-53563914D01*
X92939439Y-53512566D01*
X93088500Y-53512566D01*
X93172207Y-53504322D01*
X93252696Y-53479905D01*
X93326876Y-53440255D01*
X93391895Y-53386895D01*
X93445255Y-53321876D01*
X93484905Y-53247696D01*
X93509322Y-53167207D01*
X93517566Y-53083500D01*
X93517566Y-51183500D01*
X93509322Y-51099793D01*
X93484905Y-51019304D01*
X93445255Y-50945124D01*
X93391895Y-50880105D01*
X93326876Y-50826745D01*
X93252696Y-50787095D01*
X93172207Y-50762678D01*
X93088500Y-50754434D01*
X91188500Y-50754434D01*
X91104793Y-50762678D01*
X91024304Y-50787095D01*
X90950124Y-50826745D01*
X90885105Y-50880105D01*
X90831745Y-50945124D01*
X90792095Y-51019304D01*
X90767678Y-51099793D01*
X90759434Y-51183500D01*
X70643434Y-51183500D01*
X70643434Y-48099755D01*
X71398000Y-48099755D01*
X71398000Y-48420245D01*
X71460525Y-48734578D01*
X71583172Y-49030673D01*
X71761227Y-49297152D01*
X71987848Y-49523773D01*
X72254327Y-49701828D01*
X72550422Y-49824475D01*
X72864755Y-49887000D01*
X73185245Y-49887000D01*
X73499578Y-49824475D01*
X73795673Y-49701828D01*
X74062152Y-49523773D01*
X74288773Y-49297152D01*
X74466828Y-49030673D01*
X74500275Y-48949924D01*
X84739200Y-48949924D01*
X84739200Y-49094076D01*
X84767323Y-49235458D01*
X84822487Y-49368637D01*
X84844001Y-49400834D01*
X84844000Y-50040166D01*
X84822487Y-50072363D01*
X84767323Y-50205542D01*
X84739200Y-50346924D01*
X84739200Y-50491076D01*
X84767323Y-50632458D01*
X84822487Y-50765637D01*
X84902574Y-50885495D01*
X85004505Y-50987426D01*
X85124363Y-51067513D01*
X85257542Y-51122677D01*
X85398924Y-51150800D01*
X85543076Y-51150800D01*
X85684458Y-51122677D01*
X85817637Y-51067513D01*
X85937495Y-50987426D01*
X86039426Y-50885495D01*
X86119513Y-50765637D01*
X86174677Y-50632458D01*
X86202800Y-50491076D01*
X86202800Y-50346924D01*
X86174677Y-50205542D01*
X86119513Y-50072363D01*
X86098000Y-50040167D01*
X86098000Y-49400833D01*
X86119513Y-49368637D01*
X86174677Y-49235458D01*
X86202800Y-49094076D01*
X86202800Y-48949924D01*
X86174677Y-48808542D01*
X86119513Y-48675363D01*
X86039426Y-48555505D01*
X85937495Y-48453574D01*
X85817637Y-48373487D01*
X85684458Y-48318323D01*
X85543076Y-48290200D01*
X85398924Y-48290200D01*
X85257542Y-48318323D01*
X85124363Y-48373487D01*
X85004505Y-48453574D01*
X84902574Y-48555505D01*
X84822487Y-48675363D01*
X84767323Y-48808542D01*
X84739200Y-48949924D01*
X74500275Y-48949924D01*
X74589475Y-48734578D01*
X74652000Y-48420245D01*
X74652000Y-48099755D01*
X74589475Y-47785422D01*
X74466828Y-47489327D01*
X74288773Y-47222848D01*
X74062152Y-46996227D01*
X73795673Y-46818172D01*
X73499578Y-46695525D01*
X73185245Y-46633000D01*
X72864755Y-46633000D01*
X72550422Y-46695525D01*
X72254327Y-46818172D01*
X71987848Y-46996227D01*
X71761227Y-47222848D01*
X71583172Y-47489327D01*
X71460525Y-47785422D01*
X71398000Y-48099755D01*
X70643434Y-48099755D01*
X70643434Y-42282424D01*
X79913200Y-42282424D01*
X79913200Y-42426576D01*
X79941323Y-42567958D01*
X79996487Y-42701137D01*
X80076574Y-42820995D01*
X80178505Y-42922926D01*
X80298363Y-43003013D01*
X80431542Y-43058177D01*
X80572924Y-43086300D01*
X80717076Y-43086300D01*
X80858458Y-43058177D01*
X80890270Y-43045000D01*
X82621501Y-43045000D01*
X82621500Y-46387706D01*
X82618467Y-46418500D01*
X82621500Y-46449293D01*
X82630573Y-46541412D01*
X82666425Y-46659602D01*
X82724647Y-46768527D01*
X82802999Y-46864001D01*
X82826927Y-46883638D01*
X83426269Y-47482980D01*
X83433823Y-47520958D01*
X83488987Y-47654137D01*
X83569074Y-47773995D01*
X83671005Y-47875926D01*
X83790863Y-47956013D01*
X83924042Y-48011177D01*
X84065424Y-48039300D01*
X84209576Y-48039300D01*
X84350958Y-48011177D01*
X84484137Y-47956013D01*
X84603995Y-47875926D01*
X84705926Y-47773995D01*
X84786013Y-47654137D01*
X84841177Y-47520958D01*
X84869300Y-47379576D01*
X84869300Y-47235424D01*
X84841177Y-47094042D01*
X84786013Y-46960863D01*
X84705926Y-46841005D01*
X84603995Y-46739074D01*
X84484137Y-46658987D01*
X84350958Y-46603823D01*
X84312980Y-46596269D01*
X83875500Y-46158789D01*
X83875500Y-45628600D01*
X90410728Y-45628600D01*
X90422988Y-45753082D01*
X90459298Y-45872780D01*
X90518263Y-45983094D01*
X90597615Y-46079785D01*
X90694306Y-46159137D01*
X90804620Y-46218102D01*
X90924318Y-46254412D01*
X90971016Y-46259011D01*
X90929214Y-46300813D01*
X90778518Y-46526346D01*
X90674717Y-46776944D01*
X90621800Y-47042977D01*
X90621800Y-47314223D01*
X90674717Y-47580256D01*
X90778518Y-47830854D01*
X90929214Y-48056387D01*
X91121013Y-48248186D01*
X91346546Y-48398882D01*
X91597144Y-48502683D01*
X91863177Y-48555600D01*
X92134423Y-48555600D01*
X92400456Y-48502683D01*
X92651054Y-48398882D01*
X92876587Y-48248186D01*
X93068386Y-48056387D01*
X93219082Y-47830854D01*
X93322883Y-47580256D01*
X93375800Y-47314223D01*
X93375800Y-47042977D01*
X93322883Y-46776944D01*
X93219082Y-46526346D01*
X93068386Y-46300813D01*
X93026584Y-46259011D01*
X93073282Y-46254412D01*
X93192980Y-46218102D01*
X93303294Y-46159137D01*
X93399985Y-46079785D01*
X93479337Y-45983094D01*
X93538302Y-45872780D01*
X93574612Y-45753082D01*
X93586872Y-45628600D01*
X93583800Y-44964350D01*
X93425050Y-44805600D01*
X92125800Y-44805600D01*
X92125800Y-44825600D01*
X91871800Y-44825600D01*
X91871800Y-44805600D01*
X90572550Y-44805600D01*
X90413800Y-44964350D01*
X90410728Y-45628600D01*
X83875500Y-45628600D01*
X83875500Y-44031752D01*
X83885942Y-44036077D01*
X83923920Y-44043631D01*
X84062875Y-44182587D01*
X84082508Y-44206510D01*
X84177981Y-44284862D01*
X84286906Y-44343084D01*
X84405096Y-44378936D01*
X84528009Y-44391042D01*
X84558803Y-44388009D01*
X86532143Y-44388009D01*
X86562937Y-44391042D01*
X86593731Y-44388009D01*
X86685850Y-44378936D01*
X86804040Y-44343084D01*
X86912965Y-44284862D01*
X87008438Y-44206510D01*
X87028075Y-44182582D01*
X87197875Y-44012782D01*
X87208458Y-44010677D01*
X87341637Y-43955513D01*
X87461495Y-43875426D01*
X87563426Y-43773495D01*
X87593424Y-43728600D01*
X90410728Y-43728600D01*
X90413800Y-44392850D01*
X90572550Y-44551600D01*
X91871800Y-44551600D01*
X91871800Y-43252350D01*
X92125800Y-43252350D01*
X92125800Y-44551600D01*
X93425050Y-44551600D01*
X93583800Y-44392850D01*
X93586872Y-43728600D01*
X93574612Y-43604118D01*
X93538302Y-43484420D01*
X93479337Y-43374106D01*
X93399985Y-43277415D01*
X93303294Y-43198063D01*
X93192980Y-43139098D01*
X93073282Y-43102788D01*
X92948800Y-43090528D01*
X92284550Y-43093600D01*
X92125800Y-43252350D01*
X91871800Y-43252350D01*
X91713050Y-43093600D01*
X91048800Y-43090528D01*
X90924318Y-43102788D01*
X90804620Y-43139098D01*
X90694306Y-43198063D01*
X90597615Y-43277415D01*
X90518263Y-43374106D01*
X90459298Y-43484420D01*
X90422988Y-43604118D01*
X90410728Y-43728600D01*
X87593424Y-43728600D01*
X87643513Y-43653637D01*
X87698677Y-43520458D01*
X87726800Y-43379076D01*
X87726800Y-43234924D01*
X87698677Y-43093542D01*
X87643513Y-42960363D01*
X87563426Y-42840505D01*
X87461495Y-42738574D01*
X87341637Y-42658487D01*
X87208458Y-42603323D01*
X87067076Y-42575200D01*
X86922924Y-42575200D01*
X86781542Y-42603323D01*
X86648363Y-42658487D01*
X86528505Y-42738574D01*
X86426574Y-42840505D01*
X86346487Y-42960363D01*
X86291323Y-43093542D01*
X86283274Y-43134009D01*
X84806074Y-43134009D01*
X84803077Y-43118942D01*
X84747913Y-42985763D01*
X84667826Y-42865905D01*
X84565895Y-42763974D01*
X84446037Y-42683887D01*
X84312858Y-42628723D01*
X84171476Y-42600600D01*
X84027324Y-42600600D01*
X83889356Y-42628044D01*
X83916800Y-42490076D01*
X83916800Y-42345924D01*
X83888677Y-42204542D01*
X83833513Y-42071363D01*
X83753426Y-41951505D01*
X83651495Y-41849574D01*
X83531637Y-41769487D01*
X83398458Y-41714323D01*
X83257076Y-41686200D01*
X83112924Y-41686200D01*
X82971542Y-41714323D01*
X82838363Y-41769487D01*
X82806167Y-41791000D01*
X81116421Y-41791000D01*
X81111495Y-41786074D01*
X80991637Y-41705987D01*
X80858458Y-41650823D01*
X80717076Y-41622700D01*
X80572924Y-41622700D01*
X80431542Y-41650823D01*
X80298363Y-41705987D01*
X80178505Y-41786074D01*
X80076574Y-41888005D01*
X79996487Y-42007863D01*
X79941323Y-42141042D01*
X79913200Y-42282424D01*
X70643434Y-42282424D01*
X70643434Y-37627600D01*
X90537728Y-37627600D01*
X90549988Y-37752082D01*
X90586298Y-37871780D01*
X90645263Y-37982094D01*
X90724615Y-38078785D01*
X90821306Y-38158137D01*
X90931620Y-38217102D01*
X91051318Y-38253412D01*
X91098016Y-38258011D01*
X91056214Y-38299813D01*
X90905518Y-38525346D01*
X90801717Y-38775944D01*
X90748800Y-39041977D01*
X90748800Y-39313223D01*
X90801717Y-39579256D01*
X90905518Y-39829854D01*
X91056214Y-40055387D01*
X91248013Y-40247186D01*
X91473546Y-40397882D01*
X91724144Y-40501683D01*
X91990177Y-40554600D01*
X92261423Y-40554600D01*
X92527456Y-40501683D01*
X92778054Y-40397882D01*
X93003587Y-40247186D01*
X93195386Y-40055387D01*
X93346082Y-39829854D01*
X93449883Y-39579256D01*
X93502800Y-39313223D01*
X93502800Y-39041977D01*
X93449883Y-38775944D01*
X93346082Y-38525346D01*
X93195386Y-38299813D01*
X93153584Y-38258011D01*
X93200282Y-38253412D01*
X93319980Y-38217102D01*
X93430294Y-38158137D01*
X93526985Y-38078785D01*
X93606337Y-37982094D01*
X93665302Y-37871780D01*
X93701612Y-37752082D01*
X93713872Y-37627600D01*
X93710800Y-36963350D01*
X93552050Y-36804600D01*
X92252800Y-36804600D01*
X92252800Y-36824600D01*
X91998800Y-36824600D01*
X91998800Y-36804600D01*
X90699550Y-36804600D01*
X90540800Y-36963350D01*
X90537728Y-37627600D01*
X70643434Y-37627600D01*
X70643434Y-33064129D01*
X70740372Y-33298158D01*
X70976991Y-33652284D01*
X71278151Y-33953444D01*
X71632277Y-34190063D01*
X71655730Y-34199778D01*
X71416348Y-34359727D01*
X71189727Y-34586348D01*
X71011672Y-34852827D01*
X70889025Y-35148922D01*
X70826500Y-35463255D01*
X70826500Y-35783745D01*
X70889025Y-36098078D01*
X71011672Y-36394173D01*
X71189727Y-36660652D01*
X71416348Y-36887273D01*
X71682827Y-37065328D01*
X71978922Y-37187975D01*
X72293255Y-37250500D01*
X72613745Y-37250500D01*
X72928078Y-37187975D01*
X73224173Y-37065328D01*
X73490652Y-36887273D01*
X73717273Y-36660652D01*
X73895328Y-36394173D01*
X74017975Y-36098078D01*
X74080500Y-35783745D01*
X74080500Y-35727600D01*
X90537728Y-35727600D01*
X90540800Y-36391850D01*
X90699550Y-36550600D01*
X91998800Y-36550600D01*
X91998800Y-35251350D01*
X92252800Y-35251350D01*
X92252800Y-36550600D01*
X93552050Y-36550600D01*
X93710800Y-36391850D01*
X93713872Y-35727600D01*
X93701612Y-35603118D01*
X93665302Y-35483420D01*
X93606337Y-35373106D01*
X93526985Y-35276415D01*
X93430294Y-35197063D01*
X93319980Y-35138098D01*
X93200282Y-35101788D01*
X93075800Y-35089528D01*
X92411550Y-35092600D01*
X92252800Y-35251350D01*
X91998800Y-35251350D01*
X91840050Y-35092600D01*
X91175800Y-35089528D01*
X91051318Y-35101788D01*
X90931620Y-35138098D01*
X90821306Y-35197063D01*
X90724615Y-35276415D01*
X90645263Y-35373106D01*
X90586298Y-35483420D01*
X90549988Y-35603118D01*
X90537728Y-35727600D01*
X74080500Y-35727600D01*
X74080500Y-35463255D01*
X74017975Y-35148922D01*
X73895328Y-34852827D01*
X73717273Y-34586348D01*
X73490652Y-34359727D01*
X73406589Y-34303558D01*
X73680591Y-34190063D01*
X74034717Y-33953444D01*
X74335877Y-33652284D01*
X74572496Y-33298158D01*
X74735483Y-32904673D01*
X74818572Y-32486953D01*
X74818572Y-32061049D01*
X74735483Y-31643329D01*
X74572496Y-31249844D01*
X74335877Y-30895718D01*
X74034717Y-30594558D01*
X73680591Y-30357939D01*
X73446562Y-30261001D01*
X90434848Y-30261001D01*
X90379172Y-30344327D01*
%TA.AperFunction,Conductor*%
D17*
G36*
X90379172Y-30344327D02*
G01*
X90256525Y-30640422D01*
X90194000Y-30954755D01*
X90194000Y-31275245D01*
X90256525Y-31589578D01*
X90379172Y-31885673D01*
X90557227Y-32152152D01*
X90783848Y-32378773D01*
X91050327Y-32556828D01*
X91346422Y-32679475D01*
X91660755Y-32742000D01*
X91981245Y-32742000D01*
X92295578Y-32679475D01*
X92591673Y-32556828D01*
X92858152Y-32378773D01*
X93084773Y-32152152D01*
X93262828Y-31885673D01*
X93385475Y-31589578D01*
X93448000Y-31275245D01*
X93448000Y-30954755D01*
X93385475Y-30640422D01*
X93262828Y-30344327D01*
X93207152Y-30261001D01*
X97266305Y-30261001D01*
X97032276Y-30357939D01*
X96678150Y-30594558D01*
X96376990Y-30895718D01*
X96140371Y-31249844D01*
X95977384Y-31643329D01*
X95894295Y-32061049D01*
X95894295Y-32486953D01*
X95977384Y-32904673D01*
X96140371Y-33298158D01*
X96376990Y-33652284D01*
X96678150Y-33953444D01*
X97032276Y-34190063D01*
X97425761Y-34353050D01*
X97843481Y-34436139D01*
X98269385Y-34436139D01*
X98687105Y-34353050D01*
X99080590Y-34190063D01*
X99434716Y-33953444D01*
X99735876Y-33652284D01*
X99972495Y-33298158D01*
X100069434Y-33064127D01*
X100069434Y-35712144D01*
X99887002Y-35590247D01*
X99663703Y-35497753D01*
X99426649Y-35450600D01*
X99184951Y-35450600D01*
X98947897Y-35497753D01*
X98724598Y-35590247D01*
X98523633Y-35724527D01*
X98352727Y-35895433D01*
X98218447Y-36096398D01*
X98125953Y-36319697D01*
X98078800Y-36556751D01*
X98078800Y-36798449D01*
X98125953Y-37035503D01*
X98218447Y-37258802D01*
X98352727Y-37459767D01*
X98523633Y-37630673D01*
X98724598Y-37764953D01*
X98947897Y-37857447D01*
X99184951Y-37904600D01*
X99426649Y-37904600D01*
X99663703Y-37857447D01*
X99887002Y-37764953D01*
X100069434Y-37643056D01*
X100069434Y-38212144D01*
X99887002Y-38090247D01*
X99663703Y-37997753D01*
X99426649Y-37950600D01*
X99184951Y-37950600D01*
X98947897Y-37997753D01*
X98724598Y-38090247D01*
X98523633Y-38224527D01*
X98352727Y-38395433D01*
X98218447Y-38596398D01*
X98125953Y-38819697D01*
X98078800Y-39056751D01*
X98078800Y-39298449D01*
X98125953Y-39535503D01*
X98218447Y-39758802D01*
X98352727Y-39959767D01*
X98523633Y-40130673D01*
X98724598Y-40264953D01*
X98947897Y-40357447D01*
X99184951Y-40404600D01*
X99426649Y-40404600D01*
X99663703Y-40357447D01*
X99887002Y-40264953D01*
X100069434Y-40143056D01*
X100069434Y-43833994D01*
X99960967Y-43725527D01*
X99760002Y-43591247D01*
X99536703Y-43498753D01*
X99299649Y-43451600D01*
X99057951Y-43451600D01*
X98820897Y-43498753D01*
X98597598Y-43591247D01*
X98396633Y-43725527D01*
X98225727Y-43896433D01*
X98091447Y-44097398D01*
X97998953Y-44320697D01*
X97951800Y-44557751D01*
X97951800Y-44799449D01*
X97998953Y-45036503D01*
X98091447Y-45259802D01*
X98225727Y-45460767D01*
X98396633Y-45631673D01*
X98597598Y-45765953D01*
X98820897Y-45858447D01*
X99057951Y-45905600D01*
X99299649Y-45905600D01*
X99536703Y-45858447D01*
X99760002Y-45765953D01*
X99960967Y-45631673D01*
X100069434Y-45523206D01*
X100069434Y-46333994D01*
X99960967Y-46225527D01*
X99760002Y-46091247D01*
X99536703Y-45998753D01*
X99299649Y-45951600D01*
X99057951Y-45951600D01*
X98820897Y-45998753D01*
X98597598Y-46091247D01*
X98396633Y-46225527D01*
X98225727Y-46396433D01*
X98091447Y-46597398D01*
X97998953Y-46820697D01*
X97951800Y-47057751D01*
X97951800Y-47299449D01*
X97998953Y-47536503D01*
X98091447Y-47759802D01*
X98225727Y-47960767D01*
X98396633Y-48131673D01*
X98597598Y-48265953D01*
X98820897Y-48358447D01*
X99057951Y-48405600D01*
X99299649Y-48405600D01*
X99536703Y-48358447D01*
X99760002Y-48265953D01*
X99960967Y-48131673D01*
X100069434Y-48023206D01*
X100069434Y-51159558D01*
X99899702Y-51046147D01*
X99676403Y-50953653D01*
X99439349Y-50906500D01*
X99197651Y-50906500D01*
X98960597Y-50953653D01*
X98737298Y-51046147D01*
X98536333Y-51180427D01*
X98365427Y-51351333D01*
X98231147Y-51552298D01*
X98138653Y-51775597D01*
X98091500Y-52012651D01*
X98091500Y-52254349D01*
X98138653Y-52491403D01*
X98231147Y-52714702D01*
X98365427Y-52915667D01*
X98536333Y-53086573D01*
X98737298Y-53220853D01*
X98960597Y-53313347D01*
X99197651Y-53360500D01*
X99439349Y-53360500D01*
X99676403Y-53313347D01*
X99899702Y-53220853D01*
X100069434Y-53107442D01*
X100069434Y-53659558D01*
X99899702Y-53546147D01*
X99676403Y-53453653D01*
X99439349Y-53406500D01*
X99197651Y-53406500D01*
X98960597Y-53453653D01*
X98737298Y-53546147D01*
X98536333Y-53680427D01*
X98365427Y-53851333D01*
X98231147Y-54052298D01*
X98138653Y-54275597D01*
X98091500Y-54512651D01*
X98091500Y-54754349D01*
X98138653Y-54991403D01*
X98231147Y-55214702D01*
X98365427Y-55415667D01*
X98536333Y-55586573D01*
X98737298Y-55720853D01*
X98960597Y-55813347D01*
X99197651Y-55860500D01*
X99439349Y-55860500D01*
X99676403Y-55813347D01*
X99899702Y-55720853D01*
X100069433Y-55607443D01*
X100069433Y-59995206D01*
X99830673Y-59835672D01*
X99534578Y-59713025D01*
X99220245Y-59650500D01*
X98899755Y-59650500D01*
X98585422Y-59713025D01*
X98289327Y-59835672D01*
X98022848Y-60013727D01*
X97796227Y-60240348D01*
X97618172Y-60506827D01*
X97495525Y-60802922D01*
X97433000Y-61117255D01*
X97433000Y-61437745D01*
X97495525Y-61752078D01*
X97618172Y-62048173D01*
X97796227Y-62314652D01*
X98022848Y-62541273D01*
X98289327Y-62719328D01*
X98585422Y-62841975D01*
X98899755Y-62904500D01*
X99220245Y-62904500D01*
X99534578Y-62841975D01*
X99830673Y-62719328D01*
X100069433Y-62559794D01*
X100069433Y-74663872D01*
X99972495Y-74429843D01*
X99735876Y-74075717D01*
X99434716Y-73774557D01*
X99080590Y-73537938D01*
X98687105Y-73374951D01*
X98269385Y-73291862D01*
X97843481Y-73291862D01*
X97425761Y-73374951D01*
X97032276Y-73537938D01*
X96678150Y-73774557D01*
X96376990Y-74075717D01*
X96140371Y-74429843D01*
X95977384Y-74823328D01*
X95894295Y-75241048D01*
X95894295Y-75666952D01*
X95977384Y-76084672D01*
X96140371Y-76478157D01*
X96376990Y-76832283D01*
X96678150Y-77133443D01*
X97032276Y-77370062D01*
X97266305Y-77467000D01*
X93361753Y-77467000D01*
X93556652Y-77336773D01*
X93783273Y-77110152D01*
X93961328Y-76843673D01*
X94083975Y-76547578D01*
X94146500Y-76233245D01*
X94146500Y-75912755D01*
X94083975Y-75598422D01*
X93961328Y-75302327D01*
X93783273Y-75035848D01*
X93556652Y-74809227D01*
X93290173Y-74631172D01*
X92994078Y-74508525D01*
X92679745Y-74446000D01*
X92359255Y-74446000D01*
X92044922Y-74508525D01*
X91748827Y-74631172D01*
X91482348Y-74809227D01*
X91255727Y-75035848D01*
X91077672Y-75302327D01*
X90955025Y-75598422D01*
X90892500Y-75912755D01*
X90892500Y-76233245D01*
X90955025Y-76547578D01*
X91077672Y-76843673D01*
X91255727Y-77110152D01*
X91482348Y-77336773D01*
X91677247Y-77467000D01*
X73446562Y-77467000D01*
X73680591Y-77370062D01*
X74034717Y-77133443D01*
X74335877Y-76832283D01*
X74572496Y-76478157D01*
X74735483Y-76084672D01*
X74818572Y-75666952D01*
X74818572Y-75241048D01*
X74735483Y-74823328D01*
X74572496Y-74429843D01*
X74335877Y-74075717D01*
X74034717Y-73774557D01*
X73680591Y-73537938D01*
X73287106Y-73374951D01*
X72869386Y-73291862D01*
X72443482Y-73291862D01*
X72025762Y-73374951D01*
X71632277Y-73537938D01*
X71278151Y-73774557D01*
X70976991Y-74075717D01*
X70740372Y-74429843D01*
X70643434Y-74663872D01*
X70643434Y-67453384D01*
X70673575Y-67526151D01*
X70791440Y-67702547D01*
X70941453Y-67852560D01*
X71117849Y-67970425D01*
X71313851Y-68051611D01*
X71521925Y-68093000D01*
X71734075Y-68093000D01*
X71942149Y-68051611D01*
X72138151Y-67970425D01*
X72314547Y-67852560D01*
X72464560Y-67702547D01*
X72582425Y-67526151D01*
X72663611Y-67330149D01*
X72705000Y-67122075D01*
X72705000Y-66909925D01*
X72663611Y-66701851D01*
X72582425Y-66505849D01*
X72464560Y-66329453D01*
X72314547Y-66179440D01*
X72138151Y-66061575D01*
X71942149Y-65980389D01*
X71734075Y-65939000D01*
X71521925Y-65939000D01*
X71313851Y-65980389D01*
X71117849Y-66061575D01*
X70941453Y-66179440D01*
X70791440Y-66329453D01*
X70673575Y-66505849D01*
X70643434Y-66578616D01*
X70643434Y-62453384D01*
X70673575Y-62526151D01*
X70791440Y-62702547D01*
X70941453Y-62852560D01*
X71117849Y-62970425D01*
X71313851Y-63051611D01*
X71521925Y-63093000D01*
X71734075Y-63093000D01*
X71942149Y-63051611D01*
X72138151Y-62970425D01*
X72314547Y-62852560D01*
X72464560Y-62702547D01*
X72582425Y-62526151D01*
X72663611Y-62330149D01*
X72705000Y-62122075D01*
X72705000Y-61909925D01*
X72663611Y-61701851D01*
X72582425Y-61505849D01*
X72464560Y-61329453D01*
X72314547Y-61179440D01*
X72138151Y-61061575D01*
X71942149Y-60980389D01*
X71734075Y-60939000D01*
X71521925Y-60939000D01*
X71313851Y-60980389D01*
X71117849Y-61061575D01*
X70941453Y-61179440D01*
X70791440Y-61329453D01*
X70673575Y-61505849D01*
X70643434Y-61578616D01*
X70643434Y-57395424D01*
X91025700Y-57395424D01*
X91025700Y-57539576D01*
X91053823Y-57680958D01*
X91108987Y-57814137D01*
X91189074Y-57933995D01*
X91255500Y-58000421D01*
X91255501Y-58585578D01*
X91189074Y-58652005D01*
X91108987Y-58771863D01*
X91053823Y-58905042D01*
X91025700Y-59046424D01*
X91025700Y-59190576D01*
X91053823Y-59331958D01*
X91108987Y-59465137D01*
X91189074Y-59584995D01*
X91291005Y-59686926D01*
X91410863Y-59767013D01*
X91544042Y-59822177D01*
X91685424Y-59850300D01*
X91829576Y-59850300D01*
X91970958Y-59822177D01*
X92104137Y-59767013D01*
X92223995Y-59686926D01*
X92325926Y-59584995D01*
X92406013Y-59465137D01*
X92461177Y-59331958D01*
X92489300Y-59190576D01*
X92489300Y-59046424D01*
X92461177Y-58905042D01*
X92406013Y-58771863D01*
X92325926Y-58652005D01*
X92259500Y-58585579D01*
X92259500Y-58000421D01*
X92325926Y-57933995D01*
X92406013Y-57814137D01*
X92461177Y-57680958D01*
X92489300Y-57539576D01*
X92489300Y-57395424D01*
X92461177Y-57254042D01*
X92406013Y-57120863D01*
X92325926Y-57001005D01*
X92223995Y-56899074D01*
X92104137Y-56818987D01*
X91970958Y-56763823D01*
X91829576Y-56735700D01*
X91685424Y-56735700D01*
X91544042Y-56763823D01*
X91410863Y-56818987D01*
X91291005Y-56899074D01*
X91189074Y-57001005D01*
X91108987Y-57120863D01*
X91053823Y-57254042D01*
X91025700Y-57395424D01*
X70643434Y-57395424D01*
X70643434Y-51183500D01*
X90759434Y-51183500D01*
X90759434Y-53083500D01*
X90767678Y-53167207D01*
X90792095Y-53247696D01*
X90831745Y-53321876D01*
X90885105Y-53386895D01*
X90950124Y-53440255D01*
X91024304Y-53479905D01*
X91104793Y-53504322D01*
X91188500Y-53512566D01*
X91337561Y-53512566D01*
X91260713Y-53563914D01*
X91068914Y-53755713D01*
X90918218Y-53981246D01*
X90814417Y-54231844D01*
X90761500Y-54497877D01*
X90761500Y-54769123D01*
X90814417Y-55035156D01*
X90918218Y-55285754D01*
X91068914Y-55511287D01*
X91260713Y-55703086D01*
X91486246Y-55853782D01*
X91736844Y-55957583D01*
X92002877Y-56010500D01*
X92274123Y-56010500D01*
X92540156Y-55957583D01*
X92790754Y-55853782D01*
X93016287Y-55703086D01*
X93208086Y-55511287D01*
X93358782Y-55285754D01*
X93462583Y-55035156D01*
X93515500Y-54769123D01*
X93515500Y-54497877D01*
X93462583Y-54231844D01*
X93358782Y-53981246D01*
X93208086Y-53755713D01*
X93016287Y-53563914D01*
X92939439Y-53512566D01*
X93088500Y-53512566D01*
X93172207Y-53504322D01*
X93252696Y-53479905D01*
X93326876Y-53440255D01*
X93391895Y-53386895D01*
X93445255Y-53321876D01*
X93484905Y-53247696D01*
X93509322Y-53167207D01*
X93517566Y-53083500D01*
X93517566Y-51183500D01*
X93509322Y-51099793D01*
X93484905Y-51019304D01*
X93445255Y-50945124D01*
X93391895Y-50880105D01*
X93326876Y-50826745D01*
X93252696Y-50787095D01*
X93172207Y-50762678D01*
X93088500Y-50754434D01*
X91188500Y-50754434D01*
X91104793Y-50762678D01*
X91024304Y-50787095D01*
X90950124Y-50826745D01*
X90885105Y-50880105D01*
X90831745Y-50945124D01*
X90792095Y-51019304D01*
X90767678Y-51099793D01*
X90759434Y-51183500D01*
X70643434Y-51183500D01*
X70643434Y-48099755D01*
X71398000Y-48099755D01*
X71398000Y-48420245D01*
X71460525Y-48734578D01*
X71583172Y-49030673D01*
X71761227Y-49297152D01*
X71987848Y-49523773D01*
X72254327Y-49701828D01*
X72550422Y-49824475D01*
X72864755Y-49887000D01*
X73185245Y-49887000D01*
X73499578Y-49824475D01*
X73795673Y-49701828D01*
X74062152Y-49523773D01*
X74288773Y-49297152D01*
X74466828Y-49030673D01*
X74500275Y-48949924D01*
X84739200Y-48949924D01*
X84739200Y-49094076D01*
X84767323Y-49235458D01*
X84822487Y-49368637D01*
X84844001Y-49400834D01*
X84844000Y-50040166D01*
X84822487Y-50072363D01*
X84767323Y-50205542D01*
X84739200Y-50346924D01*
X84739200Y-50491076D01*
X84767323Y-50632458D01*
X84822487Y-50765637D01*
X84902574Y-50885495D01*
X85004505Y-50987426D01*
X85124363Y-51067513D01*
X85257542Y-51122677D01*
X85398924Y-51150800D01*
X85543076Y-51150800D01*
X85684458Y-51122677D01*
X85817637Y-51067513D01*
X85937495Y-50987426D01*
X86039426Y-50885495D01*
X86119513Y-50765637D01*
X86174677Y-50632458D01*
X86202800Y-50491076D01*
X86202800Y-50346924D01*
X86174677Y-50205542D01*
X86119513Y-50072363D01*
X86098000Y-50040167D01*
X86098000Y-49400833D01*
X86119513Y-49368637D01*
X86174677Y-49235458D01*
X86202800Y-49094076D01*
X86202800Y-48949924D01*
X86174677Y-48808542D01*
X86119513Y-48675363D01*
X86039426Y-48555505D01*
X85937495Y-48453574D01*
X85817637Y-48373487D01*
X85684458Y-48318323D01*
X85543076Y-48290200D01*
X85398924Y-48290200D01*
X85257542Y-48318323D01*
X85124363Y-48373487D01*
X85004505Y-48453574D01*
X84902574Y-48555505D01*
X84822487Y-48675363D01*
X84767323Y-48808542D01*
X84739200Y-48949924D01*
X74500275Y-48949924D01*
X74589475Y-48734578D01*
X74652000Y-48420245D01*
X74652000Y-48099755D01*
X74589475Y-47785422D01*
X74466828Y-47489327D01*
X74288773Y-47222848D01*
X74062152Y-46996227D01*
X73795673Y-46818172D01*
X73499578Y-46695525D01*
X73185245Y-46633000D01*
X72864755Y-46633000D01*
X72550422Y-46695525D01*
X72254327Y-46818172D01*
X71987848Y-46996227D01*
X71761227Y-47222848D01*
X71583172Y-47489327D01*
X71460525Y-47785422D01*
X71398000Y-48099755D01*
X70643434Y-48099755D01*
X70643434Y-42282424D01*
X79913200Y-42282424D01*
X79913200Y-42426576D01*
X79941323Y-42567958D01*
X79996487Y-42701137D01*
X80076574Y-42820995D01*
X80178505Y-42922926D01*
X80298363Y-43003013D01*
X80431542Y-43058177D01*
X80572924Y-43086300D01*
X80717076Y-43086300D01*
X80858458Y-43058177D01*
X80890270Y-43045000D01*
X82621501Y-43045000D01*
X82621500Y-46387706D01*
X82618467Y-46418500D01*
X82621500Y-46449293D01*
X82630573Y-46541412D01*
X82666425Y-46659602D01*
X82724647Y-46768527D01*
X82802999Y-46864001D01*
X82826927Y-46883638D01*
X83426269Y-47482980D01*
X83433823Y-47520958D01*
X83488987Y-47654137D01*
X83569074Y-47773995D01*
X83671005Y-47875926D01*
X83790863Y-47956013D01*
X83924042Y-48011177D01*
X84065424Y-48039300D01*
X84209576Y-48039300D01*
X84350958Y-48011177D01*
X84484137Y-47956013D01*
X84603995Y-47875926D01*
X84705926Y-47773995D01*
X84786013Y-47654137D01*
X84841177Y-47520958D01*
X84869300Y-47379576D01*
X84869300Y-47235424D01*
X84841177Y-47094042D01*
X84786013Y-46960863D01*
X84705926Y-46841005D01*
X84603995Y-46739074D01*
X84484137Y-46658987D01*
X84350958Y-46603823D01*
X84312980Y-46596269D01*
X83875500Y-46158789D01*
X83875500Y-45628600D01*
X90410728Y-45628600D01*
X90422988Y-45753082D01*
X90459298Y-45872780D01*
X90518263Y-45983094D01*
X90597615Y-46079785D01*
X90694306Y-46159137D01*
X90804620Y-46218102D01*
X90924318Y-46254412D01*
X90971016Y-46259011D01*
X90929214Y-46300813D01*
X90778518Y-46526346D01*
X90674717Y-46776944D01*
X90621800Y-47042977D01*
X90621800Y-47314223D01*
X90674717Y-47580256D01*
X90778518Y-47830854D01*
X90929214Y-48056387D01*
X91121013Y-48248186D01*
X91346546Y-48398882D01*
X91597144Y-48502683D01*
X91863177Y-48555600D01*
X92134423Y-48555600D01*
X92400456Y-48502683D01*
X92651054Y-48398882D01*
X92876587Y-48248186D01*
X93068386Y-48056387D01*
X93219082Y-47830854D01*
X93322883Y-47580256D01*
X93375800Y-47314223D01*
X93375800Y-47042977D01*
X93322883Y-46776944D01*
X93219082Y-46526346D01*
X93068386Y-46300813D01*
X93026584Y-46259011D01*
X93073282Y-46254412D01*
X93192980Y-46218102D01*
X93303294Y-46159137D01*
X93399985Y-46079785D01*
X93479337Y-45983094D01*
X93538302Y-45872780D01*
X93574612Y-45753082D01*
X93586872Y-45628600D01*
X93583800Y-44964350D01*
X93425050Y-44805600D01*
X92125800Y-44805600D01*
X92125800Y-44825600D01*
X91871800Y-44825600D01*
X91871800Y-44805600D01*
X90572550Y-44805600D01*
X90413800Y-44964350D01*
X90410728Y-45628600D01*
X83875500Y-45628600D01*
X83875500Y-44031752D01*
X83885942Y-44036077D01*
X83923920Y-44043631D01*
X84062875Y-44182587D01*
X84082508Y-44206510D01*
X84177981Y-44284862D01*
X84286906Y-44343084D01*
X84405096Y-44378936D01*
X84528009Y-44391042D01*
X84558803Y-44388009D01*
X86532143Y-44388009D01*
X86562937Y-44391042D01*
X86593731Y-44388009D01*
X86685850Y-44378936D01*
X86804040Y-44343084D01*
X86912965Y-44284862D01*
X87008438Y-44206510D01*
X87028075Y-44182582D01*
X87197875Y-44012782D01*
X87208458Y-44010677D01*
X87341637Y-43955513D01*
X87461495Y-43875426D01*
X87563426Y-43773495D01*
X87593424Y-43728600D01*
X90410728Y-43728600D01*
X90413800Y-44392850D01*
X90572550Y-44551600D01*
X91871800Y-44551600D01*
X91871800Y-43252350D01*
X92125800Y-43252350D01*
X92125800Y-44551600D01*
X93425050Y-44551600D01*
X93583800Y-44392850D01*
X93586872Y-43728600D01*
X93574612Y-43604118D01*
X93538302Y-43484420D01*
X93479337Y-43374106D01*
X93399985Y-43277415D01*
X93303294Y-43198063D01*
X93192980Y-43139098D01*
X93073282Y-43102788D01*
X92948800Y-43090528D01*
X92284550Y-43093600D01*
X92125800Y-43252350D01*
X91871800Y-43252350D01*
X91713050Y-43093600D01*
X91048800Y-43090528D01*
X90924318Y-43102788D01*
X90804620Y-43139098D01*
X90694306Y-43198063D01*
X90597615Y-43277415D01*
X90518263Y-43374106D01*
X90459298Y-43484420D01*
X90422988Y-43604118D01*
X90410728Y-43728600D01*
X87593424Y-43728600D01*
X87643513Y-43653637D01*
X87698677Y-43520458D01*
X87726800Y-43379076D01*
X87726800Y-43234924D01*
X87698677Y-43093542D01*
X87643513Y-42960363D01*
X87563426Y-42840505D01*
X87461495Y-42738574D01*
X87341637Y-42658487D01*
X87208458Y-42603323D01*
X87067076Y-42575200D01*
X86922924Y-42575200D01*
X86781542Y-42603323D01*
X86648363Y-42658487D01*
X86528505Y-42738574D01*
X86426574Y-42840505D01*
X86346487Y-42960363D01*
X86291323Y-43093542D01*
X86283274Y-43134009D01*
X84806074Y-43134009D01*
X84803077Y-43118942D01*
X84747913Y-42985763D01*
X84667826Y-42865905D01*
X84565895Y-42763974D01*
X84446037Y-42683887D01*
X84312858Y-42628723D01*
X84171476Y-42600600D01*
X84027324Y-42600600D01*
X83889356Y-42628044D01*
X83916800Y-42490076D01*
X83916800Y-42345924D01*
X83888677Y-42204542D01*
X83833513Y-42071363D01*
X83753426Y-41951505D01*
X83651495Y-41849574D01*
X83531637Y-41769487D01*
X83398458Y-41714323D01*
X83257076Y-41686200D01*
X83112924Y-41686200D01*
X82971542Y-41714323D01*
X82838363Y-41769487D01*
X82806167Y-41791000D01*
X81116421Y-41791000D01*
X81111495Y-41786074D01*
X80991637Y-41705987D01*
X80858458Y-41650823D01*
X80717076Y-41622700D01*
X80572924Y-41622700D01*
X80431542Y-41650823D01*
X80298363Y-41705987D01*
X80178505Y-41786074D01*
X80076574Y-41888005D01*
X79996487Y-42007863D01*
X79941323Y-42141042D01*
X79913200Y-42282424D01*
X70643434Y-42282424D01*
X70643434Y-37627600D01*
X90537728Y-37627600D01*
X90549988Y-37752082D01*
X90586298Y-37871780D01*
X90645263Y-37982094D01*
X90724615Y-38078785D01*
X90821306Y-38158137D01*
X90931620Y-38217102D01*
X91051318Y-38253412D01*
X91098016Y-38258011D01*
X91056214Y-38299813D01*
X90905518Y-38525346D01*
X90801717Y-38775944D01*
X90748800Y-39041977D01*
X90748800Y-39313223D01*
X90801717Y-39579256D01*
X90905518Y-39829854D01*
X91056214Y-40055387D01*
X91248013Y-40247186D01*
X91473546Y-40397882D01*
X91724144Y-40501683D01*
X91990177Y-40554600D01*
X92261423Y-40554600D01*
X92527456Y-40501683D01*
X92778054Y-40397882D01*
X93003587Y-40247186D01*
X93195386Y-40055387D01*
X93346082Y-39829854D01*
X93449883Y-39579256D01*
X93502800Y-39313223D01*
X93502800Y-39041977D01*
X93449883Y-38775944D01*
X93346082Y-38525346D01*
X93195386Y-38299813D01*
X93153584Y-38258011D01*
X93200282Y-38253412D01*
X93319980Y-38217102D01*
X93430294Y-38158137D01*
X93526985Y-38078785D01*
X93606337Y-37982094D01*
X93665302Y-37871780D01*
X93701612Y-37752082D01*
X93713872Y-37627600D01*
X93710800Y-36963350D01*
X93552050Y-36804600D01*
X92252800Y-36804600D01*
X92252800Y-36824600D01*
X91998800Y-36824600D01*
X91998800Y-36804600D01*
X90699550Y-36804600D01*
X90540800Y-36963350D01*
X90537728Y-37627600D01*
X70643434Y-37627600D01*
X70643434Y-33064129D01*
X70740372Y-33298158D01*
X70976991Y-33652284D01*
X71278151Y-33953444D01*
X71632277Y-34190063D01*
X71655730Y-34199778D01*
X71416348Y-34359727D01*
X71189727Y-34586348D01*
X71011672Y-34852827D01*
X70889025Y-35148922D01*
X70826500Y-35463255D01*
X70826500Y-35783745D01*
X70889025Y-36098078D01*
X71011672Y-36394173D01*
X71189727Y-36660652D01*
X71416348Y-36887273D01*
X71682827Y-37065328D01*
X71978922Y-37187975D01*
X72293255Y-37250500D01*
X72613745Y-37250500D01*
X72928078Y-37187975D01*
X73224173Y-37065328D01*
X73490652Y-36887273D01*
X73717273Y-36660652D01*
X73895328Y-36394173D01*
X74017975Y-36098078D01*
X74080500Y-35783745D01*
X74080500Y-35727600D01*
X90537728Y-35727600D01*
X90540800Y-36391850D01*
X90699550Y-36550600D01*
X91998800Y-36550600D01*
X91998800Y-35251350D01*
X92252800Y-35251350D01*
X92252800Y-36550600D01*
X93552050Y-36550600D01*
X93710800Y-36391850D01*
X93713872Y-35727600D01*
X93701612Y-35603118D01*
X93665302Y-35483420D01*
X93606337Y-35373106D01*
X93526985Y-35276415D01*
X93430294Y-35197063D01*
X93319980Y-35138098D01*
X93200282Y-35101788D01*
X93075800Y-35089528D01*
X92411550Y-35092600D01*
X92252800Y-35251350D01*
X91998800Y-35251350D01*
X91840050Y-35092600D01*
X91175800Y-35089528D01*
X91051318Y-35101788D01*
X90931620Y-35138098D01*
X90821306Y-35197063D01*
X90724615Y-35276415D01*
X90645263Y-35373106D01*
X90586298Y-35483420D01*
X90549988Y-35603118D01*
X90537728Y-35727600D01*
X74080500Y-35727600D01*
X74080500Y-35463255D01*
X74017975Y-35148922D01*
X73895328Y-34852827D01*
X73717273Y-34586348D01*
X73490652Y-34359727D01*
X73406589Y-34303558D01*
X73680591Y-34190063D01*
X74034717Y-33953444D01*
X74335877Y-33652284D01*
X74572496Y-33298158D01*
X74735483Y-32904673D01*
X74818572Y-32486953D01*
X74818572Y-32061049D01*
X74735483Y-31643329D01*
X74572496Y-31249844D01*
X74335877Y-30895718D01*
X74034717Y-30594558D01*
X73680591Y-30357939D01*
X73446562Y-30261001D01*
X90434848Y-30261001D01*
X90379172Y-30344327D01*
G37*
%TD.AperFunction*%
%TD*%
M02*
