%TF.GenerationSoftware,KiCad,Pcbnew,(5.1.9-0-10_14)*%
%TF.CreationDate,2021-03-09T11:41:36-05:00*%
%TF.ProjectId,Antoinette_PowerBank,416e746f-696e-4657-9474-655f506f7765,rev?*%
%TF.SameCoordinates,Original*%
%TF.FileFunction,Legend,Top*%
%TF.FilePolarity,Positive*%
%FSLAX46Y46*%
G04 Gerber Fmt 4.6, Leading zero omitted, Abs format (unit mm)*
G04 Created by KiCad (PCBNEW (5.1.9-0-10_14)) date 2021-03-09 11:41:36*
%MOMM*%
%LPD*%
G01*
G04 APERTURE LIST*
%ADD10C,0.125000*%
%ADD11C,0.175000*%
%ADD12C,0.150000*%
%ADD13C,0.120000*%
G04 APERTURE END LIST*
D10*
X90747809Y-55971142D02*
X90785904Y-55899714D01*
X90785904Y-55780666D01*
X90747809Y-55733047D01*
X90709714Y-55709238D01*
X90633523Y-55685428D01*
X90557333Y-55685428D01*
X90481142Y-55709238D01*
X90443047Y-55733047D01*
X90404952Y-55780666D01*
X90366857Y-55875904D01*
X90328761Y-55923523D01*
X90290666Y-55947333D01*
X90214476Y-55971142D01*
X90138285Y-55971142D01*
X90062095Y-55947333D01*
X90024000Y-55923523D01*
X89985904Y-55875904D01*
X89985904Y-55756857D01*
X90024000Y-55685428D01*
X90252571Y-55518761D02*
X90785904Y-55423523D01*
X90404952Y-55328285D01*
X90785904Y-55233047D01*
X90252571Y-55137809D01*
X90785904Y-54947333D02*
X90252571Y-54947333D01*
X89985904Y-54947333D02*
X90024000Y-54971142D01*
X90062095Y-54947333D01*
X90024000Y-54923523D01*
X89985904Y-54947333D01*
X90062095Y-54947333D01*
X90252571Y-54780666D02*
X90252571Y-54590190D01*
X89985904Y-54709238D02*
X90671619Y-54709238D01*
X90747809Y-54685428D01*
X90785904Y-54637809D01*
X90785904Y-54590190D01*
X90747809Y-54209238D02*
X90785904Y-54256857D01*
X90785904Y-54352095D01*
X90747809Y-54399714D01*
X90709714Y-54423523D01*
X90633523Y-54447333D01*
X90404952Y-54447333D01*
X90328761Y-54423523D01*
X90290666Y-54399714D01*
X90252571Y-54352095D01*
X90252571Y-54256857D01*
X90290666Y-54209238D01*
X90785904Y-53994952D02*
X89985904Y-53994952D01*
X90785904Y-53780666D02*
X90366857Y-53780666D01*
X90290666Y-53804476D01*
X90252571Y-53852095D01*
X90252571Y-53923523D01*
X90290666Y-53971142D01*
X90328761Y-53994952D01*
X90303357Y-48279714D02*
X90341452Y-48208285D01*
X90379547Y-48184476D01*
X90455738Y-48160666D01*
X90570023Y-48160666D01*
X90646214Y-48184476D01*
X90684309Y-48208285D01*
X90722404Y-48255904D01*
X90722404Y-48446380D01*
X89922404Y-48446380D01*
X89922404Y-48279714D01*
X89960500Y-48232095D01*
X89998595Y-48208285D01*
X90074785Y-48184476D01*
X90150976Y-48184476D01*
X90227166Y-48208285D01*
X90265261Y-48232095D01*
X90303357Y-48279714D01*
X90303357Y-48446380D01*
X90722404Y-47732095D02*
X90303357Y-47732095D01*
X90227166Y-47755904D01*
X90189071Y-47803523D01*
X90189071Y-47898761D01*
X90227166Y-47946380D01*
X90684309Y-47732095D02*
X90722404Y-47779714D01*
X90722404Y-47898761D01*
X90684309Y-47946380D01*
X90608119Y-47970190D01*
X90531928Y-47970190D01*
X90455738Y-47946380D01*
X90417642Y-47898761D01*
X90417642Y-47779714D01*
X90379547Y-47732095D01*
X90189071Y-47565428D02*
X90189071Y-47374952D01*
X89922404Y-47494000D02*
X90608119Y-47494000D01*
X90684309Y-47470190D01*
X90722404Y-47422571D01*
X90722404Y-47374952D01*
X90189071Y-47279714D02*
X90189071Y-47089238D01*
X89922404Y-47208285D02*
X90608119Y-47208285D01*
X90684309Y-47184476D01*
X90722404Y-47136857D01*
X90722404Y-47089238D01*
X90684309Y-46732095D02*
X90722404Y-46779714D01*
X90722404Y-46874952D01*
X90684309Y-46922571D01*
X90608119Y-46946380D01*
X90303357Y-46946380D01*
X90227166Y-46922571D01*
X90189071Y-46874952D01*
X90189071Y-46779714D01*
X90227166Y-46732095D01*
X90303357Y-46708285D01*
X90379547Y-46708285D01*
X90455738Y-46946380D01*
X90722404Y-46494000D02*
X90189071Y-46494000D01*
X90341452Y-46494000D02*
X90265261Y-46470190D01*
X90227166Y-46446380D01*
X90189071Y-46398761D01*
X90189071Y-46351142D01*
X90189071Y-46232095D02*
X90722404Y-46113047D01*
X90189071Y-45994000D02*
X90722404Y-46113047D01*
X90912880Y-46160666D01*
X90950976Y-46184476D01*
X90989071Y-46232095D01*
D11*
X79813166Y-59657000D02*
X79813166Y-59323666D01*
X80013166Y-59723666D02*
X79313166Y-59490333D01*
X80013166Y-59257000D01*
X79546500Y-59023666D02*
X80013166Y-59023666D01*
X79613166Y-59023666D02*
X79579833Y-58990333D01*
X79546500Y-58923666D01*
X79546500Y-58823666D01*
X79579833Y-58757000D01*
X79646500Y-58723666D01*
X80013166Y-58723666D01*
X79546500Y-58490333D02*
X79546500Y-58223666D01*
X79313166Y-58390333D02*
X79913166Y-58390333D01*
X79979833Y-58357000D01*
X80013166Y-58290333D01*
X80013166Y-58223666D01*
X80013166Y-57890333D02*
X79979833Y-57957000D01*
X79946500Y-57990333D01*
X79879833Y-58023666D01*
X79679833Y-58023666D01*
X79613166Y-57990333D01*
X79579833Y-57957000D01*
X79546500Y-57890333D01*
X79546500Y-57790333D01*
X79579833Y-57723666D01*
X79613166Y-57690333D01*
X79679833Y-57657000D01*
X79879833Y-57657000D01*
X79946500Y-57690333D01*
X79979833Y-57723666D01*
X80013166Y-57790333D01*
X80013166Y-57890333D01*
X80013166Y-57357000D02*
X79546500Y-57357000D01*
X79313166Y-57357000D02*
X79346500Y-57390333D01*
X79379833Y-57357000D01*
X79346500Y-57323666D01*
X79313166Y-57357000D01*
X79379833Y-57357000D01*
X79546500Y-57023666D02*
X80013166Y-57023666D01*
X79613166Y-57023666D02*
X79579833Y-56990333D01*
X79546500Y-56923666D01*
X79546500Y-56823666D01*
X79579833Y-56757000D01*
X79646500Y-56723666D01*
X80013166Y-56723666D01*
X79979833Y-56123666D02*
X80013166Y-56190333D01*
X80013166Y-56323666D01*
X79979833Y-56390333D01*
X79913166Y-56423666D01*
X79646500Y-56423666D01*
X79579833Y-56390333D01*
X79546500Y-56323666D01*
X79546500Y-56190333D01*
X79579833Y-56123666D01*
X79646500Y-56090333D01*
X79713166Y-56090333D01*
X79779833Y-56423666D01*
X79546500Y-55890333D02*
X79546500Y-55623666D01*
X79313166Y-55790333D02*
X79913166Y-55790333D01*
X79979833Y-55757000D01*
X80013166Y-55690333D01*
X80013166Y-55623666D01*
X79546500Y-55490333D02*
X79546500Y-55223666D01*
X79313166Y-55390333D02*
X79913166Y-55390333D01*
X79979833Y-55357000D01*
X80013166Y-55290333D01*
X80013166Y-55223666D01*
X79979833Y-54723666D02*
X80013166Y-54790333D01*
X80013166Y-54923666D01*
X79979833Y-54990333D01*
X79913166Y-55023666D01*
X79646500Y-55023666D01*
X79579833Y-54990333D01*
X79546500Y-54923666D01*
X79546500Y-54790333D01*
X79579833Y-54723666D01*
X79646500Y-54690333D01*
X79713166Y-54690333D01*
X79779833Y-55023666D01*
X79313166Y-53957000D02*
X79313166Y-53557000D01*
X80013166Y-53757000D02*
X79313166Y-53757000D01*
X80013166Y-53023666D02*
X79646500Y-53023666D01*
X79579833Y-53057000D01*
X79546500Y-53123666D01*
X79546500Y-53257000D01*
X79579833Y-53323666D01*
X79979833Y-53023666D02*
X80013166Y-53090333D01*
X80013166Y-53257000D01*
X79979833Y-53323666D01*
X79913166Y-53357000D01*
X79846500Y-53357000D01*
X79779833Y-53323666D01*
X79746500Y-53257000D01*
X79746500Y-53090333D01*
X79713166Y-53023666D01*
X79546500Y-52690333D02*
X80013166Y-52690333D01*
X79613166Y-52690333D02*
X79579833Y-52657000D01*
X79546500Y-52590333D01*
X79546500Y-52490333D01*
X79579833Y-52423666D01*
X79646500Y-52390333D01*
X80013166Y-52390333D01*
X80538166Y-57007000D02*
X81238166Y-56773666D01*
X80538166Y-56540333D01*
X81171500Y-56307000D02*
X81204833Y-56273666D01*
X81238166Y-56307000D01*
X81204833Y-56340333D01*
X81171500Y-56307000D01*
X81238166Y-56307000D01*
X81238166Y-55073666D02*
X81238166Y-55473666D01*
X81238166Y-55273666D02*
X80538166Y-55273666D01*
X80638166Y-55340333D01*
X80704833Y-55407000D01*
X80738166Y-55473666D01*
X82463166Y-59190333D02*
X81763166Y-59190333D01*
X81763166Y-58923666D01*
X81796500Y-58857000D01*
X81829833Y-58823666D01*
X81896500Y-58790333D01*
X81996500Y-58790333D01*
X82063166Y-58823666D01*
X82096500Y-58857000D01*
X82129833Y-58923666D01*
X82129833Y-59190333D01*
X82463166Y-58390333D02*
X82429833Y-58457000D01*
X82396500Y-58490333D01*
X82329833Y-58523666D01*
X82129833Y-58523666D01*
X82063166Y-58490333D01*
X82029833Y-58457000D01*
X81996500Y-58390333D01*
X81996500Y-58290333D01*
X82029833Y-58223666D01*
X82063166Y-58190333D01*
X82129833Y-58157000D01*
X82329833Y-58157000D01*
X82396500Y-58190333D01*
X82429833Y-58223666D01*
X82463166Y-58290333D01*
X82463166Y-58390333D01*
X81996500Y-57923666D02*
X82463166Y-57790333D01*
X82129833Y-57657000D01*
X82463166Y-57523666D01*
X81996500Y-57390333D01*
X82429833Y-56857000D02*
X82463166Y-56923666D01*
X82463166Y-57057000D01*
X82429833Y-57123666D01*
X82363166Y-57157000D01*
X82096500Y-57157000D01*
X82029833Y-57123666D01*
X81996500Y-57057000D01*
X81996500Y-56923666D01*
X82029833Y-56857000D01*
X82096500Y-56823666D01*
X82163166Y-56823666D01*
X82229833Y-57157000D01*
X82463166Y-56523666D02*
X81996500Y-56523666D01*
X82129833Y-56523666D02*
X82063166Y-56490333D01*
X82029833Y-56457000D01*
X81996500Y-56390333D01*
X81996500Y-56323666D01*
X82096500Y-55323666D02*
X82129833Y-55223666D01*
X82163166Y-55190333D01*
X82229833Y-55157000D01*
X82329833Y-55157000D01*
X82396500Y-55190333D01*
X82429833Y-55223666D01*
X82463166Y-55290333D01*
X82463166Y-55557000D01*
X81763166Y-55557000D01*
X81763166Y-55323666D01*
X81796500Y-55257000D01*
X81829833Y-55223666D01*
X81896500Y-55190333D01*
X81963166Y-55190333D01*
X82029833Y-55223666D01*
X82063166Y-55257000D01*
X82096500Y-55323666D01*
X82096500Y-55557000D01*
X82463166Y-54557000D02*
X82096500Y-54557000D01*
X82029833Y-54590333D01*
X81996500Y-54657000D01*
X81996500Y-54790333D01*
X82029833Y-54857000D01*
X82429833Y-54557000D02*
X82463166Y-54623666D01*
X82463166Y-54790333D01*
X82429833Y-54857000D01*
X82363166Y-54890333D01*
X82296500Y-54890333D01*
X82229833Y-54857000D01*
X82196500Y-54790333D01*
X82196500Y-54623666D01*
X82163166Y-54557000D01*
X81996500Y-54223666D02*
X82463166Y-54223666D01*
X82063166Y-54223666D02*
X82029833Y-54190333D01*
X81996500Y-54123666D01*
X81996500Y-54023666D01*
X82029833Y-53957000D01*
X82096500Y-53923666D01*
X82463166Y-53923666D01*
X82463166Y-53590333D02*
X81763166Y-53590333D01*
X82196500Y-53523666D02*
X82463166Y-53323666D01*
X81996500Y-53323666D02*
X82263166Y-53590333D01*
X83688166Y-59757000D02*
X82988166Y-59757000D01*
X83488166Y-59523666D01*
X82988166Y-59290333D01*
X83688166Y-59290333D01*
X83688166Y-58657000D02*
X83321500Y-58657000D01*
X83254833Y-58690333D01*
X83221500Y-58757000D01*
X83221500Y-58890333D01*
X83254833Y-58957000D01*
X83654833Y-58657000D02*
X83688166Y-58723666D01*
X83688166Y-58890333D01*
X83654833Y-58957000D01*
X83588166Y-58990333D01*
X83521500Y-58990333D01*
X83454833Y-58957000D01*
X83421500Y-58890333D01*
X83421500Y-58723666D01*
X83388166Y-58657000D01*
X83688166Y-58323666D02*
X83221500Y-58323666D01*
X83354833Y-58323666D02*
X83288166Y-58290333D01*
X83254833Y-58257000D01*
X83221500Y-58190333D01*
X83221500Y-58123666D01*
X83654833Y-57590333D02*
X83688166Y-57657000D01*
X83688166Y-57790333D01*
X83654833Y-57857000D01*
X83621500Y-57890333D01*
X83554833Y-57923666D01*
X83354833Y-57923666D01*
X83288166Y-57890333D01*
X83254833Y-57857000D01*
X83221500Y-57790333D01*
X83221500Y-57657000D01*
X83254833Y-57590333D01*
X83688166Y-57290333D02*
X82988166Y-57290333D01*
X83688166Y-56990333D02*
X83321500Y-56990333D01*
X83254833Y-57023666D01*
X83221500Y-57090333D01*
X83221500Y-57190333D01*
X83254833Y-57257000D01*
X83288166Y-57290333D01*
X83288166Y-56023666D02*
X83254833Y-56090333D01*
X83221500Y-56123666D01*
X83154833Y-56157000D01*
X83121500Y-56157000D01*
X83054833Y-56123666D01*
X83021500Y-56090333D01*
X82988166Y-56023666D01*
X82988166Y-55890333D01*
X83021500Y-55823666D01*
X83054833Y-55790333D01*
X83121500Y-55757000D01*
X83154833Y-55757000D01*
X83221500Y-55790333D01*
X83254833Y-55823666D01*
X83288166Y-55890333D01*
X83288166Y-56023666D01*
X83321500Y-56090333D01*
X83354833Y-56123666D01*
X83421500Y-56157000D01*
X83554833Y-56157000D01*
X83621500Y-56123666D01*
X83654833Y-56090333D01*
X83688166Y-56023666D01*
X83688166Y-55890333D01*
X83654833Y-55823666D01*
X83621500Y-55790333D01*
X83554833Y-55757000D01*
X83421500Y-55757000D01*
X83354833Y-55790333D01*
X83321500Y-55823666D01*
X83288166Y-55890333D01*
X83654833Y-55423666D02*
X83688166Y-55423666D01*
X83754833Y-55457000D01*
X83788166Y-55490333D01*
X83054833Y-54623666D02*
X83021500Y-54590333D01*
X82988166Y-54523666D01*
X82988166Y-54357000D01*
X83021500Y-54290333D01*
X83054833Y-54257000D01*
X83121500Y-54223666D01*
X83188166Y-54223666D01*
X83288166Y-54257000D01*
X83688166Y-54657000D01*
X83688166Y-54223666D01*
X82988166Y-53790333D02*
X82988166Y-53723666D01*
X83021500Y-53657000D01*
X83054833Y-53623666D01*
X83121500Y-53590333D01*
X83254833Y-53557000D01*
X83421500Y-53557000D01*
X83554833Y-53590333D01*
X83621500Y-53623666D01*
X83654833Y-53657000D01*
X83688166Y-53723666D01*
X83688166Y-53790333D01*
X83654833Y-53857000D01*
X83621500Y-53890333D01*
X83554833Y-53923666D01*
X83421500Y-53957000D01*
X83254833Y-53957000D01*
X83121500Y-53923666D01*
X83054833Y-53890333D01*
X83021500Y-53857000D01*
X82988166Y-53790333D01*
X83054833Y-53290333D02*
X83021500Y-53257000D01*
X82988166Y-53190333D01*
X82988166Y-53023666D01*
X83021500Y-52957000D01*
X83054833Y-52923666D01*
X83121500Y-52890333D01*
X83188166Y-52890333D01*
X83288166Y-52923666D01*
X83688166Y-53323666D01*
X83688166Y-52890333D01*
X83688166Y-52223666D02*
X83688166Y-52623666D01*
X83688166Y-52423666D02*
X82988166Y-52423666D01*
X83088166Y-52490333D01*
X83154833Y-52557000D01*
X83188166Y-52623666D01*
D12*
X76643666Y-46020000D02*
X76643666Y-46353333D01*
X75943666Y-46353333D01*
X76277000Y-45553333D02*
X76310333Y-45453333D01*
X76343666Y-45420000D01*
X76410333Y-45386666D01*
X76510333Y-45386666D01*
X76577000Y-45420000D01*
X76610333Y-45453333D01*
X76643666Y-45520000D01*
X76643666Y-45786666D01*
X75943666Y-45786666D01*
X75943666Y-45553333D01*
X75977000Y-45486666D01*
X76010333Y-45453333D01*
X76077000Y-45420000D01*
X76143666Y-45420000D01*
X76210333Y-45453333D01*
X76243666Y-45486666D01*
X76277000Y-45553333D01*
X76277000Y-45786666D01*
X76643666Y-45086666D02*
X75943666Y-45086666D01*
D10*
X75747071Y-39318285D02*
X76547071Y-39318285D01*
X75785166Y-39318285D02*
X75747071Y-39270666D01*
X75747071Y-39175428D01*
X75785166Y-39127809D01*
X75823261Y-39104000D01*
X75899452Y-39080190D01*
X76128023Y-39080190D01*
X76204214Y-39104000D01*
X76242309Y-39127809D01*
X76280404Y-39175428D01*
X76280404Y-39270666D01*
X76242309Y-39318285D01*
X76280404Y-38794476D02*
X76242309Y-38842095D01*
X76204214Y-38865904D01*
X76128023Y-38889714D01*
X75899452Y-38889714D01*
X75823261Y-38865904D01*
X75785166Y-38842095D01*
X75747071Y-38794476D01*
X75747071Y-38723047D01*
X75785166Y-38675428D01*
X75823261Y-38651619D01*
X75899452Y-38627809D01*
X76128023Y-38627809D01*
X76204214Y-38651619D01*
X76242309Y-38675428D01*
X76280404Y-38723047D01*
X76280404Y-38794476D01*
X75747071Y-38461142D02*
X76280404Y-38365904D01*
X75899452Y-38270666D01*
X76280404Y-38175428D01*
X75747071Y-38080190D01*
X76242309Y-37699238D02*
X76280404Y-37746857D01*
X76280404Y-37842095D01*
X76242309Y-37889714D01*
X76166119Y-37913523D01*
X75861357Y-37913523D01*
X75785166Y-37889714D01*
X75747071Y-37842095D01*
X75747071Y-37746857D01*
X75785166Y-37699238D01*
X75861357Y-37675428D01*
X75937547Y-37675428D01*
X76013738Y-37913523D01*
X76280404Y-37461142D02*
X75747071Y-37461142D01*
X75899452Y-37461142D02*
X75823261Y-37437333D01*
X75785166Y-37413523D01*
X75747071Y-37365904D01*
X75747071Y-37318285D01*
X77605404Y-38484952D02*
X77605404Y-38723047D01*
X76805404Y-38723047D01*
X77186357Y-38318285D02*
X77186357Y-38151619D01*
X77605404Y-38080190D02*
X77605404Y-38318285D01*
X76805404Y-38318285D01*
X76805404Y-38080190D01*
X77605404Y-37865904D02*
X76805404Y-37865904D01*
X76805404Y-37746857D01*
X76843500Y-37675428D01*
X76919690Y-37627809D01*
X76995880Y-37604000D01*
X77148261Y-37580190D01*
X77262547Y-37580190D01*
X77414928Y-37604000D01*
X77491119Y-37627809D01*
X77567309Y-37675428D01*
X77605404Y-37746857D01*
X77605404Y-37865904D01*
D12*
X84562904Y-49961666D02*
X83762904Y-49961666D01*
X84334333Y-49695000D01*
X83762904Y-49428333D01*
X84562904Y-49428333D01*
X84486714Y-48590238D02*
X84524809Y-48628333D01*
X84562904Y-48742619D01*
X84562904Y-48818809D01*
X84524809Y-48933095D01*
X84448619Y-49009285D01*
X84372428Y-49047380D01*
X84220047Y-49085476D01*
X84105761Y-49085476D01*
X83953380Y-49047380D01*
X83877190Y-49009285D01*
X83801000Y-48933095D01*
X83762904Y-48818809D01*
X83762904Y-48742619D01*
X83801000Y-48628333D01*
X83839095Y-48590238D01*
X84562904Y-48247380D02*
X83762904Y-48247380D01*
X83762904Y-47942619D01*
X83801000Y-47866428D01*
X83839095Y-47828333D01*
X83915285Y-47790238D01*
X84029571Y-47790238D01*
X84105761Y-47828333D01*
X84143857Y-47866428D01*
X84181952Y-47942619D01*
X84181952Y-48247380D01*
X76206404Y-77476119D02*
X76854023Y-77476119D01*
X76930214Y-77438023D01*
X76968309Y-77399928D01*
X77006404Y-77323738D01*
X77006404Y-77171357D01*
X76968309Y-77095166D01*
X76930214Y-77057071D01*
X76854023Y-77018976D01*
X76206404Y-77018976D01*
X76968309Y-76676119D02*
X77006404Y-76561833D01*
X77006404Y-76371357D01*
X76968309Y-76295166D01*
X76930214Y-76257071D01*
X76854023Y-76218976D01*
X76777833Y-76218976D01*
X76701642Y-76257071D01*
X76663547Y-76295166D01*
X76625452Y-76371357D01*
X76587357Y-76523738D01*
X76549261Y-76599928D01*
X76511166Y-76638023D01*
X76434976Y-76676119D01*
X76358785Y-76676119D01*
X76282595Y-76638023D01*
X76244500Y-76599928D01*
X76206404Y-76523738D01*
X76206404Y-76333261D01*
X76244500Y-76218976D01*
X76587357Y-75609452D02*
X76625452Y-75495166D01*
X76663547Y-75457071D01*
X76739738Y-75418976D01*
X76854023Y-75418976D01*
X76930214Y-75457071D01*
X76968309Y-75495166D01*
X77006404Y-75571357D01*
X77006404Y-75876119D01*
X76206404Y-75876119D01*
X76206404Y-75609452D01*
X76244500Y-75533261D01*
X76282595Y-75495166D01*
X76358785Y-75457071D01*
X76434976Y-75457071D01*
X76511166Y-75495166D01*
X76549261Y-75533261D01*
X76587357Y-75609452D01*
X76587357Y-75876119D01*
X76701642Y-75076119D02*
X76701642Y-74466595D01*
X76777833Y-74123738D02*
X76777833Y-73742785D01*
X77006404Y-74199928D02*
X76206404Y-73933261D01*
X77006404Y-73666595D01*
D10*
X89833404Y-34142928D02*
X89033404Y-34142928D01*
X89604833Y-33976261D01*
X89033404Y-33809595D01*
X89833404Y-33809595D01*
X89833404Y-33571500D02*
X89300071Y-33571500D01*
X89033404Y-33571500D02*
X89071500Y-33595309D01*
X89109595Y-33571500D01*
X89071500Y-33547690D01*
X89033404Y-33571500D01*
X89109595Y-33571500D01*
X89795309Y-33119119D02*
X89833404Y-33166738D01*
X89833404Y-33261976D01*
X89795309Y-33309595D01*
X89757214Y-33333404D01*
X89681023Y-33357214D01*
X89452452Y-33357214D01*
X89376261Y-33333404D01*
X89338166Y-33309595D01*
X89300071Y-33261976D01*
X89300071Y-33166738D01*
X89338166Y-33119119D01*
X89833404Y-32904833D02*
X89300071Y-32904833D01*
X89452452Y-32904833D02*
X89376261Y-32881023D01*
X89338166Y-32857214D01*
X89300071Y-32809595D01*
X89300071Y-32761976D01*
X89833404Y-32523880D02*
X89795309Y-32571500D01*
X89757214Y-32595309D01*
X89681023Y-32619119D01*
X89452452Y-32619119D01*
X89376261Y-32595309D01*
X89338166Y-32571500D01*
X89300071Y-32523880D01*
X89300071Y-32452452D01*
X89338166Y-32404833D01*
X89376261Y-32381023D01*
X89452452Y-32357214D01*
X89681023Y-32357214D01*
X89757214Y-32381023D01*
X89795309Y-32404833D01*
X89833404Y-32452452D01*
X89833404Y-32523880D01*
X89033404Y-31761976D02*
X89681023Y-31761976D01*
X89757214Y-31738166D01*
X89795309Y-31714357D01*
X89833404Y-31666738D01*
X89833404Y-31571500D01*
X89795309Y-31523880D01*
X89757214Y-31500071D01*
X89681023Y-31476261D01*
X89033404Y-31476261D01*
X89795309Y-31261976D02*
X89833404Y-31190547D01*
X89833404Y-31071500D01*
X89795309Y-31023880D01*
X89757214Y-31000071D01*
X89681023Y-30976261D01*
X89604833Y-30976261D01*
X89528642Y-31000071D01*
X89490547Y-31023880D01*
X89452452Y-31071500D01*
X89414357Y-31166738D01*
X89376261Y-31214357D01*
X89338166Y-31238166D01*
X89261976Y-31261976D01*
X89185785Y-31261976D01*
X89109595Y-31238166D01*
X89071500Y-31214357D01*
X89033404Y-31166738D01*
X89033404Y-31047690D01*
X89071500Y-30976261D01*
X89414357Y-30595309D02*
X89452452Y-30523880D01*
X89490547Y-30500071D01*
X89566738Y-30476261D01*
X89681023Y-30476261D01*
X89757214Y-30500071D01*
X89795309Y-30523880D01*
X89833404Y-30571500D01*
X89833404Y-30761976D01*
X89033404Y-30761976D01*
X89033404Y-30595309D01*
X89071500Y-30547690D01*
X89109595Y-30523880D01*
X89185785Y-30500071D01*
X89261976Y-30500071D01*
X89338166Y-30523880D01*
X89376261Y-30547690D01*
X89414357Y-30595309D01*
X89414357Y-30761976D01*
X89985904Y-41096166D02*
X89985904Y-40810452D01*
X90785904Y-40953309D02*
X89985904Y-40953309D01*
X90785904Y-40643785D02*
X89985904Y-40643785D01*
X90785904Y-40429500D02*
X90366857Y-40429500D01*
X90290666Y-40453309D01*
X90252571Y-40500928D01*
X90252571Y-40572357D01*
X90290666Y-40619976D01*
X90328761Y-40643785D01*
X90747809Y-40000928D02*
X90785904Y-40048547D01*
X90785904Y-40143785D01*
X90747809Y-40191404D01*
X90671619Y-40215214D01*
X90366857Y-40215214D01*
X90290666Y-40191404D01*
X90252571Y-40143785D01*
X90252571Y-40048547D01*
X90290666Y-40000928D01*
X90366857Y-39977119D01*
X90443047Y-39977119D01*
X90519238Y-40215214D01*
X90785904Y-39762833D02*
X90252571Y-39762833D01*
X90404952Y-39762833D02*
X90328761Y-39739023D01*
X90290666Y-39715214D01*
X90252571Y-39667595D01*
X90252571Y-39619976D01*
X90785904Y-39453309D02*
X90252571Y-39453309D01*
X90328761Y-39453309D02*
X90290666Y-39429500D01*
X90252571Y-39381880D01*
X90252571Y-39310452D01*
X90290666Y-39262833D01*
X90366857Y-39239023D01*
X90785904Y-39239023D01*
X90366857Y-39239023D02*
X90290666Y-39215214D01*
X90252571Y-39167595D01*
X90252571Y-39096166D01*
X90290666Y-39048547D01*
X90366857Y-39024738D01*
X90785904Y-39024738D01*
X90785904Y-38786642D02*
X90252571Y-38786642D01*
X89985904Y-38786642D02*
X90024000Y-38810452D01*
X90062095Y-38786642D01*
X90024000Y-38762833D01*
X89985904Y-38786642D01*
X90062095Y-38786642D01*
X90747809Y-38572357D02*
X90785904Y-38524738D01*
X90785904Y-38429500D01*
X90747809Y-38381880D01*
X90671619Y-38358071D01*
X90633523Y-38358071D01*
X90557333Y-38381880D01*
X90519238Y-38429500D01*
X90519238Y-38500928D01*
X90481142Y-38548547D01*
X90404952Y-38572357D01*
X90366857Y-38572357D01*
X90290666Y-38548547D01*
X90252571Y-38500928D01*
X90252571Y-38429500D01*
X90290666Y-38381880D01*
X90252571Y-38215214D02*
X90252571Y-38024738D01*
X89985904Y-38143785D02*
X90671619Y-38143785D01*
X90747809Y-38119976D01*
X90785904Y-38072357D01*
X90785904Y-38024738D01*
X90785904Y-37786642D02*
X90747809Y-37834261D01*
X90709714Y-37858071D01*
X90633523Y-37881880D01*
X90404952Y-37881880D01*
X90328761Y-37858071D01*
X90290666Y-37834261D01*
X90252571Y-37786642D01*
X90252571Y-37715214D01*
X90290666Y-37667595D01*
X90328761Y-37643785D01*
X90404952Y-37619976D01*
X90633523Y-37619976D01*
X90709714Y-37643785D01*
X90747809Y-37667595D01*
X90785904Y-37715214D01*
X90785904Y-37786642D01*
X90785904Y-37405690D02*
X90252571Y-37405690D01*
X90404952Y-37405690D02*
X90328761Y-37381880D01*
X90290666Y-37358071D01*
X90252571Y-37310452D01*
X90252571Y-37262833D01*
X93414857Y-67178690D02*
X93452952Y-67107261D01*
X93491047Y-67083452D01*
X93567238Y-67059642D01*
X93681523Y-67059642D01*
X93757714Y-67083452D01*
X93795809Y-67107261D01*
X93833904Y-67154880D01*
X93833904Y-67345357D01*
X93033904Y-67345357D01*
X93033904Y-67178690D01*
X93072000Y-67131071D01*
X93110095Y-67107261D01*
X93186285Y-67083452D01*
X93262476Y-67083452D01*
X93338666Y-67107261D01*
X93376761Y-67131071D01*
X93414857Y-67178690D01*
X93414857Y-67345357D01*
X93833904Y-66773928D02*
X93795809Y-66821547D01*
X93757714Y-66845357D01*
X93681523Y-66869166D01*
X93452952Y-66869166D01*
X93376761Y-66845357D01*
X93338666Y-66821547D01*
X93300571Y-66773928D01*
X93300571Y-66702500D01*
X93338666Y-66654880D01*
X93376761Y-66631071D01*
X93452952Y-66607261D01*
X93681523Y-66607261D01*
X93757714Y-66631071D01*
X93795809Y-66654880D01*
X93833904Y-66702500D01*
X93833904Y-66773928D01*
X93833904Y-66321547D02*
X93795809Y-66369166D01*
X93757714Y-66392976D01*
X93681523Y-66416785D01*
X93452952Y-66416785D01*
X93376761Y-66392976D01*
X93338666Y-66369166D01*
X93300571Y-66321547D01*
X93300571Y-66250119D01*
X93338666Y-66202500D01*
X93376761Y-66178690D01*
X93452952Y-66154880D01*
X93681523Y-66154880D01*
X93757714Y-66178690D01*
X93795809Y-66202500D01*
X93833904Y-66250119D01*
X93833904Y-66321547D01*
X93795809Y-65964404D02*
X93833904Y-65916785D01*
X93833904Y-65821547D01*
X93795809Y-65773928D01*
X93719619Y-65750119D01*
X93681523Y-65750119D01*
X93605333Y-65773928D01*
X93567238Y-65821547D01*
X93567238Y-65892976D01*
X93529142Y-65940595D01*
X93452952Y-65964404D01*
X93414857Y-65964404D01*
X93338666Y-65940595D01*
X93300571Y-65892976D01*
X93300571Y-65821547D01*
X93338666Y-65773928D01*
X93300571Y-65607261D02*
X93300571Y-65416785D01*
X93033904Y-65535833D02*
X93719619Y-65535833D01*
X93795809Y-65512023D01*
X93833904Y-65464404D01*
X93833904Y-65416785D01*
X93757714Y-64583452D02*
X93795809Y-64607261D01*
X93833904Y-64678690D01*
X93833904Y-64726309D01*
X93795809Y-64797738D01*
X93719619Y-64845357D01*
X93643428Y-64869166D01*
X93491047Y-64892976D01*
X93376761Y-64892976D01*
X93224380Y-64869166D01*
X93148190Y-64845357D01*
X93072000Y-64797738D01*
X93033904Y-64726309D01*
X93033904Y-64678690D01*
X93072000Y-64607261D01*
X93110095Y-64583452D01*
X93833904Y-64297738D02*
X93795809Y-64345357D01*
X93757714Y-64369166D01*
X93681523Y-64392976D01*
X93452952Y-64392976D01*
X93376761Y-64369166D01*
X93338666Y-64345357D01*
X93300571Y-64297738D01*
X93300571Y-64226309D01*
X93338666Y-64178690D01*
X93376761Y-64154880D01*
X93452952Y-64131071D01*
X93681523Y-64131071D01*
X93757714Y-64154880D01*
X93795809Y-64178690D01*
X93833904Y-64226309D01*
X93833904Y-64297738D01*
X93300571Y-63916785D02*
X93833904Y-63916785D01*
X93376761Y-63916785D02*
X93338666Y-63892976D01*
X93300571Y-63845357D01*
X93300571Y-63773928D01*
X93338666Y-63726309D01*
X93414857Y-63702500D01*
X93833904Y-63702500D01*
X93300571Y-63512023D02*
X93833904Y-63392976D01*
X93300571Y-63273928D01*
X93795809Y-62892976D02*
X93833904Y-62940595D01*
X93833904Y-63035833D01*
X93795809Y-63083452D01*
X93719619Y-63107261D01*
X93414857Y-63107261D01*
X93338666Y-63083452D01*
X93300571Y-63035833D01*
X93300571Y-62940595D01*
X93338666Y-62892976D01*
X93414857Y-62869166D01*
X93491047Y-62869166D01*
X93567238Y-63107261D01*
X93833904Y-62654880D02*
X93300571Y-62654880D01*
X93452952Y-62654880D02*
X93376761Y-62631071D01*
X93338666Y-62607261D01*
X93300571Y-62559642D01*
X93300571Y-62512023D01*
X93300571Y-62416785D02*
X93300571Y-62226309D01*
X93033904Y-62345357D02*
X93719619Y-62345357D01*
X93795809Y-62321547D01*
X93833904Y-62273928D01*
X93833904Y-62226309D01*
X93795809Y-61869166D02*
X93833904Y-61916785D01*
X93833904Y-62012023D01*
X93795809Y-62059642D01*
X93719619Y-62083452D01*
X93414857Y-62083452D01*
X93338666Y-62059642D01*
X93300571Y-62012023D01*
X93300571Y-61916785D01*
X93338666Y-61869166D01*
X93414857Y-61845357D01*
X93491047Y-61845357D01*
X93567238Y-62083452D01*
X93833904Y-61631071D02*
X93300571Y-61631071D01*
X93452952Y-61631071D02*
X93376761Y-61607261D01*
X93338666Y-61583452D01*
X93300571Y-61535833D01*
X93300571Y-61488214D01*
D12*
%TO.C,R15*%
X72615500Y-42236500D02*
X73815500Y-42236500D01*
X73815500Y-43996500D02*
X72615500Y-43996500D01*
%TO.C,R14*%
X80934000Y-60905500D02*
X82134000Y-60905500D01*
X82134000Y-62665500D02*
X80934000Y-62665500D01*
%TO.C,R6*%
X96104000Y-61141500D02*
X94904000Y-61141500D01*
X94904000Y-59381500D02*
X96104000Y-59381500D01*
%TO.C,U2*%
X82853799Y-47364400D02*
X83453799Y-47364400D01*
X83453799Y-47364400D02*
X83453799Y-46764400D01*
X80053799Y-47364400D02*
X79453799Y-47364400D01*
X79453799Y-47364400D02*
X79453799Y-46764400D01*
X83453799Y-43964400D02*
X83453799Y-43364400D01*
X83453799Y-43364400D02*
X82853799Y-43364400D01*
X80053799Y-43364400D02*
X79453799Y-43364400D01*
X79453799Y-43364400D02*
X79453799Y-43964400D01*
X84453799Y-46364400D02*
G75*
G03*
X84453799Y-46364400I-100000J0D01*
G01*
%TO.C,R11*%
X86960600Y-40360000D02*
X86960600Y-41560000D01*
X85200600Y-41560000D02*
X85200600Y-40360000D01*
%TO.C,R5*%
X77161500Y-33874000D02*
X77161500Y-32674000D01*
X78921500Y-32674000D02*
X78921500Y-33874000D01*
%TO.C,U3*%
X89209700Y-67693800D02*
G75*
G03*
X89209700Y-67693800I-100000J0D01*
G01*
X91639700Y-66743800D02*
X92359700Y-66743800D01*
X88259700Y-66743800D02*
X88979700Y-66743800D01*
X88259700Y-62643800D02*
X88259700Y-63363800D01*
X92359700Y-62643800D02*
X91639700Y-62643800D01*
X92359700Y-66743800D02*
X92359700Y-66023800D01*
X88259700Y-66023800D02*
X88259700Y-66743800D01*
X92359700Y-63363800D02*
X92359700Y-62643800D01*
X88979700Y-62643800D02*
X88259700Y-62643800D01*
%TO.C,C1*%
X82161000Y-63666000D02*
X81161000Y-63666000D01*
X81161000Y-65366000D02*
X82161000Y-65366000D01*
%TO.C,C2*%
X86215600Y-36892600D02*
X87215600Y-36892600D01*
X87215600Y-35192600D02*
X86215600Y-35192600D01*
%TO.C,C3*%
X80843500Y-50253000D02*
X81843500Y-50253000D01*
X81843500Y-48553000D02*
X80843500Y-48553000D01*
%TO.C,C4*%
X95194500Y-66915400D02*
X96194500Y-66915400D01*
X96194500Y-65215400D02*
X95194500Y-65215400D01*
%TO.C,C5*%
X96194500Y-62573800D02*
X95194500Y-62573800D01*
X95194500Y-64273800D02*
X96194500Y-64273800D01*
%TO.C,C6*%
X91079700Y-69353800D02*
X92079700Y-69353800D01*
X92079700Y-67653800D02*
X91079700Y-67653800D01*
%TO.C,D1*%
X81553800Y-40230400D02*
X81203800Y-40230400D01*
X81203800Y-40230400D02*
X80853800Y-40230400D01*
X81553800Y-39880400D02*
X81203800Y-40230400D01*
X81503800Y-39880400D02*
X81553800Y-39880400D01*
X81553800Y-39880400D02*
X81503800Y-39880400D01*
X80853800Y-39880400D02*
X81503800Y-39880400D01*
X80903800Y-39930400D02*
X80853800Y-39880400D01*
X81203800Y-40230400D02*
X80903800Y-39930400D01*
X80503800Y-41830400D02*
X81903800Y-41830400D01*
X81903800Y-41830400D02*
X81903800Y-39030400D01*
X80503800Y-41830400D02*
X80503800Y-39030400D01*
%TO.C,D2*%
X82993000Y-41812800D02*
X82993000Y-39012800D01*
X84393000Y-41812800D02*
X84393000Y-39012800D01*
X82993000Y-41812800D02*
X84393000Y-41812800D01*
X83693000Y-40212800D02*
X83393000Y-39912800D01*
X83393000Y-39912800D02*
X83343000Y-39862800D01*
X83343000Y-39862800D02*
X83993000Y-39862800D01*
X84043000Y-39862800D02*
X83993000Y-39862800D01*
X83993000Y-39862800D02*
X84043000Y-39862800D01*
X84043000Y-39862800D02*
X83693000Y-40212800D01*
X83693000Y-40212800D02*
X83343000Y-40212800D01*
X84043000Y-40212800D02*
X83693000Y-40212800D01*
%TO.C,D3*%
X73669500Y-45370000D02*
X73669500Y-45720000D01*
X73669500Y-45720000D02*
X73669500Y-46070000D01*
X73319500Y-45370000D02*
X73669500Y-45720000D01*
X73319500Y-45420000D02*
X73319500Y-45370000D01*
X73319500Y-45370000D02*
X73319500Y-45420000D01*
X73319500Y-46070000D02*
X73319500Y-45420000D01*
X73369500Y-46020000D02*
X73319500Y-46070000D01*
X73669500Y-45720000D02*
X73369500Y-46020000D01*
X75269500Y-46420000D02*
X75269500Y-45020000D01*
X75269500Y-45020000D02*
X72469500Y-45020000D01*
X75269500Y-46420000D02*
X72469500Y-46420000D01*
%TO.C,D4*%
X71606000Y-37590500D02*
X74406000Y-37590500D01*
X71606000Y-38990500D02*
X74406000Y-38990500D01*
X71606000Y-37590500D02*
X71606000Y-38990500D01*
X73206000Y-38290500D02*
X73506000Y-37990500D01*
X73506000Y-37990500D02*
X73556000Y-37940500D01*
X73556000Y-37940500D02*
X73556000Y-38590500D01*
X73556000Y-38640500D02*
X73556000Y-38590500D01*
X73556000Y-38590500D02*
X73556000Y-38640500D01*
X73556000Y-38640500D02*
X73206000Y-38290500D01*
X73206000Y-38290500D02*
X73206000Y-37940500D01*
X73206000Y-38640500D02*
X73206000Y-38290500D01*
%TO.C,F1*%
X87482000Y-49435936D02*
X87482000Y-50640064D01*
X89302000Y-49435936D02*
X89302000Y-50640064D01*
%TO.C,J2*%
X86566400Y-34269800D02*
X85786400Y-34269800D01*
X82646400Y-34269800D02*
X81906400Y-34269800D01*
X87976400Y-33104800D02*
X87976400Y-32194800D01*
X80476400Y-33094800D02*
X80476400Y-32184800D01*
X87976400Y-30594800D02*
X87976400Y-29269800D01*
X87976400Y-29269800D02*
X87026400Y-29269800D01*
X86826400Y-29069800D02*
X86826400Y-29004800D01*
X86626400Y-28669800D02*
X81826400Y-28669800D01*
X81626400Y-28879800D02*
X81626400Y-29079800D01*
X81301400Y-29279800D02*
X80476400Y-29279800D01*
X80476400Y-29279800D02*
X80476400Y-30654800D01*
X85621400Y-35289800D02*
G75*
G03*
X85621400Y-35289800I-100000J0D01*
G01*
X87976400Y-29219800D02*
X88226400Y-28969800D01*
X88226400Y-28969800D02*
X87976400Y-28719800D01*
X87976400Y-28719800D02*
X87601400Y-29094800D01*
X87601400Y-29094800D02*
X87601400Y-29219800D01*
X80476400Y-29219800D02*
X80226400Y-28969800D01*
X80226400Y-28969800D02*
X80476400Y-28719800D01*
X80476400Y-28719800D02*
X80851400Y-29094800D01*
X80851400Y-29094800D02*
X80851400Y-29219800D01*
X81626400Y-29079800D02*
G75*
G02*
X81301400Y-29279800I-262500J62500D01*
G01*
X81826400Y-28669800D02*
G75*
G03*
X81626400Y-28879800I5000J-205000D01*
G01*
X86826400Y-29004800D02*
G75*
G03*
X86626400Y-28669800I-267500J67500D01*
G01*
X87026400Y-29269800D02*
G75*
G02*
X86826400Y-29069800I0J200000D01*
G01*
%TO.C,J4*%
X61578000Y-57916000D02*
X70128000Y-57916000D01*
X70128000Y-71116000D02*
X61578000Y-71116000D01*
X61578000Y-71116000D02*
X61578000Y-57916000D01*
X76478000Y-59766000D02*
G75*
G03*
X76478000Y-59766000I-100000J0D01*
G01*
X75278000Y-58866000D02*
X75278000Y-60216000D01*
X75278000Y-68816000D02*
X75278000Y-70166000D01*
%TO.C,Q1*%
X76519500Y-48648500D02*
X77979500Y-48648500D01*
X76519500Y-51808500D02*
X78679500Y-51808500D01*
X76519500Y-51808500D02*
X76519500Y-50878500D01*
X76519500Y-48648500D02*
X76519500Y-49578500D01*
%TO.C,R1*%
X81613300Y-72990600D02*
X80413300Y-72990600D01*
X80413300Y-71230600D02*
X81613300Y-71230600D01*
%TO.C,R2*%
X81613300Y-75530600D02*
X80413300Y-75530600D01*
X80413300Y-73770600D02*
X81613300Y-73770600D01*
%TO.C,R3*%
X86909800Y-45120000D02*
X86909800Y-46320000D01*
X85149800Y-46320000D02*
X85149800Y-45120000D01*
%TO.C,R4*%
X87435800Y-46335200D02*
X87435800Y-45135200D01*
X89195800Y-45135200D02*
X89195800Y-46335200D01*
%TO.C,R7*%
X89379500Y-59876800D02*
X90579500Y-59876800D01*
X90579500Y-61636800D02*
X89379500Y-61636800D01*
%TO.C,R8*%
X77956520Y-41041880D02*
X77956520Y-39841880D01*
X79716520Y-39841880D02*
X79716520Y-41041880D01*
%TO.C,R9*%
X76381500Y-32674000D02*
X76381500Y-33874000D01*
X74621500Y-33874000D02*
X74621500Y-32674000D01*
%TO.C,R10*%
X98053000Y-69878500D02*
X98053000Y-68678500D01*
X99813000Y-68678500D02*
X99813000Y-69878500D01*
%TO.C,R12*%
X86770100Y-66090200D02*
X86770100Y-67290200D01*
X85010100Y-67290200D02*
X85010100Y-66090200D01*
%TO.C,R13*%
X85010100Y-63363400D02*
X85010100Y-62163400D01*
X86770100Y-62163400D02*
X86770100Y-63363400D01*
%TO.C,R16*%
X72552000Y-39823500D02*
X73752000Y-39823500D01*
X73752000Y-41583500D02*
X72552000Y-41583500D01*
%TO.C,R17*%
X81598100Y-67961400D02*
X80398100Y-67961400D01*
X80398100Y-66201400D02*
X81598100Y-66201400D01*
%TO.C,R18*%
X81613300Y-70450600D02*
X80413300Y-70450600D01*
X80413300Y-68690600D02*
X81613300Y-68690600D01*
%TO.C,C7*%
X87381852Y-72753800D02*
X84609348Y-72753800D01*
X87381852Y-69333800D02*
X84609348Y-69333800D01*
%TO.C,L1*%
X95278500Y-72701000D02*
X90878500Y-72701000D01*
X90878500Y-70301000D02*
X95278500Y-70301000D01*
%TO.C,J1*%
X102655800Y-34807600D02*
X93895800Y-34807600D01*
X93895800Y-34807600D02*
X93895800Y-41047600D01*
X93895800Y-41047600D02*
X102655800Y-41047600D01*
X102655800Y-41047600D02*
X102655800Y-34807600D01*
X93895800Y-36527600D02*
X93425800Y-36527600D01*
X93425800Y-36527600D02*
X93425800Y-36827600D01*
X93425800Y-36827600D02*
X93895800Y-36827600D01*
X93895800Y-36827600D02*
X93895800Y-36527600D01*
X93895800Y-39027600D02*
X93425800Y-39027600D01*
X93425800Y-39027600D02*
X93425800Y-39327600D01*
X93425800Y-39327600D02*
X93895800Y-39327600D01*
X93895800Y-39327600D02*
X93895800Y-39027600D01*
X92125800Y-35277600D02*
X91825800Y-34677600D01*
X91825800Y-34677600D02*
X92425800Y-34677600D01*
X92425800Y-34677600D02*
X92125800Y-35277600D01*
%TO.C,J3*%
X102528800Y-42808600D02*
X93768800Y-42808600D01*
X93768800Y-42808600D02*
X93768800Y-49048600D01*
X93768800Y-49048600D02*
X102528800Y-49048600D01*
X102528800Y-49048600D02*
X102528800Y-42808600D01*
X93768800Y-44528600D02*
X93298800Y-44528600D01*
X93298800Y-44528600D02*
X93298800Y-44828600D01*
X93298800Y-44828600D02*
X93768800Y-44828600D01*
X93768800Y-44828600D02*
X93768800Y-44528600D01*
X93768800Y-47028600D02*
X93298800Y-47028600D01*
X93298800Y-47028600D02*
X93298800Y-47328600D01*
X93298800Y-47328600D02*
X93768800Y-47328600D01*
X93768800Y-47328600D02*
X93768800Y-47028600D01*
X91998800Y-43278600D02*
X91698800Y-42678600D01*
X91698800Y-42678600D02*
X92298800Y-42678600D01*
X92298800Y-42678600D02*
X91998800Y-43278600D01*
D13*
%TO.C,J5*%
X102668500Y-50263500D02*
X93908500Y-50263500D01*
X93908500Y-50263500D02*
X93908500Y-56503500D01*
X93908500Y-56503500D02*
X102668500Y-56503500D01*
X102668500Y-56503500D02*
X102668500Y-50263500D01*
X93908500Y-51983500D02*
X93438500Y-51983500D01*
X93438500Y-51983500D02*
X93438500Y-52283500D01*
X93438500Y-52283500D02*
X93908500Y-52283500D01*
X93908500Y-52283500D02*
X93908500Y-51983500D01*
X93908500Y-54483500D02*
X93438500Y-54483500D01*
X93438500Y-54483500D02*
X93438500Y-54783500D01*
X93438500Y-54783500D02*
X93908500Y-54783500D01*
X93908500Y-54783500D02*
X93908500Y-54483500D01*
X92138500Y-50733500D02*
X91838500Y-50133500D01*
X91838500Y-50133500D02*
X92438500Y-50133500D01*
X92438500Y-50133500D02*
X92138500Y-50733500D01*
%TO.C,R15*%
D12*
X71227904Y-43821285D02*
X70846952Y-44087952D01*
X71227904Y-44278428D02*
X70427904Y-44278428D01*
X70427904Y-43973666D01*
X70466000Y-43897476D01*
X70504095Y-43859380D01*
X70580285Y-43821285D01*
X70694571Y-43821285D01*
X70770761Y-43859380D01*
X70808857Y-43897476D01*
X70846952Y-43973666D01*
X70846952Y-44278428D01*
X71227904Y-43059380D02*
X71227904Y-43516523D01*
X71227904Y-43287952D02*
X70427904Y-43287952D01*
X70542190Y-43364142D01*
X70618380Y-43440333D01*
X70656476Y-43516523D01*
X70427904Y-42335571D02*
X70427904Y-42716523D01*
X70808857Y-42754619D01*
X70770761Y-42716523D01*
X70732666Y-42640333D01*
X70732666Y-42449857D01*
X70770761Y-42373666D01*
X70808857Y-42335571D01*
X70885047Y-42297476D01*
X71075523Y-42297476D01*
X71151714Y-42335571D01*
X71189809Y-42373666D01*
X71227904Y-42449857D01*
X71227904Y-42640333D01*
X71189809Y-42716523D01*
X71151714Y-42754619D01*
%TO.C,R14*%
X79355904Y-62172785D02*
X78974952Y-62439452D01*
X79355904Y-62629928D02*
X78555904Y-62629928D01*
X78555904Y-62325166D01*
X78594000Y-62248976D01*
X78632095Y-62210880D01*
X78708285Y-62172785D01*
X78822571Y-62172785D01*
X78898761Y-62210880D01*
X78936857Y-62248976D01*
X78974952Y-62325166D01*
X78974952Y-62629928D01*
X79355904Y-61410880D02*
X79355904Y-61868023D01*
X79355904Y-61639452D02*
X78555904Y-61639452D01*
X78670190Y-61715642D01*
X78746380Y-61791833D01*
X78784476Y-61868023D01*
X78822571Y-60725166D02*
X79355904Y-60725166D01*
X78517809Y-60915642D02*
X79089238Y-61106119D01*
X79089238Y-60610880D01*
%TO.C,R6*%
X93643404Y-60331333D02*
X93262452Y-60598000D01*
X93643404Y-60788476D02*
X92843404Y-60788476D01*
X92843404Y-60483714D01*
X92881500Y-60407523D01*
X92919595Y-60369428D01*
X92995785Y-60331333D01*
X93110071Y-60331333D01*
X93186261Y-60369428D01*
X93224357Y-60407523D01*
X93262452Y-60483714D01*
X93262452Y-60788476D01*
X92843404Y-59645619D02*
X92843404Y-59798000D01*
X92881500Y-59874190D01*
X92919595Y-59912285D01*
X93033880Y-59988476D01*
X93186261Y-60026571D01*
X93491023Y-60026571D01*
X93567214Y-59988476D01*
X93605309Y-59950380D01*
X93643404Y-59874190D01*
X93643404Y-59721809D01*
X93605309Y-59645619D01*
X93567214Y-59607523D01*
X93491023Y-59569428D01*
X93300547Y-59569428D01*
X93224357Y-59607523D01*
X93186261Y-59645619D01*
X93148166Y-59721809D01*
X93148166Y-59874190D01*
X93186261Y-59950380D01*
X93224357Y-59988476D01*
X93300547Y-60026571D01*
%TO.C,TP1*%
X93541904Y-32378523D02*
X93541904Y-31921380D01*
X94341904Y-32149952D02*
X93541904Y-32149952D01*
X94341904Y-31654714D02*
X93541904Y-31654714D01*
X93541904Y-31349952D01*
X93580000Y-31273761D01*
X93618095Y-31235666D01*
X93694285Y-31197571D01*
X93808571Y-31197571D01*
X93884761Y-31235666D01*
X93922857Y-31273761D01*
X93960952Y-31349952D01*
X93960952Y-31654714D01*
X94341904Y-30435666D02*
X94341904Y-30892809D01*
X94341904Y-30664238D02*
X93541904Y-30664238D01*
X93656190Y-30740428D01*
X93732380Y-30816619D01*
X93770476Y-30892809D01*
%TO.C,U2*%
X77603404Y-45948523D02*
X78251023Y-45948523D01*
X78327214Y-45910428D01*
X78365309Y-45872333D01*
X78403404Y-45796142D01*
X78403404Y-45643761D01*
X78365309Y-45567571D01*
X78327214Y-45529476D01*
X78251023Y-45491380D01*
X77603404Y-45491380D01*
X77679595Y-45148523D02*
X77641500Y-45110428D01*
X77603404Y-45034238D01*
X77603404Y-44843761D01*
X77641500Y-44767571D01*
X77679595Y-44729476D01*
X77755785Y-44691380D01*
X77831976Y-44691380D01*
X77946261Y-44729476D01*
X78403404Y-45186619D01*
X78403404Y-44691380D01*
%TO.C,R11*%
X88245904Y-41281285D02*
X87864952Y-41547952D01*
X88245904Y-41738428D02*
X87445904Y-41738428D01*
X87445904Y-41433666D01*
X87484000Y-41357476D01*
X87522095Y-41319380D01*
X87598285Y-41281285D01*
X87712571Y-41281285D01*
X87788761Y-41319380D01*
X87826857Y-41357476D01*
X87864952Y-41433666D01*
X87864952Y-41738428D01*
X88245904Y-40519380D02*
X88245904Y-40976523D01*
X88245904Y-40747952D02*
X87445904Y-40747952D01*
X87560190Y-40824142D01*
X87636380Y-40900333D01*
X87674476Y-40976523D01*
X88245904Y-39757476D02*
X88245904Y-40214619D01*
X88245904Y-39986047D02*
X87445904Y-39986047D01*
X87560190Y-40062238D01*
X87636380Y-40138428D01*
X87674476Y-40214619D01*
%TO.C,R5*%
X78720904Y-30994333D02*
X78339952Y-31261000D01*
X78720904Y-31451476D02*
X77920904Y-31451476D01*
X77920904Y-31146714D01*
X77959000Y-31070523D01*
X77997095Y-31032428D01*
X78073285Y-30994333D01*
X78187571Y-30994333D01*
X78263761Y-31032428D01*
X78301857Y-31070523D01*
X78339952Y-31146714D01*
X78339952Y-31451476D01*
X77920904Y-30270523D02*
X77920904Y-30651476D01*
X78301857Y-30689571D01*
X78263761Y-30651476D01*
X78225666Y-30575285D01*
X78225666Y-30384809D01*
X78263761Y-30308619D01*
X78301857Y-30270523D01*
X78378047Y-30232428D01*
X78568523Y-30232428D01*
X78644714Y-30270523D01*
X78682809Y-30308619D01*
X78720904Y-30384809D01*
X78720904Y-30575285D01*
X78682809Y-30651476D01*
X78644714Y-30689571D01*
%TO.C,U3*%
X86983928Y-65100142D02*
X87469642Y-65100142D01*
X87526785Y-65071571D01*
X87555357Y-65043000D01*
X87583928Y-64985857D01*
X87583928Y-64871571D01*
X87555357Y-64814428D01*
X87526785Y-64785857D01*
X87469642Y-64757285D01*
X86983928Y-64757285D01*
X86983928Y-64528714D02*
X86983928Y-64157285D01*
X87212500Y-64357285D01*
X87212500Y-64271571D01*
X87241071Y-64214428D01*
X87269642Y-64185857D01*
X87326785Y-64157285D01*
X87469642Y-64157285D01*
X87526785Y-64185857D01*
X87555357Y-64214428D01*
X87583928Y-64271571D01*
X87583928Y-64443000D01*
X87555357Y-64500142D01*
X87526785Y-64528714D01*
%TO.C,C1*%
X79276414Y-64623933D02*
X79314509Y-64662028D01*
X79352604Y-64776314D01*
X79352604Y-64852504D01*
X79314509Y-64966790D01*
X79238319Y-65042980D01*
X79162128Y-65081076D01*
X79009747Y-65119171D01*
X78895461Y-65119171D01*
X78743080Y-65081076D01*
X78666890Y-65042980D01*
X78590700Y-64966790D01*
X78552604Y-64852504D01*
X78552604Y-64776314D01*
X78590700Y-64662028D01*
X78628795Y-64623933D01*
X79352604Y-63862028D02*
X79352604Y-64319171D01*
X79352604Y-64090600D02*
X78552604Y-64090600D01*
X78666890Y-64166790D01*
X78743080Y-64242980D01*
X78781176Y-64319171D01*
%TO.C,C2*%
X89439714Y-35947333D02*
X89477809Y-35985428D01*
X89515904Y-36099714D01*
X89515904Y-36175904D01*
X89477809Y-36290190D01*
X89401619Y-36366380D01*
X89325428Y-36404476D01*
X89173047Y-36442571D01*
X89058761Y-36442571D01*
X88906380Y-36404476D01*
X88830190Y-36366380D01*
X88754000Y-36290190D01*
X88715904Y-36175904D01*
X88715904Y-36099714D01*
X88754000Y-35985428D01*
X88792095Y-35947333D01*
X88792095Y-35642571D02*
X88754000Y-35604476D01*
X88715904Y-35528285D01*
X88715904Y-35337809D01*
X88754000Y-35261619D01*
X88792095Y-35223523D01*
X88868285Y-35185428D01*
X88944476Y-35185428D01*
X89058761Y-35223523D01*
X89515904Y-35680666D01*
X89515904Y-35185428D01*
%TO.C,C3*%
X81629214Y-51441333D02*
X81667309Y-51479428D01*
X81705404Y-51593714D01*
X81705404Y-51669904D01*
X81667309Y-51784190D01*
X81591119Y-51860380D01*
X81514928Y-51898476D01*
X81362547Y-51936571D01*
X81248261Y-51936571D01*
X81095880Y-51898476D01*
X81019690Y-51860380D01*
X80943500Y-51784190D01*
X80905404Y-51669904D01*
X80905404Y-51593714D01*
X80943500Y-51479428D01*
X80981595Y-51441333D01*
X80905404Y-51174666D02*
X80905404Y-50679428D01*
X81210166Y-50946095D01*
X81210166Y-50831809D01*
X81248261Y-50755619D01*
X81286357Y-50717523D01*
X81362547Y-50679428D01*
X81553023Y-50679428D01*
X81629214Y-50717523D01*
X81667309Y-50755619D01*
X81705404Y-50831809D01*
X81705404Y-51060380D01*
X81667309Y-51136571D01*
X81629214Y-51174666D01*
%TO.C,C4*%
X98520214Y-66109833D02*
X98558309Y-66147928D01*
X98596404Y-66262214D01*
X98596404Y-66338404D01*
X98558309Y-66452690D01*
X98482119Y-66528880D01*
X98405928Y-66566976D01*
X98253547Y-66605071D01*
X98139261Y-66605071D01*
X97986880Y-66566976D01*
X97910690Y-66528880D01*
X97834500Y-66452690D01*
X97796404Y-66338404D01*
X97796404Y-66262214D01*
X97834500Y-66147928D01*
X97872595Y-66109833D01*
X98063071Y-65424119D02*
X98596404Y-65424119D01*
X97758309Y-65614595D02*
X98329738Y-65805071D01*
X98329738Y-65309833D01*
%TO.C,C5*%
X98456714Y-63569833D02*
X98494809Y-63607928D01*
X98532904Y-63722214D01*
X98532904Y-63798404D01*
X98494809Y-63912690D01*
X98418619Y-63988880D01*
X98342428Y-64026976D01*
X98190047Y-64065071D01*
X98075761Y-64065071D01*
X97923380Y-64026976D01*
X97847190Y-63988880D01*
X97771000Y-63912690D01*
X97732904Y-63798404D01*
X97732904Y-63722214D01*
X97771000Y-63607928D01*
X97809095Y-63569833D01*
X97732904Y-62846023D02*
X97732904Y-63226976D01*
X98113857Y-63265071D01*
X98075761Y-63226976D01*
X98037666Y-63150785D01*
X98037666Y-62960309D01*
X98075761Y-62884119D01*
X98113857Y-62846023D01*
X98190047Y-62807928D01*
X98380523Y-62807928D01*
X98456714Y-62846023D01*
X98494809Y-62884119D01*
X98532904Y-62960309D01*
X98532904Y-63150785D01*
X98494809Y-63226976D01*
X98456714Y-63265071D01*
%TO.C,C6*%
X94392714Y-68586333D02*
X94430809Y-68624428D01*
X94468904Y-68738714D01*
X94468904Y-68814904D01*
X94430809Y-68929190D01*
X94354619Y-69005380D01*
X94278428Y-69043476D01*
X94126047Y-69081571D01*
X94011761Y-69081571D01*
X93859380Y-69043476D01*
X93783190Y-69005380D01*
X93707000Y-68929190D01*
X93668904Y-68814904D01*
X93668904Y-68738714D01*
X93707000Y-68624428D01*
X93745095Y-68586333D01*
X93668904Y-67900619D02*
X93668904Y-68053000D01*
X93707000Y-68129190D01*
X93745095Y-68167285D01*
X93859380Y-68243476D01*
X94011761Y-68281571D01*
X94316523Y-68281571D01*
X94392714Y-68243476D01*
X94430809Y-68205380D01*
X94468904Y-68129190D01*
X94468904Y-67976809D01*
X94430809Y-67900619D01*
X94392714Y-67862523D01*
X94316523Y-67824428D01*
X94126047Y-67824428D01*
X94049857Y-67862523D01*
X94011761Y-67900619D01*
X93973666Y-67976809D01*
X93973666Y-68129190D01*
X94011761Y-68205380D01*
X94049857Y-68243476D01*
X94126047Y-68281571D01*
%TO.C,D1*%
X81832404Y-37674476D02*
X81032404Y-37674476D01*
X81032404Y-37484000D01*
X81070500Y-37369714D01*
X81146690Y-37293523D01*
X81222880Y-37255428D01*
X81375261Y-37217333D01*
X81489547Y-37217333D01*
X81641928Y-37255428D01*
X81718119Y-37293523D01*
X81794309Y-37369714D01*
X81832404Y-37484000D01*
X81832404Y-37674476D01*
X81832404Y-36455428D02*
X81832404Y-36912571D01*
X81832404Y-36684000D02*
X81032404Y-36684000D01*
X81146690Y-36760190D01*
X81222880Y-36836380D01*
X81260976Y-36912571D01*
%TO.C,D2*%
X84118404Y-37737976D02*
X83318404Y-37737976D01*
X83318404Y-37547500D01*
X83356500Y-37433214D01*
X83432690Y-37357023D01*
X83508880Y-37318928D01*
X83661261Y-37280833D01*
X83775547Y-37280833D01*
X83927928Y-37318928D01*
X84004119Y-37357023D01*
X84080309Y-37433214D01*
X84118404Y-37547500D01*
X84118404Y-37737976D01*
X83394595Y-36976071D02*
X83356500Y-36937976D01*
X83318404Y-36861785D01*
X83318404Y-36671309D01*
X83356500Y-36595119D01*
X83394595Y-36557023D01*
X83470785Y-36518928D01*
X83546976Y-36518928D01*
X83661261Y-36557023D01*
X84118404Y-37014166D01*
X84118404Y-36518928D01*
%TO.C,D3*%
X71164404Y-46310476D02*
X70364404Y-46310476D01*
X70364404Y-46120000D01*
X70402500Y-46005714D01*
X70478690Y-45929523D01*
X70554880Y-45891428D01*
X70707261Y-45853333D01*
X70821547Y-45853333D01*
X70973928Y-45891428D01*
X71050119Y-45929523D01*
X71126309Y-46005714D01*
X71164404Y-46120000D01*
X71164404Y-46310476D01*
X70364404Y-45586666D02*
X70364404Y-45091428D01*
X70669166Y-45358095D01*
X70669166Y-45243809D01*
X70707261Y-45167619D01*
X70745357Y-45129523D01*
X70821547Y-45091428D01*
X71012023Y-45091428D01*
X71088214Y-45129523D01*
X71126309Y-45167619D01*
X71164404Y-45243809D01*
X71164404Y-45472380D01*
X71126309Y-45548571D01*
X71088214Y-45586666D01*
%TO.C,D4*%
X71227904Y-38944476D02*
X70427904Y-38944476D01*
X70427904Y-38754000D01*
X70466000Y-38639714D01*
X70542190Y-38563523D01*
X70618380Y-38525428D01*
X70770761Y-38487333D01*
X70885047Y-38487333D01*
X71037428Y-38525428D01*
X71113619Y-38563523D01*
X71189809Y-38639714D01*
X71227904Y-38754000D01*
X71227904Y-38944476D01*
X70694571Y-37801619D02*
X71227904Y-37801619D01*
X70389809Y-37992095D02*
X70961238Y-38182571D01*
X70961238Y-37687333D01*
%TO.C,F1*%
X85985357Y-50812666D02*
X85985357Y-51079333D01*
X86404404Y-51079333D02*
X85604404Y-51079333D01*
X85604404Y-50698380D01*
X86404404Y-49974571D02*
X86404404Y-50431714D01*
X86404404Y-50203142D02*
X85604404Y-50203142D01*
X85718690Y-50279333D01*
X85794880Y-50355523D01*
X85832976Y-50431714D01*
%TO.C,J2*%
X90303404Y-33604166D02*
X90874833Y-33604166D01*
X90989119Y-33642261D01*
X91065309Y-33718452D01*
X91103404Y-33832738D01*
X91103404Y-33908928D01*
X90379595Y-33261309D02*
X90341500Y-33223214D01*
X90303404Y-33147023D01*
X90303404Y-32956547D01*
X90341500Y-32880357D01*
X90379595Y-32842261D01*
X90455785Y-32804166D01*
X90531976Y-32804166D01*
X90646261Y-32842261D01*
X91103404Y-33299404D01*
X91103404Y-32804166D01*
%TO.C,J4*%
X74999904Y-75831666D02*
X75571333Y-75831666D01*
X75685619Y-75869761D01*
X75761809Y-75945952D01*
X75799904Y-76060238D01*
X75799904Y-76136428D01*
X75266571Y-75107857D02*
X75799904Y-75107857D01*
X74961809Y-75298333D02*
X75533238Y-75488809D01*
X75533238Y-74993571D01*
%TO.C,Q1*%
X74542595Y-50812690D02*
X74504500Y-50888880D01*
X74428309Y-50965071D01*
X74314023Y-51079357D01*
X74275928Y-51155547D01*
X74275928Y-51231738D01*
X74466404Y-51193642D02*
X74428309Y-51269833D01*
X74352119Y-51346023D01*
X74199738Y-51384119D01*
X73933071Y-51384119D01*
X73780690Y-51346023D01*
X73704500Y-51269833D01*
X73666404Y-51193642D01*
X73666404Y-51041261D01*
X73704500Y-50965071D01*
X73780690Y-50888880D01*
X73933071Y-50850785D01*
X74199738Y-50850785D01*
X74352119Y-50888880D01*
X74428309Y-50965071D01*
X74466404Y-51041261D01*
X74466404Y-51193642D01*
X74466404Y-50088880D02*
X74466404Y-50546023D01*
X74466404Y-50317452D02*
X73666404Y-50317452D01*
X73780690Y-50393642D01*
X73856880Y-50469833D01*
X73894976Y-50546023D01*
%TO.C,R1*%
X78784404Y-72396333D02*
X78403452Y-72663000D01*
X78784404Y-72853476D02*
X77984404Y-72853476D01*
X77984404Y-72548714D01*
X78022500Y-72472523D01*
X78060595Y-72434428D01*
X78136785Y-72396333D01*
X78251071Y-72396333D01*
X78327261Y-72434428D01*
X78365357Y-72472523D01*
X78403452Y-72548714D01*
X78403452Y-72853476D01*
X78784404Y-71634428D02*
X78784404Y-72091571D01*
X78784404Y-71863000D02*
X77984404Y-71863000D01*
X78098690Y-71939190D01*
X78174880Y-72015380D01*
X78212976Y-72091571D01*
%TO.C,R2*%
X78784404Y-74936333D02*
X78403452Y-75203000D01*
X78784404Y-75393476D02*
X77984404Y-75393476D01*
X77984404Y-75088714D01*
X78022500Y-75012523D01*
X78060595Y-74974428D01*
X78136785Y-74936333D01*
X78251071Y-74936333D01*
X78327261Y-74974428D01*
X78365357Y-75012523D01*
X78403452Y-75088714D01*
X78403452Y-75393476D01*
X78060595Y-74631571D02*
X78022500Y-74593476D01*
X77984404Y-74517285D01*
X77984404Y-74326809D01*
X78022500Y-74250619D01*
X78060595Y-74212523D01*
X78136785Y-74174428D01*
X78212976Y-74174428D01*
X78327261Y-74212523D01*
X78784404Y-74669666D01*
X78784404Y-74174428D01*
%TO.C,R3*%
X86404404Y-43503833D02*
X86023452Y-43770500D01*
X86404404Y-43960976D02*
X85604404Y-43960976D01*
X85604404Y-43656214D01*
X85642500Y-43580023D01*
X85680595Y-43541928D01*
X85756785Y-43503833D01*
X85871071Y-43503833D01*
X85947261Y-43541928D01*
X85985357Y-43580023D01*
X86023452Y-43656214D01*
X86023452Y-43960976D01*
X85604404Y-43237166D02*
X85604404Y-42741928D01*
X85909166Y-43008595D01*
X85909166Y-42894309D01*
X85947261Y-42818119D01*
X85985357Y-42780023D01*
X86061547Y-42741928D01*
X86252023Y-42741928D01*
X86328214Y-42780023D01*
X86366309Y-42818119D01*
X86404404Y-42894309D01*
X86404404Y-43122880D01*
X86366309Y-43199071D01*
X86328214Y-43237166D01*
%TO.C,R4*%
X88817404Y-43376833D02*
X88436452Y-43643500D01*
X88817404Y-43833976D02*
X88017404Y-43833976D01*
X88017404Y-43529214D01*
X88055500Y-43453023D01*
X88093595Y-43414928D01*
X88169785Y-43376833D01*
X88284071Y-43376833D01*
X88360261Y-43414928D01*
X88398357Y-43453023D01*
X88436452Y-43529214D01*
X88436452Y-43833976D01*
X88284071Y-42691119D02*
X88817404Y-42691119D01*
X87979309Y-42881595D02*
X88550738Y-43072071D01*
X88550738Y-42576833D01*
%TO.C,R7*%
X87991904Y-60712333D02*
X87610952Y-60979000D01*
X87991904Y-61169476D02*
X87191904Y-61169476D01*
X87191904Y-60864714D01*
X87230000Y-60788523D01*
X87268095Y-60750428D01*
X87344285Y-60712333D01*
X87458571Y-60712333D01*
X87534761Y-60750428D01*
X87572857Y-60788523D01*
X87610952Y-60864714D01*
X87610952Y-61169476D01*
X87191904Y-60445666D02*
X87191904Y-59912333D01*
X87991904Y-60255190D01*
%TO.C,R8*%
X79292404Y-37915833D02*
X78911452Y-38182500D01*
X79292404Y-38372976D02*
X78492404Y-38372976D01*
X78492404Y-38068214D01*
X78530500Y-37992023D01*
X78568595Y-37953928D01*
X78644785Y-37915833D01*
X78759071Y-37915833D01*
X78835261Y-37953928D01*
X78873357Y-37992023D01*
X78911452Y-38068214D01*
X78911452Y-38372976D01*
X78835261Y-37458690D02*
X78797166Y-37534880D01*
X78759071Y-37572976D01*
X78682880Y-37611071D01*
X78644785Y-37611071D01*
X78568595Y-37572976D01*
X78530500Y-37534880D01*
X78492404Y-37458690D01*
X78492404Y-37306309D01*
X78530500Y-37230119D01*
X78568595Y-37192023D01*
X78644785Y-37153928D01*
X78682880Y-37153928D01*
X78759071Y-37192023D01*
X78797166Y-37230119D01*
X78835261Y-37306309D01*
X78835261Y-37458690D01*
X78873357Y-37534880D01*
X78911452Y-37572976D01*
X78987642Y-37611071D01*
X79140023Y-37611071D01*
X79216214Y-37572976D01*
X79254309Y-37534880D01*
X79292404Y-37458690D01*
X79292404Y-37306309D01*
X79254309Y-37230119D01*
X79216214Y-37192023D01*
X79140023Y-37153928D01*
X78987642Y-37153928D01*
X78911452Y-37192023D01*
X78873357Y-37230119D01*
X78835261Y-37306309D01*
%TO.C,R9*%
X75863404Y-30831733D02*
X75482452Y-31098400D01*
X75863404Y-31288876D02*
X75063404Y-31288876D01*
X75063404Y-30984114D01*
X75101500Y-30907923D01*
X75139595Y-30869828D01*
X75215785Y-30831733D01*
X75330071Y-30831733D01*
X75406261Y-30869828D01*
X75444357Y-30907923D01*
X75482452Y-30984114D01*
X75482452Y-31288876D01*
X75863404Y-30450780D02*
X75863404Y-30298400D01*
X75825309Y-30222209D01*
X75787214Y-30184114D01*
X75672928Y-30107923D01*
X75520547Y-30069828D01*
X75215785Y-30069828D01*
X75139595Y-30107923D01*
X75101500Y-30146019D01*
X75063404Y-30222209D01*
X75063404Y-30374590D01*
X75101500Y-30450780D01*
X75139595Y-30488876D01*
X75215785Y-30526971D01*
X75406261Y-30526971D01*
X75482452Y-30488876D01*
X75520547Y-30450780D01*
X75558642Y-30374590D01*
X75558642Y-30222209D01*
X75520547Y-30146019D01*
X75482452Y-30107923D01*
X75406261Y-30069828D01*
%TO.C,R10*%
X97453404Y-69665785D02*
X97072452Y-69932452D01*
X97453404Y-70122928D02*
X96653404Y-70122928D01*
X96653404Y-69818166D01*
X96691500Y-69741976D01*
X96729595Y-69703880D01*
X96805785Y-69665785D01*
X96920071Y-69665785D01*
X96996261Y-69703880D01*
X97034357Y-69741976D01*
X97072452Y-69818166D01*
X97072452Y-70122928D01*
X97453404Y-68903880D02*
X97453404Y-69361023D01*
X97453404Y-69132452D02*
X96653404Y-69132452D01*
X96767690Y-69208642D01*
X96843880Y-69284833D01*
X96881976Y-69361023D01*
X96653404Y-68408642D02*
X96653404Y-68332452D01*
X96691500Y-68256261D01*
X96729595Y-68218166D01*
X96805785Y-68180071D01*
X96958166Y-68141976D01*
X97148642Y-68141976D01*
X97301023Y-68180071D01*
X97377214Y-68218166D01*
X97415309Y-68256261D01*
X97453404Y-68332452D01*
X97453404Y-68408642D01*
X97415309Y-68484833D01*
X97377214Y-68522928D01*
X97301023Y-68561023D01*
X97148642Y-68599119D01*
X96958166Y-68599119D01*
X96805785Y-68561023D01*
X96729595Y-68522928D01*
X96691500Y-68484833D01*
X96653404Y-68408642D01*
%TO.C,R12*%
X84435904Y-67379785D02*
X84054952Y-67646452D01*
X84435904Y-67836928D02*
X83635904Y-67836928D01*
X83635904Y-67532166D01*
X83674000Y-67455976D01*
X83712095Y-67417880D01*
X83788285Y-67379785D01*
X83902571Y-67379785D01*
X83978761Y-67417880D01*
X84016857Y-67455976D01*
X84054952Y-67532166D01*
X84054952Y-67836928D01*
X84435904Y-66617880D02*
X84435904Y-67075023D01*
X84435904Y-66846452D02*
X83635904Y-66846452D01*
X83750190Y-66922642D01*
X83826380Y-66998833D01*
X83864476Y-67075023D01*
X83712095Y-66313119D02*
X83674000Y-66275023D01*
X83635904Y-66198833D01*
X83635904Y-66008357D01*
X83674000Y-65932166D01*
X83712095Y-65894071D01*
X83788285Y-65855976D01*
X83864476Y-65855976D01*
X83978761Y-65894071D01*
X84435904Y-66351214D01*
X84435904Y-65855976D01*
%TO.C,R13*%
X84435904Y-63315785D02*
X84054952Y-63582452D01*
X84435904Y-63772928D02*
X83635904Y-63772928D01*
X83635904Y-63468166D01*
X83674000Y-63391976D01*
X83712095Y-63353880D01*
X83788285Y-63315785D01*
X83902571Y-63315785D01*
X83978761Y-63353880D01*
X84016857Y-63391976D01*
X84054952Y-63468166D01*
X84054952Y-63772928D01*
X84435904Y-62553880D02*
X84435904Y-63011023D01*
X84435904Y-62782452D02*
X83635904Y-62782452D01*
X83750190Y-62858642D01*
X83826380Y-62934833D01*
X83864476Y-63011023D01*
X83635904Y-62287214D02*
X83635904Y-61791976D01*
X83940666Y-62058642D01*
X83940666Y-61944357D01*
X83978761Y-61868166D01*
X84016857Y-61830071D01*
X84093047Y-61791976D01*
X84283523Y-61791976D01*
X84359714Y-61830071D01*
X84397809Y-61868166D01*
X84435904Y-61944357D01*
X84435904Y-62172928D01*
X84397809Y-62249119D01*
X84359714Y-62287214D01*
%TO.C,R16*%
X71227904Y-41217785D02*
X70846952Y-41484452D01*
X71227904Y-41674928D02*
X70427904Y-41674928D01*
X70427904Y-41370166D01*
X70466000Y-41293976D01*
X70504095Y-41255880D01*
X70580285Y-41217785D01*
X70694571Y-41217785D01*
X70770761Y-41255880D01*
X70808857Y-41293976D01*
X70846952Y-41370166D01*
X70846952Y-41674928D01*
X71227904Y-40455880D02*
X71227904Y-40913023D01*
X71227904Y-40684452D02*
X70427904Y-40684452D01*
X70542190Y-40760642D01*
X70618380Y-40836833D01*
X70656476Y-40913023D01*
X70427904Y-39770166D02*
X70427904Y-39922547D01*
X70466000Y-39998738D01*
X70504095Y-40036833D01*
X70618380Y-40113023D01*
X70770761Y-40151119D01*
X71075523Y-40151119D01*
X71151714Y-40113023D01*
X71189809Y-40074928D01*
X71227904Y-39998738D01*
X71227904Y-39846357D01*
X71189809Y-39770166D01*
X71151714Y-39732071D01*
X71075523Y-39693976D01*
X70885047Y-39693976D01*
X70808857Y-39732071D01*
X70770761Y-39770166D01*
X70732666Y-39846357D01*
X70732666Y-39998738D01*
X70770761Y-40074928D01*
X70808857Y-40113023D01*
X70885047Y-40151119D01*
%TO.C,R17*%
X78784404Y-67189285D02*
X78403452Y-67455952D01*
X78784404Y-67646428D02*
X77984404Y-67646428D01*
X77984404Y-67341666D01*
X78022500Y-67265476D01*
X78060595Y-67227380D01*
X78136785Y-67189285D01*
X78251071Y-67189285D01*
X78327261Y-67227380D01*
X78365357Y-67265476D01*
X78403452Y-67341666D01*
X78403452Y-67646428D01*
X78784404Y-66427380D02*
X78784404Y-66884523D01*
X78784404Y-66655952D02*
X77984404Y-66655952D01*
X78098690Y-66732142D01*
X78174880Y-66808333D01*
X78212976Y-66884523D01*
X77984404Y-66160714D02*
X77984404Y-65627380D01*
X78784404Y-65970238D01*
%TO.C,R18*%
X78784404Y-70237285D02*
X78403452Y-70503952D01*
X78784404Y-70694428D02*
X77984404Y-70694428D01*
X77984404Y-70389666D01*
X78022500Y-70313476D01*
X78060595Y-70275380D01*
X78136785Y-70237285D01*
X78251071Y-70237285D01*
X78327261Y-70275380D01*
X78365357Y-70313476D01*
X78403452Y-70389666D01*
X78403452Y-70694428D01*
X78784404Y-69475380D02*
X78784404Y-69932523D01*
X78784404Y-69703952D02*
X77984404Y-69703952D01*
X78098690Y-69780142D01*
X78174880Y-69856333D01*
X78212976Y-69932523D01*
X78327261Y-69018238D02*
X78289166Y-69094428D01*
X78251071Y-69132523D01*
X78174880Y-69170619D01*
X78136785Y-69170619D01*
X78060595Y-69132523D01*
X78022500Y-69094428D01*
X77984404Y-69018238D01*
X77984404Y-68865857D01*
X78022500Y-68789666D01*
X78060595Y-68751571D01*
X78136785Y-68713476D01*
X78174880Y-68713476D01*
X78251071Y-68751571D01*
X78289166Y-68789666D01*
X78327261Y-68865857D01*
X78327261Y-69018238D01*
X78365357Y-69094428D01*
X78403452Y-69132523D01*
X78479642Y-69170619D01*
X78632023Y-69170619D01*
X78708214Y-69132523D01*
X78746309Y-69094428D01*
X78784404Y-69018238D01*
X78784404Y-68865857D01*
X78746309Y-68789666D01*
X78708214Y-68751571D01*
X78632023Y-68713476D01*
X78479642Y-68713476D01*
X78403452Y-68751571D01*
X78365357Y-68789666D01*
X78327261Y-68865857D01*
%TO.C,TP2*%
X74428404Y-37077523D02*
X74428404Y-36620380D01*
X75228404Y-36848952D02*
X74428404Y-36848952D01*
X75228404Y-36353714D02*
X74428404Y-36353714D01*
X74428404Y-36048952D01*
X74466500Y-35972761D01*
X74504595Y-35934666D01*
X74580785Y-35896571D01*
X74695071Y-35896571D01*
X74771261Y-35934666D01*
X74809357Y-35972761D01*
X74847452Y-36048952D01*
X74847452Y-36353714D01*
X74504595Y-35591809D02*
X74466500Y-35553714D01*
X74428404Y-35477523D01*
X74428404Y-35287047D01*
X74466500Y-35210857D01*
X74504595Y-35172761D01*
X74580785Y-35134666D01*
X74656976Y-35134666D01*
X74771261Y-35172761D01*
X75228404Y-35629904D01*
X75228404Y-35134666D01*
%TO.C,TP3*%
X89541404Y-77019023D02*
X89541404Y-76561880D01*
X90341404Y-76790452D02*
X89541404Y-76790452D01*
X90341404Y-76295214D02*
X89541404Y-76295214D01*
X89541404Y-75990452D01*
X89579500Y-75914261D01*
X89617595Y-75876166D01*
X89693785Y-75838071D01*
X89808071Y-75838071D01*
X89884261Y-75876166D01*
X89922357Y-75914261D01*
X89960452Y-75990452D01*
X89960452Y-76295214D01*
X89541404Y-75571404D02*
X89541404Y-75076166D01*
X89846166Y-75342833D01*
X89846166Y-75228547D01*
X89884261Y-75152357D01*
X89922357Y-75114261D01*
X89998547Y-75076166D01*
X90189023Y-75076166D01*
X90265214Y-75114261D01*
X90303309Y-75152357D01*
X90341404Y-75228547D01*
X90341404Y-75457119D01*
X90303309Y-75533309D01*
X90265214Y-75571404D01*
%TO.C,TP4*%
X99193404Y-59366023D02*
X99193404Y-58908880D01*
X99993404Y-59137452D02*
X99193404Y-59137452D01*
X99993404Y-58642214D02*
X99193404Y-58642214D01*
X99193404Y-58337452D01*
X99231500Y-58261261D01*
X99269595Y-58223166D01*
X99345785Y-58185071D01*
X99460071Y-58185071D01*
X99536261Y-58223166D01*
X99574357Y-58261261D01*
X99612452Y-58337452D01*
X99612452Y-58642214D01*
X99460071Y-57499357D02*
X99993404Y-57499357D01*
X99155309Y-57689833D02*
X99726738Y-57880309D01*
X99726738Y-57385071D01*
%TO.C,TP5*%
X70618404Y-49460023D02*
X70618404Y-49002880D01*
X71418404Y-49231452D02*
X70618404Y-49231452D01*
X71418404Y-48736214D02*
X70618404Y-48736214D01*
X70618404Y-48431452D01*
X70656500Y-48355261D01*
X70694595Y-48317166D01*
X70770785Y-48279071D01*
X70885071Y-48279071D01*
X70961261Y-48317166D01*
X70999357Y-48355261D01*
X71037452Y-48431452D01*
X71037452Y-48736214D01*
X70618404Y-47555261D02*
X70618404Y-47936214D01*
X70999357Y-47974309D01*
X70961261Y-47936214D01*
X70923166Y-47860023D01*
X70923166Y-47669547D01*
X70961261Y-47593357D01*
X70999357Y-47555261D01*
X71075547Y-47517166D01*
X71266023Y-47517166D01*
X71342214Y-47555261D01*
X71380309Y-47593357D01*
X71418404Y-47669547D01*
X71418404Y-47860023D01*
X71380309Y-47936214D01*
X71342214Y-47974309D01*
%TO.C,C7*%
X86328214Y-74174333D02*
X86366309Y-74212428D01*
X86404404Y-74326714D01*
X86404404Y-74402904D01*
X86366309Y-74517190D01*
X86290119Y-74593380D01*
X86213928Y-74631476D01*
X86061547Y-74669571D01*
X85947261Y-74669571D01*
X85794880Y-74631476D01*
X85718690Y-74593380D01*
X85642500Y-74517190D01*
X85604404Y-74402904D01*
X85604404Y-74326714D01*
X85642500Y-74212428D01*
X85680595Y-74174333D01*
X85604404Y-73907666D02*
X85604404Y-73374333D01*
X86404404Y-73717190D01*
%TO.C,L1*%
X90150904Y-71634333D02*
X90150904Y-72015285D01*
X89350904Y-72015285D01*
X90150904Y-70948619D02*
X90150904Y-71405761D01*
X90150904Y-71177190D02*
X89350904Y-71177190D01*
X89465190Y-71253380D01*
X89541380Y-71329571D01*
X89579476Y-71405761D01*
%TO.C,J1*%
X89858904Y-36525166D02*
X90430333Y-36525166D01*
X90544619Y-36563261D01*
X90620809Y-36639452D01*
X90658904Y-36753738D01*
X90658904Y-36829928D01*
X90658904Y-35725166D02*
X90658904Y-36182309D01*
X90658904Y-35953738D02*
X89858904Y-35953738D01*
X89973190Y-36029928D01*
X90049380Y-36106119D01*
X90087476Y-36182309D01*
%TO.C,J3*%
X89795404Y-44843666D02*
X90366833Y-44843666D01*
X90481119Y-44881761D01*
X90557309Y-44957952D01*
X90595404Y-45072238D01*
X90595404Y-45148428D01*
X89795404Y-44538904D02*
X89795404Y-44043666D01*
X90100166Y-44310333D01*
X90100166Y-44196047D01*
X90138261Y-44119857D01*
X90176357Y-44081761D01*
X90252547Y-44043666D01*
X90443023Y-44043666D01*
X90519214Y-44081761D01*
X90557309Y-44119857D01*
X90595404Y-44196047D01*
X90595404Y-44424619D01*
X90557309Y-44500809D01*
X90519214Y-44538904D01*
%TO.C,J5*%
D13*
X89795404Y-52209666D02*
X90366833Y-52209666D01*
X90481119Y-52247761D01*
X90557309Y-52323952D01*
X90595404Y-52438238D01*
X90595404Y-52514428D01*
X89795404Y-51447761D02*
X89795404Y-51828714D01*
X90176357Y-51866809D01*
X90138261Y-51828714D01*
X90100166Y-51752523D01*
X90100166Y-51562047D01*
X90138261Y-51485857D01*
X90176357Y-51447761D01*
X90252547Y-51409666D01*
X90443023Y-51409666D01*
X90519214Y-51447761D01*
X90557309Y-51485857D01*
X90595404Y-51562047D01*
X90595404Y-51752523D01*
X90557309Y-51828714D01*
X90519214Y-51866809D01*
%TD*%
M02*
