%TF.GenerationSoftware,KiCad,Pcbnew,(5.1.9-0-10_14)*%
%TF.CreationDate,2021-03-09T11:41:36-05:00*%
%TF.ProjectId,Antoinette_PowerBank,416e746f-696e-4657-9474-655f506f7765,rev?*%
%TF.SameCoordinates,Original*%
%TF.FileFunction,Paste,Top*%
%TF.FilePolarity,Positive*%
%FSLAX46Y46*%
G04 Gerber Fmt 4.6, Leading zero omitted, Abs format (unit mm)*
G04 Created by KiCad (PCBNEW (5.1.9-0-10_14)) date 2021-03-09 11:41:36*
%MOMM*%
%LPD*%
G01*
G04 APERTURE LIST*
%ADD10C,0.010000*%
%ADD11R,0.700000X1.300000*%
%ADD12R,0.260000X0.810000*%
%ADD13R,0.810000X0.260000*%
%ADD14R,1.300000X0.700000*%
%ADD15R,0.340000X0.810000*%
%ADD16R,0.810000X0.340000*%
%ADD17R,1.000000X1.250000*%
%ADD18R,1.200000X1.200000*%
%ADD19R,1.900000X1.900000*%
%ADD20R,1.450000X1.300000*%
%ADD21R,1.600000X1.400000*%
%ADD22R,0.400000X1.350000*%
%ADD23R,5.000000X2.500000*%
%ADD24R,2.800000X0.900000*%
%ADD25R,0.900000X0.800000*%
%ADD26R,1.200000X2.000000*%
G04 APERTURE END LIST*
D10*
%TO.C,U2*%
G36*
X82543799Y-46454400D02*
G01*
X81583799Y-46454400D01*
X81583799Y-45494400D01*
X82543799Y-45494400D01*
X82543799Y-46454400D01*
G37*
X82543799Y-46454400D02*
X81583799Y-46454400D01*
X81583799Y-45494400D01*
X82543799Y-45494400D01*
X82543799Y-46454400D01*
G36*
X81323799Y-46454400D02*
G01*
X80363799Y-46454400D01*
X80363799Y-45494400D01*
X81323799Y-45494400D01*
X81323799Y-46454400D01*
G37*
X81323799Y-46454400D02*
X80363799Y-46454400D01*
X80363799Y-45494400D01*
X81323799Y-45494400D01*
X81323799Y-46454400D01*
G36*
X81323799Y-45234400D02*
G01*
X80363799Y-45234400D01*
X80363799Y-44274400D01*
X81323799Y-44274400D01*
X81323799Y-45234400D01*
G37*
X81323799Y-45234400D02*
X80363799Y-45234400D01*
X80363799Y-44274400D01*
X81323799Y-44274400D01*
X81323799Y-45234400D01*
G36*
X82543799Y-45234400D02*
G01*
X81583799Y-45234400D01*
X81583799Y-44274400D01*
X82543799Y-44274400D01*
X82543799Y-45234400D01*
G37*
X82543799Y-45234400D02*
X81583799Y-45234400D01*
X81583799Y-44274400D01*
X82543799Y-44274400D01*
X82543799Y-45234400D01*
%TO.C,U3*%
G36*
X89456700Y-65547172D02*
G01*
X89456700Y-63840800D01*
X91163072Y-63840800D01*
X91163072Y-65547172D01*
X89456700Y-65547172D01*
G37*
X89456700Y-65547172D02*
X89456700Y-63840800D01*
X91163072Y-63840800D01*
X91163072Y-65547172D01*
X89456700Y-65547172D01*
%TD*%
D11*
%TO.C,R15*%
X74165500Y-43116500D03*
X72265500Y-43116500D03*
%TD*%
%TO.C,R14*%
X82484000Y-61785500D03*
X80584000Y-61785500D03*
%TD*%
%TO.C,R6*%
X94554000Y-60261500D03*
X96454000Y-60261500D03*
%TD*%
D12*
%TO.C,U2*%
X82453799Y-47319400D03*
X81953799Y-47319400D03*
X81453799Y-47319400D03*
X80953799Y-47319400D03*
X80453799Y-47319400D03*
D13*
X79498799Y-46364400D03*
X79498799Y-45864400D03*
X79498799Y-45364400D03*
X79498799Y-44864400D03*
X79498799Y-44364400D03*
D12*
X80453799Y-43409400D03*
X80953799Y-43409400D03*
X81453799Y-43409400D03*
X81953799Y-43409400D03*
X82453799Y-43409400D03*
D13*
X83408799Y-44364400D03*
X83408799Y-44864400D03*
X83408799Y-45364400D03*
X83408799Y-45864400D03*
X83408799Y-46364400D03*
%TD*%
D14*
%TO.C,R11*%
X86080600Y-40010000D03*
X86080600Y-41910000D03*
%TD*%
%TO.C,R5*%
X78041500Y-34224000D03*
X78041500Y-32324000D03*
%TD*%
D15*
%TO.C,U3*%
X89334700Y-66648800D03*
X89984700Y-66648800D03*
X90634700Y-66648800D03*
X91284700Y-66648800D03*
D16*
X92264700Y-65668800D03*
X92264700Y-65018800D03*
X92264700Y-64368800D03*
X92264700Y-63718800D03*
D15*
X91284700Y-62738800D03*
X90634700Y-62738800D03*
X89984700Y-62738800D03*
X89334700Y-62738800D03*
D16*
X88354700Y-63718800D03*
X88354700Y-64368800D03*
X88354700Y-65018800D03*
X88354700Y-65668800D03*
%TD*%
D17*
%TO.C,C1*%
X82661000Y-64516000D03*
X80661000Y-64516000D03*
%TD*%
%TO.C,C2*%
X85715600Y-36042600D03*
X87715600Y-36042600D03*
%TD*%
%TO.C,C3*%
X80343500Y-49403000D03*
X82343500Y-49403000D03*
%TD*%
%TO.C,C4*%
X94694500Y-66065400D03*
X96694500Y-66065400D03*
%TD*%
%TO.C,C5*%
X96694500Y-63423800D03*
X94694500Y-63423800D03*
%TD*%
%TO.C,C6*%
X90579700Y-68503800D03*
X92579700Y-68503800D03*
%TD*%
D18*
%TO.C,D1*%
X81203800Y-41130400D03*
X81203800Y-38930400D03*
%TD*%
%TO.C,D2*%
X83693000Y-38912800D03*
X83693000Y-41112800D03*
%TD*%
%TO.C,D3*%
X74569500Y-45720000D03*
X72369500Y-45720000D03*
%TD*%
%TO.C,D4*%
X74506000Y-38290500D03*
X72306000Y-38290500D03*
%TD*%
%TO.C,F1*%
G36*
G01*
X87767000Y-48013000D02*
X89017000Y-48013000D01*
G75*
G02*
X89267000Y-48263000I0J-250000D01*
G01*
X89267000Y-49013000D01*
G75*
G02*
X89017000Y-49263000I-250000J0D01*
G01*
X87767000Y-49263000D01*
G75*
G02*
X87517000Y-49013000I0J250000D01*
G01*
X87517000Y-48263000D01*
G75*
G02*
X87767000Y-48013000I250000J0D01*
G01*
G37*
G36*
G01*
X87767000Y-50813000D02*
X89017000Y-50813000D01*
G75*
G02*
X89267000Y-51063000I0J-250000D01*
G01*
X89267000Y-51813000D01*
G75*
G02*
X89017000Y-52063000I-250000J0D01*
G01*
X87767000Y-52063000D01*
G75*
G02*
X87517000Y-51813000I0J250000D01*
G01*
X87517000Y-51063000D01*
G75*
G02*
X87767000Y-50813000I250000J0D01*
G01*
G37*
%TD*%
D19*
%TO.C,J2*%
X83026400Y-31419800D03*
X85426400Y-31419800D03*
D20*
X87651400Y-31419800D03*
X80801400Y-31419800D03*
D21*
X81026400Y-33869800D03*
X87426400Y-33869800D03*
D22*
X82926400Y-34094800D03*
X83576400Y-34094800D03*
X84226400Y-34094800D03*
X84876400Y-34094800D03*
X85526400Y-34094800D03*
%TD*%
D23*
%TO.C,J4*%
X73228000Y-71766000D03*
X73228000Y-57266000D03*
D24*
X75478000Y-65516000D03*
X75478000Y-61016000D03*
X75478000Y-63516000D03*
X75478000Y-68016000D03*
%TD*%
D25*
%TO.C,Q1*%
X78329500Y-51178500D03*
X78329500Y-49278500D03*
X76229500Y-50228500D03*
%TD*%
D11*
%TO.C,R1*%
X81963300Y-72110600D03*
X80063300Y-72110600D03*
%TD*%
%TO.C,R2*%
X81963300Y-74650600D03*
X80063300Y-74650600D03*
%TD*%
D14*
%TO.C,R3*%
X86029800Y-44770000D03*
X86029800Y-46670000D03*
%TD*%
%TO.C,R4*%
X88315800Y-46685200D03*
X88315800Y-44785200D03*
%TD*%
D11*
%TO.C,R7*%
X89029500Y-60756800D03*
X90929500Y-60756800D03*
%TD*%
D14*
%TO.C,R8*%
X78836520Y-41391880D03*
X78836520Y-39491880D03*
%TD*%
%TO.C,R9*%
X75501500Y-32324000D03*
X75501500Y-34224000D03*
%TD*%
%TO.C,R10*%
X98933000Y-70228500D03*
X98933000Y-68328500D03*
%TD*%
%TO.C,R12*%
X85890100Y-65740200D03*
X85890100Y-67640200D03*
%TD*%
%TO.C,R13*%
X85890100Y-63713400D03*
X85890100Y-61813400D03*
%TD*%
D11*
%TO.C,R16*%
X72202000Y-40703500D03*
X74102000Y-40703500D03*
%TD*%
%TO.C,R17*%
X81948100Y-67081400D03*
X80048100Y-67081400D03*
%TD*%
%TO.C,R18*%
X81963300Y-69570600D03*
X80063300Y-69570600D03*
%TD*%
%TO.C,C7*%
G36*
G01*
X84420600Y-69593799D02*
X84420600Y-72493801D01*
G75*
G02*
X84170601Y-72743800I-249999J0D01*
G01*
X83545599Y-72743800D01*
G75*
G02*
X83295600Y-72493801I0J249999D01*
G01*
X83295600Y-69593799D01*
G75*
G02*
X83545599Y-69343800I249999J0D01*
G01*
X84170601Y-69343800D01*
G75*
G02*
X84420600Y-69593799I0J-249999D01*
G01*
G37*
G36*
G01*
X88695600Y-69593799D02*
X88695600Y-72493801D01*
G75*
G02*
X88445601Y-72743800I-249999J0D01*
G01*
X87820599Y-72743800D01*
G75*
G02*
X87570600Y-72493801I0J249999D01*
G01*
X87570600Y-69593799D01*
G75*
G02*
X87820599Y-69343800I249999J0D01*
G01*
X88445601Y-69343800D01*
G75*
G02*
X88695600Y-69593799I0J-249999D01*
G01*
G37*
%TD*%
D26*
%TO.C,L1*%
X94678500Y-71501000D03*
X91478500Y-71501000D03*
%TD*%
M02*
