M48
INCH,TZ
T1C0.0120
T2C0.0197
T3C0.0394
T4C0.0400
T5C0.0472
T6C0.1285
T7C0.0669
%
G90
G05
T1
X39448Y-39628
X39453Y-38494
X42370Y-35440
X42370Y-35820
X42580Y-32320
X43003Y-37776
X43010Y-35440
X43060Y-32320
X43080Y-32820
X43220Y-35840
X44800Y-46900
X47160Y-34740
X47160Y-35170
X47260Y-31820
X47260Y-32100
X47280Y-33070
X47282Y-33859
X47600Y-34360
X47600Y-33860
X48667Y-42137
X48720Y-34480
X50100Y-37530
X50100Y-38310
X52200Y-42300
X52220Y-43800
X52300Y-52520
X53140Y-52620
X53960Y-38880
X53960Y-39960
X55220Y-38400
X55270Y-42767
X55520Y-44080
X55580Y-41020
X55580Y-41960
X55780Y-43440
X55800Y-42860
X55820Y-42260
X55920Y-38380
X56148Y-45388
X56742Y-40300
X56763Y-37857
X57300Y-38340
X57338Y-40258
X57626Y-44966
X57923Y-45150
X58488Y-39845
X58560Y-45350
X59140Y-45600
X59184Y-39800
X59500Y-39600
X59500Y-40050
X59680Y-49150
X59680Y-49730
X60360Y-41020
X60370Y-42200
X60379Y-41600
X60380Y-42560
X60390Y-40720
X60390Y-41900
X60420Y-49140
X60480Y-49520
X60920Y-44620
X60960Y-49520
X61140Y-49140
X61290Y-45150
X61290Y-42160
X61310Y-40680
X61400Y-41000
X61520Y-41840
X61529Y-44918
X61758Y-41578
T3
X49260Y-52520
X40000Y-50500
X40000Y-51500
X41000Y-50500
X41000Y-51500
X47400Y-52500
X51200Y-52520
X40000Y-31500
X40000Y-32500
X41000Y-31500
X41000Y-32500
X59680Y-50680
X59680Y-51680
X60680Y-50680
X60680Y-51680
T4
X57240Y-46260
X57240Y-47260
X57240Y-48260
X58240Y-46260
X58240Y-47260
X58240Y-48260
T5
X56640Y-31260
X56640Y-32244
X56640Y-33229
X56640Y-34213
X56640Y-35197
X56640Y-36181
X57624Y-31260
X57624Y-32244
X57624Y-33229
X57624Y-34213
X57624Y-35197
X57624Y-36181
T6
X40400Y-34820
X40480Y-48400
T7
X60451Y-31260
X60451Y-36181
T2
G00X50340Y-30917
M15
G01X50615Y-30917
M16
G05
G00X51363Y-31763
M15
G01X51797Y-31763
M16
G05
G00X52545Y-30917
M15
G01X52820Y-30917
M16
G05
T3
G00X43688Y-47580
M15
G01X44672Y-47580
M16
G05
G00X43786Y-49942
M15
G01X44574Y-49942
M16
G05
T0
M30
