G04 #@! TF.GenerationSoftware,KiCad,Pcbnew,5.1.9-73d0e3b20d~88~ubuntu20.04.1*
G04 #@! TF.CreationDate,2021-04-17T15:17:50-04:00*
G04 #@! TF.ProjectId,Antoinette_PowerBank,416e746f-696e-4657-9474-655f506f7765,rev?*
G04 #@! TF.SameCoordinates,Original*
G04 #@! TF.FileFunction,Copper,L1,Top*
G04 #@! TF.FilePolarity,Positive*
%FSLAX46Y46*%
G04 Gerber Fmt 4.6, Leading zero omitted, Abs format (unit mm)*
G04 Created by KiCad (PCBNEW 5.1.9-73d0e3b20d~88~ubuntu20.04.1) date 2021-04-17 15:17:50*
%MOMM*%
%LPD*%
G01*
G04 APERTURE LIST*
G04 #@! TA.AperFunction,SMDPad,CuDef*
%ADD10R,0.700000X1.300000*%
G04 #@! TD*
G04 #@! TA.AperFunction,ComponentPad*
%ADD11C,2.400000*%
G04 #@! TD*
G04 #@! TA.AperFunction,SMDPad,CuDef*
%ADD12R,2.700000X2.700000*%
G04 #@! TD*
G04 #@! TA.AperFunction,SMDPad,CuDef*
%ADD13R,0.260000X0.810000*%
G04 #@! TD*
G04 #@! TA.AperFunction,SMDPad,CuDef*
%ADD14R,0.810000X0.260000*%
G04 #@! TD*
G04 #@! TA.AperFunction,SMDPad,CuDef*
%ADD15R,1.300000X0.700000*%
G04 #@! TD*
G04 #@! TA.AperFunction,SMDPad,CuDef*
%ADD16R,0.340000X0.810000*%
G04 #@! TD*
G04 #@! TA.AperFunction,SMDPad,CuDef*
%ADD17R,0.810000X0.340000*%
G04 #@! TD*
G04 #@! TA.AperFunction,SMDPad,CuDef*
%ADD18R,1.000000X1.250000*%
G04 #@! TD*
G04 #@! TA.AperFunction,SMDPad,CuDef*
%ADD19R,1.200000X1.200000*%
G04 #@! TD*
G04 #@! TA.AperFunction,SMDPad,CuDef*
%ADD20R,0.900000X0.800000*%
G04 #@! TD*
G04 #@! TA.AperFunction,ComponentPad*
%ADD21R,1.900000X1.900000*%
G04 #@! TD*
G04 #@! TA.AperFunction,ComponentPad*
%ADD22C,1.900000*%
G04 #@! TD*
G04 #@! TA.AperFunction,SMDPad,CuDef*
%ADD23R,1.900000X1.900000*%
G04 #@! TD*
G04 #@! TA.AperFunction,SMDPad,CuDef*
%ADD24R,1.450000X1.300000*%
G04 #@! TD*
G04 #@! TA.AperFunction,SMDPad,CuDef*
%ADD25R,1.600000X1.400000*%
G04 #@! TD*
G04 #@! TA.AperFunction,SMDPad,CuDef*
%ADD26R,0.400000X1.350000*%
G04 #@! TD*
G04 #@! TA.AperFunction,SMDPad,CuDef*
%ADD27R,5.000000X2.500000*%
G04 #@! TD*
G04 #@! TA.AperFunction,SMDPad,CuDef*
%ADD28R,2.800000X0.900000*%
G04 #@! TD*
G04 #@! TA.AperFunction,SMDPad,CuDef*
%ADD29R,2.590800X7.315200*%
G04 #@! TD*
G04 #@! TA.AperFunction,ViaPad*
%ADD30C,0.609600*%
G04 #@! TD*
G04 #@! TA.AperFunction,Conductor*
%ADD31C,0.400000*%
G04 #@! TD*
G04 #@! TA.AperFunction,Conductor*
%ADD32C,0.150000*%
G04 #@! TD*
G04 #@! TA.AperFunction,Conductor*
%ADD33C,0.152400*%
G04 #@! TD*
G04 #@! TA.AperFunction,Conductor*
%ADD34C,0.254000*%
G04 #@! TD*
G04 #@! TA.AperFunction,Conductor*
%ADD35C,0.100000*%
G04 #@! TD*
G04 APERTURE END LIST*
G04 #@! TA.AperFunction,SMDPad,CuDef*
G36*
G01*
X83943597Y-67238800D02*
X86843603Y-67238800D01*
G75*
G02*
X87093600Y-67488797I0J-249997D01*
G01*
X87093600Y-68113803D01*
G75*
G02*
X86843603Y-68363800I-249997J0D01*
G01*
X83943597Y-68363800D01*
G75*
G02*
X83693600Y-68113803I0J249997D01*
G01*
X83693600Y-67488797D01*
G75*
G02*
X83943597Y-67238800I249997J0D01*
G01*
G37*
G04 #@! TD.AperFunction*
G04 #@! TA.AperFunction,SMDPad,CuDef*
G36*
G01*
X83943597Y-62963800D02*
X86843603Y-62963800D01*
G75*
G02*
X87093600Y-63213797I0J-249997D01*
G01*
X87093600Y-63838803D01*
G75*
G02*
X86843603Y-64088800I-249997J0D01*
G01*
X83943597Y-64088800D01*
G75*
G02*
X83693600Y-63838803I0J249997D01*
G01*
X83693600Y-63213797D01*
G75*
G02*
X83943597Y-62963800I249997J0D01*
G01*
G37*
G04 #@! TD.AperFunction*
D10*
X74240500Y-43769000D03*
X72340500Y-43769000D03*
X85518100Y-54259200D03*
X83618100Y-54259200D03*
X93994000Y-59529700D03*
X95894000Y-59529700D03*
D11*
X92531000Y-31094400D03*
D12*
X80017499Y-44988200D03*
D13*
X81017499Y-46943200D03*
X80517499Y-46943200D03*
X80017499Y-46943200D03*
X79517499Y-46943200D03*
X79017499Y-46943200D03*
D14*
X78062499Y-45988200D03*
X78062499Y-45488200D03*
X78062499Y-44988200D03*
X78062499Y-44488200D03*
X78062499Y-43988200D03*
D13*
X79017499Y-43033200D03*
X79517499Y-43033200D03*
X80017499Y-43033200D03*
X80517499Y-43033200D03*
X81017499Y-43033200D03*
D14*
X81972499Y-43988200D03*
X81972499Y-44488200D03*
X81972499Y-44988200D03*
X81972499Y-45488200D03*
X81972499Y-45988200D03*
D15*
X84644300Y-39633800D03*
X84644300Y-41533800D03*
X79323000Y-33924000D03*
X79323000Y-32024000D03*
D16*
X89130300Y-65955100D03*
X89780300Y-65955100D03*
X90430300Y-65955100D03*
X91080300Y-65955100D03*
D17*
X92060300Y-64975100D03*
X92060300Y-64325100D03*
X92060300Y-63675100D03*
X92060300Y-63025100D03*
D16*
X91080300Y-62045100D03*
X90430300Y-62045100D03*
X89780300Y-62045100D03*
X89130300Y-62045100D03*
D17*
X88150300Y-63025100D03*
X88150300Y-63675100D03*
X88150300Y-64325100D03*
X88150300Y-64975100D03*
D12*
X90105300Y-64000100D03*
D18*
X85695100Y-56418200D03*
X83695100Y-56418200D03*
X84304700Y-37533300D03*
X86304700Y-37533300D03*
X80240700Y-50106300D03*
X82240700Y-50106300D03*
X94490100Y-65371700D03*
X96490100Y-65371700D03*
X96490100Y-62730100D03*
X94490100Y-62730100D03*
X89250000Y-67600000D03*
X91250000Y-67600000D03*
D19*
X80135800Y-40728800D03*
X80135800Y-38528800D03*
X82256700Y-38536600D03*
X82256700Y-40736600D03*
X74644500Y-46372500D03*
X72444500Y-46372500D03*
X73666600Y-39044600D03*
X71466600Y-39044600D03*
G04 #@! TA.AperFunction,SMDPad,CuDef*
G36*
G01*
X88083300Y-49465600D02*
X89333300Y-49465600D01*
G75*
G02*
X89583300Y-49715600I0J-250000D01*
G01*
X89583300Y-50465600D01*
G75*
G02*
X89333300Y-50715600I-250000J0D01*
G01*
X88083300Y-50715600D01*
G75*
G02*
X87833300Y-50465600I0J250000D01*
G01*
X87833300Y-49715600D01*
G75*
G02*
X88083300Y-49465600I250000J0D01*
G01*
G37*
G04 #@! TD.AperFunction*
G04 #@! TA.AperFunction,SMDPad,CuDef*
G36*
G01*
X88083300Y-52265600D02*
X89333300Y-52265600D01*
G75*
G02*
X89583300Y-52515600I0J-250000D01*
G01*
X89583300Y-53265600D01*
G75*
G02*
X89333300Y-53515600I-250000J0D01*
G01*
X88083300Y-53515600D01*
G75*
G02*
X87833300Y-53265600I0J250000D01*
G01*
X87833300Y-52515600D01*
G75*
G02*
X88083300Y-52265600I250000J0D01*
G01*
G37*
G04 #@! TD.AperFunction*
D20*
X78404500Y-51831000D03*
X78404500Y-49931000D03*
X76304500Y-50881000D03*
D10*
X79307800Y-73156800D03*
X77407800Y-73156800D03*
X79345900Y-75747600D03*
X77445900Y-75747600D03*
D15*
X84593500Y-44393800D03*
X84593500Y-46293800D03*
X84657000Y-47772000D03*
X84657000Y-49672000D03*
D10*
X88825100Y-60063100D03*
X90725100Y-60063100D03*
D15*
X77697400Y-41048700D03*
X77697400Y-39148700D03*
X77037000Y-32024000D03*
X77037000Y-33924000D03*
X99071500Y-68785500D03*
X99071500Y-66885500D03*
D10*
X85962600Y-61269600D03*
X84062600Y-61269600D03*
X85873700Y-58996300D03*
X83973700Y-58996300D03*
X72277000Y-41356000D03*
X74177000Y-41356000D03*
X83981400Y-73106000D03*
X82081400Y-73106000D03*
X83981400Y-75798400D03*
X82081400Y-75798400D03*
D11*
X72528500Y-36276000D03*
X98627000Y-70972400D03*
X98982600Y-58932800D03*
X73608000Y-48976000D03*
D21*
X92264300Y-37012600D03*
D22*
X92264300Y-39512600D03*
D21*
X92073800Y-44378600D03*
D22*
X92073800Y-46878600D03*
D21*
X92213500Y-51833500D03*
D22*
X92213500Y-54333500D03*
D23*
X84295200Y-32542200D03*
X86695200Y-32542200D03*
D24*
X88920200Y-32542200D03*
X82070200Y-32542200D03*
D25*
X82295200Y-34992200D03*
X88695200Y-34992200D03*
D26*
X84195200Y-35217200D03*
X84845200Y-35217200D03*
X85495200Y-35217200D03*
X86145200Y-35217200D03*
X86795200Y-35217200D03*
D27*
X77367000Y-69307000D03*
X77367000Y-54807000D03*
D28*
X79617000Y-63057000D03*
X79617000Y-58557000D03*
X79617000Y-61057000D03*
X79617000Y-65557000D03*
D29*
X88199800Y-73410800D03*
X92899800Y-73410800D03*
D15*
X87082700Y-42552300D03*
X87082700Y-44452300D03*
X87158900Y-48097200D03*
X87158900Y-46197200D03*
D30*
X89825000Y-37050000D03*
X85368200Y-69194400D03*
X92480200Y-68026000D03*
X82828200Y-59085200D03*
X88675000Y-46900000D03*
X85304700Y-50741300D03*
X79373800Y-77068400D03*
X85063400Y-75798400D03*
X77799000Y-71264500D03*
X74179500Y-54056000D03*
X86638200Y-38930300D03*
X77278300Y-42448200D03*
X77024300Y-30776900D03*
X79424600Y-30776900D03*
X78400000Y-48675000D03*
X70941000Y-37609500D03*
X87806600Y-60012300D03*
X87990389Y-62578477D03*
X82701201Y-46909682D03*
X83137557Y-45050226D03*
X92275000Y-57513600D03*
X92275000Y-58828000D03*
X83987100Y-42975000D03*
X85301500Y-42975000D03*
D31*
X89130300Y-63025100D02*
X90105300Y-64000100D01*
X88150300Y-63025100D02*
X89130300Y-63025100D01*
D32*
X90430300Y-61785100D02*
X90430300Y-62045100D01*
D33*
X79017499Y-43033200D02*
X79017499Y-43988200D01*
X78619899Y-43988200D02*
X79619899Y-44988200D01*
X78062499Y-43988200D02*
X78619899Y-43988200D01*
X90430300Y-61706634D02*
X90430300Y-62045100D01*
X78432499Y-42448200D02*
X79017499Y-43033200D01*
X77278300Y-42448200D02*
X78432499Y-42448200D01*
X77278300Y-43204001D02*
X78062499Y-43988200D01*
X77278300Y-42448200D02*
X77278300Y-43204001D01*
X90430300Y-63675100D02*
X90105300Y-64000100D01*
X77024300Y-31945300D02*
X76973500Y-31996100D01*
X77024300Y-30776900D02*
X77024300Y-31945300D01*
X79424600Y-31909700D02*
X79323000Y-32011300D01*
X79424600Y-30776900D02*
X79424600Y-31909700D01*
X79574500Y-32275500D02*
X79323000Y-32024000D01*
D31*
X86638200Y-38930300D02*
X86638200Y-37866800D01*
D33*
X77060500Y-54056000D02*
X77748000Y-54743500D01*
X74179500Y-54056000D02*
X77060500Y-54056000D01*
X79998000Y-66993500D02*
X77748000Y-69243500D01*
X79998000Y-65493500D02*
X79998000Y-66993500D01*
D31*
X77799000Y-69294500D02*
X77748000Y-69243500D01*
X77799000Y-71264500D02*
X77799000Y-69294500D01*
X88682500Y-32881500D02*
X88907500Y-32656500D01*
X88682500Y-35106500D02*
X88682500Y-32881500D01*
X82282500Y-32881500D02*
X82057500Y-32656500D01*
X82282500Y-35106500D02*
X82282500Y-32881500D01*
X88907500Y-32656500D02*
X82057500Y-32656500D01*
X81425000Y-32024000D02*
X82057500Y-32656500D01*
X79323000Y-32024000D02*
X81425000Y-32024000D01*
X83957500Y-35106500D02*
X84182500Y-35331500D01*
X82282500Y-35106500D02*
X83957500Y-35106500D01*
D33*
X79373800Y-75775500D02*
X79345900Y-75747600D01*
X79373800Y-77068400D02*
X79373800Y-75775500D01*
X85165000Y-75798400D02*
X85266600Y-75900000D01*
X83981400Y-75798400D02*
X85165000Y-75798400D01*
D31*
X71466600Y-38135100D02*
X70941000Y-37609500D01*
X71466600Y-39044600D02*
X71466600Y-38135100D01*
X80395600Y-49931000D02*
X80507400Y-50042800D01*
X78404500Y-49931000D02*
X80395600Y-49931000D01*
D33*
X85304700Y-50319700D02*
X84657000Y-49672000D01*
X85304700Y-50741300D02*
X85304700Y-50319700D01*
X87095400Y-48160700D02*
X87158900Y-48097200D01*
X87857400Y-60063100D02*
X87806600Y-60012300D01*
X88825100Y-60063100D02*
X87857400Y-60063100D01*
X90430300Y-61668300D02*
X88825100Y-60063100D01*
X90430300Y-62045100D02*
X90430300Y-61668300D01*
X83973700Y-58139600D02*
X85695100Y-56418200D01*
X83973700Y-58996300D02*
X83973700Y-58139600D01*
X82917100Y-58996300D02*
X82828200Y-59085200D01*
X83973700Y-58996300D02*
X82917100Y-58996300D01*
X92365900Y-67911700D02*
X92480200Y-68026000D01*
X91067200Y-67911700D02*
X92365900Y-67911700D01*
X85368200Y-67826700D02*
X85393600Y-67801300D01*
X85368200Y-69194400D02*
X85368200Y-67826700D01*
D31*
X89862400Y-37012600D02*
X89825000Y-37050000D01*
X92264300Y-37012600D02*
X89862400Y-37012600D01*
D33*
X87477800Y-48097200D02*
X88675000Y-46900000D01*
X87158900Y-48097200D02*
X87477800Y-48097200D01*
X78404500Y-48679500D02*
X78400000Y-48675000D01*
X78404500Y-49931000D02*
X78404500Y-48679500D01*
D32*
X88150300Y-62738388D02*
X87990389Y-62578477D01*
X88150300Y-63025100D02*
X88150300Y-62738388D01*
D31*
X72340500Y-41419500D02*
X72277000Y-41356000D01*
X72340500Y-43769000D02*
X72340500Y-41419500D01*
X71258500Y-44851000D02*
X72340500Y-43769000D01*
X83695100Y-54336200D02*
X83618100Y-54259200D01*
X83695100Y-56418200D02*
X83695100Y-54336200D01*
X80048301Y-75399623D02*
X80048301Y-73897301D01*
X81449479Y-76800801D02*
X80048301Y-75399623D01*
X85584999Y-76800801D02*
X81449479Y-76800801D01*
X85720601Y-76665199D02*
X85584999Y-76800801D01*
X80048301Y-73897301D02*
X79307800Y-73156800D01*
X85720601Y-74845201D02*
X85720601Y-76665199D01*
X83981400Y-73106000D02*
X85720601Y-74845201D01*
X82124421Y-60165699D02*
X82955200Y-60996478D01*
X82955200Y-60996478D02*
X82955200Y-69397600D01*
X83231400Y-73106000D02*
X82993300Y-72867900D01*
X83981400Y-73106000D02*
X83231400Y-73106000D01*
X82993300Y-69435700D02*
X82955200Y-69397600D01*
X82993300Y-72867900D02*
X82993300Y-69435700D01*
X71492099Y-51940099D02*
X71492099Y-44617401D01*
X72476778Y-52924778D02*
X71492099Y-51940099D01*
X80783500Y-52924778D02*
X72476778Y-52924778D01*
X71492099Y-44617401D02*
X72340500Y-43769000D01*
X83695100Y-55836378D02*
X80783500Y-52924778D01*
X83695100Y-56418200D02*
X83695100Y-55836378D01*
X82124421Y-60150021D02*
X80442500Y-58468100D01*
X82124421Y-60165699D02*
X82124421Y-60150021D01*
X81645200Y-58468100D02*
X83695100Y-56418200D01*
X80442500Y-58468100D02*
X81645200Y-58468100D01*
X86192400Y-64325100D02*
X85393600Y-63526300D01*
X88150300Y-64325100D02*
X86192400Y-64325100D01*
X84062600Y-62195300D02*
X85393600Y-63526300D01*
X84062600Y-61269600D02*
X84062600Y-62195300D01*
X88150300Y-66994800D02*
X88150300Y-64975100D01*
X89067200Y-67911700D02*
X88150300Y-66994800D01*
X88150300Y-64975100D02*
X88150300Y-64325100D01*
X88150300Y-65545100D02*
X88150300Y-64975100D01*
X88560300Y-65955100D02*
X88150300Y-65545100D01*
X89130300Y-65955100D02*
X88560300Y-65955100D01*
X83228322Y-61269600D02*
X82955200Y-60996478D01*
X84062600Y-61269600D02*
X83228322Y-61269600D01*
X81972499Y-44988200D02*
X81972499Y-44488200D01*
X82701200Y-46931300D02*
X81931899Y-47700601D01*
X80017499Y-46943200D02*
X80017499Y-47112522D01*
X80465089Y-47560112D02*
X80465089Y-46943200D01*
X81931899Y-47700601D02*
X80605578Y-47700601D01*
X80017499Y-46943200D02*
X79569909Y-46943200D01*
X87609901Y-36158901D02*
X86782500Y-35331500D01*
X89764421Y-36158901D02*
X87609901Y-36158901D01*
X91896000Y-34027322D02*
X89764421Y-36158901D01*
X91896000Y-30815000D02*
X91896000Y-34027322D01*
X76287700Y-39639000D02*
X77697400Y-41048700D01*
X76287700Y-37571400D02*
X76287700Y-39639000D01*
X77214800Y-36644300D02*
X76287700Y-37571400D01*
X83415700Y-36644300D02*
X77214800Y-36644300D01*
X84304700Y-37533300D02*
X83415700Y-36644300D01*
X85282101Y-36555899D02*
X84304700Y-37533300D01*
X86315823Y-36555899D02*
X85282101Y-36555899D01*
X86795200Y-36076522D02*
X86315823Y-36555899D01*
X86795200Y-35217200D02*
X86795200Y-36076522D01*
X78375540Y-41991000D02*
X77400220Y-41015680D01*
X79144621Y-41991000D02*
X78375540Y-41991000D01*
X79517499Y-42363878D02*
X79144621Y-41991000D01*
X79517499Y-43033200D02*
X79517499Y-42363878D01*
X82701200Y-46909683D02*
X82701201Y-46909682D01*
X82701200Y-46931300D02*
X82701200Y-46909683D01*
X85646701Y-40531399D02*
X84644300Y-41533800D01*
X85646701Y-38875301D02*
X85646701Y-40531399D01*
X84304700Y-37533300D02*
X85646701Y-38875301D01*
X84644300Y-44343000D02*
X84593500Y-44393800D01*
X84644300Y-41533800D02*
X84644300Y-44343000D01*
X84499100Y-44488200D02*
X81972499Y-44488200D01*
X84593500Y-44393800D02*
X84499100Y-44488200D01*
X83075531Y-44988200D02*
X83137557Y-45050226D01*
X81972499Y-44988200D02*
X83075531Y-44988200D01*
X78487499Y-46943200D02*
X79017499Y-46943200D01*
X78062499Y-46518200D02*
X78487499Y-46943200D01*
X78062499Y-45988200D02*
X78062499Y-46518200D01*
X78062499Y-45988200D02*
X78062499Y-45488200D01*
X88670200Y-53271600D02*
X87736901Y-52338301D01*
X74225556Y-36276000D02*
X75055800Y-37106244D01*
X72528500Y-36276000D02*
X74225556Y-36276000D01*
X75055800Y-37106244D02*
X75055800Y-44924700D01*
X75619300Y-45488200D02*
X75055800Y-44924700D01*
X78062499Y-45488200D02*
X75619300Y-45488200D01*
X87736901Y-52338301D02*
X83374199Y-52338301D01*
X79017499Y-47752222D02*
X79017499Y-47082900D01*
X82507400Y-51471502D02*
X83374199Y-52338301D01*
X82507400Y-50042800D02*
X82507400Y-51471502D01*
X80330676Y-49065399D02*
X79017499Y-47752222D01*
X81529999Y-49065399D02*
X80330676Y-49065399D01*
X82507400Y-50042800D02*
X81529999Y-49065399D01*
D33*
X96032900Y-65371700D02*
X96048900Y-65355700D01*
D31*
X81972499Y-46518200D02*
X81972499Y-45988200D01*
X81547499Y-46943200D02*
X81972499Y-46518200D01*
X81017499Y-46943200D02*
X81547499Y-46943200D01*
X92327099Y-61014701D02*
X92060300Y-61281500D01*
X92060300Y-63025100D02*
X92060300Y-61281500D01*
X99071500Y-68785500D02*
X96769500Y-66483500D01*
X99071500Y-70312000D02*
X98627000Y-70756500D01*
X94535100Y-58170800D02*
X95894000Y-59529700D01*
X90145800Y-58170800D02*
X94535100Y-58170800D01*
X94275000Y-43100000D02*
X94275000Y-47700000D01*
X90145800Y-51366878D02*
X90145800Y-58170800D01*
X82730758Y-45988200D02*
X83358401Y-46615843D01*
X83358401Y-47207501D02*
X83359801Y-47208901D01*
X83359801Y-47208901D02*
X83359801Y-50009123D01*
X83359801Y-50009123D02*
X84917478Y-51566800D01*
X84917478Y-51566800D02*
X85451858Y-51566800D01*
X85451858Y-51566800D02*
X85961901Y-51056757D01*
X85961901Y-51056757D02*
X85961901Y-50928521D01*
X81972499Y-45988200D02*
X82730758Y-45988200D01*
X85961901Y-50928521D02*
X89875000Y-47015422D01*
X91875000Y-50100000D02*
X91412678Y-50100000D01*
X83358401Y-46615843D02*
X83358401Y-47207501D01*
X90475000Y-42100000D02*
X93275000Y-42100000D01*
X91412678Y-50100000D02*
X90145800Y-51366878D01*
X93275000Y-42100000D02*
X94275000Y-43100000D01*
X89875000Y-47015422D02*
X89875000Y-42700000D01*
X94275000Y-47700000D02*
X91875000Y-50100000D01*
X89875000Y-42700000D02*
X90475000Y-42100000D01*
X92899800Y-73410800D02*
X92899800Y-73225200D01*
X97525100Y-68785500D02*
X92899800Y-73410800D01*
X99071500Y-68785500D02*
X97525100Y-68785500D01*
X98627000Y-69230000D02*
X99071500Y-68785500D01*
X98627000Y-70972400D02*
X98627000Y-69230000D01*
X94408999Y-61014701D02*
X95894000Y-59529700D01*
X92327099Y-61014701D02*
X94408999Y-61014701D01*
D33*
X80017499Y-40847101D02*
X80135800Y-40728800D01*
X80017499Y-43033200D02*
X80017499Y-40847101D01*
X77961700Y-38554200D02*
X77400220Y-39115680D01*
X79767500Y-38554200D02*
X77961700Y-38554200D01*
X84055100Y-38536600D02*
X84644300Y-39125800D01*
X82256700Y-38536600D02*
X84055100Y-38536600D01*
X84644300Y-39633800D02*
X84644300Y-39125800D01*
X80517499Y-42475801D02*
X80517499Y-43033200D01*
X82256700Y-40736600D02*
X80517499Y-42475801D01*
X76304500Y-48032500D02*
X74644500Y-46372500D01*
X76304500Y-50881000D02*
X76304500Y-48032500D01*
X72340500Y-46268500D02*
X72444500Y-46372500D01*
X74240500Y-44576500D02*
X72444500Y-46372500D01*
X74240500Y-43769000D02*
X74240500Y-44576500D01*
D31*
X74240500Y-41419500D02*
X74177000Y-41356000D01*
D33*
X74177000Y-39093000D02*
X74327000Y-38943000D01*
X74177000Y-41356000D02*
X74177000Y-39093000D01*
X91525800Y-47426600D02*
X92073800Y-46878600D01*
X91932200Y-47020200D02*
X92073800Y-46878600D01*
X91881400Y-47071000D02*
X92073800Y-46878600D01*
D31*
X88708300Y-50090600D02*
X88861800Y-50090600D01*
X91338700Y-47613700D02*
X91350000Y-47625000D01*
X88861800Y-50090600D02*
X91338700Y-47613700D01*
X91338700Y-47613700D02*
X92073800Y-46878600D01*
D33*
X77445900Y-73194900D02*
X77407800Y-73156800D01*
X77445900Y-75747600D02*
X77445900Y-73194900D01*
X77407800Y-73156800D02*
X79185800Y-71378800D01*
X79617000Y-63057000D02*
X81466000Y-63057000D01*
X81466000Y-63057000D02*
X81736000Y-63327000D01*
X81736000Y-63327000D02*
X81736000Y-70947000D01*
X81304200Y-71378800D02*
X79185800Y-71378800D01*
X81736000Y-70947000D02*
X81304200Y-71378800D01*
X81550400Y-60993500D02*
X79998000Y-60993500D01*
X82081400Y-75798400D02*
X82081400Y-73106000D01*
X80506000Y-60993500D02*
X82058400Y-60993500D01*
X81994900Y-60968100D02*
X80442500Y-60968100D01*
X82439411Y-61412611D02*
X81994900Y-60968100D01*
X82439411Y-72747989D02*
X82439411Y-61412611D01*
X82081400Y-73106000D02*
X82439411Y-72747989D01*
X73100000Y-48912500D02*
X73100000Y-50754000D01*
X74177000Y-51831000D02*
X78404500Y-51831000D01*
X73100000Y-50754000D02*
X74177000Y-51831000D01*
X81898400Y-51831000D02*
X78404500Y-51831000D01*
X81898400Y-51834254D02*
X81898400Y-51831000D01*
X84639499Y-53380599D02*
X85518100Y-54259200D01*
X87197000Y-55938100D02*
X86770300Y-55511400D01*
X86770300Y-55511400D02*
X85518100Y-54259200D01*
X87197000Y-58551800D02*
X87197000Y-55938100D01*
X86968390Y-58780410D02*
X87197000Y-58551800D01*
X86968390Y-61018090D02*
X86968390Y-58780410D01*
X87995400Y-62045100D02*
X86968390Y-61018090D01*
X89130300Y-62045100D02*
X87995400Y-62045100D01*
X81898400Y-51834254D02*
X81927254Y-51834254D01*
X81927254Y-51834254D02*
X83133000Y-53040000D01*
X84298900Y-53040000D02*
X84639499Y-53380599D01*
X83133000Y-53040000D02*
X84298900Y-53040000D01*
X84644300Y-46395400D02*
X84448300Y-46199400D01*
X84549900Y-46250200D02*
X84593500Y-46293800D01*
X84657000Y-46357300D02*
X84593500Y-46293800D01*
X84657000Y-47772000D02*
X84657000Y-46357300D01*
D32*
X82835206Y-45488200D02*
X83800000Y-46452994D01*
X81972499Y-45488200D02*
X82835206Y-45488200D01*
X84434306Y-46452994D02*
X84593500Y-46293800D01*
X83800000Y-46452994D02*
X84434306Y-46452994D01*
D33*
X75830500Y-37416500D02*
X79323000Y-33924000D01*
X75830500Y-44213500D02*
X75830500Y-37416500D01*
X76105200Y-44488200D02*
X75830500Y-44213500D01*
X78062499Y-44488200D02*
X76105200Y-44488200D01*
X92723354Y-60012300D02*
X91080300Y-61655354D01*
X91080300Y-61655354D02*
X91080300Y-62045100D01*
X93714600Y-60012300D02*
X94095600Y-59631300D01*
X92723354Y-60012300D02*
X93714600Y-60012300D01*
X91080300Y-60418300D02*
X91080300Y-62045100D01*
X90725100Y-60063100D02*
X91080300Y-60418300D01*
X75484410Y-44438910D02*
X75484410Y-35599710D01*
X77037000Y-34047120D02*
X77037000Y-33924000D01*
X75484410Y-35599710D02*
X77037000Y-34047120D01*
X76033700Y-44988200D02*
X78062499Y-44988200D01*
X75484410Y-44438910D02*
X76033700Y-44988200D01*
X85873700Y-61180700D02*
X85962600Y-61269600D01*
X85873700Y-58996300D02*
X85873700Y-61180700D01*
X87516699Y-62823699D02*
X85962600Y-61269600D01*
X87592900Y-63675100D02*
X87516699Y-63598899D01*
X87516699Y-63598899D02*
X87516699Y-62823699D01*
X88150300Y-63675100D02*
X87592900Y-63675100D01*
D32*
X93420000Y-53040000D02*
X92213500Y-51833500D01*
D33*
X92213500Y-51833500D02*
X93633500Y-51833500D01*
X98982600Y-57182600D02*
X98982600Y-58932800D01*
X93633500Y-51833500D02*
X98982600Y-57182600D01*
X96925000Y-56545000D02*
X93420000Y-53040000D01*
X96925000Y-60100000D02*
X96925000Y-56545000D01*
X99071500Y-62246500D02*
X96925000Y-60100000D01*
X99071500Y-66885500D02*
X99071500Y-62246500D01*
D32*
X89780300Y-62045100D02*
X89780300Y-61715098D01*
D33*
X91832500Y-54714500D02*
X92213500Y-54333500D01*
X92404000Y-54524000D02*
X92213500Y-54333500D01*
X92346000Y-57442600D02*
X92275000Y-57513600D01*
X92404000Y-57442600D02*
X92346000Y-57442600D01*
X92378600Y-58931600D02*
X92275000Y-58828000D01*
X92106700Y-58996300D02*
X92275000Y-58828000D01*
X88033166Y-58996300D02*
X92106700Y-58996300D01*
X87273199Y-59756267D02*
X88033166Y-58996300D01*
X88223666Y-61218800D02*
X87273199Y-60268333D01*
X89780300Y-61487700D02*
X89511400Y-61218800D01*
X87273199Y-60268333D02*
X87273199Y-59756267D01*
X89511400Y-61218800D02*
X88223666Y-61218800D01*
X89780300Y-62045100D02*
X89780300Y-61487700D01*
X92213500Y-57452100D02*
X92275000Y-57513600D01*
X92213500Y-54333500D02*
X92213500Y-57452100D01*
X92264300Y-39512600D02*
X89421400Y-39512600D01*
X87082700Y-41851300D02*
X89421400Y-39512600D01*
X87082700Y-42552300D02*
X87082700Y-41851300D01*
X87158900Y-46197200D02*
X88324800Y-46197200D01*
X88324800Y-46197200D02*
X88555900Y-45966100D01*
X88555900Y-44025500D02*
X87082700Y-42552300D01*
X88555900Y-45966100D02*
X88555900Y-44025500D01*
D32*
X91080300Y-65955100D02*
X91100301Y-65975101D01*
D33*
X91080300Y-65955100D02*
X90430300Y-65955100D01*
X91080300Y-65955100D02*
X91103901Y-65978701D01*
X91198734Y-65955100D02*
X91080300Y-65955100D01*
D31*
X91381958Y-65955100D02*
X90430300Y-65955100D01*
X93137401Y-67710543D02*
X91381958Y-65955100D01*
X93137401Y-68341457D02*
X93137401Y-67710543D01*
X92078059Y-69400799D02*
X93137401Y-68341457D01*
X91322479Y-69400799D02*
X92078059Y-69400799D01*
X88199800Y-72523478D02*
X91322479Y-69400799D01*
X88199800Y-73410800D02*
X88199800Y-72523478D01*
D33*
X81972499Y-43761101D02*
X82802800Y-42930800D01*
X81972499Y-43988200D02*
X81972499Y-43761101D01*
X87042100Y-44452300D02*
X85596800Y-43007000D01*
X87082700Y-44452300D02*
X87042100Y-44452300D01*
X83942900Y-42930800D02*
X83987100Y-42975000D01*
X82802800Y-42930800D02*
X83942900Y-42930800D01*
X85333500Y-43007000D02*
X85301500Y-42975000D01*
X85596800Y-43007000D02*
X85333500Y-43007000D01*
D34*
X96213800Y-60065074D02*
X96210360Y-60100000D01*
X96213800Y-60134926D01*
X96213800Y-60134935D01*
X96224091Y-60239419D01*
X96264758Y-60373480D01*
X96330798Y-60497032D01*
X96340730Y-60509135D01*
X96348006Y-61251245D01*
X96350689Y-61275996D01*
X96358149Y-61299749D01*
X96370100Y-61321589D01*
X96386082Y-61340679D01*
X96405481Y-61356283D01*
X96427552Y-61367804D01*
X96451446Y-61374797D01*
X96466552Y-61376719D01*
X97098109Y-61418823D01*
X97102880Y-66613286D01*
X95731952Y-66581155D01*
X95756799Y-60978063D01*
X95756789Y-60975838D01*
X95728672Y-58827000D01*
X96213800Y-58827000D01*
X96213800Y-60065074D01*
G04 #@! TA.AperFunction,Conductor*
D35*
G36*
X96213800Y-60065074D02*
G01*
X96210360Y-60100000D01*
X96213800Y-60134926D01*
X96213800Y-60134935D01*
X96224091Y-60239419D01*
X96264758Y-60373480D01*
X96330798Y-60497032D01*
X96340730Y-60509135D01*
X96348006Y-61251245D01*
X96350689Y-61275996D01*
X96358149Y-61299749D01*
X96370100Y-61321589D01*
X96386082Y-61340679D01*
X96405481Y-61356283D01*
X96427552Y-61367804D01*
X96451446Y-61374797D01*
X96466552Y-61376719D01*
X97098109Y-61418823D01*
X97102880Y-66613286D01*
X95731952Y-66581155D01*
X95756799Y-60978063D01*
X95756789Y-60975838D01*
X95728672Y-58827000D01*
X96213800Y-58827000D01*
X96213800Y-60065074D01*
G37*
G04 #@! TD.AperFunction*
D34*
X80399572Y-46820287D02*
X80387466Y-46943200D01*
X80399572Y-47066113D01*
X80435424Y-47184303D01*
X80458433Y-47227350D01*
X80458433Y-47248800D01*
X79644499Y-47248800D01*
X79644499Y-47052106D01*
X79640652Y-47013050D01*
X79647532Y-46943200D01*
X79640500Y-46871804D01*
X79640500Y-46767266D01*
X80415656Y-46767266D01*
X80399572Y-46820287D01*
G04 #@! TA.AperFunction,Conductor*
D35*
G36*
X80399572Y-46820287D02*
G01*
X80387466Y-46943200D01*
X80399572Y-47066113D01*
X80435424Y-47184303D01*
X80458433Y-47227350D01*
X80458433Y-47248800D01*
X79644499Y-47248800D01*
X79644499Y-47052106D01*
X79640652Y-47013050D01*
X79647532Y-46943200D01*
X79640500Y-46871804D01*
X79640500Y-46767266D01*
X80415656Y-46767266D01*
X80399572Y-46820287D01*
G37*
G04 #@! TD.AperFunction*
D34*
X73100000Y-44848500D02*
X70814000Y-44848500D01*
X70814000Y-40340000D01*
X73100000Y-40340000D01*
X73100000Y-44848500D01*
G04 #@! TA.AperFunction,Conductor*
D35*
G36*
X73100000Y-44848500D02*
G01*
X70814000Y-44848500D01*
X70814000Y-40340000D01*
X73100000Y-40340000D01*
X73100000Y-44848500D01*
G37*
G04 #@! TD.AperFunction*
D34*
X94650470Y-66026666D02*
X93597800Y-66087987D01*
X93597800Y-65409800D01*
X93595360Y-65385024D01*
X93588133Y-65361199D01*
X93576397Y-65339243D01*
X93560603Y-65319997D01*
X93541357Y-65304203D01*
X93519401Y-65292467D01*
X93495576Y-65285240D01*
X93470800Y-65282800D01*
X91583318Y-65282800D01*
X91553695Y-65246705D01*
X91488676Y-65193345D01*
X91414496Y-65153695D01*
X91334007Y-65129278D01*
X91250300Y-65121034D01*
X90910300Y-65121034D01*
X90826593Y-65129278D01*
X90755300Y-65150905D01*
X90684007Y-65129278D01*
X90600300Y-65121034D01*
X90260300Y-65121034D01*
X90176593Y-65129278D01*
X90111560Y-65149006D01*
X90070406Y-63492574D01*
X91350867Y-63497230D01*
X91351905Y-63498495D01*
X91416924Y-63551855D01*
X91491104Y-63591505D01*
X91571593Y-63615922D01*
X91655300Y-63624166D01*
X91875210Y-63624166D01*
X91937387Y-63643027D01*
X92060300Y-63655133D01*
X92183212Y-63643027D01*
X92245389Y-63624166D01*
X92465300Y-63624166D01*
X92549007Y-63615922D01*
X92629496Y-63591505D01*
X92703676Y-63551855D01*
X92763975Y-63502369D01*
X93432238Y-63504799D01*
X93457023Y-63502449D01*
X93480874Y-63495309D01*
X93502873Y-63483653D01*
X93522175Y-63467929D01*
X93538039Y-63448741D01*
X93549855Y-63426827D01*
X93557169Y-63403029D01*
X93559700Y-63377800D01*
X93559700Y-62004961D01*
X94602613Y-61994736D01*
X94650470Y-66026666D01*
G04 #@! TA.AperFunction,Conductor*
D35*
G36*
X94650470Y-66026666D02*
G01*
X93597800Y-66087987D01*
X93597800Y-65409800D01*
X93595360Y-65385024D01*
X93588133Y-65361199D01*
X93576397Y-65339243D01*
X93560603Y-65319997D01*
X93541357Y-65304203D01*
X93519401Y-65292467D01*
X93495576Y-65285240D01*
X93470800Y-65282800D01*
X91583318Y-65282800D01*
X91553695Y-65246705D01*
X91488676Y-65193345D01*
X91414496Y-65153695D01*
X91334007Y-65129278D01*
X91250300Y-65121034D01*
X90910300Y-65121034D01*
X90826593Y-65129278D01*
X90755300Y-65150905D01*
X90684007Y-65129278D01*
X90600300Y-65121034D01*
X90260300Y-65121034D01*
X90176593Y-65129278D01*
X90111560Y-65149006D01*
X90070406Y-63492574D01*
X91350867Y-63497230D01*
X91351905Y-63498495D01*
X91416924Y-63551855D01*
X91491104Y-63591505D01*
X91571593Y-63615922D01*
X91655300Y-63624166D01*
X91875210Y-63624166D01*
X91937387Y-63643027D01*
X92060300Y-63655133D01*
X92183212Y-63643027D01*
X92245389Y-63624166D01*
X92465300Y-63624166D01*
X92549007Y-63615922D01*
X92629496Y-63591505D01*
X92703676Y-63551855D01*
X92763975Y-63502369D01*
X93432238Y-63504799D01*
X93457023Y-63502449D01*
X93480874Y-63495309D01*
X93502873Y-63483653D01*
X93522175Y-63467929D01*
X93538039Y-63448741D01*
X93549855Y-63426827D01*
X93557169Y-63403029D01*
X93559700Y-63377800D01*
X93559700Y-62004961D01*
X94602613Y-61994736D01*
X94650470Y-66026666D01*
G37*
G04 #@! TD.AperFunction*
M02*
