M48
INCH,TZ
T1C0.0120
T2C0.0472
T3C0.0630
T4C0.0512
T5C0.0630
T6C0.0866
%
G90
G05
T1
X27930Y-14807
X29205Y-21282
X30325Y-12117
X30425Y-16712
X30630Y-28057
X30866Y-19163
X31250Y-30342
X31270Y-12117
X32560Y-18468
X32610Y-23262
X32731Y-17736
X33066Y-16919
X33490Y-29842
X33583Y-16919
X33585Y-19977
X33610Y-27242
X34110Y-15327
X34570Y-23627
X34642Y-24637
X34911Y-18465
X35364Y-14587
X36329Y-22643
X36329Y-23161
X36410Y-26782
T2
X36250Y-17472
X36250Y-18456
X36305Y-20407
X36305Y-21391
X36325Y-14572
X36325Y-15556
T3
X28555Y-14282
X28980Y-19282
X36430Y-12242
X38830Y-27942
X38970Y-23202
T4
X29830Y-23448
X29830Y-25416
T5
X39076Y-17472
X39076Y-18456
X39131Y-20407
X39131Y-21391
X39151Y-14572
X39151Y-15556
T6
X28740Y-12598
X28740Y-29528
X38583Y-12598
X38583Y-29528
T0
M30
