G04 #@! TF.GenerationSoftware,KiCad,Pcbnew,5.1.9-73d0e3b20d~88~ubuntu20.04.1*
G04 #@! TF.CreationDate,2021-04-17T15:17:50-04:00*
G04 #@! TF.ProjectId,Antoinette_PowerBank,416e746f-696e-4657-9474-655f506f7765,rev?*
G04 #@! TF.SameCoordinates,Original*
G04 #@! TF.FileFunction,Paste,Top*
G04 #@! TF.FilePolarity,Positive*
%FSLAX46Y46*%
G04 Gerber Fmt 4.6, Leading zero omitted, Abs format (unit mm)*
G04 Created by KiCad (PCBNEW 5.1.9-73d0e3b20d~88~ubuntu20.04.1) date 2021-04-17 15:17:50*
%MOMM*%
%LPD*%
G01*
G04 APERTURE LIST*
%ADD10C,0.010000*%
%ADD11R,0.700000X1.300000*%
%ADD12R,0.260000X0.810000*%
%ADD13R,0.810000X0.260000*%
%ADD14R,1.300000X0.700000*%
%ADD15R,0.340000X0.810000*%
%ADD16R,0.810000X0.340000*%
%ADD17R,1.000000X1.250000*%
%ADD18R,1.200000X1.200000*%
%ADD19R,0.900000X0.800000*%
%ADD20R,1.900000X1.900000*%
%ADD21R,1.450000X1.300000*%
%ADD22R,1.600000X1.400000*%
%ADD23R,0.400000X1.350000*%
%ADD24R,5.000000X2.500000*%
%ADD25R,2.800000X0.900000*%
%ADD26R,2.590800X7.315200*%
G04 APERTURE END LIST*
D10*
G36*
X81107499Y-46078200D02*
G01*
X80147499Y-46078200D01*
X80147499Y-45118200D01*
X81107499Y-45118200D01*
X81107499Y-46078200D01*
G37*
X81107499Y-46078200D02*
X80147499Y-46078200D01*
X80147499Y-45118200D01*
X81107499Y-45118200D01*
X81107499Y-46078200D01*
G36*
X79887499Y-46078200D02*
G01*
X78927499Y-46078200D01*
X78927499Y-45118200D01*
X79887499Y-45118200D01*
X79887499Y-46078200D01*
G37*
X79887499Y-46078200D02*
X78927499Y-46078200D01*
X78927499Y-45118200D01*
X79887499Y-45118200D01*
X79887499Y-46078200D01*
G36*
X79887499Y-44858200D02*
G01*
X78927499Y-44858200D01*
X78927499Y-43898200D01*
X79887499Y-43898200D01*
X79887499Y-44858200D01*
G37*
X79887499Y-44858200D02*
X78927499Y-44858200D01*
X78927499Y-43898200D01*
X79887499Y-43898200D01*
X79887499Y-44858200D01*
G36*
X81107499Y-44858200D02*
G01*
X80147499Y-44858200D01*
X80147499Y-43898200D01*
X81107499Y-43898200D01*
X81107499Y-44858200D01*
G37*
X81107499Y-44858200D02*
X80147499Y-44858200D01*
X80147499Y-43898200D01*
X81107499Y-43898200D01*
X81107499Y-44858200D01*
G36*
X89252300Y-64853472D02*
G01*
X89252300Y-63147100D01*
X90958672Y-63147100D01*
X90958672Y-64853472D01*
X89252300Y-64853472D01*
G37*
X89252300Y-64853472D02*
X89252300Y-63147100D01*
X90958672Y-63147100D01*
X90958672Y-64853472D01*
X89252300Y-64853472D01*
G36*
G01*
X83943597Y-67238800D02*
X86843603Y-67238800D01*
G75*
G02*
X87093600Y-67488797I0J-249997D01*
G01*
X87093600Y-68113803D01*
G75*
G02*
X86843603Y-68363800I-249997J0D01*
G01*
X83943597Y-68363800D01*
G75*
G02*
X83693600Y-68113803I0J249997D01*
G01*
X83693600Y-67488797D01*
G75*
G02*
X83943597Y-67238800I249997J0D01*
G01*
G37*
G36*
G01*
X83943597Y-62963800D02*
X86843603Y-62963800D01*
G75*
G02*
X87093600Y-63213797I0J-249997D01*
G01*
X87093600Y-63838803D01*
G75*
G02*
X86843603Y-64088800I-249997J0D01*
G01*
X83943597Y-64088800D01*
G75*
G02*
X83693600Y-63838803I0J249997D01*
G01*
X83693600Y-63213797D01*
G75*
G02*
X83943597Y-62963800I249997J0D01*
G01*
G37*
D11*
X74240500Y-43769000D03*
X72340500Y-43769000D03*
X85518100Y-54259200D03*
X83618100Y-54259200D03*
X93994000Y-59529700D03*
X95894000Y-59529700D03*
D12*
X81017499Y-46943200D03*
X80517499Y-46943200D03*
X80017499Y-46943200D03*
X79517499Y-46943200D03*
X79017499Y-46943200D03*
D13*
X78062499Y-45988200D03*
X78062499Y-45488200D03*
X78062499Y-44988200D03*
X78062499Y-44488200D03*
X78062499Y-43988200D03*
D12*
X79017499Y-43033200D03*
X79517499Y-43033200D03*
X80017499Y-43033200D03*
X80517499Y-43033200D03*
X81017499Y-43033200D03*
D13*
X81972499Y-43988200D03*
X81972499Y-44488200D03*
X81972499Y-44988200D03*
X81972499Y-45488200D03*
X81972499Y-45988200D03*
D14*
X84644300Y-39633800D03*
X84644300Y-41533800D03*
X79323000Y-33924000D03*
X79323000Y-32024000D03*
D15*
X89130300Y-65955100D03*
X89780300Y-65955100D03*
X90430300Y-65955100D03*
X91080300Y-65955100D03*
D16*
X92060300Y-64975100D03*
X92060300Y-64325100D03*
X92060300Y-63675100D03*
X92060300Y-63025100D03*
D15*
X91080300Y-62045100D03*
X90430300Y-62045100D03*
X89780300Y-62045100D03*
X89130300Y-62045100D03*
D16*
X88150300Y-63025100D03*
X88150300Y-63675100D03*
X88150300Y-64325100D03*
X88150300Y-64975100D03*
D17*
X85695100Y-56418200D03*
X83695100Y-56418200D03*
X84304700Y-37533300D03*
X86304700Y-37533300D03*
X80240700Y-50106300D03*
X82240700Y-50106300D03*
X94490100Y-65371700D03*
X96490100Y-65371700D03*
X96490100Y-62730100D03*
X94490100Y-62730100D03*
X89250000Y-67600000D03*
X91250000Y-67600000D03*
D18*
X80135800Y-40728800D03*
X80135800Y-38528800D03*
X82256700Y-38536600D03*
X82256700Y-40736600D03*
X74644500Y-46372500D03*
X72444500Y-46372500D03*
X73666600Y-39044600D03*
X71466600Y-39044600D03*
G36*
G01*
X88083300Y-49465600D02*
X89333300Y-49465600D01*
G75*
G02*
X89583300Y-49715600I0J-250000D01*
G01*
X89583300Y-50465600D01*
G75*
G02*
X89333300Y-50715600I-250000J0D01*
G01*
X88083300Y-50715600D01*
G75*
G02*
X87833300Y-50465600I0J250000D01*
G01*
X87833300Y-49715600D01*
G75*
G02*
X88083300Y-49465600I250000J0D01*
G01*
G37*
G36*
G01*
X88083300Y-52265600D02*
X89333300Y-52265600D01*
G75*
G02*
X89583300Y-52515600I0J-250000D01*
G01*
X89583300Y-53265600D01*
G75*
G02*
X89333300Y-53515600I-250000J0D01*
G01*
X88083300Y-53515600D01*
G75*
G02*
X87833300Y-53265600I0J250000D01*
G01*
X87833300Y-52515600D01*
G75*
G02*
X88083300Y-52265600I250000J0D01*
G01*
G37*
D19*
X78404500Y-51831000D03*
X78404500Y-49931000D03*
X76304500Y-50881000D03*
D11*
X79307800Y-73156800D03*
X77407800Y-73156800D03*
X79345900Y-75747600D03*
X77445900Y-75747600D03*
D14*
X84593500Y-44393800D03*
X84593500Y-46293800D03*
X84657000Y-47772000D03*
X84657000Y-49672000D03*
D11*
X88825100Y-60063100D03*
X90725100Y-60063100D03*
D14*
X77697400Y-41048700D03*
X77697400Y-39148700D03*
X77037000Y-32024000D03*
X77037000Y-33924000D03*
X99071500Y-68785500D03*
X99071500Y-66885500D03*
D11*
X85962600Y-61269600D03*
X84062600Y-61269600D03*
X85873700Y-58996300D03*
X83973700Y-58996300D03*
X72277000Y-41356000D03*
X74177000Y-41356000D03*
X83981400Y-73106000D03*
X82081400Y-73106000D03*
X83981400Y-75798400D03*
X82081400Y-75798400D03*
D20*
X84295200Y-32542200D03*
X86695200Y-32542200D03*
D21*
X88920200Y-32542200D03*
X82070200Y-32542200D03*
D22*
X82295200Y-34992200D03*
X88695200Y-34992200D03*
D23*
X84195200Y-35217200D03*
X84845200Y-35217200D03*
X85495200Y-35217200D03*
X86145200Y-35217200D03*
X86795200Y-35217200D03*
D24*
X77367000Y-69307000D03*
X77367000Y-54807000D03*
D25*
X79617000Y-63057000D03*
X79617000Y-58557000D03*
X79617000Y-61057000D03*
X79617000Y-65557000D03*
D26*
X88199800Y-73410800D03*
X92899800Y-73410800D03*
D14*
X87082700Y-42552300D03*
X87082700Y-44452300D03*
X87158900Y-48097200D03*
X87158900Y-46197200D03*
M02*
