%TF.GenerationSoftware,KiCad,Pcbnew,(5.1.8)-1*%
%TF.CreationDate,2021-04-18T19:42:35-04:00*%
%TF.ProjectId,AndrewPowerbank,416e6472-6577-4506-9f77-657262616e6b,rev?*%
%TF.SameCoordinates,Original*%
%TF.FileFunction,Copper,L1,Top*%
%TF.FilePolarity,Positive*%
%FSLAX46Y46*%
G04 Gerber Fmt 4.6, Leading zero omitted, Abs format (unit mm)*
G04 Created by KiCad (PCBNEW (5.1.8)-1) date 2021-04-18 19:42:35*
%MOMM*%
%LPD*%
G01*
G04 APERTURE LIST*
%TA.AperFunction,SMDPad,CuDef*%
%ADD10R,2.500000X5.000000*%
%TD*%
%TA.AperFunction,SMDPad,CuDef*%
%ADD11R,0.900000X2.800000*%
%TD*%
%TA.AperFunction,ComponentPad*%
%ADD12C,1.900000*%
%TD*%
%TA.AperFunction,ComponentPad*%
%ADD13R,1.900000X1.900000*%
%TD*%
%TA.AperFunction,SMDPad,CuDef*%
%ADD14R,0.700000X1.300000*%
%TD*%
%TA.AperFunction,SMDPad,CuDef*%
%ADD15R,7.315200X2.590800*%
%TD*%
%TA.AperFunction,SMDPad,CuDef*%
%ADD16R,1.300000X0.700000*%
%TD*%
%TA.AperFunction,SMDPad,CuDef*%
%ADD17R,1.000000X1.250000*%
%TD*%
%TA.AperFunction,SMDPad,CuDef*%
%ADD18R,1.250000X1.000000*%
%TD*%
%TA.AperFunction,SMDPad,CuDef*%
%ADD19R,1.200000X1.200000*%
%TD*%
%TA.AperFunction,SMDPad,CuDef*%
%ADD20R,1.900000X1.900000*%
%TD*%
%TA.AperFunction,SMDPad,CuDef*%
%ADD21R,1.450000X1.300000*%
%TD*%
%TA.AperFunction,SMDPad,CuDef*%
%ADD22R,1.600000X1.400000*%
%TD*%
%TA.AperFunction,SMDPad,CuDef*%
%ADD23R,0.400000X1.350000*%
%TD*%
%TA.AperFunction,SMDPad,CuDef*%
%ADD24R,0.800000X0.900000*%
%TD*%
%TA.AperFunction,ComponentPad*%
%ADD25C,2.400000*%
%TD*%
%TA.AperFunction,SMDPad,CuDef*%
%ADD26R,2.700000X2.700000*%
%TD*%
%TA.AperFunction,SMDPad,CuDef*%
%ADD27R,0.810000X0.260000*%
%TD*%
%TA.AperFunction,SMDPad,CuDef*%
%ADD28R,0.260000X0.810000*%
%TD*%
%TA.AperFunction,SMDPad,CuDef*%
%ADD29R,0.340000X0.810000*%
%TD*%
%TA.AperFunction,SMDPad,CuDef*%
%ADD30R,0.810000X0.340000*%
%TD*%
%TA.AperFunction,ViaPad*%
%ADD31C,0.800000*%
%TD*%
%TA.AperFunction,Conductor*%
%ADD32C,0.250000*%
%TD*%
%TA.AperFunction,Conductor*%
%ADD33C,0.340000*%
%TD*%
%TA.AperFunction,Conductor*%
%ADD34C,0.750000*%
%TD*%
%TA.AperFunction,Conductor*%
%ADD35C,0.500000*%
%TD*%
%TA.AperFunction,Conductor*%
%ADD36C,0.400000*%
%TD*%
%TA.AperFunction,Conductor*%
%ADD37C,0.200000*%
%TD*%
%TA.AperFunction,Conductor*%
%ADD38C,0.254000*%
%TD*%
%TA.AperFunction,Conductor*%
%ADD39C,0.100000*%
%TD*%
G04 APERTURE END LIST*
D10*
%TO.P,J3,S2*%
%TO.N,GND*%
X60283520Y-82326280D03*
%TO.P,J3,S1*%
X74783520Y-82326280D03*
D11*
%TO.P,J3,03*%
%TO.N,Net-(J3-Pad03)*%
X66533520Y-84576280D03*
%TO.P,J3,01*%
%TO.N,+5V*%
X71033520Y-84576280D03*
%TO.P,J3,02*%
%TO.N,Net-(J3-Pad02)*%
X68533520Y-84576280D03*
%TO.P,J3,04*%
%TO.N,GND*%
X64033520Y-84576280D03*
%TD*%
D12*
%TO.P,J1,2*%
%TO.N,/10KThermistor*%
X62879600Y-93624400D03*
D13*
%TO.P,J1,1*%
%TO.N,GND*%
X65379600Y-93624400D03*
%TD*%
D14*
%TO.P,R20,2*%
%TO.N,Net-(R20-Pad2)*%
X50739000Y-82562700D03*
%TO.P,R20,1*%
%TO.N,/10KThermistor*%
X52639000Y-82562700D03*
%TD*%
%TO.P,R19,2*%
%TO.N,GND*%
X57454840Y-83281520D03*
%TO.P,R19,1*%
%TO.N,/10KThermistor*%
X55554840Y-83281520D03*
%TD*%
D15*
%TO.P,L1,1*%
%TO.N,Net-(L1-Pad1)*%
X49022000Y-90513400D03*
%TO.P,L1,2*%
%TO.N,+BATT*%
X49022000Y-85813400D03*
%TD*%
D16*
%TO.P,R7,1*%
%TO.N,Net-(R7-Pad1)*%
X33528000Y-91374000D03*
%TO.P,R7,2*%
%TO.N,+BATT*%
X33528000Y-89474000D03*
%TD*%
%TO.P,R13,1*%
%TO.N,Net-(R13-Pad1)*%
X51485800Y-74361000D03*
%TO.P,R13,2*%
%TO.N,GND*%
X51485800Y-76261000D03*
%TD*%
D12*
%TO.P,J5,2*%
%TO.N,Net-(J5-Pad2)*%
X55716800Y-93624400D03*
D13*
%TO.P,J5,1*%
%TO.N,Net-(J5-Pad1)*%
X58216800Y-93624400D03*
%TD*%
D12*
%TO.P,J2,2*%
%TO.N,Net-(F1-Pad1)*%
X69991600Y-93624400D03*
D13*
%TO.P,J2,1*%
%TO.N,GND*%
X72491600Y-93624400D03*
%TD*%
%TO.P,C7,1*%
%TO.N,+BATT*%
%TA.AperFunction,SMDPad,CuDef*%
G36*
G01*
X43838580Y-80238890D02*
X43838580Y-80751390D01*
G75*
G02*
X43619830Y-80970140I-218750J0D01*
G01*
X43182330Y-80970140D01*
G75*
G02*
X42963580Y-80751390I0J218750D01*
G01*
X42963580Y-80238890D01*
G75*
G02*
X43182330Y-80020140I218750J0D01*
G01*
X43619830Y-80020140D01*
G75*
G02*
X43838580Y-80238890I0J-218750D01*
G01*
G37*
%TD.AperFunction*%
%TO.P,C7,2*%
%TO.N,GND*%
%TA.AperFunction,SMDPad,CuDef*%
G36*
G01*
X42263580Y-80238890D02*
X42263580Y-80751390D01*
G75*
G02*
X42044830Y-80970140I-218750J0D01*
G01*
X41607330Y-80970140D01*
G75*
G02*
X41388580Y-80751390I0J218750D01*
G01*
X41388580Y-80238890D01*
G75*
G02*
X41607330Y-80020140I218750J0D01*
G01*
X42044830Y-80020140D01*
G75*
G02*
X42263580Y-80238890I0J-218750D01*
G01*
G37*
%TD.AperFunction*%
%TD*%
D17*
%TO.P,C1,1*%
%TO.N,+5V*%
X73112120Y-87330280D03*
%TO.P,C1,2*%
%TO.N,GND*%
X75112120Y-87330280D03*
%TD*%
%TO.P,C2,2*%
%TO.N,VBUS*%
X36013900Y-80568800D03*
%TO.P,C2,1*%
%TO.N,GND*%
X34013900Y-80568800D03*
%TD*%
%TO.P,C3,1*%
%TO.N,/Battery+*%
%TA.AperFunction,SMDPad,CuDef*%
G36*
G01*
X47649680Y-73928950D02*
X47649680Y-73416450D01*
G75*
G02*
X47868430Y-73197700I218750J0D01*
G01*
X48305930Y-73197700D01*
G75*
G02*
X48524680Y-73416450I0J-218750D01*
G01*
X48524680Y-73928950D01*
G75*
G02*
X48305930Y-74147700I-218750J0D01*
G01*
X47868430Y-74147700D01*
G75*
G02*
X47649680Y-73928950I0J218750D01*
G01*
G37*
%TD.AperFunction*%
%TO.P,C3,2*%
%TO.N,GND*%
%TA.AperFunction,SMDPad,CuDef*%
G36*
G01*
X49224680Y-73928950D02*
X49224680Y-73416450D01*
G75*
G02*
X49443430Y-73197700I218750J0D01*
G01*
X49880930Y-73197700D01*
G75*
G02*
X50099680Y-73416450I0J-218750D01*
G01*
X50099680Y-73928950D01*
G75*
G02*
X49880930Y-74147700I-218750J0D01*
G01*
X49443430Y-74147700D01*
G75*
G02*
X49224680Y-73928950I0J218750D01*
G01*
G37*
%TD.AperFunction*%
%TD*%
%TO.P,C4,2*%
%TO.N,GND*%
X34534600Y-87833200D03*
%TO.P,C4,1*%
%TO.N,+BATT*%
X36534600Y-87833200D03*
%TD*%
%TO.P,C5,2*%
%TO.N,GND*%
%TA.AperFunction,SMDPad,CuDef*%
G36*
G01*
X43477700Y-78051950D02*
X43477700Y-78564450D01*
G75*
G02*
X43258950Y-78783200I-218750J0D01*
G01*
X42821450Y-78783200D01*
G75*
G02*
X42602700Y-78564450I0J218750D01*
G01*
X42602700Y-78051950D01*
G75*
G02*
X42821450Y-77833200I218750J0D01*
G01*
X43258950Y-77833200D01*
G75*
G02*
X43477700Y-78051950I0J-218750D01*
G01*
G37*
%TD.AperFunction*%
%TO.P,C5,1*%
%TO.N,VBUS*%
%TA.AperFunction,SMDPad,CuDef*%
G36*
G01*
X45052700Y-78051950D02*
X45052700Y-78564450D01*
G75*
G02*
X44833950Y-78783200I-218750J0D01*
G01*
X44396450Y-78783200D01*
G75*
G02*
X44177700Y-78564450I0J218750D01*
G01*
X44177700Y-78051950D01*
G75*
G02*
X44396450Y-77833200I218750J0D01*
G01*
X44833950Y-77833200D01*
G75*
G02*
X45052700Y-78051950I0J-218750D01*
G01*
G37*
%TD.AperFunction*%
%TD*%
%TO.P,C6,1*%
%TO.N,+BATT*%
X36560000Y-85674200D03*
%TO.P,C6,2*%
%TO.N,GND*%
X34560000Y-85674200D03*
%TD*%
%TO.P,C8,2*%
%TO.N,Net-(C8-Pad2)*%
%TA.AperFunction,SMDPad,CuDef*%
G36*
G01*
X40536150Y-96920800D02*
X41048650Y-96920800D01*
G75*
G02*
X41267400Y-97139550I0J-218750D01*
G01*
X41267400Y-97577050D01*
G75*
G02*
X41048650Y-97795800I-218750J0D01*
G01*
X40536150Y-97795800D01*
G75*
G02*
X40317400Y-97577050I0J218750D01*
G01*
X40317400Y-97139550D01*
G75*
G02*
X40536150Y-96920800I218750J0D01*
G01*
G37*
%TD.AperFunction*%
%TO.P,C8,1*%
%TO.N,+5V*%
%TA.AperFunction,SMDPad,CuDef*%
G36*
G01*
X40536150Y-95345800D02*
X41048650Y-95345800D01*
G75*
G02*
X41267400Y-95564550I0J-218750D01*
G01*
X41267400Y-96002050D01*
G75*
G02*
X41048650Y-96220800I-218750J0D01*
G01*
X40536150Y-96220800D01*
G75*
G02*
X40317400Y-96002050I0J218750D01*
G01*
X40317400Y-95564550D01*
G75*
G02*
X40536150Y-95345800I218750J0D01*
G01*
G37*
%TD.AperFunction*%
%TD*%
D18*
%TO.P,C9,1*%
%TO.N,+5V*%
X42519600Y-95859600D03*
%TO.P,C9,2*%
%TO.N,GND*%
X42519600Y-97859600D03*
%TD*%
%TO.P,C10,2*%
%TO.N,+5V*%
%TA.AperFunction,SMDPad,CuDef*%
G36*
G01*
X41425198Y-92710200D02*
X44325202Y-92710200D01*
G75*
G02*
X44575200Y-92960198I0J-249998D01*
G01*
X44575200Y-93585202D01*
G75*
G02*
X44325202Y-93835200I-249998J0D01*
G01*
X41425198Y-93835200D01*
G75*
G02*
X41175200Y-93585202I0J249998D01*
G01*
X41175200Y-92960198D01*
G75*
G02*
X41425198Y-92710200I249998J0D01*
G01*
G37*
%TD.AperFunction*%
%TO.P,C10,1*%
%TO.N,GND*%
%TA.AperFunction,SMDPad,CuDef*%
G36*
G01*
X41425198Y-88435200D02*
X44325202Y-88435200D01*
G75*
G02*
X44575200Y-88685198I0J-249998D01*
G01*
X44575200Y-89310202D01*
G75*
G02*
X44325202Y-89560200I-249998J0D01*
G01*
X41425198Y-89560200D01*
G75*
G02*
X41175200Y-89310202I0J249998D01*
G01*
X41175200Y-88685198D01*
G75*
G02*
X41425198Y-88435200I249998J0D01*
G01*
G37*
%TD.AperFunction*%
%TD*%
D19*
%TO.P,D1,2*%
%TO.N,Net-(D1-Pad2)*%
X54541600Y-78333600D03*
%TO.P,D1,1*%
%TO.N,Net-(D1-Pad1)*%
X52341600Y-78333600D03*
%TD*%
%TO.P,D2,2*%
%TO.N,Net-(D2-Pad2)*%
X54528900Y-80352900D03*
%TO.P,D2,1*%
%TO.N,Net-(D2-Pad1)*%
X52328900Y-80352900D03*
%TD*%
%TO.P,D3,1*%
%TO.N,Net-(D3-Pad1)*%
X50698400Y-97747000D03*
%TO.P,D3,2*%
%TO.N,Net-(D3-Pad2)*%
X50698400Y-95547000D03*
%TD*%
%TO.P,D4,1*%
%TO.N,GND*%
X54660800Y-88689000D03*
%TO.P,D4,2*%
%TO.N,Net-(D4-Pad2)*%
X54660800Y-90889000D03*
%TD*%
%TO.P,F1,1*%
%TO.N,Net-(F1-Pad1)*%
%TA.AperFunction,SMDPad,CuDef*%
G36*
G01*
X76621800Y-96513000D02*
X75371800Y-96513000D01*
G75*
G02*
X75121800Y-96263000I0J250000D01*
G01*
X75121800Y-95513000D01*
G75*
G02*
X75371800Y-95263000I250000J0D01*
G01*
X76621800Y-95263000D01*
G75*
G02*
X76871800Y-95513000I0J-250000D01*
G01*
X76871800Y-96263000D01*
G75*
G02*
X76621800Y-96513000I-250000J0D01*
G01*
G37*
%TD.AperFunction*%
%TO.P,F1,2*%
%TO.N,/Battery+*%
%TA.AperFunction,SMDPad,CuDef*%
G36*
G01*
X76621800Y-93713000D02*
X75371800Y-93713000D01*
G75*
G02*
X75121800Y-93463000I0J250000D01*
G01*
X75121800Y-92713000D01*
G75*
G02*
X75371800Y-92463000I250000J0D01*
G01*
X76621800Y-92463000D01*
G75*
G02*
X76871800Y-92713000I0J-250000D01*
G01*
X76871800Y-93463000D01*
G75*
G02*
X76621800Y-93713000I-250000J0D01*
G01*
G37*
%TD.AperFunction*%
%TD*%
D20*
%TO.P,J4,11*%
%TO.N,GND*%
X39744800Y-73253600D03*
%TO.P,J4,10*%
X42144800Y-73253600D03*
D21*
%TO.P,J4,9*%
X44369800Y-73253600D03*
%TO.P,J4,8*%
X37519800Y-73253600D03*
D22*
%TO.P,J4,7*%
X37744800Y-75703600D03*
%TO.P,J4,6*%
X44144800Y-75703600D03*
D23*
%TO.P,J4,5*%
X39644800Y-75928600D03*
%TO.P,J4,4*%
%TO.N,Net-(J4-Pad4)*%
X40294800Y-75928600D03*
%TO.P,J4,3*%
%TO.N,Net-(J4-Pad3)*%
X40944800Y-75928600D03*
%TO.P,J4,2*%
%TO.N,Net-(J4-Pad2)*%
X41594800Y-75928600D03*
%TO.P,J4,1*%
%TO.N,VBUS*%
X42244800Y-75928600D03*
%TD*%
D24*
%TO.P,Q1,1*%
%TO.N,Net-(Q1-Pad1)*%
X46903600Y-100364000D03*
%TO.P,Q1,2*%
%TO.N,GND*%
X48803600Y-100364000D03*
%TO.P,Q1,3*%
%TO.N,Net-(D3-Pad1)*%
X47853600Y-98264000D03*
%TD*%
D16*
%TO.P,R1,2*%
%TO.N,Net-(J3-Pad03)*%
X67000120Y-86913680D03*
%TO.P,R1,1*%
%TO.N,+5V*%
X67000120Y-88813680D03*
%TD*%
D14*
%TO.P,R2,1*%
%TO.N,Net-(J3-Pad03)*%
X65206920Y-87330280D03*
%TO.P,R2,2*%
%TO.N,GND*%
X63306920Y-87330280D03*
%TD*%
D16*
%TO.P,R3,2*%
%TO.N,+5V*%
X69006720Y-88813680D03*
%TO.P,R3,1*%
%TO.N,Net-(J3-Pad02)*%
X69006720Y-86913680D03*
%TD*%
D14*
%TO.P,R4,1*%
%TO.N,GND*%
X73766720Y-89438480D03*
%TO.P,R4,2*%
%TO.N,Net-(J3-Pad02)*%
X71866720Y-89438480D03*
%TD*%
%TO.P,R5,2*%
%TO.N,VBUS*%
X49425900Y-82372200D03*
%TO.P,R5,1*%
%TO.N,Net-(R5-Pad1)*%
X47525900Y-82372200D03*
%TD*%
%TO.P,R6,1*%
%TO.N,GND*%
X44114720Y-82362040D03*
%TO.P,R6,2*%
%TO.N,Net-(R5-Pad1)*%
X46014720Y-82362040D03*
%TD*%
D16*
%TO.P,R8,2*%
%TO.N,GND*%
X33528000Y-94625200D03*
%TO.P,R8,1*%
%TO.N,Net-(R7-Pad1)*%
X33528000Y-92725200D03*
%TD*%
D14*
%TO.P,R9,1*%
%TO.N,Net-(J5-Pad2)*%
X34173200Y-96393000D03*
%TO.P,R9,2*%
%TO.N,+BATT*%
X32273200Y-96393000D03*
%TD*%
D16*
%TO.P,R10,1*%
%TO.N,Net-(R10-Pad1)*%
X53403500Y-74361000D03*
%TO.P,R10,2*%
%TO.N,GND*%
X53403500Y-76261000D03*
%TD*%
%TO.P,R11,2*%
%TO.N,Net-(D1-Pad2)*%
X56426100Y-78394600D03*
%TO.P,R11,1*%
%TO.N,VBUS*%
X56426100Y-76494600D03*
%TD*%
%TO.P,R12,2*%
%TO.N,Net-(D2-Pad2)*%
X56413400Y-79745800D03*
%TO.P,R12,1*%
%TO.N,VBUS*%
X56413400Y-81645800D03*
%TD*%
%TO.P,R14,2*%
%TO.N,Net-(C8-Pad2)*%
X39014400Y-97571600D03*
%TO.P,R14,1*%
%TO.N,+5V*%
X39014400Y-95671600D03*
%TD*%
D14*
%TO.P,R15,2*%
%TO.N,Net-(C8-Pad2)*%
X41183600Y-99618800D03*
%TO.P,R15,1*%
%TO.N,GND*%
X39283600Y-99618800D03*
%TD*%
%TO.P,R16,1*%
%TO.N,+5V*%
X47106800Y-96469200D03*
%TO.P,R16,2*%
%TO.N,Net-(D3-Pad2)*%
X49006800Y-96469200D03*
%TD*%
%TO.P,R17,1*%
%TO.N,+5V*%
X44460200Y-99771200D03*
%TO.P,R17,2*%
%TO.N,Net-(Q1-Pad1)*%
X42560200Y-99771200D03*
%TD*%
%TO.P,R18,2*%
%TO.N,Net-(D4-Pad2)*%
X49006800Y-94335600D03*
%TO.P,R18,1*%
%TO.N,+5V*%
X47106800Y-94335600D03*
%TD*%
D25*
%TO.P,TP1,1*%
%TO.N,VBUS*%
X38623240Y-82113120D03*
%TD*%
%TO.P,TP2,1*%
%TO.N,/Battery+*%
X57594500Y-73571100D03*
%TD*%
%TO.P,TP3,1*%
%TO.N,+BATT*%
X43014900Y-86372700D03*
%TD*%
%TO.P,TP4,1*%
%TO.N,Net-(J5-Pad2)*%
X57099200Y-90792300D03*
%TD*%
%TO.P,TP5,1*%
%TO.N,Net-(Q1-Pad1)*%
X52044600Y-100787200D03*
%TD*%
D26*
%TO.P,U1,21*%
%TO.N,Net-(U1-Pad10)*%
X48260000Y-78308200D03*
D27*
%TO.P,U1,20*%
%TO.N,+BATT*%
X46305000Y-79308200D03*
%TO.P,U1,19*%
%TO.N,VBUS*%
X46305000Y-78808200D03*
%TO.P,U1,18*%
X46305000Y-78308200D03*
%TO.P,U1,17*%
X46305000Y-77808200D03*
%TO.P,U1,16*%
%TO.N,/Battery+*%
X46305000Y-77308200D03*
D28*
%TO.P,U1,15*%
X47260000Y-76353200D03*
%TO.P,U1,14*%
X47760000Y-76353200D03*
%TO.P,U1,13*%
%TO.N,Net-(R13-Pad1)*%
X48260000Y-76353200D03*
%TO.P,U1,12*%
%TO.N,Net-(R10-Pad1)*%
X48760000Y-76353200D03*
%TO.P,U1,11*%
%TO.N,GND*%
X49260000Y-76353200D03*
D27*
%TO.P,U1,10*%
%TO.N,Net-(U1-Pad10)*%
X50215000Y-77308200D03*
%TO.P,U1,9*%
%TO.N,VBUS*%
X50215000Y-77808200D03*
%TO.P,U1,8*%
%TO.N,Net-(D1-Pad1)*%
X50215000Y-78308200D03*
%TO.P,U1,7*%
%TO.N,Net-(D2-Pad1)*%
X50215000Y-78808200D03*
%TO.P,U1,6*%
%TO.N,Net-(U1-Pad6)*%
X50215000Y-79308200D03*
D28*
%TO.P,U1,5*%
%TO.N,Net-(R20-Pad2)*%
X49260000Y-80263200D03*
%TO.P,U1,4*%
%TO.N,VBUS*%
X48760000Y-80263200D03*
%TO.P,U1,3*%
X48260000Y-80263200D03*
%TO.P,U1,2*%
%TO.N,Net-(R5-Pad1)*%
X47760000Y-80263200D03*
%TO.P,U1,1*%
%TO.N,+BATT*%
X47260000Y-80263200D03*
%TD*%
D26*
%TO.P,U2,17*%
%TO.N,GND*%
X38100000Y-92252800D03*
D29*
%TO.P,U2,16*%
%TO.N,+5V*%
X39075000Y-94207800D03*
%TO.P,U2,15*%
X38425000Y-94207800D03*
%TO.P,U2,14*%
%TO.N,Net-(C8-Pad2)*%
X37775000Y-94207800D03*
%TO.P,U2,13*%
%TO.N,GND*%
X37125000Y-94207800D03*
D30*
%TO.P,U2,12*%
%TO.N,Net-(Q1-Pad1)*%
X36145000Y-93227800D03*
%TO.P,U2,11*%
%TO.N,Net-(J5-Pad1)*%
X36145000Y-92577800D03*
%TO.P,U2,10*%
%TO.N,GND*%
X36145000Y-91927800D03*
%TO.P,U2,9*%
%TO.N,Net-(R7-Pad1)*%
X36145000Y-91277800D03*
D29*
%TO.P,U2,8*%
%TO.N,+BATT*%
X37125000Y-90297800D03*
%TO.P,U2,7*%
%TO.N,GND*%
X37775000Y-90297800D03*
%TO.P,U2,6*%
X38425000Y-90297800D03*
%TO.P,U2,5*%
X39075000Y-90297800D03*
D30*
%TO.P,U2,4*%
%TO.N,Net-(L1-Pad1)*%
X40055000Y-91277800D03*
%TO.P,U2,3*%
X40055000Y-91927800D03*
%TO.P,U2,2*%
%TO.N,N/C*%
X40055000Y-92577800D03*
%TO.P,U2,1*%
%TO.N,+5V*%
X40055000Y-93227800D03*
%TD*%
D31*
%TO.N,GND*%
X35915600Y-76784200D03*
X35915600Y-75666600D03*
X61742320Y-86822280D03*
X40233600Y-99618800D03*
X32689800Y-87579200D03*
X32689800Y-85521800D03*
X45961300Y-74409300D03*
X45961300Y-72504300D03*
X45961300Y-73469500D03*
X62783720Y-80370680D03*
X63672720Y-82301080D03*
X77566520Y-80980280D03*
X77617320Y-87177880D03*
X77617320Y-89336880D03*
X33502600Y-93675202D03*
X54305200Y-87096600D03*
X43942000Y-97891600D03*
X49199800Y-99454800D03*
X41757127Y-78011400D03*
X57472843Y-84881720D03*
X59441080Y-85509100D03*
X32788860Y-80566260D03*
X47714169Y-75084616D03*
X41798240Y-81627980D03*
X43133727Y-82607867D03*
X39075000Y-87620200D03*
%TO.N,+BATT*%
X41920696Y-82622201D03*
X41924539Y-84222201D03*
%TO.N,Net-(Q1-Pad1)*%
X46903601Y-99415600D03*
%TO.N,Net-(J5-Pad2)*%
X50241200Y-99847400D03*
X52171600Y-98258800D03*
%TO.N,Net-(R20-Pad2)*%
X50850800Y-80653701D03*
X51688998Y-82461100D03*
%TD*%
D32*
%TO.N,+5V*%
X39075000Y-95417900D02*
X38862000Y-95630900D01*
X39075000Y-94207800D02*
X39075000Y-95417900D01*
X38425000Y-95193900D02*
X38862000Y-95630900D01*
X38425000Y-94207800D02*
X38425000Y-95193900D01*
X39495000Y-94207800D02*
X39075000Y-94207800D01*
X40055000Y-93647800D02*
X39495000Y-94207800D01*
X40055000Y-93227800D02*
X40055000Y-93647800D01*
X40055000Y-93227800D02*
X40935000Y-93227800D01*
X40055000Y-93227800D02*
X40055000Y-94157000D01*
X40055000Y-94157000D02*
X40690800Y-94792800D01*
X40690800Y-94792800D02*
X40894000Y-94792800D01*
D33*
X40979900Y-93272700D02*
X40935000Y-93227800D01*
X43230800Y-93272700D02*
X40979900Y-93272700D01*
X40894000Y-94792800D02*
X41452800Y-94792800D01*
X40894000Y-95681700D02*
X40792400Y-95783300D01*
X40894000Y-94792800D02*
X40894000Y-95681700D01*
D32*
X47106800Y-97028000D02*
X46986100Y-97028000D01*
D33*
X40979900Y-93272700D02*
X40979900Y-94396100D01*
D32*
X43230800Y-93272700D02*
X41736100Y-93272700D01*
X41736100Y-93272700D02*
X41554400Y-93091000D01*
X41071800Y-93091000D02*
X40935000Y-93227800D01*
X41554400Y-93091000D02*
X41071800Y-93091000D01*
X43230800Y-93272700D02*
X44700100Y-93272700D01*
X44700100Y-93272700D02*
X44881800Y-93091000D01*
X44881800Y-93091000D02*
X45466000Y-93091000D01*
D34*
X71033520Y-86563080D02*
X71033520Y-84576280D01*
X71200520Y-86730080D02*
X71033520Y-86563080D01*
D33*
X73112120Y-87330280D02*
X73112120Y-87066880D01*
X73112120Y-87066880D02*
X72608320Y-86563080D01*
D35*
X45694600Y-94462600D02*
X45694600Y-93497400D01*
X45694600Y-93497400D02*
X45948600Y-93497400D01*
D33*
X71033520Y-84576280D02*
X71033520Y-83718280D01*
D35*
X71033520Y-84576280D02*
X71033520Y-86763980D01*
D33*
X72608320Y-86563080D02*
X72108180Y-86563080D01*
X72108180Y-86563080D02*
X71033520Y-86563080D01*
D36*
X56019501Y-87626899D02*
X54689201Y-86296599D01*
X56019501Y-89192299D02*
X56019501Y-87626899D01*
X57867201Y-89192299D02*
X56019501Y-89192299D01*
X53079601Y-92309999D02*
X52641500Y-92748100D01*
X54689201Y-86296599D02*
X53797101Y-86296599D01*
X59575700Y-90900798D02*
X57867201Y-89192299D01*
X46697900Y-92748100D02*
X45948600Y-93497400D01*
X59575700Y-93776800D02*
X59575700Y-90900798D01*
X59948309Y-94149409D02*
X59575700Y-93776800D01*
X61477389Y-94149409D02*
X59948309Y-94149409D01*
X72108180Y-86563080D02*
X72108180Y-88199080D01*
X72108180Y-88199080D02*
X72184260Y-88275160D01*
X72184260Y-88275160D02*
X72423402Y-88275160D01*
X52641500Y-92748100D02*
X46697900Y-92748100D01*
X72616721Y-90051281D02*
X74053930Y-91488490D01*
X72423402Y-88275160D02*
X72616721Y-88468479D01*
X53079601Y-87014099D02*
X53079601Y-92309999D01*
X72616721Y-88468479D02*
X72616721Y-90051281D01*
X74053930Y-91488490D02*
X76329542Y-91488490D01*
X76329542Y-91488490D02*
X77271810Y-92430758D01*
X62570360Y-95242380D02*
X61477389Y-94149409D01*
X77271810Y-92430758D02*
X77271810Y-96532246D01*
X53797101Y-86296599D02*
X53079601Y-87014099D01*
X76891046Y-96913010D02*
X71017456Y-96913010D01*
X77271810Y-96532246D02*
X76891046Y-96913010D01*
X71017456Y-96913010D02*
X69346826Y-95242380D01*
X69346826Y-95242380D02*
X62570360Y-95242380D01*
D32*
%TO.N,GND*%
X38425000Y-90297800D02*
X38425000Y-87355800D01*
X39075000Y-87620200D02*
X39075000Y-87620200D01*
X39075000Y-90297800D02*
X39075000Y-87620200D01*
X37125000Y-93227800D02*
X38100000Y-92252800D01*
X38100000Y-92252800D02*
X38100000Y-91694000D01*
X38100000Y-91694000D02*
X38425000Y-91369000D01*
D35*
X64033520Y-84576280D02*
X62159520Y-84576280D01*
X62159520Y-84576280D02*
X62159520Y-82515080D01*
X61970720Y-82326280D02*
X60283520Y-82326280D01*
X62159520Y-82515080D02*
X61970720Y-82326280D01*
D32*
X44144800Y-73478600D02*
X44369800Y-73253600D01*
X37519800Y-75478600D02*
X37744800Y-75703600D01*
D34*
X37519800Y-73253600D02*
X37519800Y-75478600D01*
D32*
X37969800Y-75928600D02*
X37744800Y-75703600D01*
D34*
X39470200Y-75928600D02*
X37795200Y-75928600D01*
D32*
X37744800Y-77063200D02*
X36525200Y-78282800D01*
X37744800Y-75703600D02*
X37744800Y-77063200D01*
X39644800Y-75928600D02*
X39644800Y-76941200D01*
X39086000Y-76941200D02*
X39196800Y-76941200D01*
X39086000Y-76941200D02*
X38730400Y-76941200D01*
X39492400Y-76941200D02*
X39166800Y-77266800D01*
X39644800Y-76941200D02*
X39492400Y-76941200D01*
X39492400Y-76941200D02*
X39086000Y-76941200D01*
X64033520Y-84576280D02*
X62972320Y-84576280D01*
X62453520Y-85095080D02*
X62453520Y-85349080D01*
X62972320Y-84576280D02*
X62453520Y-85095080D01*
X39075000Y-91277800D02*
X38100000Y-92252800D01*
X39075000Y-90297800D02*
X39075000Y-91277800D01*
X38425000Y-91927800D02*
X38100000Y-92252800D01*
X38425000Y-90297800D02*
X38425000Y-91927800D01*
X37775000Y-91927800D02*
X38100000Y-92252800D01*
X37775000Y-90297800D02*
X37775000Y-91927800D01*
D33*
X43230800Y-88997700D02*
X40382100Y-88997700D01*
X39776400Y-88392000D02*
X39776400Y-86918800D01*
X40382100Y-88997700D02*
X39776400Y-88392000D01*
D34*
X74783520Y-82326280D02*
X74783520Y-83302680D01*
X74783520Y-82326280D02*
X74783520Y-83404280D01*
D32*
X39075000Y-90297800D02*
X39801000Y-90297800D01*
D35*
X37775000Y-90297800D02*
X39075000Y-90297800D01*
D33*
X39075000Y-88534600D02*
X40690800Y-86918800D01*
X39075000Y-90297800D02*
X39075000Y-88534600D01*
D35*
X62453520Y-86476880D02*
X63306920Y-87330280D01*
X62453520Y-85349080D02*
X62453520Y-86476880D01*
D33*
X39283600Y-99618800D02*
X40233600Y-99618800D01*
D32*
X39446200Y-99502000D02*
X39227800Y-99720400D01*
D35*
X42519600Y-97859600D02*
X42475400Y-97859600D01*
D33*
X33883600Y-94625200D02*
X33538200Y-94625200D01*
X33538200Y-94625200D02*
X33375600Y-94462600D01*
X33528000Y-93700602D02*
X33502600Y-93675202D01*
X33528000Y-94625200D02*
X33528000Y-93700602D01*
X33732601Y-93445201D02*
X33502600Y-93675202D01*
X34474001Y-93445201D02*
X33732601Y-93445201D01*
X34548001Y-93371201D02*
X34474001Y-93445201D01*
X34548001Y-92096399D02*
X34548001Y-93371201D01*
X34716600Y-91927800D02*
X34548001Y-92096399D01*
X36145000Y-91927800D02*
X34716600Y-91927800D01*
X42519600Y-97859600D02*
X42500800Y-97859600D01*
X54660800Y-87452200D02*
X54305200Y-87096600D01*
X54660800Y-88689000D02*
X54660800Y-87452200D01*
X39283600Y-99405400D02*
X39283600Y-99618800D01*
X42519600Y-97859600D02*
X42373800Y-97859600D01*
D32*
X43910000Y-97859600D02*
X43942000Y-97891600D01*
X42519600Y-97859600D02*
X43910000Y-97859600D01*
D33*
X39283600Y-99227600D02*
X39283600Y-99618800D01*
X38849010Y-98793010D02*
X39283600Y-99227600D01*
X37844161Y-98793010D02*
X38849010Y-98793010D01*
X37125000Y-95011601D02*
X37279990Y-95166591D01*
X37259790Y-98208639D02*
X37844161Y-98793010D01*
X37259790Y-95186791D02*
X37259790Y-98208639D01*
X37279990Y-95166591D02*
X37259790Y-95186791D01*
X37125000Y-94207800D02*
X37125000Y-95011601D01*
D32*
X48803600Y-99851000D02*
X49199800Y-99454800D01*
X48803600Y-100364000D02*
X48803600Y-99851000D01*
D34*
X32842200Y-85674200D02*
X32689800Y-85521800D01*
X34560000Y-85674200D02*
X32842200Y-85674200D01*
D32*
X32943800Y-87833200D02*
X32689800Y-87579200D01*
X34534600Y-87833200D02*
X32943800Y-87833200D01*
X37707800Y-75666600D02*
X37744800Y-75703600D01*
X35915600Y-75666600D02*
X37707800Y-75666600D01*
X36525200Y-78282800D02*
X35052000Y-78282800D01*
X34013900Y-79320900D02*
X34013900Y-80568800D01*
X35052000Y-78282800D02*
X34013900Y-79320900D01*
D33*
X51393600Y-76353200D02*
X51485800Y-76261000D01*
X49260000Y-76353200D02*
X51393600Y-76353200D01*
X51485800Y-76261000D02*
X53403500Y-76261000D01*
D32*
X53403500Y-76261000D02*
X54378501Y-75285999D01*
X54378501Y-73750999D02*
X54313501Y-73685999D01*
X54313501Y-73685999D02*
X50072961Y-73685999D01*
X54378501Y-75285999D02*
X54378501Y-73750999D01*
X57454840Y-83281520D02*
X57454840Y-84475280D01*
X44114720Y-82362040D02*
X44114720Y-81970880D01*
X42053927Y-78308200D02*
X41757127Y-78011400D01*
X43040200Y-78308200D02*
X42053927Y-78308200D01*
X57454840Y-84863717D02*
X57472843Y-84881720D01*
X57454840Y-84475280D02*
X57454840Y-84863717D01*
X45961300Y-72504300D02*
X45961300Y-73469500D01*
X48326075Y-74472710D02*
X47714169Y-75084616D01*
X48862170Y-74472710D02*
X48326075Y-74472710D01*
X49662180Y-73672700D02*
X48862170Y-74472710D01*
D36*
X43379554Y-82362040D02*
X43133727Y-82607867D01*
X44114720Y-82362040D02*
X43379554Y-82362040D01*
X41826080Y-81600140D02*
X41798240Y-81627980D01*
X41826080Y-80495140D02*
X41826080Y-81600140D01*
D32*
X39075000Y-87620200D02*
X39776400Y-86918800D01*
%TO.N,VBUS*%
X45516800Y-78701900D02*
X45986700Y-78701900D01*
X45173900Y-78714600D02*
X45643800Y-78714600D01*
X48760000Y-80263200D02*
X48760000Y-81059400D01*
X48260000Y-80263200D02*
X48260000Y-81051400D01*
D36*
X42244800Y-75928600D02*
X42244800Y-77211400D01*
D33*
X46305000Y-78808200D02*
X46305000Y-78308200D01*
X46305000Y-78308200D02*
X46305000Y-77808200D01*
D36*
X42244800Y-77211400D02*
X40644600Y-77211400D01*
X37287200Y-80568800D02*
X36013900Y-80568800D01*
X40644600Y-77211400D02*
X38042850Y-79813150D01*
X42244800Y-77211400D02*
X45143900Y-77211400D01*
D33*
X51231800Y-77536400D02*
X51231800Y-77279500D01*
X50960000Y-77808200D02*
X51231800Y-77536400D01*
X50215000Y-77808200D02*
X50960000Y-77808200D01*
X49949100Y-81051400D02*
X48752000Y-81051400D01*
X50203100Y-81305400D02*
X50126900Y-81305400D01*
X50203100Y-81305400D02*
X49949100Y-81051400D01*
X49425900Y-82006400D02*
X49425900Y-82372200D01*
X50126900Y-81305400D02*
X49425900Y-82006400D01*
X56426100Y-77292200D02*
X56808499Y-77674599D01*
X56426100Y-76494600D02*
X56426100Y-77292200D01*
X57446101Y-80379101D02*
X57359401Y-80465801D01*
X57446101Y-77748599D02*
X57446101Y-80379101D01*
X57372101Y-77674599D02*
X57446101Y-77748599D01*
X56808499Y-77674599D02*
X57372101Y-77674599D01*
X57359401Y-80465801D02*
X56579899Y-80465801D01*
X56413400Y-80632300D02*
X56413400Y-81645800D01*
X56579899Y-80465801D02*
X56413400Y-80632300D01*
X50321401Y-81423701D02*
X50203100Y-81305400D01*
X53733699Y-81423701D02*
X50321401Y-81423701D01*
X53955798Y-81645800D02*
X53733699Y-81423701D01*
X56413400Y-81645800D02*
X53955798Y-81645800D01*
D32*
X45115200Y-77808200D02*
X44615200Y-78308200D01*
X46305000Y-77808200D02*
X45115200Y-77808200D01*
X45115200Y-78808200D02*
X44615200Y-78308200D01*
X46462100Y-78651100D02*
X46305000Y-78808200D01*
X46584999Y-78651100D02*
X46462100Y-78651100D01*
X46584999Y-77966699D02*
X46584999Y-78651100D01*
X46426500Y-77808200D02*
X46584999Y-77966699D01*
X46305000Y-77808200D02*
X46426500Y-77808200D01*
D33*
X51231800Y-77279500D02*
X54521100Y-77279500D01*
X55306000Y-76494600D02*
X56426100Y-76494600D01*
X54521100Y-77279500D02*
X55306000Y-76494600D01*
D36*
X45143900Y-78087700D02*
X45364400Y-78308200D01*
D34*
X45364400Y-78308200D02*
X46305000Y-78308200D01*
X44615200Y-78308200D02*
X45364400Y-78308200D01*
D33*
X48260000Y-81051400D02*
X48488600Y-81051400D01*
X48488600Y-81051400D02*
X48752000Y-81051400D01*
D36*
X45222160Y-78308200D02*
X45364400Y-78308200D01*
D33*
X45115200Y-78808200D02*
X46305000Y-78808200D01*
X44722160Y-78808200D02*
X44429680Y-79100680D01*
D36*
X44429680Y-79100680D02*
X45222160Y-78308200D01*
D33*
X45115200Y-78808200D02*
X44722160Y-78808200D01*
X46025500Y-78087700D02*
X46305000Y-77808200D01*
X45143900Y-78087700D02*
X46025500Y-78087700D01*
X45240520Y-77808200D02*
X45143900Y-77904820D01*
X46305000Y-77808200D02*
X45240520Y-77808200D01*
D36*
X45143900Y-77904820D02*
X45143900Y-78087700D01*
X45143900Y-77211400D02*
X45143900Y-77904820D01*
X38042850Y-79813150D02*
X37287200Y-80568800D01*
X37287200Y-80777080D02*
X38623240Y-82113120D01*
X37287200Y-80568800D02*
X37287200Y-80777080D01*
X44170600Y-79359760D02*
X44429680Y-79100680D01*
X40891460Y-82740500D02*
X40891460Y-80079700D01*
X40891460Y-80079700D02*
X41611400Y-79359760D01*
X41573161Y-83422201D02*
X40891460Y-82740500D01*
X48195901Y-83422201D02*
X41573161Y-83422201D01*
X48488600Y-83129502D02*
X48195901Y-83422201D01*
X41611400Y-79359760D02*
X44170600Y-79359760D01*
X48488600Y-81051400D02*
X48488600Y-83129502D01*
D35*
%TO.N,/Battery+*%
X47591600Y-76352400D02*
X47091600Y-76352400D01*
X46880000Y-76353200D02*
X47260000Y-76353200D01*
X46304200Y-76354000D02*
X46305000Y-76353200D01*
X46305000Y-76353200D02*
X46880000Y-76353200D01*
X46304200Y-77164200D02*
X46304200Y-76354000D01*
X75996800Y-93088000D02*
X76060300Y-93024500D01*
X76060300Y-92138500D02*
X60799980Y-92138500D01*
X76060300Y-93024500D02*
X76060300Y-92138500D01*
X60799980Y-92138500D02*
X60675718Y-92014238D01*
X58322843Y-80888203D02*
X58066111Y-80631471D01*
X60675718Y-92014238D02*
X60675717Y-90445153D01*
X58322843Y-88092279D02*
X58322843Y-80888203D01*
X60675717Y-90445153D02*
X58322843Y-88092279D01*
X58066111Y-80631471D02*
X58066111Y-76324609D01*
X58066111Y-76324609D02*
X57436101Y-75694599D01*
X57436101Y-75694599D02*
X56547101Y-75694599D01*
X57594500Y-73571100D02*
X56026831Y-75138769D01*
X56026831Y-75138769D02*
X56026831Y-75174329D01*
X56547101Y-75694599D02*
X56026831Y-75174329D01*
X56026831Y-75174329D02*
X56026831Y-75168271D01*
X56026831Y-75168271D02*
X54953511Y-74094951D01*
X54953511Y-73512823D02*
X54551677Y-73110989D01*
X54953511Y-74094951D02*
X54953511Y-73512823D01*
X46304200Y-75674220D02*
X46304200Y-76354000D01*
X49012190Y-72747690D02*
X48087180Y-73672700D01*
X50157942Y-72747690D02*
X49012190Y-72747690D01*
X50521241Y-73110989D02*
X50157942Y-72747690D01*
X54551677Y-73110989D02*
X50521241Y-73110989D01*
X46811301Y-75167119D02*
X46304200Y-75674220D01*
X46811301Y-74438139D02*
X46811301Y-75167119D01*
X47576740Y-73672700D02*
X46811301Y-74438139D01*
X48087180Y-73672700D02*
X47576740Y-73672700D01*
D33*
%TO.N,+BATT*%
X43604080Y-80543400D02*
X43604080Y-80594300D01*
D32*
X37074200Y-90424800D02*
X37074200Y-89576000D01*
D35*
X43027600Y-84607400D02*
X43027600Y-86207600D01*
D32*
X43027600Y-84607400D02*
X42285920Y-84607400D01*
X49022000Y-85813400D02*
X48505880Y-85813400D01*
X48505880Y-85813400D02*
X47189390Y-84496910D01*
X42175430Y-84496910D02*
X41973500Y-84294980D01*
X42285920Y-84607400D02*
X42175430Y-84496910D01*
X46880000Y-80263200D02*
X47260000Y-80263200D01*
X46305000Y-79308200D02*
X46305000Y-79688200D01*
X46305000Y-79688200D02*
X46541700Y-79924900D01*
X46541700Y-79924900D02*
X46880000Y-80263200D01*
X46305000Y-79308200D02*
X45371245Y-79308200D01*
X45371245Y-80351235D02*
X45179080Y-80543400D01*
X45371245Y-79308200D02*
X45371245Y-80351235D01*
X43449340Y-80543400D02*
X43401080Y-80495140D01*
X45179080Y-80543400D02*
X43449340Y-80543400D01*
D36*
X41988021Y-82622201D02*
X41920696Y-82622201D01*
X43401080Y-81209142D02*
X41988021Y-82622201D01*
X43401080Y-80495140D02*
X43401080Y-81209142D01*
X42199248Y-84496910D02*
X42548810Y-84496910D01*
X41924539Y-84222201D02*
X42199248Y-84496910D01*
D32*
X42548810Y-84496910D02*
X42175430Y-84496910D01*
X47189390Y-84496910D02*
X42548810Y-84496910D01*
D35*
X36329620Y-89552780D02*
X36896040Y-90119200D01*
D32*
X36329620Y-89552780D02*
X36329620Y-89347040D01*
D35*
X36329620Y-89552780D02*
X36329620Y-90022680D01*
D32*
X36149280Y-89707720D02*
X36149280Y-90098880D01*
X36329620Y-89552780D02*
X36304220Y-89552780D01*
X36304220Y-89552780D02*
X36149280Y-89707720D01*
X36896040Y-90119200D02*
X36616640Y-90119200D01*
X36149280Y-90098880D02*
X36393120Y-90342720D01*
X36926520Y-90496280D02*
X37125000Y-90297800D01*
X36926520Y-90577799D02*
X36926520Y-90496280D01*
X36628199Y-90577799D02*
X36926520Y-90577799D01*
X36393120Y-90342720D02*
X36628199Y-90577799D01*
X36578411Y-90229690D02*
X36926520Y-90577799D01*
X36506150Y-90229690D02*
X36578411Y-90229690D01*
X36616640Y-90119200D02*
X36506150Y-90229690D01*
X36506150Y-90229690D02*
X36393120Y-90342720D01*
%TO.N,Net-(C8-Pad2)*%
X37775000Y-94207800D02*
X37775000Y-97769800D01*
X37775000Y-97769800D02*
X37754800Y-97790000D01*
X38816200Y-97769800D02*
X39014400Y-97571600D01*
X40792400Y-97358300D02*
X40792400Y-98044000D01*
X40792400Y-98044000D02*
X40538400Y-98298000D01*
X40538400Y-98298000D02*
X38049200Y-98298000D01*
X37754800Y-98003600D02*
X37754800Y-97790000D01*
X38049200Y-98298000D02*
X37754800Y-98003600D01*
D35*
X41183600Y-99618800D02*
X41183600Y-98181200D01*
D32*
X41183600Y-97749500D02*
X40792400Y-97358300D01*
X41183600Y-98181200D02*
X41183600Y-97749500D01*
D35*
X38176200Y-98044000D02*
X37902000Y-97769800D01*
X38709600Y-98044000D02*
X38176200Y-98044000D01*
X40142200Y-98028800D02*
X38724800Y-98028800D01*
D32*
X37902000Y-97769800D02*
X38816200Y-97769800D01*
D35*
X38724800Y-98028800D02*
X38709600Y-98044000D01*
D32*
X37775000Y-97769800D02*
X37902000Y-97769800D01*
D33*
%TO.N,Net-(D1-Pad2)*%
X56149200Y-78333600D02*
X56212700Y-78270100D01*
D32*
X56365100Y-78333600D02*
X56426100Y-78394600D01*
X54541600Y-78333600D02*
X56365100Y-78333600D01*
%TO.N,Net-(D1-Pad1)*%
X52316200Y-78308200D02*
X52341600Y-78333600D01*
X50215000Y-78308200D02*
X52316200Y-78308200D01*
%TO.N,Net-(D2-Pad2)*%
X54528900Y-80352900D02*
X54528900Y-80332400D01*
X55115500Y-79745800D02*
X56413400Y-79745800D01*
X54528900Y-80332400D02*
X55115500Y-79745800D01*
%TO.N,Net-(D2-Pad1)*%
X50215000Y-78808200D02*
X51134900Y-78808200D01*
X51134900Y-78808200D02*
X51134900Y-79113000D01*
X52328900Y-80307000D02*
X52328900Y-80352900D01*
X51134900Y-79113000D02*
X52328900Y-80307000D01*
%TO.N,Net-(D3-Pad1)*%
X50181400Y-98264000D02*
X50698400Y-97747000D01*
X47853600Y-98264000D02*
X50181400Y-98264000D01*
%TO.N,Net-(D3-Pad2)*%
X50698400Y-95547000D02*
X49563200Y-95547000D01*
X49006800Y-96103400D02*
X49006800Y-96469200D01*
X49563200Y-95547000D02*
X49006800Y-96103400D01*
%TO.N,Net-(D4-Pad2)*%
X48996600Y-94325400D02*
X49006800Y-94335600D01*
X54660800Y-92024200D02*
X54660800Y-90889000D01*
X52349400Y-94335600D02*
X54660800Y-92024200D01*
X49006800Y-94335600D02*
X52349400Y-94335600D01*
D35*
%TO.N,Net-(F1-Pad1)*%
X75796600Y-96088200D02*
X75996800Y-95888000D01*
X71111898Y-96088200D02*
X75796600Y-96088200D01*
X69991600Y-94967902D02*
X71111898Y-96088200D01*
X69991600Y-93624400D02*
X69991600Y-94967902D01*
D32*
%TO.N,Net-(J3-Pad02)*%
X68533520Y-84576280D02*
X68533520Y-85314280D01*
X68533520Y-84576280D02*
X68533520Y-85517480D01*
D33*
X68533520Y-84576280D02*
X68533520Y-86145880D01*
X68533520Y-86145880D02*
X68701920Y-86314280D01*
X68701920Y-86314280D02*
X68981320Y-86314280D01*
X69006720Y-86339680D02*
X69006720Y-86913680D01*
X68981320Y-86314280D02*
X69006720Y-86339680D01*
X71866720Y-89712840D02*
X71866720Y-89438480D01*
X71617840Y-89961720D02*
X71866720Y-89712840D01*
X66482158Y-89961720D02*
X71617840Y-89961720D01*
X65980119Y-88167679D02*
X65980119Y-89459681D01*
X65980119Y-89459681D02*
X66482158Y-89961720D01*
X66309520Y-87838278D02*
X65980119Y-88167679D01*
X69006720Y-87838278D02*
X66309520Y-87838278D01*
X69006720Y-86913680D02*
X69006720Y-87838278D01*
D32*
%TO.N,Net-(Q1-Pad1)*%
X42560200Y-99771200D02*
X42560200Y-100040400D01*
X42560200Y-100040400D02*
X43266001Y-100746201D01*
X46521399Y-100746201D02*
X46903600Y-100364000D01*
X43266001Y-100746201D02*
X46521399Y-100746201D01*
X36145000Y-93647800D02*
X36629990Y-94132790D01*
X36145000Y-93227800D02*
X36145000Y-93647800D01*
X36629990Y-94132790D02*
X36629990Y-95216639D01*
X36629990Y-95216639D02*
X36764780Y-95351429D01*
X36764780Y-98413678D02*
X37639122Y-99288020D01*
X36764780Y-95351429D02*
X36764780Y-98413678D01*
X37639122Y-99288020D02*
X38608000Y-99288020D01*
X38608000Y-100528202D02*
X38765398Y-100685600D01*
X38608000Y-99288020D02*
X38608000Y-100528202D01*
X38765398Y-100685600D02*
X42011600Y-100685600D01*
X42560200Y-100137000D02*
X42560200Y-99771200D01*
X42011600Y-100685600D02*
X42560200Y-100137000D01*
X46903600Y-99415601D02*
X46903601Y-99415600D01*
X46903600Y-100364000D02*
X46903600Y-99415601D01*
%TO.N,Net-(R5-Pad1)*%
X47760000Y-80263200D02*
X47760000Y-81251449D01*
X47760000Y-82138100D02*
X47525900Y-82372200D01*
X47760000Y-81251449D02*
X47760000Y-82138100D01*
X46014720Y-81907300D02*
X46014720Y-82362040D01*
X46670571Y-81251449D02*
X46014720Y-81907300D01*
X47760000Y-81251449D02*
X46670571Y-81251449D01*
%TO.N,Net-(R7-Pad1)*%
X35789400Y-91277800D02*
X33893400Y-91277800D01*
X33893400Y-91277800D02*
X33375600Y-91795600D01*
D34*
X33528000Y-91374000D02*
X33528000Y-92700201D01*
D32*
%TO.N,Net-(R10-Pad1)*%
X53403500Y-75222100D02*
X53403500Y-74361000D01*
X53111400Y-75514200D02*
X53403500Y-75222100D01*
X48944000Y-75514200D02*
X53111400Y-75514200D01*
X48760000Y-75698200D02*
X48944000Y-75514200D01*
X48760000Y-76353200D02*
X48760000Y-75698200D01*
%TO.N,Net-(R13-Pad1)*%
X48260000Y-75561790D02*
X48757600Y-75064190D01*
X48260000Y-76353200D02*
X48260000Y-75561790D01*
X48757600Y-75064190D02*
X51377010Y-75064190D01*
X51485800Y-74955400D02*
X51485800Y-74361000D01*
X51377010Y-75064190D02*
X51485800Y-74955400D01*
%TO.N,Net-(U1-Pad10)*%
X49260000Y-77308200D02*
X48260000Y-78308200D01*
X50215000Y-77308200D02*
X49260000Y-77308200D01*
%TO.N,Net-(J5-Pad1)*%
X35490000Y-92577800D02*
X36145000Y-92577800D01*
X35414999Y-92652801D02*
X35490000Y-92577800D01*
X35414999Y-93555599D02*
X35414999Y-92652801D01*
X36179981Y-95403040D02*
X36179980Y-94320580D01*
X36314771Y-98600079D02*
X36314770Y-95537829D01*
X37452722Y-99738030D02*
X36314771Y-98600079D01*
X36179980Y-94320580D02*
X35414999Y-93555599D01*
X58216800Y-93624400D02*
X52857400Y-98983800D01*
X47752000Y-99060000D02*
X47628601Y-99183399D01*
X38157990Y-99738030D02*
X37452722Y-99738030D01*
X38639599Y-101196211D02*
X38157991Y-100714603D01*
X51823599Y-98983801D02*
X51569598Y-98729800D01*
X38157991Y-100714603D02*
X38157990Y-99738030D01*
X36314770Y-95537829D02*
X36179981Y-95403040D01*
X52857400Y-98983800D02*
X51823599Y-98983801D01*
X51569598Y-98729800D02*
X48869600Y-98729800D01*
X48869600Y-98729800D02*
X48539400Y-99060000D01*
X48539400Y-99060000D02*
X47752000Y-99060000D01*
X47628601Y-99183399D02*
X47628601Y-101074001D01*
X47628601Y-101074001D02*
X47506391Y-101196211D01*
X47506391Y-101196211D02*
X38639599Y-101196211D01*
D33*
%TO.N,Net-(J3-Pad03)*%
X66533520Y-84576280D02*
X66533520Y-86247480D01*
X66533520Y-86247480D02*
X66533520Y-86603080D01*
D37*
X66509919Y-86223879D02*
X66533520Y-86247480D01*
D33*
X67000120Y-86913680D02*
X66121320Y-86913680D01*
X66121320Y-86913680D02*
X65933320Y-87101680D01*
X65933320Y-87101680D02*
X65933320Y-87203280D01*
X65806320Y-87330280D02*
X65206920Y-87330280D01*
X65933320Y-87203280D02*
X65806320Y-87330280D01*
D32*
%TO.N,Net-(J5-Pad2)*%
X55716800Y-91958800D02*
X57226200Y-90449400D01*
X55716800Y-93624400D02*
X55716800Y-91958800D01*
X55716800Y-93624400D02*
X55716800Y-94513602D01*
X34773200Y-96393000D02*
X35864762Y-97484562D01*
X34173200Y-96393000D02*
X34773200Y-96393000D01*
X35864762Y-97484562D02*
X35864762Y-98786480D01*
X35864762Y-98786480D02*
X37439600Y-100361318D01*
X37439600Y-101219000D02*
X38082393Y-101861793D01*
X37439600Y-100361318D02*
X37439600Y-101219000D01*
X52171600Y-97169600D02*
X55716800Y-93624400D01*
X52171600Y-98258800D02*
X52171600Y-97169600D01*
X48792492Y-101861793D02*
X38082393Y-101861793D01*
X50241200Y-99847400D02*
X50241200Y-100413085D01*
X50241200Y-100413085D02*
X48792492Y-101861793D01*
%TO.N,Net-(L1-Pad1)*%
X40055000Y-91927800D02*
X40055000Y-91277800D01*
D33*
X46669400Y-91277800D02*
X46888400Y-91058800D01*
X46304400Y-91058800D02*
X46888400Y-91058800D01*
X45430800Y-91633400D02*
X45580300Y-91782900D01*
X45430800Y-91277800D02*
X45430800Y-91633400D01*
D35*
X45580300Y-91782900D02*
X46304400Y-91058800D01*
X45435400Y-91927800D02*
X45580300Y-91782900D01*
X45430800Y-91277800D02*
X46669400Y-91277800D01*
D33*
X46888400Y-91058800D02*
X46837800Y-91058800D01*
D35*
X45968800Y-91927800D02*
X45435400Y-91927800D01*
X46837800Y-91058800D02*
X45968800Y-91927800D01*
D33*
X40705000Y-91277800D02*
X40055000Y-91927800D01*
X40909600Y-91277800D02*
X40705000Y-91277800D01*
D35*
X40055000Y-91277800D02*
X40909600Y-91277800D01*
X40909600Y-91277800D02*
X45430800Y-91277800D01*
D33*
X40619800Y-91927800D02*
X40619800Y-91567600D01*
X40619800Y-91567600D02*
X40909600Y-91277800D01*
D35*
X40055000Y-91927800D02*
X40619800Y-91927800D01*
D33*
X40909600Y-91881600D02*
X40863400Y-91927800D01*
X40909600Y-91277800D02*
X40909600Y-91881600D01*
D35*
X40863400Y-91927800D02*
X45435400Y-91927800D01*
X40619800Y-91927800D02*
X40863400Y-91927800D01*
D32*
%TO.N,Net-(R20-Pad2)*%
X49260000Y-80263200D02*
X49860949Y-80263200D01*
X50460299Y-80263200D02*
X50850800Y-80653701D01*
X49860949Y-80263200D02*
X50460299Y-80263200D01*
X50840600Y-82461100D02*
X50739000Y-82562700D01*
X51688998Y-82461100D02*
X50840600Y-82461100D01*
%TO.N,/10KThermistor*%
X62934998Y-93823002D02*
X62879600Y-93878400D01*
X62864200Y-93863000D02*
X62879600Y-93878400D01*
X52639000Y-82331520D02*
X53051809Y-81918711D01*
X52639000Y-82562700D02*
X52639000Y-82331520D01*
X53051809Y-81918711D02*
X53528660Y-81918711D01*
X53528660Y-81918711D02*
X53750759Y-82140810D01*
X53750759Y-82140810D02*
X55438399Y-82140810D01*
X55438399Y-83165079D02*
X55554840Y-83281520D01*
X55438399Y-82140810D02*
X55438399Y-83165079D01*
X55554840Y-86419762D02*
X55554840Y-83281520D01*
X56544510Y-87409432D02*
X55554840Y-86419762D01*
X56544511Y-88655191D02*
X56544510Y-87409432D01*
X56556609Y-88667289D02*
X56544511Y-88655191D01*
X58084667Y-88667289D02*
X56556609Y-88667289D01*
X60100709Y-90683331D02*
X58084667Y-88667289D01*
X60100710Y-93559334D02*
X60100709Y-90683331D01*
X60165776Y-93624400D02*
X60100710Y-93559334D01*
X62879600Y-93624400D02*
X60165776Y-93624400D01*
%TD*%
D38*
%TO.N,+BATT*%
X47170636Y-86448175D02*
X45186741Y-86436919D01*
X45188347Y-84999337D01*
X45185934Y-84974558D01*
X45178734Y-84950725D01*
X45167022Y-84928756D01*
X45151250Y-84909493D01*
X45132022Y-84893677D01*
X45110079Y-84881917D01*
X45086263Y-84874663D01*
X45061450Y-84872195D01*
X37214437Y-84865845D01*
X37189658Y-84868265D01*
X37165828Y-84875473D01*
X37143862Y-84887191D01*
X37124604Y-84902970D01*
X37108794Y-84922202D01*
X37097041Y-84944149D01*
X37089794Y-84967968D01*
X37087334Y-84992757D01*
X37084199Y-89526442D01*
X37074463Y-89538306D01*
X37015498Y-89648620D01*
X37003734Y-89687400D01*
X32062600Y-89687400D01*
X32062600Y-88976200D01*
X33664830Y-88976200D01*
X33680106Y-88988737D01*
X33790420Y-89047702D01*
X33910118Y-89084012D01*
X34034600Y-89096272D01*
X35034600Y-89096272D01*
X35159082Y-89084012D01*
X35278780Y-89047702D01*
X35389094Y-88988737D01*
X35404370Y-88976200D01*
X35941000Y-88976200D01*
X35965776Y-88973760D01*
X35989601Y-88966533D01*
X36011557Y-88954797D01*
X36030803Y-88939003D01*
X36046597Y-88919757D01*
X36058333Y-88897801D01*
X36065560Y-88873976D01*
X36067999Y-88849718D01*
X36086533Y-84302600D01*
X47164960Y-84302600D01*
X47170636Y-86448175D01*
%TA.AperFunction,Conductor*%
D39*
G36*
X47170636Y-86448175D02*
G01*
X45186741Y-86436919D01*
X45188347Y-84999337D01*
X45185934Y-84974558D01*
X45178734Y-84950725D01*
X45167022Y-84928756D01*
X45151250Y-84909493D01*
X45132022Y-84893677D01*
X45110079Y-84881917D01*
X45086263Y-84874663D01*
X45061450Y-84872195D01*
X37214437Y-84865845D01*
X37189658Y-84868265D01*
X37165828Y-84875473D01*
X37143862Y-84887191D01*
X37124604Y-84902970D01*
X37108794Y-84922202D01*
X37097041Y-84944149D01*
X37089794Y-84967968D01*
X37087334Y-84992757D01*
X37084199Y-89526442D01*
X37074463Y-89538306D01*
X37015498Y-89648620D01*
X37003734Y-89687400D01*
X32062600Y-89687400D01*
X32062600Y-88976200D01*
X33664830Y-88976200D01*
X33680106Y-88988737D01*
X33790420Y-89047702D01*
X33910118Y-89084012D01*
X34034600Y-89096272D01*
X35034600Y-89096272D01*
X35159082Y-89084012D01*
X35278780Y-89047702D01*
X35389094Y-88988737D01*
X35404370Y-88976200D01*
X35941000Y-88976200D01*
X35965776Y-88973760D01*
X35989601Y-88966533D01*
X36011557Y-88954797D01*
X36030803Y-88939003D01*
X36046597Y-88919757D01*
X36058333Y-88897801D01*
X36065560Y-88873976D01*
X36067999Y-88849718D01*
X36086533Y-84302600D01*
X47164960Y-84302600D01*
X47170636Y-86448175D01*
G37*
%TD.AperFunction*%
%TD*%
D38*
%TO.N,GND*%
X41122600Y-88036400D02*
X41125040Y-88061176D01*
X41132267Y-88085001D01*
X41144003Y-88106957D01*
X41159797Y-88126203D01*
X41179043Y-88141997D01*
X41200999Y-88153733D01*
X41224824Y-88160960D01*
X41249600Y-88163400D01*
X42611457Y-88163400D01*
X42834168Y-88207700D01*
X43195632Y-88207700D01*
X43418343Y-88163400D01*
X43612049Y-88163400D01*
X44297189Y-89439179D01*
X44286527Y-90270837D01*
X38252400Y-90234267D01*
X38252400Y-86842600D01*
X41122600Y-86842600D01*
X41122600Y-88036400D01*
%TA.AperFunction,Conductor*%
D39*
G36*
X41122600Y-88036400D02*
G01*
X41125040Y-88061176D01*
X41132267Y-88085001D01*
X41144003Y-88106957D01*
X41159797Y-88126203D01*
X41179043Y-88141997D01*
X41200999Y-88153733D01*
X41224824Y-88160960D01*
X41249600Y-88163400D01*
X42611457Y-88163400D01*
X42834168Y-88207700D01*
X43195632Y-88207700D01*
X43418343Y-88163400D01*
X43612049Y-88163400D01*
X44297189Y-89439179D01*
X44286527Y-90270837D01*
X38252400Y-90234267D01*
X38252400Y-86842600D01*
X41122600Y-86842600D01*
X41122600Y-88036400D01*
G37*
%TD.AperFunction*%
%TD*%
D38*
%TO.N,Net-(L1-Pad1)*%
X47142400Y-91913100D02*
X46738915Y-91913100D01*
X46697899Y-91909060D01*
X46656883Y-91913100D01*
X46656881Y-91913100D01*
X46534211Y-91925182D01*
X46376813Y-91972928D01*
X46280890Y-92024200D01*
X40966650Y-92024200D01*
X40911185Y-91956615D01*
X40814494Y-91877263D01*
X40704180Y-91818298D01*
X40584482Y-91781988D01*
X40460000Y-91769728D01*
X40088072Y-91769728D01*
X40088072Y-91160600D01*
X47142400Y-91160600D01*
X47142400Y-91913100D01*
%TA.AperFunction,Conductor*%
D39*
G36*
X47142400Y-91913100D02*
G01*
X46738915Y-91913100D01*
X46697899Y-91909060D01*
X46656883Y-91913100D01*
X46656881Y-91913100D01*
X46534211Y-91925182D01*
X46376813Y-91972928D01*
X46280890Y-92024200D01*
X40966650Y-92024200D01*
X40911185Y-91956615D01*
X40814494Y-91877263D01*
X40704180Y-91818298D01*
X40584482Y-91781988D01*
X40460000Y-91769728D01*
X40088072Y-91769728D01*
X40088072Y-91160600D01*
X47142400Y-91160600D01*
X47142400Y-91913100D01*
G37*
%TD.AperFunction*%
%TD*%
D38*
%TO.N,+5V*%
X47371000Y-94205411D02*
X47371000Y-97184063D01*
X47329118Y-97188188D01*
X47209420Y-97224498D01*
X47099106Y-97283463D01*
X47002415Y-97362815D01*
X46923063Y-97459506D01*
X46864098Y-97569820D01*
X46837073Y-97658911D01*
X45855405Y-97652842D01*
X45830614Y-97655129D01*
X45806746Y-97662209D01*
X45784717Y-97673809D01*
X45765374Y-97689484D01*
X45749462Y-97708631D01*
X45737590Y-97730515D01*
X45730216Y-97754294D01*
X45727620Y-97779840D01*
X45727620Y-99986201D01*
X44272200Y-99986201D01*
X44272200Y-98875103D01*
X44432256Y-98808805D01*
X44601774Y-98695537D01*
X44745937Y-98551374D01*
X44859205Y-98381856D01*
X44937226Y-98193498D01*
X44977000Y-97993539D01*
X44977000Y-97789661D01*
X44937226Y-97589702D01*
X44859205Y-97401344D01*
X44745937Y-97231826D01*
X44601774Y-97087663D01*
X44432256Y-96974395D01*
X44272200Y-96908097D01*
X44272200Y-96748600D01*
X44269760Y-96723824D01*
X44262533Y-96699999D01*
X44250797Y-96678043D01*
X44235003Y-96658797D01*
X44215757Y-96643003D01*
X44193801Y-96631267D01*
X44169976Y-96624040D01*
X44144631Y-96621601D01*
X41735531Y-96632404D01*
X41654515Y-96533685D01*
X41524675Y-96427129D01*
X41376542Y-96347950D01*
X41215808Y-96299192D01*
X41048650Y-96282728D01*
X40536150Y-96282728D01*
X40368992Y-96299192D01*
X40208258Y-96347950D01*
X40060125Y-96427129D01*
X39930285Y-96533685D01*
X39861292Y-96617753D01*
X39788882Y-96595788D01*
X39666304Y-96583715D01*
X38608000Y-95940567D01*
X38608000Y-94240872D01*
X39450000Y-94240872D01*
X39574482Y-94228612D01*
X39694180Y-94192302D01*
X39804494Y-94133337D01*
X39901185Y-94053985D01*
X39980537Y-93957294D01*
X40039502Y-93846980D01*
X40075812Y-93727282D01*
X40088072Y-93602800D01*
X40088072Y-93385872D01*
X40460000Y-93385872D01*
X40584482Y-93373612D01*
X40704180Y-93337302D01*
X40814494Y-93278337D01*
X40911185Y-93198985D01*
X40990537Y-93102294D01*
X40996574Y-93091000D01*
X45457120Y-93091000D01*
X47371000Y-94205411D01*
%TA.AperFunction,Conductor*%
D39*
G36*
X47371000Y-94205411D02*
G01*
X47371000Y-97184063D01*
X47329118Y-97188188D01*
X47209420Y-97224498D01*
X47099106Y-97283463D01*
X47002415Y-97362815D01*
X46923063Y-97459506D01*
X46864098Y-97569820D01*
X46837073Y-97658911D01*
X45855405Y-97652842D01*
X45830614Y-97655129D01*
X45806746Y-97662209D01*
X45784717Y-97673809D01*
X45765374Y-97689484D01*
X45749462Y-97708631D01*
X45737590Y-97730515D01*
X45730216Y-97754294D01*
X45727620Y-97779840D01*
X45727620Y-99986201D01*
X44272200Y-99986201D01*
X44272200Y-98875103D01*
X44432256Y-98808805D01*
X44601774Y-98695537D01*
X44745937Y-98551374D01*
X44859205Y-98381856D01*
X44937226Y-98193498D01*
X44977000Y-97993539D01*
X44977000Y-97789661D01*
X44937226Y-97589702D01*
X44859205Y-97401344D01*
X44745937Y-97231826D01*
X44601774Y-97087663D01*
X44432256Y-96974395D01*
X44272200Y-96908097D01*
X44272200Y-96748600D01*
X44269760Y-96723824D01*
X44262533Y-96699999D01*
X44250797Y-96678043D01*
X44235003Y-96658797D01*
X44215757Y-96643003D01*
X44193801Y-96631267D01*
X44169976Y-96624040D01*
X44144631Y-96621601D01*
X41735531Y-96632404D01*
X41654515Y-96533685D01*
X41524675Y-96427129D01*
X41376542Y-96347950D01*
X41215808Y-96299192D01*
X41048650Y-96282728D01*
X40536150Y-96282728D01*
X40368992Y-96299192D01*
X40208258Y-96347950D01*
X40060125Y-96427129D01*
X39930285Y-96533685D01*
X39861292Y-96617753D01*
X39788882Y-96595788D01*
X39666304Y-96583715D01*
X38608000Y-95940567D01*
X38608000Y-94240872D01*
X39450000Y-94240872D01*
X39574482Y-94228612D01*
X39694180Y-94192302D01*
X39804494Y-94133337D01*
X39901185Y-94053985D01*
X39980537Y-93957294D01*
X40039502Y-93846980D01*
X40075812Y-93727282D01*
X40088072Y-93602800D01*
X40088072Y-93385872D01*
X40460000Y-93385872D01*
X40584482Y-93373612D01*
X40704180Y-93337302D01*
X40814494Y-93278337D01*
X40911185Y-93198985D01*
X40990537Y-93102294D01*
X40996574Y-93091000D01*
X45457120Y-93091000D01*
X47371000Y-94205411D01*
G37*
%TD.AperFunction*%
%TD*%
D38*
%TO.N,Net-(C8-Pad2)*%
X41256528Y-98323400D02*
X39517841Y-98323400D01*
X39446198Y-98251757D01*
X39420985Y-98221035D01*
X39298408Y-98120438D01*
X39158561Y-98045688D01*
X39006818Y-97999658D01*
X38888556Y-97988010D01*
X38888548Y-97988010D01*
X38849010Y-97984116D01*
X38809472Y-97988010D01*
X38177602Y-97988010D01*
X38064790Y-97875198D01*
X38064790Y-97561400D01*
X41256528Y-97561400D01*
X41256528Y-98323400D01*
%TA.AperFunction,Conductor*%
D39*
G36*
X41256528Y-98323400D02*
G01*
X39517841Y-98323400D01*
X39446198Y-98251757D01*
X39420985Y-98221035D01*
X39298408Y-98120438D01*
X39158561Y-98045688D01*
X39006818Y-97999658D01*
X38888556Y-97988010D01*
X38888548Y-97988010D01*
X38849010Y-97984116D01*
X38809472Y-97988010D01*
X38177602Y-97988010D01*
X38064790Y-97875198D01*
X38064790Y-97561400D01*
X41256528Y-97561400D01*
X41256528Y-98323400D01*
G37*
%TD.AperFunction*%
%TD*%
D38*
%TO.N,+BATT*%
X32258397Y-90879048D02*
X32252188Y-90899518D01*
X32239928Y-91024000D01*
X32239928Y-91724000D01*
X32252188Y-91848482D01*
X32258207Y-91868323D01*
X32258137Y-92231108D01*
X32252188Y-92250718D01*
X32239928Y-92375200D01*
X32239928Y-93075200D01*
X32252188Y-93199682D01*
X32257946Y-93218664D01*
X32257770Y-94132317D01*
X32252188Y-94150718D01*
X32239928Y-94275200D01*
X32239928Y-94975200D01*
X32252188Y-95099682D01*
X32257580Y-95117457D01*
X32257230Y-96932361D01*
X32062600Y-96938080D01*
X32062600Y-88958050D01*
X32258769Y-88952297D01*
X32258397Y-90879048D01*
%TA.AperFunction,Conductor*%
D39*
G36*
X32258397Y-90879048D02*
G01*
X32252188Y-90899518D01*
X32239928Y-91024000D01*
X32239928Y-91724000D01*
X32252188Y-91848482D01*
X32258207Y-91868323D01*
X32258137Y-92231108D01*
X32252188Y-92250718D01*
X32239928Y-92375200D01*
X32239928Y-93075200D01*
X32252188Y-93199682D01*
X32257946Y-93218664D01*
X32257770Y-94132317D01*
X32252188Y-94150718D01*
X32239928Y-94275200D01*
X32239928Y-94975200D01*
X32252188Y-95099682D01*
X32257580Y-95117457D01*
X32257230Y-96932361D01*
X32062600Y-96938080D01*
X32062600Y-88958050D01*
X32258769Y-88952297D01*
X32258397Y-90879048D01*
G37*
%TD.AperFunction*%
%TD*%
D38*
%TO.N,+5V*%
X71470520Y-86314280D02*
X71472960Y-86339056D01*
X71480187Y-86362881D01*
X71491923Y-86384837D01*
X71507717Y-86404083D01*
X71526963Y-86419877D01*
X71548919Y-86431613D01*
X71572744Y-86438840D01*
X71597520Y-86441280D01*
X73477120Y-86441280D01*
X73477120Y-87127080D01*
X71546720Y-87127080D01*
X71521944Y-87129520D01*
X71498119Y-87136747D01*
X71476163Y-87148483D01*
X71450603Y-87171070D01*
X70968003Y-87729870D01*
X70953656Y-87750217D01*
X70943553Y-87772971D01*
X70938084Y-87797259D01*
X70937120Y-87812880D01*
X70937120Y-88525775D01*
X70927218Y-88544300D01*
X70890908Y-88663998D01*
X70878648Y-88788480D01*
X70878648Y-89156720D01*
X66815598Y-89156720D01*
X66785119Y-89126240D01*
X66785119Y-88643278D01*
X68967174Y-88643278D01*
X69006720Y-88647173D01*
X69164528Y-88631630D01*
X69267877Y-88600280D01*
X69997320Y-88600280D01*
X70022096Y-88597840D01*
X70045921Y-88590613D01*
X70067877Y-88578877D01*
X70087123Y-88563083D01*
X70102917Y-88543837D01*
X70114653Y-88521881D01*
X70121880Y-88498056D01*
X70124320Y-88473280D01*
X70124320Y-87694863D01*
X70187257Y-87618174D01*
X70246222Y-87507860D01*
X70282532Y-87388162D01*
X70294792Y-87263680D01*
X70294792Y-86563680D01*
X70282737Y-86441280D01*
X70479920Y-86441280D01*
X70504696Y-86438840D01*
X70528521Y-86431613D01*
X70550477Y-86419877D01*
X70569723Y-86404083D01*
X70585517Y-86384837D01*
X70597253Y-86362881D01*
X70604480Y-86339056D01*
X70606920Y-86314280D01*
X70606920Y-83240880D01*
X71470520Y-83240880D01*
X71470520Y-86314280D01*
%TA.AperFunction,Conductor*%
D39*
G36*
X71470520Y-86314280D02*
G01*
X71472960Y-86339056D01*
X71480187Y-86362881D01*
X71491923Y-86384837D01*
X71507717Y-86404083D01*
X71526963Y-86419877D01*
X71548919Y-86431613D01*
X71572744Y-86438840D01*
X71597520Y-86441280D01*
X73477120Y-86441280D01*
X73477120Y-87127080D01*
X71546720Y-87127080D01*
X71521944Y-87129520D01*
X71498119Y-87136747D01*
X71476163Y-87148483D01*
X71450603Y-87171070D01*
X70968003Y-87729870D01*
X70953656Y-87750217D01*
X70943553Y-87772971D01*
X70938084Y-87797259D01*
X70937120Y-87812880D01*
X70937120Y-88525775D01*
X70927218Y-88544300D01*
X70890908Y-88663998D01*
X70878648Y-88788480D01*
X70878648Y-89156720D01*
X66815598Y-89156720D01*
X66785119Y-89126240D01*
X66785119Y-88643278D01*
X68967174Y-88643278D01*
X69006720Y-88647173D01*
X69164528Y-88631630D01*
X69267877Y-88600280D01*
X69997320Y-88600280D01*
X70022096Y-88597840D01*
X70045921Y-88590613D01*
X70067877Y-88578877D01*
X70087123Y-88563083D01*
X70102917Y-88543837D01*
X70114653Y-88521881D01*
X70121880Y-88498056D01*
X70124320Y-88473280D01*
X70124320Y-87694863D01*
X70187257Y-87618174D01*
X70246222Y-87507860D01*
X70282532Y-87388162D01*
X70294792Y-87263680D01*
X70294792Y-86563680D01*
X70282737Y-86441280D01*
X70479920Y-86441280D01*
X70504696Y-86438840D01*
X70528521Y-86431613D01*
X70550477Y-86419877D01*
X70569723Y-86404083D01*
X70585517Y-86384837D01*
X70597253Y-86362881D01*
X70604480Y-86339056D01*
X70606920Y-86314280D01*
X70606920Y-83240880D01*
X71470520Y-83240880D01*
X71470520Y-86314280D01*
G37*
%TD.AperFunction*%
%TD*%
D38*
%TO.N,GND*%
X39801800Y-74690193D02*
X39740306Y-74723063D01*
X39643615Y-74802415D01*
X39564263Y-74899106D01*
X39505298Y-75009420D01*
X39468988Y-75129118D01*
X39456728Y-75253600D01*
X39456728Y-76603600D01*
X39468988Y-76728082D01*
X39505298Y-76847780D01*
X39564263Y-76958094D01*
X39633127Y-77042005D01*
X39469193Y-77205939D01*
X34384767Y-79795230D01*
X34363796Y-79808648D01*
X34345846Y-79825900D01*
X34331606Y-79846322D01*
X34321624Y-79869129D01*
X34316283Y-79893446D01*
X34315400Y-79908400D01*
X34315400Y-88036400D01*
X32062600Y-88036400D01*
X32062600Y-76947831D01*
X35924530Y-74889677D01*
X35945247Y-74875871D01*
X35962873Y-74858288D01*
X35976730Y-74837605D01*
X35986286Y-74814615D01*
X35991173Y-74790203D01*
X35991800Y-74777600D01*
X35991800Y-72541804D01*
X39801800Y-72541804D01*
X39801800Y-74690193D01*
%TA.AperFunction,Conductor*%
D39*
G36*
X39801800Y-74690193D02*
G01*
X39740306Y-74723063D01*
X39643615Y-74802415D01*
X39564263Y-74899106D01*
X39505298Y-75009420D01*
X39468988Y-75129118D01*
X39456728Y-75253600D01*
X39456728Y-76603600D01*
X39468988Y-76728082D01*
X39505298Y-76847780D01*
X39564263Y-76958094D01*
X39633127Y-77042005D01*
X39469193Y-77205939D01*
X34384767Y-79795230D01*
X34363796Y-79808648D01*
X34345846Y-79825900D01*
X34331606Y-79846322D01*
X34321624Y-79869129D01*
X34316283Y-79893446D01*
X34315400Y-79908400D01*
X34315400Y-88036400D01*
X32062600Y-88036400D01*
X32062600Y-76947831D01*
X35924530Y-74889677D01*
X35945247Y-74875871D01*
X35962873Y-74858288D01*
X35976730Y-74837605D01*
X35986286Y-74814615D01*
X35991173Y-74790203D01*
X35991800Y-74777600D01*
X35991800Y-72541804D01*
X39801800Y-72541804D01*
X39801800Y-74690193D01*
G37*
%TD.AperFunction*%
%TD*%
D38*
%TO.N,GND*%
X64149668Y-79792867D02*
X64035395Y-79907140D01*
X63894767Y-80117604D01*
X63797901Y-80351459D01*
X63748520Y-80599719D01*
X63748520Y-80852841D01*
X63797901Y-81101101D01*
X63894767Y-81334956D01*
X64035395Y-81545420D01*
X64151367Y-81661392D01*
X64155204Y-85882480D01*
X63291720Y-85882480D01*
X63266944Y-85884920D01*
X63243119Y-85892147D01*
X63221163Y-85903883D01*
X63201917Y-85919677D01*
X63186123Y-85938923D01*
X63174387Y-85960879D01*
X63167160Y-85984704D01*
X63164720Y-86009480D01*
X63164720Y-87990680D01*
X62483694Y-87990680D01*
X60440910Y-86961940D01*
X60417684Y-86952976D01*
X60383709Y-86948369D01*
X59426025Y-86948965D01*
X59207843Y-86767277D01*
X59207843Y-80931672D01*
X59212124Y-80888203D01*
X59207843Y-80844734D01*
X59207843Y-80844726D01*
X59195038Y-80714713D01*
X59144432Y-80547890D01*
X59062254Y-80394144D01*
X59044441Y-80372439D01*
X59039535Y-74711365D01*
X59220656Y-74440299D01*
X59358982Y-74106350D01*
X59429500Y-73751832D01*
X59429500Y-73390368D01*
X59358982Y-73035850D01*
X59220656Y-72701901D01*
X59113682Y-72541804D01*
X64143076Y-72541804D01*
X64149668Y-79792867D01*
%TA.AperFunction,Conductor*%
D39*
G36*
X64149668Y-79792867D02*
G01*
X64035395Y-79907140D01*
X63894767Y-80117604D01*
X63797901Y-80351459D01*
X63748520Y-80599719D01*
X63748520Y-80852841D01*
X63797901Y-81101101D01*
X63894767Y-81334956D01*
X64035395Y-81545420D01*
X64151367Y-81661392D01*
X64155204Y-85882480D01*
X63291720Y-85882480D01*
X63266944Y-85884920D01*
X63243119Y-85892147D01*
X63221163Y-85903883D01*
X63201917Y-85919677D01*
X63186123Y-85938923D01*
X63174387Y-85960879D01*
X63167160Y-85984704D01*
X63164720Y-86009480D01*
X63164720Y-87990680D01*
X62483694Y-87990680D01*
X60440910Y-86961940D01*
X60417684Y-86952976D01*
X60383709Y-86948369D01*
X59426025Y-86948965D01*
X59207843Y-86767277D01*
X59207843Y-80931672D01*
X59212124Y-80888203D01*
X59207843Y-80844734D01*
X59207843Y-80844726D01*
X59195038Y-80714713D01*
X59144432Y-80547890D01*
X59062254Y-80394144D01*
X59044441Y-80372439D01*
X59039535Y-74711365D01*
X59220656Y-74440299D01*
X59358982Y-74106350D01*
X59429500Y-73751832D01*
X59429500Y-73390368D01*
X59358982Y-73035850D01*
X59220656Y-72701901D01*
X59113682Y-72541804D01*
X64143076Y-72541804D01*
X64149668Y-79792867D01*
G37*
%TD.AperFunction*%
%TD*%
D38*
%TO.N,GND*%
X46349920Y-73647942D02*
X46216257Y-73781605D01*
X46182484Y-73809322D01*
X46071890Y-73944081D01*
X45989712Y-74097827D01*
X45939106Y-74264650D01*
X45926301Y-74394663D01*
X45926301Y-74394670D01*
X45922020Y-74438139D01*
X45926301Y-74481608D01*
X45926301Y-74800541D01*
X45898442Y-74828400D01*
X45085000Y-74828400D01*
X45060224Y-74830840D01*
X45036399Y-74838067D01*
X45014443Y-74849803D01*
X44995197Y-74865597D01*
X44979403Y-74884843D01*
X44967667Y-74906799D01*
X44960440Y-74930624D01*
X44958000Y-74955400D01*
X44958000Y-76376400D01*
X43357800Y-76376400D01*
X43357800Y-74345800D01*
X43355360Y-74321024D01*
X43348133Y-74297199D01*
X43336397Y-74275243D01*
X43320603Y-74255997D01*
X43301357Y-74240203D01*
X43279401Y-74228467D01*
X43255576Y-74221240D01*
X43230800Y-74218800D01*
X41224200Y-74218800D01*
X41224200Y-72541804D01*
X46349920Y-72541804D01*
X46349920Y-73647942D01*
%TA.AperFunction,Conductor*%
D39*
G36*
X46349920Y-73647942D02*
G01*
X46216257Y-73781605D01*
X46182484Y-73809322D01*
X46071890Y-73944081D01*
X45989712Y-74097827D01*
X45939106Y-74264650D01*
X45926301Y-74394663D01*
X45926301Y-74394670D01*
X45922020Y-74438139D01*
X45926301Y-74481608D01*
X45926301Y-74800541D01*
X45898442Y-74828400D01*
X45085000Y-74828400D01*
X45060224Y-74830840D01*
X45036399Y-74838067D01*
X45014443Y-74849803D01*
X44995197Y-74865597D01*
X44979403Y-74884843D01*
X44967667Y-74906799D01*
X44960440Y-74930624D01*
X44958000Y-74955400D01*
X44958000Y-76376400D01*
X43357800Y-76376400D01*
X43357800Y-74345800D01*
X43355360Y-74321024D01*
X43348133Y-74297199D01*
X43336397Y-74275243D01*
X43320603Y-74255997D01*
X43301357Y-74240203D01*
X43279401Y-74228467D01*
X43255576Y-74221240D01*
X43230800Y-74218800D01*
X41224200Y-74218800D01*
X41224200Y-72541804D01*
X46349920Y-72541804D01*
X46349920Y-73647942D01*
G37*
%TD.AperFunction*%
%TD*%
D38*
%TO.N,GND*%
X78379438Y-90073480D02*
X73819787Y-90073480D01*
X73451721Y-89705414D01*
X73451721Y-88749424D01*
X73744288Y-88578761D01*
X73856300Y-88544782D01*
X73966614Y-88485817D01*
X74063305Y-88406465D01*
X74085028Y-88379996D01*
X74607912Y-88074980D01*
X74628083Y-88060388D01*
X74645021Y-88042141D01*
X74658073Y-88020940D01*
X74666738Y-87997601D01*
X74670920Y-87965280D01*
X74670920Y-86593680D01*
X74668480Y-86568904D01*
X74661253Y-86545079D01*
X74649590Y-86523233D01*
X73553379Y-84878916D01*
X73565828Y-76677520D01*
X78391902Y-76677520D01*
X78379438Y-90073480D01*
%TA.AperFunction,Conductor*%
D39*
G36*
X78379438Y-90073480D02*
G01*
X73819787Y-90073480D01*
X73451721Y-89705414D01*
X73451721Y-88749424D01*
X73744288Y-88578761D01*
X73856300Y-88544782D01*
X73966614Y-88485817D01*
X74063305Y-88406465D01*
X74085028Y-88379996D01*
X74607912Y-88074980D01*
X74628083Y-88060388D01*
X74645021Y-88042141D01*
X74658073Y-88020940D01*
X74666738Y-87997601D01*
X74670920Y-87965280D01*
X74670920Y-86593680D01*
X74668480Y-86568904D01*
X74661253Y-86545079D01*
X74649590Y-86523233D01*
X73553379Y-84878916D01*
X73565828Y-76677520D01*
X78391902Y-76677520D01*
X78379438Y-90073480D01*
G37*
%TD.AperFunction*%
%TD*%
M02*
