%TF.GenerationSoftware,KiCad,Pcbnew,(5.1.8)-1*%
%TF.CreationDate,2021-04-18T19:42:35-04:00*%
%TF.ProjectId,AndrewPowerbank,416e6472-6577-4506-9f77-657262616e6b,rev?*%
%TF.SameCoordinates,Original*%
%TF.FileFunction,Paste,Top*%
%TF.FilePolarity,Positive*%
%FSLAX46Y46*%
G04 Gerber Fmt 4.6, Leading zero omitted, Abs format (unit mm)*
G04 Created by KiCad (PCBNEW (5.1.8)-1) date 2021-04-18 19:42:35*
%MOMM*%
%LPD*%
G01*
G04 APERTURE LIST*
%ADD10C,0.010000*%
%ADD11R,2.500000X5.000000*%
%ADD12R,0.900000X2.800000*%
%ADD13R,0.700000X1.300000*%
%ADD14R,7.315200X2.590800*%
%ADD15R,1.300000X0.700000*%
%ADD16R,1.000000X1.250000*%
%ADD17R,1.250000X1.000000*%
%ADD18R,1.200000X1.200000*%
%ADD19R,1.900000X1.900000*%
%ADD20R,1.450000X1.300000*%
%ADD21R,1.600000X1.400000*%
%ADD22R,0.400000X1.350000*%
%ADD23R,0.800000X0.900000*%
%ADD24R,0.810000X0.260000*%
%ADD25R,0.260000X0.810000*%
%ADD26R,0.340000X0.810000*%
%ADD27R,0.810000X0.340000*%
G04 APERTURE END LIST*
D10*
%TO.C,U1*%
G36*
X48390000Y-79398200D02*
G01*
X48390000Y-78438200D01*
X49350000Y-78438200D01*
X49350000Y-79398200D01*
X48390000Y-79398200D01*
G37*
X48390000Y-79398200D02*
X48390000Y-78438200D01*
X49350000Y-78438200D01*
X49350000Y-79398200D01*
X48390000Y-79398200D01*
G36*
X48390000Y-78178200D02*
G01*
X48390000Y-77218200D01*
X49350000Y-77218200D01*
X49350000Y-78178200D01*
X48390000Y-78178200D01*
G37*
X48390000Y-78178200D02*
X48390000Y-77218200D01*
X49350000Y-77218200D01*
X49350000Y-78178200D01*
X48390000Y-78178200D01*
G36*
X47170000Y-78178200D02*
G01*
X47170000Y-77218200D01*
X48130000Y-77218200D01*
X48130000Y-78178200D01*
X47170000Y-78178200D01*
G37*
X47170000Y-78178200D02*
X47170000Y-77218200D01*
X48130000Y-77218200D01*
X48130000Y-78178200D01*
X47170000Y-78178200D01*
G36*
X47170000Y-79398200D02*
G01*
X47170000Y-78438200D01*
X48130000Y-78438200D01*
X48130000Y-79398200D01*
X47170000Y-79398200D01*
G37*
X47170000Y-79398200D02*
X47170000Y-78438200D01*
X48130000Y-78438200D01*
X48130000Y-79398200D01*
X47170000Y-79398200D01*
%TO.C,U2*%
G36*
X38953372Y-93105800D02*
G01*
X37247000Y-93105800D01*
X37247000Y-91399428D01*
X38953372Y-91399428D01*
X38953372Y-93105800D01*
G37*
X38953372Y-93105800D02*
X37247000Y-93105800D01*
X37247000Y-91399428D01*
X38953372Y-91399428D01*
X38953372Y-93105800D01*
%TD*%
D11*
%TO.C,J3*%
X60283520Y-82326280D03*
X74783520Y-82326280D03*
D12*
X66533520Y-84576280D03*
X71033520Y-84576280D03*
X68533520Y-84576280D03*
X64033520Y-84576280D03*
%TD*%
D13*
%TO.C,R20*%
X50739000Y-82562700D03*
X52639000Y-82562700D03*
%TD*%
%TO.C,R19*%
X57454840Y-83281520D03*
X55554840Y-83281520D03*
%TD*%
D14*
%TO.C,L1*%
X49022000Y-90513400D03*
X49022000Y-85813400D03*
%TD*%
D15*
%TO.C,R7*%
X33528000Y-91374000D03*
X33528000Y-89474000D03*
%TD*%
%TO.C,R13*%
X51485800Y-74361000D03*
X51485800Y-76261000D03*
%TD*%
%TO.C,C7*%
G36*
G01*
X43838580Y-80238890D02*
X43838580Y-80751390D01*
G75*
G02*
X43619830Y-80970140I-218750J0D01*
G01*
X43182330Y-80970140D01*
G75*
G02*
X42963580Y-80751390I0J218750D01*
G01*
X42963580Y-80238890D01*
G75*
G02*
X43182330Y-80020140I218750J0D01*
G01*
X43619830Y-80020140D01*
G75*
G02*
X43838580Y-80238890I0J-218750D01*
G01*
G37*
G36*
G01*
X42263580Y-80238890D02*
X42263580Y-80751390D01*
G75*
G02*
X42044830Y-80970140I-218750J0D01*
G01*
X41607330Y-80970140D01*
G75*
G02*
X41388580Y-80751390I0J218750D01*
G01*
X41388580Y-80238890D01*
G75*
G02*
X41607330Y-80020140I218750J0D01*
G01*
X42044830Y-80020140D01*
G75*
G02*
X42263580Y-80238890I0J-218750D01*
G01*
G37*
%TD*%
D16*
%TO.C,C1*%
X73112120Y-87330280D03*
X75112120Y-87330280D03*
%TD*%
%TO.C,C2*%
X36013900Y-80568800D03*
X34013900Y-80568800D03*
%TD*%
%TO.C,C3*%
G36*
G01*
X47649680Y-73928950D02*
X47649680Y-73416450D01*
G75*
G02*
X47868430Y-73197700I218750J0D01*
G01*
X48305930Y-73197700D01*
G75*
G02*
X48524680Y-73416450I0J-218750D01*
G01*
X48524680Y-73928950D01*
G75*
G02*
X48305930Y-74147700I-218750J0D01*
G01*
X47868430Y-74147700D01*
G75*
G02*
X47649680Y-73928950I0J218750D01*
G01*
G37*
G36*
G01*
X49224680Y-73928950D02*
X49224680Y-73416450D01*
G75*
G02*
X49443430Y-73197700I218750J0D01*
G01*
X49880930Y-73197700D01*
G75*
G02*
X50099680Y-73416450I0J-218750D01*
G01*
X50099680Y-73928950D01*
G75*
G02*
X49880930Y-74147700I-218750J0D01*
G01*
X49443430Y-74147700D01*
G75*
G02*
X49224680Y-73928950I0J218750D01*
G01*
G37*
%TD*%
%TO.C,C4*%
X34534600Y-87833200D03*
X36534600Y-87833200D03*
%TD*%
%TO.C,C5*%
G36*
G01*
X43477700Y-78051950D02*
X43477700Y-78564450D01*
G75*
G02*
X43258950Y-78783200I-218750J0D01*
G01*
X42821450Y-78783200D01*
G75*
G02*
X42602700Y-78564450I0J218750D01*
G01*
X42602700Y-78051950D01*
G75*
G02*
X42821450Y-77833200I218750J0D01*
G01*
X43258950Y-77833200D01*
G75*
G02*
X43477700Y-78051950I0J-218750D01*
G01*
G37*
G36*
G01*
X45052700Y-78051950D02*
X45052700Y-78564450D01*
G75*
G02*
X44833950Y-78783200I-218750J0D01*
G01*
X44396450Y-78783200D01*
G75*
G02*
X44177700Y-78564450I0J218750D01*
G01*
X44177700Y-78051950D01*
G75*
G02*
X44396450Y-77833200I218750J0D01*
G01*
X44833950Y-77833200D01*
G75*
G02*
X45052700Y-78051950I0J-218750D01*
G01*
G37*
%TD*%
%TO.C,C6*%
X36560000Y-85674200D03*
X34560000Y-85674200D03*
%TD*%
%TO.C,C8*%
G36*
G01*
X40536150Y-96920800D02*
X41048650Y-96920800D01*
G75*
G02*
X41267400Y-97139550I0J-218750D01*
G01*
X41267400Y-97577050D01*
G75*
G02*
X41048650Y-97795800I-218750J0D01*
G01*
X40536150Y-97795800D01*
G75*
G02*
X40317400Y-97577050I0J218750D01*
G01*
X40317400Y-97139550D01*
G75*
G02*
X40536150Y-96920800I218750J0D01*
G01*
G37*
G36*
G01*
X40536150Y-95345800D02*
X41048650Y-95345800D01*
G75*
G02*
X41267400Y-95564550I0J-218750D01*
G01*
X41267400Y-96002050D01*
G75*
G02*
X41048650Y-96220800I-218750J0D01*
G01*
X40536150Y-96220800D01*
G75*
G02*
X40317400Y-96002050I0J218750D01*
G01*
X40317400Y-95564550D01*
G75*
G02*
X40536150Y-95345800I218750J0D01*
G01*
G37*
%TD*%
D17*
%TO.C,C9*%
X42519600Y-95859600D03*
X42519600Y-97859600D03*
%TD*%
%TO.C,C10*%
G36*
G01*
X41425198Y-92710200D02*
X44325202Y-92710200D01*
G75*
G02*
X44575200Y-92960198I0J-249998D01*
G01*
X44575200Y-93585202D01*
G75*
G02*
X44325202Y-93835200I-249998J0D01*
G01*
X41425198Y-93835200D01*
G75*
G02*
X41175200Y-93585202I0J249998D01*
G01*
X41175200Y-92960198D01*
G75*
G02*
X41425198Y-92710200I249998J0D01*
G01*
G37*
G36*
G01*
X41425198Y-88435200D02*
X44325202Y-88435200D01*
G75*
G02*
X44575200Y-88685198I0J-249998D01*
G01*
X44575200Y-89310202D01*
G75*
G02*
X44325202Y-89560200I-249998J0D01*
G01*
X41425198Y-89560200D01*
G75*
G02*
X41175200Y-89310202I0J249998D01*
G01*
X41175200Y-88685198D01*
G75*
G02*
X41425198Y-88435200I249998J0D01*
G01*
G37*
%TD*%
D18*
%TO.C,D1*%
X54541600Y-78333600D03*
X52341600Y-78333600D03*
%TD*%
%TO.C,D2*%
X54528900Y-80352900D03*
X52328900Y-80352900D03*
%TD*%
%TO.C,D3*%
X50698400Y-97747000D03*
X50698400Y-95547000D03*
%TD*%
%TO.C,D4*%
X54660800Y-88689000D03*
X54660800Y-90889000D03*
%TD*%
%TO.C,F1*%
G36*
G01*
X76621800Y-96513000D02*
X75371800Y-96513000D01*
G75*
G02*
X75121800Y-96263000I0J250000D01*
G01*
X75121800Y-95513000D01*
G75*
G02*
X75371800Y-95263000I250000J0D01*
G01*
X76621800Y-95263000D01*
G75*
G02*
X76871800Y-95513000I0J-250000D01*
G01*
X76871800Y-96263000D01*
G75*
G02*
X76621800Y-96513000I-250000J0D01*
G01*
G37*
G36*
G01*
X76621800Y-93713000D02*
X75371800Y-93713000D01*
G75*
G02*
X75121800Y-93463000I0J250000D01*
G01*
X75121800Y-92713000D01*
G75*
G02*
X75371800Y-92463000I250000J0D01*
G01*
X76621800Y-92463000D01*
G75*
G02*
X76871800Y-92713000I0J-250000D01*
G01*
X76871800Y-93463000D01*
G75*
G02*
X76621800Y-93713000I-250000J0D01*
G01*
G37*
%TD*%
D19*
%TO.C,J4*%
X39744800Y-73253600D03*
X42144800Y-73253600D03*
D20*
X44369800Y-73253600D03*
X37519800Y-73253600D03*
D21*
X37744800Y-75703600D03*
X44144800Y-75703600D03*
D22*
X39644800Y-75928600D03*
X40294800Y-75928600D03*
X40944800Y-75928600D03*
X41594800Y-75928600D03*
X42244800Y-75928600D03*
%TD*%
D23*
%TO.C,Q1*%
X46903600Y-100364000D03*
X48803600Y-100364000D03*
X47853600Y-98264000D03*
%TD*%
D15*
%TO.C,R1*%
X67000120Y-86913680D03*
X67000120Y-88813680D03*
%TD*%
D13*
%TO.C,R2*%
X65206920Y-87330280D03*
X63306920Y-87330280D03*
%TD*%
D15*
%TO.C,R3*%
X69006720Y-88813680D03*
X69006720Y-86913680D03*
%TD*%
D13*
%TO.C,R4*%
X73766720Y-89438480D03*
X71866720Y-89438480D03*
%TD*%
%TO.C,R5*%
X49425900Y-82372200D03*
X47525900Y-82372200D03*
%TD*%
%TO.C,R6*%
X44114720Y-82362040D03*
X46014720Y-82362040D03*
%TD*%
D15*
%TO.C,R8*%
X33528000Y-94625200D03*
X33528000Y-92725200D03*
%TD*%
D13*
%TO.C,R9*%
X34173200Y-96393000D03*
X32273200Y-96393000D03*
%TD*%
D15*
%TO.C,R10*%
X53403500Y-74361000D03*
X53403500Y-76261000D03*
%TD*%
%TO.C,R11*%
X56426100Y-78394600D03*
X56426100Y-76494600D03*
%TD*%
%TO.C,R12*%
X56413400Y-79745800D03*
X56413400Y-81645800D03*
%TD*%
%TO.C,R14*%
X39014400Y-97571600D03*
X39014400Y-95671600D03*
%TD*%
D13*
%TO.C,R15*%
X41183600Y-99618800D03*
X39283600Y-99618800D03*
%TD*%
%TO.C,R16*%
X47106800Y-96469200D03*
X49006800Y-96469200D03*
%TD*%
%TO.C,R17*%
X44460200Y-99771200D03*
X42560200Y-99771200D03*
%TD*%
%TO.C,R18*%
X49006800Y-94335600D03*
X47106800Y-94335600D03*
%TD*%
D24*
%TO.C,U1*%
X46305000Y-79308200D03*
X46305000Y-78808200D03*
X46305000Y-78308200D03*
X46305000Y-77808200D03*
X46305000Y-77308200D03*
D25*
X47260000Y-76353200D03*
X47760000Y-76353200D03*
X48260000Y-76353200D03*
X48760000Y-76353200D03*
X49260000Y-76353200D03*
D24*
X50215000Y-77308200D03*
X50215000Y-77808200D03*
X50215000Y-78308200D03*
X50215000Y-78808200D03*
X50215000Y-79308200D03*
D25*
X49260000Y-80263200D03*
X48760000Y-80263200D03*
X48260000Y-80263200D03*
X47760000Y-80263200D03*
X47260000Y-80263200D03*
%TD*%
D26*
%TO.C,U2*%
X39075000Y-94207800D03*
X38425000Y-94207800D03*
X37775000Y-94207800D03*
X37125000Y-94207800D03*
D27*
X36145000Y-93227800D03*
X36145000Y-92577800D03*
X36145000Y-91927800D03*
X36145000Y-91277800D03*
D26*
X37125000Y-90297800D03*
X37775000Y-90297800D03*
X38425000Y-90297800D03*
X39075000Y-90297800D03*
D27*
X40055000Y-91277800D03*
X40055000Y-91927800D03*
X40055000Y-92577800D03*
X40055000Y-93227800D03*
%TD*%
M02*
