M48
; DRILL file {KiCad (5.1.8)-1} date 04/18/21 19:44:02
; FORMAT={2:4/ absolute / inch / suppress leading zeros}
; #@! TF.CreationDate,2021-04-18T19:44:02-04:00
; #@! TF.GenerationSoftware,Kicad,Pcbnew,(5.1.8)-1
; #@! TF.FileFunction,Plated,1,2,PTH
FMAT,2
INCH,TZ
T1C0.0157
T2C0.0472
T3C0.0630
%
G90
G05
T1
X12870Y-33670
X12870Y-34480
X12909Y-31719
X13190Y-36880
X14140Y-29790
X14140Y-30230
X15384Y-34496
X15840Y-39220
X16440Y-30713
X16456Y-32137
X16504Y-32528
X16506Y-33158
X16982Y-32523
X17300Y-38540
X18095Y-28545
X18095Y-28925
X18095Y-29295
X18466Y-39140
X18785Y-29561
X19370Y-39155
X19780Y-39310
X20020Y-31753
X20350Y-32465
X20540Y-38685
X21380Y-34290
X22627Y-33418
X23402Y-33665
X24308Y-34182
X24718Y-31642
X25068Y-32402
X30538Y-31882
X30558Y-34322
X30558Y-35172
T2
X24756Y-36860
X25740Y-36860
X21936Y-36860
X22920Y-36860
X27556Y-36860
X28540Y-36860
T3
X22480Y-35745
X22675Y-28965
X20490Y-39680
X15206Y-32328
X16935Y-34005
T0
M30
