G04 #@! TF.GenerationSoftware,KiCad,Pcbnew,5.1.7-a382d34a8~87~ubuntu20.04.1*
G04 #@! TF.CreationDate,2021-03-22T20:15:53-04:00*
G04 #@! TF.ProjectId,SystemHitLInterface,53797374-656d-4486-9974-4c496e746572,rev?*
G04 #@! TF.SameCoordinates,Original*
G04 #@! TF.FileFunction,Soldermask,Bot*
G04 #@! TF.FilePolarity,Negative*
%FSLAX46Y46*%
G04 Gerber Fmt 4.6, Leading zero omitted, Abs format (unit mm)*
G04 Created by KiCad (PCBNEW 5.1.7-a382d34a8~87~ubuntu20.04.1) date 2021-03-22 20:15:53*
%MOMM*%
%LPD*%
G01*
G04 APERTURE LIST*
%ADD10C,4.750200*%
%ADD11C,1.502000*%
%ADD12O,1.802000X1.802000*%
%ADD13O,4.402000X1.902000*%
%ADD14O,3.902000X1.902000*%
%ADD15C,1.802000*%
%ADD16O,1.902000X1.202000*%
%ADD17O,2.302000X1.202000*%
%ADD18C,0.100000*%
G04 APERTURE END LIST*
D10*
X102616000Y-88442800D03*
X102819200Y-122936000D03*
G36*
G01*
X144638600Y-118200400D02*
X144638600Y-116800400D01*
G75*
G02*
X144689600Y-116749400I51000J0D01*
G01*
X146089600Y-116749400D01*
G75*
G02*
X146140600Y-116800400I0J-51000D01*
G01*
X146140600Y-118200400D01*
G75*
G02*
X146089600Y-118251400I-51000J0D01*
G01*
X144689600Y-118251400D01*
G75*
G02*
X144638600Y-118200400I0J51000D01*
G01*
G37*
D11*
X147929600Y-117500400D03*
X145389600Y-120040400D03*
X147929600Y-120040400D03*
X145389600Y-122580400D03*
X147929600Y-122580400D03*
G36*
G01*
X103239000Y-129120000D02*
X103239000Y-127420000D01*
G75*
G02*
X103290000Y-127369000I51000J0D01*
G01*
X104990000Y-127369000D01*
G75*
G02*
X105041000Y-127420000I0J-51000D01*
G01*
X105041000Y-129120000D01*
G75*
G02*
X104990000Y-129171000I-51000J0D01*
G01*
X103290000Y-129171000D01*
G75*
G02*
X103239000Y-129120000I0J51000D01*
G01*
G37*
D12*
X101600000Y-128270000D03*
X104140000Y-130810000D03*
X101600000Y-130810000D03*
X154127200Y-128727200D03*
X151587200Y-128727200D03*
X154127200Y-131267200D03*
G36*
G01*
X152488200Y-130417200D02*
X152488200Y-132117200D01*
G75*
G02*
X152437200Y-132168200I-51000J0D01*
G01*
X150737200Y-132168200D01*
G75*
G02*
X150686200Y-132117200I0J51000D01*
G01*
X150686200Y-130417200D01*
G75*
G02*
X150737200Y-130366200I51000J0D01*
G01*
X152437200Y-130366200D01*
G75*
G02*
X152488200Y-130417200I0J-51000D01*
G01*
G37*
D13*
X112217200Y-120853200D03*
D14*
X112217200Y-126853200D03*
G36*
G01*
X102450000Y-80911000D02*
X100750000Y-80911000D01*
G75*
G02*
X100699000Y-80860000I0J51000D01*
G01*
X100699000Y-79160000D01*
G75*
G02*
X100750000Y-79109000I51000J0D01*
G01*
X102450000Y-79109000D01*
G75*
G02*
X102501000Y-79160000I0J-51000D01*
G01*
X102501000Y-80860000D01*
G75*
G02*
X102450000Y-80911000I-51000J0D01*
G01*
G37*
D12*
X101600000Y-82550000D03*
X104140000Y-80010000D03*
X104140000Y-82550000D03*
G36*
G01*
X142964600Y-80036400D02*
X142964600Y-78764400D01*
G75*
G02*
X143229600Y-78499400I265000J0D01*
G01*
X144501600Y-78499400D01*
G75*
G02*
X144766600Y-78764400I0J-265000D01*
G01*
X144766600Y-80036400D01*
G75*
G02*
X144501600Y-80301400I-265000J0D01*
G01*
X143229600Y-80301400D01*
G75*
G02*
X142964600Y-80036400I0J265000D01*
G01*
G37*
D15*
X143865600Y-81900400D03*
X143865600Y-84400400D03*
X143865600Y-86900400D03*
X143865600Y-89400400D03*
X143865600Y-91900400D03*
X146365600Y-79400400D03*
X146365600Y-81900400D03*
X146365600Y-84400400D03*
X146365600Y-86900400D03*
X146365600Y-89400400D03*
X146365600Y-91900400D03*
X153545600Y-79400400D03*
X153545600Y-91900400D03*
D16*
X128213200Y-78528600D03*
X133813200Y-78528600D03*
D17*
X131013200Y-80678600D03*
G36*
G01*
X119495000Y-134200000D02*
X119495000Y-132500000D01*
G75*
G02*
X119546000Y-132449000I51000J0D01*
G01*
X121246000Y-132449000D01*
G75*
G02*
X121297000Y-132500000I0J-51000D01*
G01*
X121297000Y-134200000D01*
G75*
G02*
X121246000Y-134251000I-51000J0D01*
G01*
X119546000Y-134251000D01*
G75*
G02*
X119495000Y-134200000I0J51000D01*
G01*
G37*
G36*
G01*
X124219400Y-134250800D02*
X124219400Y-132550800D01*
G75*
G02*
X124270400Y-132499800I51000J0D01*
G01*
X125970400Y-132499800D01*
G75*
G02*
X126021400Y-132550800I0J-51000D01*
G01*
X126021400Y-134250800D01*
G75*
G02*
X125970400Y-134301800I-51000J0D01*
G01*
X124270400Y-134301800D01*
G75*
G02*
X124219400Y-134250800I0J51000D01*
G01*
G37*
G36*
G01*
X129147000Y-134250800D02*
X129147000Y-132550800D01*
G75*
G02*
X129198000Y-132499800I51000J0D01*
G01*
X130898000Y-132499800D01*
G75*
G02*
X130949000Y-132550800I0J-51000D01*
G01*
X130949000Y-134250800D01*
G75*
G02*
X130898000Y-134301800I-51000J0D01*
G01*
X129198000Y-134301800D01*
G75*
G02*
X129147000Y-134250800I0J51000D01*
G01*
G37*
D18*
G36*
X144767765Y-80034774D02*
G01*
X144768600Y-80036400D01*
X144768600Y-80118497D01*
X144768590Y-80118693D01*
X144764601Y-80159196D01*
X144764525Y-80159581D01*
X144754499Y-80192633D01*
X144754349Y-80192995D01*
X144738072Y-80223446D01*
X144737854Y-80223772D01*
X144715945Y-80250468D01*
X144715668Y-80250745D01*
X144688972Y-80272654D01*
X144688646Y-80272872D01*
X144658195Y-80289149D01*
X144657833Y-80289299D01*
X144624781Y-80299325D01*
X144624396Y-80299401D01*
X144583893Y-80303390D01*
X144583697Y-80303400D01*
X144501600Y-80303400D01*
X144499868Y-80302400D01*
X144499868Y-80300400D01*
X144501404Y-80299410D01*
X144552904Y-80294338D01*
X144602242Y-80279371D01*
X144647710Y-80255068D01*
X144687562Y-80222362D01*
X144720268Y-80182510D01*
X144744571Y-80137042D01*
X144759538Y-80087704D01*
X144764610Y-80036204D01*
X144765775Y-80034578D01*
X144767765Y-80034774D01*
G37*
G36*
X142966590Y-80036204D02*
G01*
X142971662Y-80087704D01*
X142986629Y-80137042D01*
X143010932Y-80182510D01*
X143043638Y-80222362D01*
X143083490Y-80255068D01*
X143128958Y-80279371D01*
X143178296Y-80294338D01*
X143229796Y-80299410D01*
X143231422Y-80300575D01*
X143231226Y-80302565D01*
X143229600Y-80303400D01*
X143147503Y-80303400D01*
X143147307Y-80303390D01*
X143106804Y-80299401D01*
X143106419Y-80299325D01*
X143073367Y-80289299D01*
X143073005Y-80289149D01*
X143042554Y-80272872D01*
X143042228Y-80272654D01*
X143015532Y-80250745D01*
X143015255Y-80250468D01*
X142993346Y-80223772D01*
X142993128Y-80223446D01*
X142976851Y-80192995D01*
X142976701Y-80192633D01*
X142966675Y-80159581D01*
X142966599Y-80159196D01*
X142962610Y-80118693D01*
X142962600Y-80118497D01*
X142962600Y-80036400D01*
X142963600Y-80034668D01*
X142965600Y-80034668D01*
X142966590Y-80036204D01*
G37*
G36*
X143231332Y-78498400D02*
G01*
X143231332Y-78500400D01*
X143229796Y-78501390D01*
X143178296Y-78506462D01*
X143128958Y-78521429D01*
X143083490Y-78545732D01*
X143043638Y-78578438D01*
X143010932Y-78618290D01*
X142986629Y-78663758D01*
X142971662Y-78713096D01*
X142966590Y-78764596D01*
X142965425Y-78766222D01*
X142963435Y-78766026D01*
X142962600Y-78764400D01*
X142962600Y-78682303D01*
X142962610Y-78682107D01*
X142966599Y-78641604D01*
X142966675Y-78641219D01*
X142976701Y-78608167D01*
X142976851Y-78607805D01*
X142993128Y-78577354D01*
X142993346Y-78577028D01*
X143015255Y-78550332D01*
X143015532Y-78550055D01*
X143042228Y-78528146D01*
X143042554Y-78527928D01*
X143073005Y-78511651D01*
X143073367Y-78511501D01*
X143106419Y-78501475D01*
X143106804Y-78501399D01*
X143147307Y-78497410D01*
X143147503Y-78497400D01*
X143229600Y-78497400D01*
X143231332Y-78498400D01*
G37*
G36*
X144583893Y-78497410D02*
G01*
X144624396Y-78501399D01*
X144624781Y-78501475D01*
X144657833Y-78511501D01*
X144658195Y-78511651D01*
X144688646Y-78527928D01*
X144688972Y-78528146D01*
X144715668Y-78550055D01*
X144715945Y-78550332D01*
X144737854Y-78577028D01*
X144738072Y-78577354D01*
X144754349Y-78607805D01*
X144754499Y-78608167D01*
X144764525Y-78641219D01*
X144764601Y-78641604D01*
X144768590Y-78682107D01*
X144768600Y-78682303D01*
X144768600Y-78764400D01*
X144767600Y-78766132D01*
X144765600Y-78766132D01*
X144764610Y-78764596D01*
X144759538Y-78713096D01*
X144744571Y-78663758D01*
X144720268Y-78618290D01*
X144687562Y-78578438D01*
X144647710Y-78545732D01*
X144602242Y-78521429D01*
X144552904Y-78506462D01*
X144501404Y-78501390D01*
X144499778Y-78500225D01*
X144499974Y-78498235D01*
X144501600Y-78497400D01*
X144583697Y-78497400D01*
X144583893Y-78497410D01*
G37*
M02*
