G04 #@! TF.GenerationSoftware,KiCad,Pcbnew,5.1.7-a382d34a8~87~ubuntu20.04.1*
G04 #@! TF.CreationDate,2021-03-22T20:15:53-04:00*
G04 #@! TF.ProjectId,SystemHitLInterface,53797374-656d-4486-9974-4c496e746572,rev?*
G04 #@! TF.SameCoordinates,Original*
G04 #@! TF.FileFunction,Paste,Top*
G04 #@! TF.FilePolarity,Positive*
%FSLAX46Y46*%
G04 Gerber Fmt 4.6, Leading zero omitted, Abs format (unit mm)*
G04 Created by KiCad (PCBNEW 5.1.7-a382d34a8~87~ubuntu20.04.1) date 2021-03-22 20:15:53*
%MOMM*%
%LPD*%
G01*
G04 APERTURE LIST*
%ADD10R,1.300000X0.700000*%
%ADD11R,0.700000X1.300000*%
%ADD12R,1.200000X2.000000*%
%ADD13R,1.780000X3.500000*%
%ADD14R,1.250000X1.000000*%
%ADD15R,0.650000X1.060000*%
%ADD16R,1.000000X1.600000*%
%ADD17R,1.000000X1.250000*%
%ADD18R,1.200000X1.200000*%
%ADD19R,0.900000X0.800000*%
%ADD20R,1.600000X0.550000*%
%ADD21R,0.550000X1.600000*%
%ADD22R,1.750000X0.450000*%
%ADD23R,0.450000X1.500000*%
%ADD24R,1.000000X3.200000*%
%ADD25R,2.159000X1.778000*%
%ADD26R,2.500000X0.900000*%
G04 APERTURE END LIST*
D10*
X140919200Y-100467200D03*
X140919200Y-98567200D03*
D11*
X154564000Y-109829600D03*
X156464000Y-109829600D03*
X105953600Y-93218000D03*
X104053600Y-93218000D03*
D12*
X116598700Y-105412540D03*
X113398700Y-105412540D03*
D13*
X118351300Y-109347000D03*
X123631300Y-109347000D03*
D14*
X115493800Y-102727000D03*
X115493800Y-100727000D03*
D11*
X115816420Y-98724720D03*
X113916420Y-98724720D03*
X110030220Y-98709480D03*
X111930220Y-98709480D03*
D10*
X111222000Y-112146000D03*
X111222000Y-114046000D03*
D15*
X113149600Y-100611800D03*
X112199600Y-100611800D03*
X111249600Y-100611800D03*
X111249600Y-102811800D03*
X113149600Y-102811800D03*
X112199600Y-102811800D03*
D16*
X117970300Y-102997000D03*
X120970300Y-102997000D03*
D17*
X118494300Y-105346500D03*
X120494300Y-105346500D03*
D18*
X111222000Y-115796000D03*
X111222000Y-117996000D03*
X102325600Y-93332000D03*
X100125600Y-93332000D03*
D14*
X107274360Y-100616000D03*
X107274360Y-102616000D03*
G36*
G01*
X109336550Y-103031500D02*
X108824050Y-103031500D01*
G75*
G02*
X108605300Y-102812750I0J218750D01*
G01*
X108605300Y-102375250D01*
G75*
G02*
X108824050Y-102156500I218750J0D01*
G01*
X109336550Y-102156500D01*
G75*
G02*
X109555300Y-102375250I0J-218750D01*
G01*
X109555300Y-102812750D01*
G75*
G02*
X109336550Y-103031500I-218750J0D01*
G01*
G37*
G36*
G01*
X109336550Y-101456500D02*
X108824050Y-101456500D01*
G75*
G02*
X108605300Y-101237750I0J218750D01*
G01*
X108605300Y-100800250D01*
G75*
G02*
X108824050Y-100581500I218750J0D01*
G01*
X109336550Y-100581500D01*
G75*
G02*
X109555300Y-100800250I0J-218750D01*
G01*
X109555300Y-101237750D01*
G75*
G02*
X109336550Y-101456500I-218750J0D01*
G01*
G37*
X139700000Y-106206800D03*
X139700000Y-104206800D03*
D17*
X154397200Y-111912400D03*
X156397200Y-111912400D03*
D14*
X134467600Y-111268000D03*
X134467600Y-113268000D03*
X134467600Y-109458000D03*
X134467600Y-107458000D03*
G36*
G01*
X122636800Y-82801750D02*
X122636800Y-83314250D01*
G75*
G02*
X122418050Y-83533000I-218750J0D01*
G01*
X121980550Y-83533000D01*
G75*
G02*
X121761800Y-83314250I0J218750D01*
G01*
X121761800Y-82801750D01*
G75*
G02*
X121980550Y-82583000I218750J0D01*
G01*
X122418050Y-82583000D01*
G75*
G02*
X122636800Y-82801750I0J-218750D01*
G01*
G37*
G36*
G01*
X124211800Y-82801750D02*
X124211800Y-83314250D01*
G75*
G02*
X123993050Y-83533000I-218750J0D01*
G01*
X123555550Y-83533000D01*
G75*
G02*
X123336800Y-83314250I0J218750D01*
G01*
X123336800Y-82801750D01*
G75*
G02*
X123555550Y-82583000I218750J0D01*
G01*
X123993050Y-82583000D01*
G75*
G02*
X124211800Y-82801750I0J-218750D01*
G01*
G37*
G36*
G01*
X124211800Y-84427350D02*
X124211800Y-84939850D01*
G75*
G02*
X123993050Y-85158600I-218750J0D01*
G01*
X123555550Y-85158600D01*
G75*
G02*
X123336800Y-84939850I0J218750D01*
G01*
X123336800Y-84427350D01*
G75*
G02*
X123555550Y-84208600I218750J0D01*
G01*
X123993050Y-84208600D01*
G75*
G02*
X124211800Y-84427350I0J-218750D01*
G01*
G37*
G36*
G01*
X122636800Y-84427350D02*
X122636800Y-84939850D01*
G75*
G02*
X122418050Y-85158600I-218750J0D01*
G01*
X121980550Y-85158600D01*
G75*
G02*
X121761800Y-84939850I0J218750D01*
G01*
X121761800Y-84427350D01*
G75*
G02*
X121980550Y-84208600I218750J0D01*
G01*
X122418050Y-84208600D01*
G75*
G02*
X122636800Y-84427350I0J-218750D01*
G01*
G37*
G36*
G01*
X121761800Y-86565450D02*
X121761800Y-86052950D01*
G75*
G02*
X121980550Y-85834200I218750J0D01*
G01*
X122418050Y-85834200D01*
G75*
G02*
X122636800Y-86052950I0J-218750D01*
G01*
X122636800Y-86565450D01*
G75*
G02*
X122418050Y-86784200I-218750J0D01*
G01*
X121980550Y-86784200D01*
G75*
G02*
X121761800Y-86565450I0J218750D01*
G01*
G37*
G36*
G01*
X123336800Y-86565450D02*
X123336800Y-86052950D01*
G75*
G02*
X123555550Y-85834200I218750J0D01*
G01*
X123993050Y-85834200D01*
G75*
G02*
X124211800Y-86052950I0J-218750D01*
G01*
X124211800Y-86565450D01*
G75*
G02*
X123993050Y-86784200I-218750J0D01*
G01*
X123555550Y-86784200D01*
G75*
G02*
X123336800Y-86565450I0J218750D01*
G01*
G37*
D19*
X136922000Y-79095600D03*
X138922000Y-78145600D03*
X138922000Y-80045600D03*
D18*
X138768000Y-133654800D03*
X136568000Y-133654800D03*
X143408400Y-133654800D03*
X141208400Y-133654800D03*
X145983600Y-133604000D03*
X148183600Y-133604000D03*
D13*
X133956400Y-86055200D03*
X128676400Y-86055200D03*
D11*
X136718000Y-131114800D03*
X138618000Y-131114800D03*
X142428000Y-131114800D03*
X140528000Y-131114800D03*
X146238000Y-131114800D03*
X144338000Y-131114800D03*
D10*
X138531600Y-100518000D03*
X138531600Y-98618000D03*
X135636000Y-98618000D03*
X135636000Y-100518000D03*
D20*
X143273200Y-105708800D03*
X143273200Y-106508800D03*
X143273200Y-107308800D03*
X143273200Y-108108800D03*
X143273200Y-108908800D03*
X143273200Y-109708800D03*
X143273200Y-110508800D03*
X143273200Y-111308800D03*
D21*
X144723200Y-112758800D03*
X145523200Y-112758800D03*
X146323200Y-112758800D03*
X147123200Y-112758800D03*
X147923200Y-112758800D03*
X148723200Y-112758800D03*
X149523200Y-112758800D03*
X150323200Y-112758800D03*
D20*
X151773200Y-111308800D03*
X151773200Y-110508800D03*
X151773200Y-109708800D03*
X151773200Y-108908800D03*
X151773200Y-108108800D03*
X151773200Y-107308800D03*
X151773200Y-106508800D03*
X151773200Y-105708800D03*
D21*
X150323200Y-104258800D03*
X149523200Y-104258800D03*
X148723200Y-104258800D03*
X147923200Y-104258800D03*
X147123200Y-104258800D03*
X146323200Y-104258800D03*
X145523200Y-104258800D03*
X144723200Y-104258800D03*
D22*
X111055600Y-79493400D03*
X111055600Y-80143400D03*
X111055600Y-80793400D03*
X111055600Y-81443400D03*
X111055600Y-82093400D03*
X111055600Y-82743400D03*
X111055600Y-83393400D03*
X111055600Y-84043400D03*
X111055600Y-84693400D03*
X111055600Y-85343400D03*
X111055600Y-85993400D03*
X111055600Y-86643400D03*
X111055600Y-87293400D03*
X111055600Y-87943400D03*
X118255600Y-87943400D03*
X118255600Y-87293400D03*
X118255600Y-86643400D03*
X118255600Y-85993400D03*
X118255600Y-85343400D03*
X118255600Y-84693400D03*
X118255600Y-84043400D03*
X118255600Y-83393400D03*
X118255600Y-82743400D03*
X118255600Y-82093400D03*
X118255600Y-81443400D03*
X118255600Y-80793400D03*
X118255600Y-80143400D03*
X118255600Y-79493400D03*
D23*
X131013200Y-78778600D03*
X131663200Y-78778600D03*
X130363200Y-78778600D03*
X132313200Y-78778600D03*
X129713200Y-78778600D03*
D19*
X114519200Y-113502400D03*
X114519200Y-115402400D03*
X116519200Y-114452400D03*
D24*
X115774400Y-109474000D03*
X109574400Y-109474000D03*
D25*
X102362000Y-101041200D03*
X102362000Y-105105200D03*
D26*
X107340400Y-107672800D03*
X107340400Y-104772800D03*
M02*
